<svg width="91" height="39" viewBox="0 0 91 39" fill="none" xmlns="http://www.w3.org/2000/svg">
<path d="M1 38C3.11286 37.5001 9.20286 36.2401 13.4286 35.0595C17.6543 33.8788 21.6314 33.0119 25.8571 31.0551C30.0829 29.0982 34.06 25.034 38.2857 23.5486C42.5114 22.0633 46.4886 23.8989 50.7143 22.3178C54.94 20.7366 58.9171 15.0537 63.1429 14.2479C67.3686 13.4421 71.3457 19.6597 75.5714 17.5775C79.7971 15.4954 87.8871 4.14818 90 1.5" stroke="#FFA730" stroke-width="2"/>
<path d="M1 38.2595C3.0944 37.7561 9.1312 36.487 13.32 35.2978C17.5088 34.1087 21.4512 33.2355 25.64 31.2645C29.8288 29.2936 33.7712 25.2 37.96 23.704C42.1488 22.2079 46.0912 24.0568 50.28 22.4642C54.4688 20.8717 58.4112 15.1478 62.6 14.3362C66.7888 13.5245 70.7312 19.787 74.92 17.6898C79.1088 15.5927 88.4056 4.66727 90.5 2L91 39H1V38.2595Z" fill="url(#paint0_linear_335_495)" fill-opacity="0.3"/>
<defs>
<linearGradient id="paint0_linear_335_495" x1="46" y1="2" x2="46" y2="39" gradientUnits="userSpaceOnUse">
<stop stop-color="#FFA730"/>
<stop offset="1" stop-color="#FFA730" stop-opacity="0"/>
</linearGradient>
</defs>
</svg>
