<svg width="90" height="34" viewBox="0 0 90 34" fill="none" xmlns="http://www.w3.org/2000/svg">
<path d="M1 31.4507C3.0944 31.0131 9.1312 29.8654 13.32 28.8771C17.5088 27.8887 21.4512 27.5686 25.64 25.6369C29.8288 23.7053 33.7712 18.8806 37.96 17.5145C42.1488 16.1485 46.0912 20.379 50.28 17.6015C54.4688 14.824 58.4112 2.65639 62.6 1.17622C66.7888 -0.303948 70.7312 8.00126 74.92 8.89463C79.1088 9.78801 86.9056 6.91875 89 6.5V32.1616H1V31.4507Z" fill="url(#paint0_linear_334_465)" fill-opacity="0.3"/>
<path d="M1 32.0721C3.13714 31.6257 9.29714 30.4545 13.5714 29.446C17.8457 28.4375 21.8686 28.1108 26.1429 26.1397C30.4171 24.1687 34.44 19.2455 38.7143 17.8516C42.9886 16.4577 47.0114 20.7745 51.2857 17.9403C55.56 15.1061 59.5829 2.69019 63.8571 1.17982C68.1314 -0.330559 72.1543 8.14414 76.4286 9.05575C80.7029 9.96736 86.8629 6.96952 89 6.54222" stroke="#FFA730" stroke-width="2"/>
<defs>
<linearGradient id="paint0_linear_334_465" x1="45" y1="1" x2="45" y2="32.1616" gradientUnits="userSpaceOnUse">
<stop stop-color="#FFA730"/>
<stop offset="1" stop-color="#FFA730" stop-opacity="0"/>
</linearGradient>
</defs>
</svg>
