<svg width="24" height="24" xmlns="http://www.w3.org/2000/svg"><g id="Icons/Hubs/Competencies" stroke="none" stroke-width="1" fill="none" fill-rule="evenodd"><path d="M19.738 11.048h-1.357v-3.62c0-.995-.814-1.809-1.81-1.809h-3.619V4.262a2.263 2.263 0 00-4.523 0v1.357h-3.62c-.995 0-1.8.814-1.8 1.81v3.438h1.348A2.444 2.444 0 016.8 13.31a2.444 2.444 0 01-2.443 2.442H3v3.438c0 .996.814 1.81 1.81 1.81h3.438v-1.357A2.444 2.444 0 0110.69 17.2a2.444 2.444 0 012.443 2.443V21h3.438c.996 0 1.81-.814 1.81-1.81v-3.619h1.357a2.263 2.263 0 000-4.523z" id="Path" fill="#0074B6"/></g></svg>