<svg width="1366" height="518" viewBox="0 0 1366 518" fill="none" xmlns="http://www.w3.org/2000/svg">
<g opacity="0.15">
<mask id="mask0_19_2185" style="mask-type:alpha" maskUnits="userSpaceOnUse" x="-182" y="43" width="1769" height="399">
<path d="M-181 64.3178C-150.364 41.0404 -75.1372 39.9205 -24.5886 53.599C25.9599 67.2774 59.3185 91.1148 96.4215 112.232C133.525 133.43 181.01 153.748 239.217 155.508C313.593 157.747 381.161 128.791 455.367 132.55C513.064 135.43 556.805 157.587 581.313 180.945C595.099 194.143 600.035 209.342 611.268 223.02C663.008 284.853 579.441 339.887 647.35 378.442C720.875 420.198 803.08 418.038 843.587 410.359C895.497 400.52 1010.55 367.404 978.894 302.211C965.959 275.734 955.066 248.617 958.641 221.5C963.917 180.945 1031.83 141.509 1118.29 138.869C1177.51 137.11 1238.96 151.508 1294.27 141.509C1331.37 134.79 1357.07 117.672 1366.26 99.4339C1375.45 81.1959 1369.84 61.9981 1359.11 44.0001" stroke="white" stroke-miterlimit="10"/>
<path d="M-180.83 66.157C-147.301 42.8796 -70.8824 40.7999 -18.2915 54.4783C33.1081 67.8368 67.3177 91.9141 103.57 113.512C139.481 134.869 184.584 155.507 240.749 158.307C312.572 161.906 379.459 135.509 453.325 139.429C512.043 142.548 557.145 163.186 584.207 185.744C599.865 198.702 607.013 214.06 619.267 228.139C671.178 287.892 592.036 341.646 658.243 379.482C729.555 420.117 809.718 418.917 850.566 411.718C902.305 402.519 1012.76 370.523 985.191 307.57C973.788 281.573 964.598 254.696 968.512 227.819C973.958 188.303 1038.8 149.988 1122.03 146.548C1179.56 144.148 1240.32 157.267 1295.12 147.428C1332.56 140.709 1359.11 124.311 1370.18 106.633C1381.24 88.7945 1378.52 69.6767 1369.84 51.3587" stroke="#FBFBFB" stroke-miterlimit="10"/>
<path d="M-180.49 67.9975C-144.238 44.8001 -66.4576 41.6805 -11.6541 55.4389C40.5965 68.5575 75.6571 92.7948 111.228 114.872C145.949 136.47 188.498 157.268 242.621 161.187C311.721 166.147 378.268 142.229 451.623 146.389C511.192 149.748 557.826 168.786 587.61 190.624C605.141 203.422 614.672 218.861 627.777 233.419C679.857 291.092 604.971 343.647 669.645 380.602C738.746 420.118 816.866 419.958 857.884 413.159C909.283 404.68 1015.32 373.723 991.999 312.93C982.128 287.493 974.639 260.776 978.724 234.139C984.34 195.663 1046.12 158.547 1126.28 154.228C1182.28 151.188 1242.19 162.947 1296.31 153.348C1334.1 146.709 1361.5 130.951 1374.26 113.832C1387.37 96.3144 1387.37 77.2766 1380.73 58.7986" stroke="#F6F6F6" stroke-miterlimit="10"/>
<path d="M-180.319 69.8371C-141.344 46.6397 -62.2023 42.5601 -5.18622 56.3186C47.9153 69.1971 83.8268 93.6744 118.547 116.152C152.076 137.909 192.242 159.027 244.323 163.986C310.87 170.226 376.736 148.868 449.751 153.188C510.171 156.787 558.337 174.225 590.844 195.423C610.247 207.982 621.99 223.58 636.117 238.618C688.027 294.292 617.735 345.486 680.879 381.722C747.936 420.118 823.844 420.918 865.202 414.598C916.432 406.839 1018.04 376.923 998.637 318.369C990.297 293.412 984.851 266.935 988.936 240.618C994.722 203.182 1053.44 167.266 1130.37 162.067C1184.83 158.387 1243.72 168.786 1297.5 159.427C1335.63 152.788 1363.71 137.749 1378.35 121.111C1393.49 103.993 1396.22 85.0354 1391.62 66.3175" stroke="#F2F2F2" stroke-miterlimit="10"/>
<path d="M-180.149 71.5969C-138.451 48.4795 -57.9474 43.3601 1.11108 57.1986C55.0636 69.8372 91.8263 94.4744 125.866 117.512C158.203 139.429 195.817 160.787 245.855 166.866C309.849 174.465 375.205 155.668 447.709 160.147C508.98 163.987 558.847 179.905 593.908 200.303C615.183 212.701 629.309 228.379 644.116 243.898C695.856 297.572 630.16 347.486 691.601 382.922C756.446 420.118 830.142 421.958 871.84 416.118C922.899 408.999 1020.08 380.122 1004.76 323.809C997.956 299.251 994.212 273.094 998.467 247.017C1004.42 210.621 1060.25 175.825 1133.94 169.826C1186.88 165.506 1244.91 174.625 1298.18 165.506C1336.65 158.867 1365.58 144.469 1382.09 128.471C1399.28 111.673 1404.73 92.8746 1402.17 73.8368" stroke="#EEEEEE" stroke-miterlimit="10"/>
<path d="M-179.979 73.4369C-135.388 50.3195 -53.6929 44.2402 7.57812 58.0786C62.2114 70.4772 99.9952 95.2745 133.184 118.792C164.33 140.869 199.561 162.627 247.556 169.666C308.827 178.705 373.672 162.307 445.836 167.026C507.958 171.106 559.528 185.424 596.971 205.102C620.118 217.261 636.457 233.099 652.285 249.097C703.685 300.771 642.754 349.326 702.664 383.962C765.296 420.038 836.949 422.838 878.988 417.478C929.707 410.999 1022.8 383.162 1011.23 329.168C1006.13 305.091 1003.91 279.174 1008.51 253.337C1014.64 217.981 1067.4 184.304 1137.86 177.505C1189.26 172.546 1246.44 180.305 1299.2 171.426C1338.01 164.867 1367.96 151.108 1386.01 135.67C1405.24 119.272 1413.41 100.554 1412.9 81.2761" stroke="#E9E9E9" stroke-miterlimit="10"/>
<path d="M-179.809 75.2764C-132.494 52.239 -49.4379 45.1198 14.0456 58.9582C69.5299 71.1169 108.335 96.0741 140.672 120.071C170.627 142.309 203.305 164.306 249.428 172.465C308.146 182.864 372.311 169.026 444.134 173.905C507.107 178.225 560.379 190.943 600.375 209.901C625.564 221.9 643.946 237.818 660.795 254.216C711.684 303.891 655.689 351.085 714.067 385.002C774.657 419.958 844.097 423.717 886.306 418.838C936.685 413.078 1025.87 386.122 1018.04 334.447C1014.46 310.77 1014.12 285.173 1018.89 259.656C1025.19 225.42 1074.88 192.703 1142.28 185.184C1192.15 179.585 1248.32 186.064 1300.74 177.345C1339.88 170.786 1370.69 157.747 1390.6 142.869C1411.88 126.791 1422.77 108.153 1424.3 88.7149" stroke="#E5E5E5" stroke-miterlimit="10"/>
<path d="M-179.469 77.1167C-129.431 54.1593 -45.013 46.0002 20.5129 59.9186C76.8482 71.8373 116.504 96.9545 147.991 121.432C176.924 143.909 206.879 166.147 250.96 175.346C306.955 187.104 370.779 175.746 442.092 180.865C505.916 185.425 560.889 196.543 603.439 214.861C630.67 226.62 651.094 242.698 668.794 259.576C719.003 307.331 668.113 353.166 724.959 386.282C783.337 420.118 850.565 424.758 893.114 420.438C943.323 415.319 1042.38 388.602 1024.17 340.047C1015.66 317.09 1023.49 291.493 1028.42 266.216C1034.89 233.019 1081.69 201.423 1145.86 193.104C1194.19 186.784 1249.51 191.984 1301.25 183.505C1340.73 177.026 1372.56 164.627 1394 150.229C1417.49 134.55 1430.94 115.992 1434.51 96.2346" stroke="#E1E1E1" stroke-miterlimit="10"/>
<path d="M-179.298 78.876C-126.537 55.9186 -40.928 46.8796 26.9807 60.7181C83.9968 72.3968 124.674 97.6739 155.309 122.631C183.052 145.269 210.624 167.746 252.662 178.065C306.104 191.103 369.247 182.384 440.22 187.664C504.895 192.463 561.74 201.902 606.502 219.58C635.776 231.099 658.242 247.337 676.964 264.695C726.491 310.53 680.708 354.925 736.022 387.321C792.188 420.038 857.373 425.637 900.263 421.798C950.131 417.318 1046.63 391.721 1030.8 345.326C1023.15 322.769 1033.53 297.491 1038.63 272.454C1045.27 240.298 1089.01 209.741 1149.94 200.702C1196.92 193.743 1251.21 197.663 1302.44 189.424C1342.27 182.944 1375.11 171.266 1398.09 157.427C1423.79 142.069 1439.79 123.671 1445.4 103.673" stroke="#DCDCDC" stroke-miterlimit="10"/>
<path d="M-179.128 80.716C-123.473 57.8386 -36.6728 47.7597 33.2783 61.6781C91.1453 73.1169 132.844 98.554 162.628 123.991C189.349 146.709 214.198 169.586 254.194 180.945C304.913 195.343 367.716 189.184 438.178 194.623C503.703 199.663 562.421 207.502 609.566 224.46C640.882 235.739 665.391 252.217 685.134 269.975C733.81 313.89 693.303 356.925 746.915 388.441C801.038 420.038 863.841 426.597 907.071 423.238C956.598 419.398 1050.38 394.841 1036.93 350.766C1030.12 328.528 1042.89 303.651 1048.16 278.934C1054.8 247.817 1095.82 218.301 1153.52 208.542C1198.96 200.863 1252.4 203.582 1303.12 195.503C1343.29 189.104 1377.16 178.065 1401.83 164.787C1429.92 149.668 1448.47 131.35 1456.13 111.113" stroke="#D8D8D8" stroke-miterlimit="10"/>
<path d="M-178.958 82.5556C-120.581 59.6782 -32.4185 48.7194 39.7451 62.5578C98.293 73.8366 141.012 99.2737 169.946 125.271C195.476 148.148 217.942 171.346 255.896 183.744C304.061 199.502 366.183 195.823 436.305 201.502C502.682 206.782 563.272 212.941 612.799 229.259C646.158 240.298 672.539 256.936 693.303 275.094C741.128 317.089 705.897 358.685 757.978 389.481C809.888 419.958 870.648 427.477 914.219 424.597C963.576 421.398 1054.29 397.96 1043.57 356.125C1037.95 334.127 1052.76 309.73 1058.38 285.253C1065.18 255.176 1103.31 226.619 1157.6 216.221C1201.68 207.822 1253.93 209.261 1304.31 201.422C1344.82 195.103 1379.71 184.704 1405.92 171.906C1436.04 157.267 1457.15 139.029 1466.85 118.552" stroke="#D4D4D4" stroke-miterlimit="10"/>
<path d="M-178.618 84.3953C-117.517 61.5979 -27.9931 49.5992 46.3831 63.5177C105.782 74.5565 149.523 100.154 177.605 126.631C202.114 149.668 221.856 173.105 257.768 186.624C303.211 203.742 364.822 202.622 434.603 208.381C501.831 213.981 564.463 218.38 616.203 234.139C651.604 244.937 680.027 261.735 701.813 280.373C748.617 320.449 718.832 360.684 769.381 390.681C819.079 420.038 877.626 428.437 921.537 426.117C970.554 423.557 1041.36 401.24 1050.21 361.564C1055.14 339.807 1062.8 315.889 1068.42 291.652C1075.4 262.615 1110.46 235.018 1161.69 223.98C1204.23 214.781 1255.63 215.101 1305.33 207.422C1346.35 201.102 1382.09 191.423 1410 179.185C1442.34 164.946 1466 146.788 1477.74 126.071" stroke="#CFCFCF" stroke-miterlimit="10"/>
<path d="M-178.447 86.1553C-114.623 63.3578 -23.9081 50.4793 52.6806 64.3177C112.76 75.1965 157.522 100.874 184.754 127.831C208.071 151.028 225.431 174.785 259.3 189.344C302.19 207.822 363.29 209.261 432.561 215.181C500.64 221.02 565.144 223.74 619.097 238.858C656.711 249.337 686.835 266.455 709.812 285.493C755.595 323.729 731.257 362.524 780.274 391.641C827.759 419.878 884.264 429.157 928.515 427.397C977.192 425.477 1044.93 403.96 1056.67 366.844C1063.48 345.406 1072.5 321.889 1078.46 297.972C1085.44 269.975 1117.6 243.258 1165.6 231.659C1206.62 221.66 1257.17 220.86 1306.35 213.421C1347.71 207.182 1384.47 198.143 1413.92 186.464C1448.47 172.626 1474.68 154.548 1488.46 133.51" stroke="#CBCBCB" stroke-miterlimit="10"/>
<path d="M-178.277 87.9949C-111.56 65.2775 -19.6535 51.439 59.1478 65.2775C120.078 75.9163 165.861 101.753 192.072 129.19C214.368 152.548 229.005 176.545 260.832 192.223C301.168 211.981 361.588 216.061 430.518 222.14C499.448 228.219 565.825 229.259 622.16 243.737C661.816 253.976 693.813 271.254 717.811 290.772C762.573 327.168 743.681 364.444 791.166 392.841C836.439 419.958 890.732 430.197 935.323 428.917C983.659 427.557 1048.5 406.999 1062.97 372.283C1071.65 351.165 1082.03 328.048 1088.33 304.371C1095.48 277.414 1124.75 251.577 1169.51 239.418C1209.17 228.619 1258.7 226.619 1307.37 219.42C1349.07 213.181 1387.03 204.942 1417.83 193.663C1454.77 180.225 1483.36 162.147 1499.19 140.949" stroke="#C7C7C7" stroke-miterlimit="10"/>
<path d="M-178.107 89.8352C-108.667 67.1178 -15.5688 52.3994 65.6153 66.1579C127.227 76.6367 174.201 102.474 199.561 130.471C220.835 153.988 232.749 178.305 262.704 195.023C300.317 216.141 360.227 222.78 428.816 229.02C498.597 235.419 566.846 234.619 625.564 248.617C667.263 258.536 701.132 276.134 726.321 295.972C769.892 330.528 756.616 366.284 802.399 393.961C845.459 419.958 897.71 431.077 942.642 430.437C990.808 429.717 1052.76 410.039 1069.61 377.803C1080.5 357.085 1091.9 334.288 1098.37 310.85C1105.52 284.933 1131.9 259.976 1173.6 247.258C1211.72 235.659 1260.4 232.539 1308.57 225.5C1350.6 219.341 1389.58 211.742 1422.09 201.023C1461.23 188.064 1492.38 169.986 1510.25 148.549" stroke="#C2C2C2" stroke-miterlimit="10"/>
<path d="M-177.936 91.6743C-105.602 69.0369 -11.3132 53.2786 72.0834 67.0371C134.546 77.3559 182.541 103.273 206.88 131.75C227.133 155.347 236.494 179.984 264.236 197.822C299.297 220.3 358.696 229.499 426.774 235.898C497.406 242.537 567.698 240.058 628.628 253.416C672.539 263.015 708.11 280.853 734.491 301.171C777.04 333.967 769.211 368.203 813.462 395.08C854.48 419.958 904.348 431.956 949.62 431.876C997.446 431.716 1056.84 412.998 1076.08 383.162C1089.18 362.764 1101.61 340.366 1108.41 317.249C1115.73 292.372 1138.88 268.215 1177.51 255.016C1213.94 242.537 1261.93 238.378 1309.59 231.499C1351.97 225.419 1392.13 218.54 1426 208.301C1467.53 195.743 1501.06 177.745 1520.97 155.987" stroke="#BEBEBE" stroke-miterlimit="10"/>
<path d="M-177.596 93.4347C-102.709 70.8773 -7.05848 54.2391 78.3805 67.9176C141.524 77.9965 190.711 104.074 214.198 133.03C233.43 156.788 240.238 181.745 265.938 200.623C298.446 224.38 357.164 236.219 425.072 242.778C496.555 249.737 568.719 245.418 631.862 258.216C677.815 267.495 715.088 285.653 742.66 306.371C783.848 337.327 781.806 370.044 824.525 396.121C863.33 419.878 911.155 432.757 956.768 433.237C1004.25 433.717 1061.44 415.959 1082.54 388.522C1098.03 368.524 1111.31 346.446 1118.29 323.569C1125.6 299.812 1145.86 276.294 1181.43 262.616C1216.32 249.257 1263.29 244.058 1310.44 237.339C1353.16 231.259 1394.35 225.18 1429.92 215.421C1473.66 203.342 1509.74 185.344 1531.69 163.347" stroke="#BABABA" stroke-miterlimit="10"/>
<path d="M-177.427 95.2747C-99.6464 72.7172 -2.80409 55.1992 84.8475 68.7977C148.842 78.7166 199.05 104.794 221.516 134.31C239.727 158.228 243.982 183.425 267.639 203.423C297.594 228.54 355.631 242.938 423.2 249.657C495.533 256.857 569.569 250.777 635.095 263.016C683.091 271.975 722.066 290.533 751 311.57C790.996 340.767 794.74 371.884 835.758 397.241C872.52 419.798 918.133 433.637 963.916 434.677C1011.06 435.716 1066.03 419.078 1089.18 393.881C1107.05 374.363 1121.18 352.526 1128.5 329.888C1135.82 307.171 1152.84 284.453 1185.51 270.295C1218.7 255.977 1265 249.817 1311.63 243.338C1354.69 237.339 1396.9 231.979 1434 222.62C1480.12 211.022 1518.59 192.944 1542.59 170.786" stroke="#B5B5B5" stroke-miterlimit="10"/>
<path d="M-177.256 97.1139C-96.7525 74.6365 1.28099 56.1585 91.3153 69.757C155.99 79.5159 207.39 105.673 229.005 135.75C246.195 159.827 247.727 185.344 269.342 206.382C296.743 232.859 354.27 249.817 421.328 256.696C494.513 264.215 570.421 256.296 638.329 268.055C688.367 276.694 729.044 295.572 759.339 317.009C798.144 344.446 807.505 373.963 846.991 398.6C881.541 420.038 924.941 434.756 971.235 436.356C1018.21 437.956 1070.97 422.438 1095.82 399.56C1116.41 380.522 1131.05 358.925 1138.71 336.607C1146.03 314.93 1159.98 292.932 1189.77 278.374C1221.08 263.095 1266.87 255.976 1312.99 249.657C1356.39 243.738 1399.79 239.098 1438.26 230.219C1486.59 219.1 1527.61 201.022 1553.65 178.545" stroke="#B1B1B1" stroke-miterlimit="10"/>
<path d="M-177.086 98.9541C-93.8595 76.4767 5.53566 57.1188 97.7826 70.6373C163.138 80.2363 215.899 106.393 236.323 137.03C252.492 161.187 251.471 187.024 271.043 209.182C295.722 236.939 352.738 256.536 419.455 263.496C493.491 271.335 571.271 261.576 641.393 272.775C693.643 281.094 735.852 300.372 767.339 322.049C804.782 347.726 819.929 375.723 857.713 399.56C890.221 419.878 931.409 435.476 977.873 437.636C1024.51 439.796 1075.4 425.557 1101.95 404.76C1125.43 386.282 1140.41 364.844 1148.24 342.767C1155.56 322.129 1166.11 300.931 1193.17 285.893C1222.45 269.655 1267.89 261.576 1313.5 255.417C1357.24 249.577 1401.66 245.658 1441.83 237.259C1492.55 226.62 1535.95 208.542 1564.03 185.824" stroke="#ADADAD" stroke-miterlimit="10"/>
<path d="M-176.915 100.714C-90.7957 78.3162 9.62064 58.1585 104.08 71.517C170.287 80.9559 224.069 107.193 243.472 138.309C258.789 162.627 254.875 188.784 272.405 211.981C294.531 241.098 350.866 263.255 417.243 270.375C492.13 278.534 571.952 266.935 644.286 277.574C698.579 285.573 742.15 305.251 775.338 327.248C811.42 351.166 832.354 377.563 868.606 400.6C898.901 419.798 937.876 436.196 984.851 438.996C1031.31 441.715 1080.16 428.837 1108.24 410.119C1134.79 392.361 1149.77 370.923 1158.11 349.086C1165.43 329.488 1172.75 309.01 1197.09 293.572C1224.32 276.374 1269.42 267.335 1314.35 261.336C1358.43 255.576 1403.88 252.377 1445.57 244.378C1498.51 234.219 1544.29 216.141 1574.58 193.183" stroke="#A8A8A8" stroke-miterlimit="10"/>
<path d="M-176.575 102.553C-87.7322 80.1559 14.0459 59.0383 110.718 72.3968C177.605 81.5958 232.579 107.993 251.131 139.589C265.427 164.066 258.96 190.464 274.448 214.781C293.85 245.257 349.845 269.975 415.711 277.254C491.449 285.653 573.144 272.294 647.86 282.373C704.196 290.052 749.298 310.21 784.018 332.448C818.738 354.685 845.459 379.482 880.18 401.72C908.262 419.798 945.195 437.076 992.34 440.435C1038.46 443.715 1085.44 432.356 1115.22 415.478C1145.01 398.6 1159.98 377.003 1168.49 355.485C1175.81 336.927 1179.56 317.249 1201.51 301.331C1226.53 283.093 1271.46 273.094 1315.88 267.415C1360.31 261.656 1406.94 259.336 1450.17 251.737C1505.31 242.058 1553.65 223.9 1585.99 200.702" stroke="#A4A4A4" stroke-miterlimit="10"/>
</mask>
<g mask="url(#mask0_19_2185)">
<rect x="1370.97" y="6.37207" width="518.258" height="1408.27" transform="rotate(90 1370.97 6.37207)" fill="#8C9FDD"/>
</g>
</g>
<rect x="-0.848007" y="252" width="1368" height="127" fill="#B02925"/>
<rect x="411.152" y="135" width="117" height="117" fill="#DBE0EE"/>
<rect x="343.152" y="195" width="117" height="117" fill="#E7ECFD"/>
<g clip-path="url(#clip0_19_2185)">
<path d="M611.452 39.4L616.652 50C617.052 50.8 617.752 51.3 618.552 51.4L630.252 53.1C632.352 53.4 633.152 56 631.652 57.5L623.152 65.7C622.552 66.3 622.252 67.1 622.452 68L624.452 79.6C624.852 81.7 622.652 83.3 620.752 82.3L610.252 76.8C609.552 76.4 608.652 76.4 607.852 76.8L597.352 82.3C595.452 83.3 593.252 81.7 593.652 79.6L595.652 68C595.752 67.2 595.552 66.3 594.952 65.7L586.452 57.5C584.952 56 585.752 53.4 587.852 53.1L599.552 51.4C600.352 51.3 601.152 50.8 601.452 50L606.652 39.4C607.752 37.5 610.452 37.5 611.452 39.4Z" fill="#FF725E"/>
<path d="M591.452 46.4C591.352 46.5 584.752 40.3 576.652 32.6C568.552 25 562.152 18.6 562.252 18.5C562.352 18.4 568.952 24.6 577.052 32.3C585.152 40 591.552 46.3 591.452 46.4Z" fill="#FF725E"/>
<path d="M577.652 52.9C577.652 53 571.952 52.8 564.952 52.4C557.952 52 552.252 51.5 552.252 51.4C552.252 51.3 557.952 51.5 564.952 51.9C571.952 52.3 577.652 52.8 577.652 52.9Z" fill="#FF725E"/>
<path d="M599.252 34C599.152 34.1 597.452 30.6 595.552 26.4C593.652 22.1 592.252 18.6 592.352 18.6C592.452 18.5 594.152 22 596.052 26.2C597.952 30.4 599.352 33.9 599.252 34Z" fill="#FF725E"/>
<path d="M608.052 0C608.152 0 608.352 7 608.352 15.6C608.352 24.2 608.252 31.2 608.052 31.2C607.852 31.2 607.752 24.2 607.752 15.6C607.852 7 607.952 0 608.052 0Z" fill="#FF725E"/>
<path d="M625.752 18.7999C625.852 18.8999 624.452 22.1999 622.452 26.2999C620.452 30.3999 618.852 33.6999 618.652 33.5999C618.552 33.4999 619.952 30.1999 621.952 26.0999C623.952 21.9999 625.652 18.6999 625.752 18.7999Z" fill="#FF725E"/>
<path d="M654.352 23.9C654.452 24 646.852 29.5 637.352 36.1C627.852 42.7 620.052 48 619.952 47.9C619.852 47.8 627.452 42.3 636.952 35.7C646.452 29.1 654.252 23.8 654.352 23.9Z" fill="#FF725E"/>
<path d="M655.052 46C655.152 46.1 651.352 47.7 646.652 49.6C641.952 51.4 638.052 52.8 638.052 52.7C637.952 52.6 641.752 51 646.452 49.1C651.152 47.3 655.052 45.9 655.052 46Z" fill="#FF725E"/>
<path d="M588.552 67.3001C588.552 67.4001 578.652 71.0001 566.352 75.2001C554.152 79.4001 544.152 82.8001 544.152 82.6001C544.152 82.5001 554.052 78.9001 566.352 74.7001C578.552 70.5001 588.552 67.2001 588.552 67.3001Z" fill="#FF725E"/>
<path d="M666.752 78.2C666.752 78.3 657.952 76 647.252 73C636.552 70 627.852 67.4 627.852 67.3C627.852 67.2 636.652 69.5 647.352 72.5C658.152 75.5 666.852 78.1 666.752 78.2Z" fill="#FF725E"/>
<path d="M580.452 96.3C580.352 96.2 583.052 93.7 586.352 90.8C589.752 87.9 592.552 85.6 592.652 85.7C592.752 85.8 590.052 88.3 586.752 91.2C583.352 94.1 580.552 96.4 580.452 96.3Z" fill="#FF725E"/>
<path d="M608.952 120.8C608.852 120.8 608.752 112.3 608.752 101.7C608.852 91.2 608.952 82.6 609.152 82.6C609.252 82.6 609.352 91.1 609.352 101.7C609.252 112.2 609.052 120.8 608.952 120.8Z" fill="#FF725E"/>
<path d="M638.352 98.4C638.252 98.5 635.552 96.1 632.252 93C628.952 89.9 626.352 87.3 626.452 87.2C626.552 87.1 629.252 89.5 632.552 92.6C635.952 95.7 638.452 98.3 638.352 98.4Z" fill="#FF725E"/>
<path d="M659.852 62.4L659.952 64.1C659.952 64.2 660.052 64.3 660.152 64.4L661.652 65.3C661.952 65.5 661.852 65.9 661.552 66L659.952 66.6C659.852 66.6 659.752 66.7 659.752 66.9L659.352 68.6C659.252 68.9 658.852 69 658.652 68.7L657.552 67.4C657.452 67.3 657.352 67.3 657.252 67.3L655.552 67.4C655.252 67.4 655.052 67.1 655.252 66.8L656.152 65.4C656.252 65.3 656.252 65.2 656.152 65.1L655.452 63.5C655.352 63.2 655.552 62.9 655.852 63L657.552 63.4C657.652 63.4 657.752 63.4 657.852 63.3L659.152 62.2C659.452 61.9 659.852 62.1 659.852 62.4Z" fill="#FF725E"/>
<path d="M670.852 44.3L671.652 45.1C671.752 45.2 671.752 45.2 671.852 45.2L672.952 45C673.152 45 673.352 45.2 673.252 45.4L672.752 46.4C672.752 46.5 672.752 46.6 672.752 46.6L673.252 47.6C673.352 47.8 673.152 48 672.952 48L671.852 47.8C671.752 47.8 671.652 47.8 671.652 47.9L670.852 48.7C670.752 48.8 670.452 48.8 670.452 48.6L670.252 47.5C670.252 47.4 670.152 47.4 670.152 47.3L669.152 46.8C668.952 46.7 668.952 46.4 669.152 46.4L670.152 45.9C670.252 45.9 670.252 45.8 670.252 45.7L670.452 44.6C670.452 44.2 670.752 44.1 670.852 44.3Z" fill="#FF725E"/>
<path d="M544.052 30.7L544.852 31.5C544.952 31.6 544.952 31.6 545.052 31.6L546.152 31.4C546.352 31.4 546.552 31.6 546.452 31.8L545.952 32.8C545.952 32.9 545.952 33 545.952 33L546.452 34C546.552 34.2 546.352 34.4 546.152 34.4L545.052 34.2C544.952 34.2 544.852 34.2 544.852 34.3L543.952 35C543.852 35.1 543.552 35.1 543.552 34.9L543.352 33.8C543.352 33.7 543.252 33.7 543.252 33.6L542.252 33.1C542.052 33 542.052 32.7 542.252 32.7L543.252 32.2C543.352 32.2 543.352 32.1 543.352 32L543.552 30.9C543.652 30.6 543.952 30.5 544.052 30.7Z" fill="#FF725E"/>
<path d="M567.752 185.9C589.552 185.9 611.252 185.9 633.052 185.9C639.152 185.9 645.352 185.9 651.452 185.9C654.652 185.9 654.652 180.9 651.452 180.9C629.652 180.9 607.952 180.9 586.152 180.9C580.052 180.9 573.852 180.9 567.752 180.9C564.552 180.9 564.552 185.9 567.752 185.9Z" fill="#455A64"/>
<path d="M570.652 90.3H564.652V474.3H570.652V90.3Z" fill="#455A64"/>
<path d="M570.352 474.3C570.252 474.3 570.052 388.4 570.052 282.4C570.052 176.4 570.152 90.5 570.352 90.5C570.452 90.5 570.652 176.4 570.652 282.4C570.552 388.4 570.452 474.3 570.352 474.3Z" fill="#263238"/>
<path d="M567.752 147.1C589.552 147.1 611.252 147.1 633.052 147.1C639.152 147.1 645.352 147.1 651.452 147.1C654.652 147.1 654.652 142.1 651.452 142.1C629.652 142.1 607.952 142.1 586.152 142.1C580.052 142.1 573.852 142.1 567.752 142.1C564.552 142.1 564.552 147.1 567.752 147.1Z" fill="#455A64"/>
<path d="M654.352 91.1001H648.352V474.3H654.352V91.1001Z" fill="#455A64"/>
<path d="M648.552 426.1C648.452 426.1 648.252 351.3 648.252 259C648.252 166.7 648.352 91.9 648.552 91.9C648.652 91.9 648.852 166.7 648.852 259C648.752 351.2 648.652 426.1 648.552 426.1Z" fill="#263238"/>
<path d="M567.652 441.9C589.452 441.9 611.152 441.9 632.952 441.9C639.052 441.9 645.252 441.9 651.352 441.9C654.552 441.9 654.552 436.9 651.352 436.9C629.552 436.9 607.852 436.9 586.052 436.9C579.952 436.9 573.752 436.9 567.652 436.9C564.452 436.9 564.452 441.9 567.652 441.9Z" fill="#455A64"/>
<path d="M569.352 364.3C589.752 364.3 610.152 364.3 630.552 364.3C636.352 364.3 642.152 364.3 647.952 364.3C651.152 364.3 651.152 359.3 647.952 359.3C627.552 359.3 607.152 359.3 586.752 359.3C580.952 359.3 575.152 359.3 569.352 359.3C566.152 359.3 566.152 364.3 569.352 364.3Z" fill="#455A64"/>
<path d="M567.652 310.2C589.452 310.2 611.152 310.2 632.952 310.2C639.052 310.2 645.252 310.2 651.352 310.2C654.552 310.2 654.552 305.2 651.352 305.2C629.552 305.2 607.852 305.2 586.052 305.2C579.952 305.2 573.752 305.2 567.652 305.2C564.452 305.2 564.452 310.2 567.652 310.2Z" fill="#455A64"/>
<path d="M567.652 267.4C589.452 267.4 611.152 267.4 632.952 267.4C639.052 267.4 645.252 267.4 651.352 267.4C654.552 267.4 654.552 262.4 651.352 262.4C629.552 262.4 607.852 262.4 586.052 262.4C579.952 262.4 573.752 262.4 567.652 262.4C564.452 262.4 564.452 267.4 567.652 267.4Z" fill="#455A64"/>
<path d="M567.652 225.7C589.452 225.7 611.152 225.7 632.952 225.7C639.052 225.7 645.252 225.7 651.352 225.7C654.552 225.7 654.552 220.7 651.352 220.7C629.552 220.7 607.852 220.7 586.052 220.7C579.952 220.7 573.752 220.7 567.652 220.7C564.452 220.7 564.452 225.7 567.652 225.7Z" fill="#455A64"/>
<path d="M568.452 404.3C589.052 404.3 609.752 404.3 630.352 404.3C636.252 404.3 642.152 404.3 648.052 404.3C651.252 404.3 651.252 399.3 648.052 399.3C627.452 399.3 606.752 399.3 586.152 399.3C580.252 399.3 574.352 399.3 568.452 399.3C565.252 399.3 565.252 404.3 568.452 404.3Z" fill="#455A64"/>
</g>
<path d="M636.268 228.181L631.168 216.881C631.168 216.881 631.468 210.881 630.568 210.281C629.368 209.581 629.068 210.181 628.768 212.181L628.268 215.181C628.268 215.181 626.368 210.981 624.468 210.781C623.268 210.681 622.868 212.781 622.868 212.781C622.868 212.781 620.868 210.881 619.368 211.281C617.968 211.681 618.368 213.681 618.368 213.681C618.368 213.681 616.668 212.681 615.868 214.481C614.968 216.581 618.768 219.681 619.268 221.081C620.468 223.981 617.968 224.081 617.968 224.081C617.968 224.081 611.468 223.281 611.768 224.881C612.068 226.581 614.268 226.581 615.968 226.681C617.368 226.781 622.568 228.081 624.268 228.581C624.668 228.681 624.968 228.781 625.268 228.981L629.168 232.981L636.268 228.181Z" fill="#FFBE9D"/>
<path d="M633.668 487.981L633.468 516.981L617.768 517.181L617.968 488.081L633.668 487.981Z" fill="#FF725E"/>
<path d="M625.668 515.981C625.568 515.981 625.568 509.581 625.668 501.781C625.868 493.981 626.068 487.581 626.168 487.581C626.268 487.581 626.268 493.981 626.168 501.781C626.068 509.581 625.868 515.981 625.668 515.981Z" fill="#263238"/>
<path d="M617.768 507.881C617.768 507.881 617.868 507.681 618.168 507.281C618.468 506.881 618.968 506.381 619.568 505.781C620.268 505.181 621.068 504.581 622.068 504.081C623.068 503.581 624.368 503.281 625.768 503.281C628.468 503.281 630.768 504.681 631.868 505.981C632.468 506.681 632.768 507.281 632.968 507.681C633.168 508.081 633.268 508.381 633.168 508.381C633.068 508.381 632.668 507.381 631.568 506.181C630.468 504.981 628.268 503.781 625.768 503.681C623.168 503.681 621.068 504.881 619.768 505.981C618.568 507.081 617.868 507.881 617.768 507.881Z" fill="#263238"/>
<path opacity="0.3" d="M617.768 498.581V501.781H633.668V498.581H617.768Z" fill="black"/>
<path d="M617.768 517.181V514.181H633.468V516.981L617.768 517.181Z" fill="#E0E0E0"/>
<path d="M600.768 412.581L600.568 440.481L585.568 440.681L585.668 412.681L600.768 412.581Z" fill="#FF725E"/>
<path d="M593.168 439.481C593.068 439.481 593.068 433.381 593.168 425.881C593.368 418.381 593.568 412.281 593.668 412.281C593.768 412.281 593.768 418.381 593.668 425.881C593.468 433.381 593.268 439.481 593.168 439.481Z" fill="#263238"/>
<path d="M585.568 431.681C585.568 431.681 585.668 431.481 585.968 431.081C586.268 430.681 586.668 430.181 587.368 429.681C587.968 429.181 588.768 428.581 589.768 428.081C590.768 427.581 591.968 427.281 593.268 427.281C595.868 427.281 598.068 428.581 599.068 429.881C599.668 430.481 599.968 431.081 600.168 431.481C600.368 431.881 600.468 432.181 600.368 432.181C600.268 432.181 599.968 431.281 598.868 430.081C597.768 428.881 595.768 427.781 593.268 427.681C590.768 427.681 588.768 428.881 587.568 429.881C586.268 430.981 585.668 431.781 585.568 431.681Z" fill="#263238"/>
<path opacity="0.3" d="M585.568 422.781V425.881H600.768V422.781H585.568Z" fill="black"/>
<path d="M585.568 440.682V437.682H600.568V440.482L585.568 440.682Z" fill="#E0E0E0"/>
<path d="M603.668 225.78L604.068 225.68C605.268 223.48 607.668 222.18 610.168 221.98C612.668 221.88 615.068 222.88 616.968 224.48C618.268 225.58 619.268 227.08 620.568 228.18C621.868 229.28 623.568 230.18 625.268 229.78C625.468 230.38 624.268 230.78 624.368 231.48C624.368 231.78 624.768 231.98 625.068 232.08C625.568 232.18 625.968 232.08 626.468 232.08C626.968 232.08 627.468 232.28 627.568 232.78C627.668 232.98 627.568 233.28 627.468 233.48C626.968 235.48 626.168 237.38 624.768 238.88C623.368 240.38 621.268 241.28 619.268 240.88C617.668 240.58 616.368 239.58 615.068 238.48C612.668 236.58 610.268 234.68 607.868 232.68C606.768 231.78 605.668 230.88 604.768 229.78C603.968 228.68 603.468 227.18 603.668 225.78Z" fill="#263238"/>
<path d="M605.168 226.18C604.168 225.38 603.068 224.78 601.868 224.48C600.668 224.28 599.268 224.48 598.268 225.18C597.368 225.88 596.768 226.98 596.068 227.88C595.368 228.88 594.468 229.78 593.368 229.98C593.168 229.98 592.968 229.98 592.768 230.18C592.468 230.48 592.668 230.88 593.068 231.08C593.368 231.28 593.768 231.18 594.168 231.08C593.568 231.78 592.768 232.18 591.868 232.38C592.068 233.28 593.068 233.78 593.868 233.58C593.568 234.98 593.168 236.28 593.168 237.68C593.168 239.08 593.568 240.58 594.468 241.58C595.468 242.68 597.268 243.38 597.668 244.78" fill="#263238"/>
<path d="M615.268 275.58L596.568 275.38L598.668 259.38C598.668 259.38 597.368 259.08 597.268 252.18C597.168 245.28 596.868 233.48 596.868 233.48C604.868 229.98 614.168 231.18 621.068 236.48L622.068 237.28L615.268 275.58Z" fill="#FFBE9D"/>
<path d="M619.968 245.881C620.068 245.781 624.768 244.481 624.568 249.181C624.368 253.881 619.668 252.781 619.668 252.681C619.668 252.481 619.968 245.881 619.968 245.881Z" fill="#FFBE9D"/>
<path d="M597.668 244.88C597.568 244.78 593.368 243.68 593.468 248.48C593.668 253.18 598.368 252.08 598.368 251.98C598.368 251.78 597.668 244.88 597.668 244.88Z" fill="#FFBE9D"/>
<path d="M621.468 245.28C620.768 249.28 620.868 251.38 620.268 253.98C619.268 258.18 617.168 261.38 613.368 263.48C609.568 265.58 604.468 265.58 601.268 262.68C598.968 260.68 597.368 258.48 597.068 255.48C596.768 252.48 595.868 246.88 595.868 243.88C595.868 238.48 595.968 233.58 595.968 233.58L611.468 230.78L620.268 235.98L621.468 245.28Z" fill="#263238"/>
<path d="M605.468 265.98C605.468 266.08 606.668 266.38 608.168 266.18C609.668 265.98 610.768 265.48 610.768 265.38C610.768 265.28 609.568 265.58 608.168 265.78C606.768 265.98 605.568 265.88 605.468 265.98Z" fill="#263238"/>
<path d="M620.668 252.08C621.168 247.98 621.368 243.38 622.068 239.08C622.268 237.48 622.868 235.18 622.768 233.48C622.668 231.88 622.168 232.38 621.468 230.88C620.568 229.08 617.168 227.78 615.168 227.38C613.168 226.98 612.868 225.28 611.368 226.58C610.268 224.88 608.068 223.98 606.068 224.48C604.068 224.98 602.468 226.68 602.268 228.68C601.168 227.68 599.368 227.48 598.068 228.18C596.768 228.98 596.068 230.68 596.568 232.18C595.468 232.38 594.468 233.18 593.968 234.18C593.468 235.18 593.568 236.48 594.268 237.38C594.968 238.48 596.268 239.08 597.068 240.18C597.968 241.38 598.068 243.18 597.268 244.48" fill="#263238"/>
<path d="M600.768 251.181C600.668 251.181 600.468 253.081 601.268 255.381C602.068 257.581 603.568 258.981 603.668 258.881C603.768 258.781 602.468 257.381 601.668 255.281C600.868 253.081 600.968 251.181 600.768 251.181Z" fill="#455A64"/>
<path d="M598.668 247.78C598.568 247.78 597.968 249.38 598.368 251.58C598.768 253.68 599.868 255.08 599.968 254.98C600.068 254.88 599.168 253.48 598.768 251.48C598.468 249.48 598.868 247.78 598.668 247.78Z" fill="#455A64"/>
<path d="M618.168 231.38C616.968 229.48 615.368 227.88 613.368 227.08C611.368 226.28 608.868 226.48 607.168 227.88" fill="#263238"/>
<path d="M617.768 241.881C617.668 241.881 617.768 241.281 617.968 240.481C618.068 239.681 618.368 238.481 618.368 237.181C618.368 235.881 618.068 234.781 617.668 234.081C617.268 233.381 616.968 232.981 616.968 232.881C616.968 232.881 617.468 233.081 617.968 233.881C618.468 234.581 618.868 235.881 618.868 237.181C618.868 238.581 618.568 239.781 618.368 240.581C618.068 241.381 617.868 241.881 617.768 241.881Z" fill="#455A64"/>
<path d="M614.568 243.38C614.468 243.28 614.768 242.38 615.168 241.18C615.568 239.98 615.768 238.98 615.968 239.08C616.068 239.08 616.168 240.18 615.768 241.38C615.368 242.68 614.768 243.48 614.568 243.38Z" fill="#455A64"/>
<path d="M599.768 242.181C599.768 242.181 599.168 241.681 598.668 240.481C598.168 239.381 597.868 237.581 598.168 235.681C598.568 233.781 599.568 232.281 600.468 231.381C601.368 230.481 602.068 230.181 602.068 230.181C602.168 230.281 601.468 230.681 600.768 231.581C599.968 232.481 599.068 233.881 598.768 235.681C598.368 237.481 598.668 239.081 599.068 240.281C599.368 241.481 599.868 242.181 599.768 242.181Z" fill="#455A64"/>
<path d="M616.668 224.58C616.668 224.68 616.068 224.38 615.168 223.98C614.268 223.58 612.968 223.08 611.468 223.08C609.968 223.08 608.768 223.78 608.068 224.48C607.368 225.18 607.268 225.88 607.168 225.88C607.068 225.88 607.068 225.18 607.768 224.28C608.068 223.88 608.568 223.38 609.168 223.08C609.768 222.78 610.568 222.58 611.368 222.58C612.968 222.58 614.368 223.18 615.268 223.68C616.168 224.08 616.668 224.48 616.668 224.58Z" fill="#455A64"/>
<path d="M595.468 228.981C595.368 228.981 595.568 228.381 596.068 227.681C596.568 226.981 597.468 226.181 598.768 225.781C600.068 225.381 601.268 225.581 602.068 225.981C602.868 226.281 603.268 226.681 603.168 226.781C603.168 226.881 602.668 226.581 601.868 226.381C601.068 226.181 599.968 226.081 598.868 226.381C597.768 226.681 596.868 227.381 596.268 227.981C595.868 228.481 595.568 228.981 595.468 228.981Z" fill="#455A64"/>
<path d="M600.568 246.38C600.568 246.28 601.368 246.08 602.568 245.58C603.768 244.98 605.568 244.08 607.168 242.48L608.068 241.58L607.568 242.78C607.268 243.48 607.068 244.28 606.868 245.08C606.768 245.48 606.768 245.98 606.868 245.98C606.968 246.08 607.368 245.88 607.768 245.68C609.068 244.88 610.068 243.88 610.968 242.88L611.768 241.88L611.368 243.08C610.968 244.28 610.668 245.48 610.368 246.48L609.968 246.28C612.168 244.18 612.868 242.38 612.968 242.48C612.968 242.48 612.868 242.98 612.468 243.68C612.068 244.48 611.368 245.48 610.268 246.58L609.668 247.18L609.868 246.38C610.168 245.38 610.468 244.18 610.868 242.98L611.268 243.18C610.368 244.28 609.268 245.28 607.968 246.18C607.768 246.28 607.568 246.38 607.368 246.58C607.168 246.68 606.768 246.78 606.468 246.58C606.168 246.38 606.168 245.98 606.168 245.78C606.168 245.48 606.268 245.38 606.268 245.08C606.468 244.28 606.668 243.48 606.968 242.68L607.368 242.98C605.668 244.58 603.868 245.48 602.568 245.98C601.468 246.28 600.568 246.48 600.568 246.38Z" fill="#455A64"/>
<path d="M609.668 228.08C609.368 227.48 608.768 227.08 608.168 226.88C607.568 226.68 606.868 226.68 606.268 226.88C604.668 227.18 603.268 227.98 602.268 229.18C602.068 229.48 601.868 229.88 602.068 230.18C602.168 230.28 602.368 230.38 602.568 230.38C604.868 230.58 607.268 230.48 609.568 230.18" fill="#263238"/>
<path d="M579.068 367.581C579.368 368.181 583.168 380.781 591.568 382.981C599.968 385.181 625.968 383.681 626.668 382.981C627.368 382.281 635.068 378.081 638.768 369.281C642.468 360.481 615.868 345.181 615.868 345.181L579.068 367.581Z" fill="#263238"/>
<path d="M643.168 370.981L643.368 378.081C643.368 379.181 643.268 384.681 643.068 385.681L639.868 429.581C639.568 429.481 637.668 456.581 637.468 466.081C637.268 475.281 636.568 500.181 636.568 500.181H615.168L613.768 458.881L612.868 414.281L611.568 383.081L643.168 370.981Z" fill="#263238"/>
<path d="M579.068 360.581C579.068 360.581 579.568 361.281 579.468 370.981C579.368 378.381 583.868 424.181 583.868 424.181L602.168 423.581L605.768 377.681L579.068 360.581Z" fill="#263238"/>
<path d="M613.268 383.581C613.268 383.581 612.768 383.681 611.768 383.781C610.768 383.881 609.368 383.981 607.568 384.081C604.068 384.281 599.068 384.381 593.668 383.281C588.268 382.181 583.968 379.081 581.868 376.181C580.768 374.781 580.168 373.381 579.868 372.481C579.668 371.981 579.668 371.581 579.568 371.381C579.468 371.081 579.468 370.981 579.468 370.981C579.568 370.881 579.968 373.181 582.168 375.981C584.268 378.781 588.468 381.681 593.768 382.781C599.068 383.881 603.968 383.881 607.568 383.781C609.268 383.681 610.668 383.681 611.768 383.581C612.668 383.581 613.268 383.581 613.268 383.581Z" fill="#455A64"/>
<path d="M634.868 382.68C634.868 382.78 633.968 382.98 632.568 383.28C631.068 383.58 629.068 383.88 626.768 384.08C624.468 384.28 622.468 384.28 620.968 384.28C619.468 384.28 618.568 384.18 618.568 384.08C618.568 383.98 619.468 383.98 620.968 383.88C622.468 383.78 624.468 383.68 626.768 383.48C629.068 383.28 631.068 382.98 632.568 382.78C633.968 382.78 634.868 382.58 634.868 382.68Z" fill="#455A64"/>
<path d="M634.268 390.681C634.268 390.781 633.068 390.681 631.168 390.381C629.268 390.081 626.668 389.581 623.868 388.881C621.068 388.181 618.468 387.381 616.668 386.781C614.868 386.181 613.768 385.681 613.768 385.581C613.768 385.481 614.968 385.881 616.768 386.381C618.568 386.881 621.168 387.681 623.968 388.381C626.768 389.081 629.368 389.581 631.268 389.981C633.068 390.381 634.268 390.681 634.268 390.681Z" fill="#455A64"/>
<path d="M629.168 236.881C629.268 236.581 626.568 232.181 626.568 232.181C626.568 232.181 632.468 225.881 635.968 226.081L639.368 230.781L629.168 236.881Z" fill="white"/>
<path d="M657.068 256.581C655.768 252.581 639.568 229.281 639.568 229.281C633.568 229.281 627.768 236.481 627.768 236.481L639.268 260.681L627.168 271.781L640.868 287.881C640.868 287.881 649.468 277.081 652.068 273.181C657.868 264.481 658.368 260.581 657.068 256.581Z" fill="#FF725E"/>
<path opacity="0.3" d="M578.568 366.281C578.568 366.281 579.968 375.281 587.468 377.881C594.968 380.581 612.368 377.881 612.368 377.881L614.368 371.381L616.568 379.081L643.468 375.681L643.068 369.581L614.568 357.781L578.568 366.281Z" fill="black"/>
<path d="M637.168 336.281C636.568 333.081 635.868 331.481 635.768 329.581C635.368 323.881 635.368 310.081 635.768 308.381C636.268 306.081 640.868 287.881 640.868 287.881L639.268 273.781L619.468 270.481L618.068 267.281C618.068 267.281 604.868 263.881 596.468 268.381L595.068 271.781L589.868 273.081C589.068 273.381 585.068 274.481 581.968 275.381C578.568 276.281 575.668 278.681 574.168 281.881C573.668 282.881 573.268 284.081 572.768 285.381C571.368 289.481 563.568 311.881 563.168 318.681C562.768 326.681 569.868 326.981 574.168 325.981C578.368 324.981 583.268 315.281 583.268 315.281L585.968 334.181C585.968 334.181 585.368 338.181 584.068 341.781C581.468 348.981 577.668 362.881 577.668 362.881C579.168 367.481 584.568 374.881 587.368 375.881C590.168 376.881 609.068 376.081 609.068 376.081L614.668 361.281L619.768 376.781L646.568 372.581L637.168 336.281Z" fill="#FF725E"/>
<path d="M614.468 330.78C614.568 330.88 610.668 333.48 605.868 336.48C601.068 339.48 597.068 341.88 596.968 341.68C596.868 341.58 600.768 338.98 605.568 335.98C610.468 333.08 614.468 330.68 614.468 330.78Z" fill="#263238"/>
<path d="M607.468 338.581C607.568 338.681 603.468 341.381 598.368 344.681C593.268 347.881 589.068 350.481 588.968 350.281C588.868 350.181 592.968 347.481 598.068 344.181C603.168 340.981 607.368 338.481 607.468 338.581Z" fill="#263238"/>
<path d="M628.668 317.381C628.768 317.481 627.668 319.881 625.468 322.381C623.268 324.881 620.968 326.281 620.968 326.181C620.868 326.081 622.968 324.481 625.068 322.081C627.168 319.581 628.468 317.281 628.668 317.381Z" fill="#263238"/>
<path d="M629.168 319.981C629.268 319.981 628.868 320.781 628.268 321.981C627.668 323.181 626.668 324.781 625.468 326.481C624.268 328.181 622.968 329.581 622.068 330.481C621.068 331.481 620.468 331.981 620.368 331.981C620.268 331.881 622.568 329.481 625.068 326.181C627.468 322.781 629.068 319.881 629.168 319.981Z" fill="#263238"/>
<path d="M629.768 344.481C629.668 344.481 629.968 343.481 630.468 341.781C630.968 340.181 631.568 337.881 632.168 335.381C632.768 332.881 633.168 330.581 633.468 328.881C633.768 327.181 633.968 326.181 634.068 326.181C634.168 326.181 634.068 327.281 633.868 328.981C633.668 330.681 633.268 332.981 632.668 335.581C632.068 338.081 631.368 340.381 630.868 341.981C630.268 343.481 629.868 344.481 629.768 344.481Z" fill="#263238"/>
<path d="M639.668 285.681C639.568 285.781 637.768 282.681 635.068 279.281C632.368 275.881 629.868 273.381 629.968 273.281C629.968 273.281 630.668 273.781 631.768 274.781C632.768 275.781 634.168 277.281 635.568 278.981C636.968 280.681 637.968 282.381 638.768 283.681C639.368 284.781 639.668 285.581 639.668 285.681Z" fill="#263238"/>
<path d="M643.968 278.581C643.868 278.681 642.568 276.181 639.968 274.181C637.368 272.181 634.668 271.581 634.768 271.381C634.768 271.281 635.468 271.381 636.468 271.681C637.468 271.981 638.868 272.681 640.268 273.681C641.568 274.681 642.568 275.881 643.168 276.881C643.768 277.881 643.968 278.481 643.968 278.581Z" fill="#263238"/>
<path d="M585.968 334.181C585.868 334.181 584.268 323.881 582.368 311.081C580.568 298.281 579.168 287.881 579.268 287.881C579.368 287.881 580.968 298.181 582.868 310.981C584.668 323.781 586.068 334.181 585.968 334.181Z" fill="#263238"/>
<path d="M619.768 270.48C619.768 270.58 618.368 270.48 616.068 270.38C613.768 270.28 610.668 270.28 607.268 270.38C603.868 270.58 600.768 270.88 598.468 271.18C596.268 271.48 594.868 271.68 594.868 271.68C594.868 271.68 595.168 271.58 595.768 271.38C596.368 271.18 597.268 271.08 598.368 270.88C600.568 270.48 603.668 270.08 607.168 269.88C610.668 269.68 613.768 269.78 615.968 269.98C617.068 270.08 617.968 270.18 618.668 270.28C619.368 270.38 619.768 270.48 619.768 270.48Z" fill="#263238"/>
<g opacity="0.3">
<path d="M583.368 315.98C582.268 307.98 580.868 299.98 579.768 291.98C576.868 299.78 578.468 309.08 583.368 315.98Z" fill="black"/>
</g>
<g opacity="0.3">
<path d="M639.068 260.281C640.968 258.481 643.368 257.381 645.868 256.981C647.068 256.781 648.468 256.881 649.368 257.681C649.568 257.881 649.768 258.081 649.768 258.381C649.768 258.681 649.468 258.881 649.168 258.881C648.868 258.981 648.668 258.881 648.368 258.881C645.368 258.381 642.068 259.281 639.068 260.281Z" fill="black"/>
</g>
<g opacity="0.3">
<path d="M596.068 271.88C598.568 272.68 601.268 272.48 603.968 272.28C608.668 271.88 613.268 271.28 617.868 270.48C610.468 269.48 602.868 269.88 595.568 271.78" fill="black"/>
</g>
<g opacity="0.3">
<path d="M595.068 346.781C605.568 343.881 615.268 337.781 622.468 329.581C614.168 334.881 603.268 340.981 595.068 346.781Z" fill="black"/>
</g>
<path d="M645.668 259.181C645.668 259.381 643.968 258.881 642.068 259.481C640.168 259.981 638.968 261.181 638.868 261.081C638.868 261.081 639.068 260.681 639.568 260.181C640.068 259.681 640.868 259.181 641.968 258.881C642.968 258.581 643.968 258.581 644.668 258.681C645.268 258.881 645.668 259.081 645.668 259.181Z" fill="#263238"/>
<defs>
<clipPath id="clip0_19_2185">
<rect width="131.1" height="474.3" fill="white" transform="translate(542.152)"/>
</clipPath>
</defs>
</svg>
