<svg width="1366" height="518" viewBox="0 0 1366 518" fill="none" xmlns="http://www.w3.org/2000/svg">
<g opacity="0.15">
<mask id="mask0_224_223" style="mask-type:alpha" maskUnits="userSpaceOnUse" x="-181" y="43" width="1769" height="399">
<path d="M-180 64.3177C-149.365 41.0403 -74.1373 39.9205 -23.5888 53.5989C26.9598 67.2774 60.3184 91.1147 97.4214 112.232C134.524 133.43 182.009 153.748 240.217 155.507C314.593 157.747 382.161 128.79 456.367 132.55C514.064 135.43 557.805 157.587 582.313 180.945C596.099 194.143 601.035 209.341 612.268 223.02C664.008 284.853 580.441 339.887 648.35 378.442C721.875 420.198 804.08 418.038 844.587 410.359C896.497 400.52 1011.55 367.404 979.894 302.211C966.959 275.734 956.066 248.617 959.64 221.5C964.917 180.945 1032.83 141.509 1119.29 138.869C1178.51 137.11 1239.96 151.508 1295.27 141.509C1332.37 134.79 1358.07 117.672 1367.26 99.4338C1376.45 81.1959 1370.84 61.998 1360.11 44.0001" stroke="white" stroke-miterlimit="10"/>
<path d="M-179.83 66.1574C-146.301 42.88 -69.8825 40.8002 -17.2916 54.4787C34.108 67.8372 68.3176 91.9145 104.57 113.512C140.481 134.87 185.584 155.507 241.749 158.307C313.572 161.907 380.459 135.51 454.325 139.429C513.043 142.549 558.145 163.186 585.207 185.744C600.865 198.703 608.013 214.061 620.267 228.139C672.177 287.892 593.036 341.646 659.243 379.482C730.555 420.118 810.718 418.918 851.565 411.719C903.305 402.52 1013.76 370.523 986.191 307.57C974.788 281.573 965.598 254.696 969.512 227.819C974.958 188.304 1039.8 149.988 1123.03 146.548C1180.56 144.149 1241.32 157.267 1296.12 147.428C1333.56 140.709 1360.11 124.311 1371.18 106.633C1382.24 88.7949 1379.52 69.677 1370.84 51.3591" stroke="#FBFBFB" stroke-miterlimit="10"/>
<path d="M-179.49 67.9972C-143.238 44.7998 -65.4577 41.6801 -10.6542 55.4386C41.5964 68.5571 76.657 92.7944 112.228 114.872C146.948 136.469 189.498 157.267 243.621 161.187C312.721 166.146 379.268 142.229 452.623 146.388C512.192 149.748 558.826 168.786 588.61 190.623C606.141 203.422 615.672 218.86 628.777 233.419C680.857 291.092 605.97 343.646 670.645 380.602C739.745 420.118 817.866 419.958 858.883 413.158C910.283 404.679 1016.32 373.723 992.999 312.93C983.127 287.493 975.639 260.776 979.724 234.139C985.34 195.663 1047.12 158.547 1127.28 154.228C1183.28 151.188 1243.19 162.947 1297.31 153.348C1335.1 146.708 1362.5 130.95 1375.26 113.832C1388.37 96.314 1388.37 77.2762 1381.73 58.7983" stroke="#F6F6F6" stroke-miterlimit="10"/>
<path d="M-179.319 69.837C-140.344 46.6396 -61.2025 42.5601 -4.18646 56.3185C48.9151 69.1971 84.8266 93.6743 119.547 116.152C153.076 137.909 193.242 159.027 245.323 163.986C311.87 170.226 377.736 148.868 450.751 153.188C511.171 156.787 559.336 174.225 591.844 195.423C611.247 207.981 622.99 223.58 637.117 238.618C689.027 294.292 618.735 345.486 681.878 381.722C748.936 420.118 824.844 420.918 866.202 414.598C917.431 406.839 1019.04 376.923 999.637 318.369C991.297 293.412 985.851 266.935 989.935 240.618C995.722 203.182 1054.44 167.266 1131.37 162.067C1185.83 158.387 1244.72 168.786 1298.5 159.427C1336.63 152.788 1364.71 137.749 1379.35 121.111C1394.49 103.993 1397.22 85.0354 1392.62 66.3175" stroke="#F2F2F2" stroke-miterlimit="10"/>
<path d="M-179.149 71.5969C-137.451 48.4795 -56.9476 43.3601 2.11083 57.1986C56.0633 69.8372 92.826 94.4744 126.865 117.512C159.203 139.429 196.817 160.787 246.855 166.866C310.849 174.465 376.204 155.668 448.708 160.147C509.979 163.987 559.847 179.905 594.908 200.303C616.182 212.701 630.309 228.379 645.116 243.898C696.856 297.572 631.16 347.486 692.601 382.922C757.446 420.118 831.142 421.958 872.84 416.118C923.899 408.999 1021.08 380.122 1005.76 323.809C998.956 299.251 995.212 273.094 999.467 247.017C1005.42 210.621 1061.25 175.825 1134.94 169.826C1187.87 165.506 1245.91 174.625 1299.18 165.506C1337.65 158.867 1366.58 144.469 1383.09 128.471C1400.28 111.673 1405.73 92.8746 1403.17 73.8368" stroke="#EEEEEE" stroke-miterlimit="10"/>
<path d="M-178.979 73.4366C-134.388 50.3192 -52.693 44.2399 8.578 58.0783C63.2113 70.4769 100.995 95.2741 134.184 118.792C165.33 140.869 200.56 162.627 248.556 169.666C309.827 178.705 374.672 162.307 446.836 167.026C508.958 171.106 560.528 185.424 597.971 205.102C621.118 217.26 637.457 233.099 653.285 249.097C704.685 300.771 643.754 349.326 703.663 383.962C766.296 420.038 837.949 422.837 879.988 417.478C930.707 410.999 1023.8 383.162 1012.23 329.168C1007.13 305.091 1004.91 279.173 1009.51 253.336C1015.63 217.98 1068.4 184.304 1138.86 177.505C1190.26 172.546 1247.44 180.305 1300.2 171.426C1339.01 164.866 1368.96 151.108 1387.01 135.67C1406.24 119.272 1414.41 100.554 1413.9 81.2758" stroke="#E9E9E9" stroke-miterlimit="10"/>
<path d="M-178.809 75.2764C-131.494 52.239 -48.4379 45.1198 15.0456 58.9582C70.5299 71.1169 109.335 96.0741 141.672 120.071C171.627 142.309 204.305 164.306 250.428 172.465C309.146 182.864 373.311 169.026 445.134 173.905C508.107 178.225 561.379 190.943 601.375 209.901C626.564 221.9 644.946 237.818 661.795 254.216C712.684 303.891 656.689 351.085 715.067 385.002C775.657 419.958 845.097 423.717 887.306 418.838C937.685 413.078 1026.87 386.122 1019.04 334.447C1015.46 310.77 1015.12 285.173 1019.89 259.656C1026.19 225.42 1075.88 192.703 1143.28 185.184C1193.15 179.585 1249.32 186.064 1301.74 177.345C1340.88 170.786 1371.69 157.747 1391.6 142.869C1412.88 126.791 1423.77 108.153 1425.3 88.7149" stroke="#E5E5E5" stroke-miterlimit="10"/>
<path d="M-178.469 77.1164C-128.431 54.159 -44.0131 45.9999 21.5128 59.9183C77.8481 71.837 117.504 96.9542 148.991 121.431C177.924 143.909 207.879 166.146 251.96 175.345C307.955 187.104 371.779 175.745 443.091 180.865C506.915 185.424 561.889 196.543 604.438 214.861C631.67 226.62 652.094 242.698 669.794 259.576C720.002 307.331 669.113 353.165 725.959 386.282C784.337 420.118 851.565 424.757 894.114 420.438C944.322 415.318 1043.38 388.601 1025.17 340.047C1016.66 317.089 1024.49 291.492 1029.42 266.215C1035.89 233.019 1082.69 201.422 1146.86 193.103C1195.19 186.784 1250.51 191.984 1302.25 183.505C1341.73 177.025 1373.56 164.627 1395 150.228C1418.49 134.55 1431.94 115.992 1435.51 96.2343" stroke="#E1E1E1" stroke-miterlimit="10"/>
<path d="M-178.299 78.876C-125.537 55.9186 -39.9282 46.8796 27.9805 60.7181C84.9966 72.3968 125.674 97.6739 156.309 122.631C184.051 145.269 211.623 167.746 253.662 178.065C307.104 191.103 370.247 182.384 441.219 187.664C505.894 192.463 562.74 201.902 607.502 219.58C636.776 231.099 659.242 247.337 677.964 264.695C727.491 310.53 681.708 354.925 737.022 387.321C793.187 420.038 858.373 425.637 901.263 421.798C951.13 417.318 1047.63 391.721 1031.8 345.326C1024.14 322.769 1034.53 297.491 1039.63 272.454C1046.27 240.298 1090.01 209.741 1150.94 200.702C1197.92 193.743 1252.21 197.663 1303.44 189.424C1343.26 182.944 1376.11 171.266 1399.09 157.427C1424.79 142.069 1440.79 123.671 1446.4 103.673" stroke="#DCDCDC" stroke-miterlimit="10"/>
<path d="M-178.128 80.7157C-122.474 57.8383 -35.6729 47.7594 34.2782 61.6778C92.1452 73.1165 133.844 98.5537 163.628 123.991C190.349 146.708 215.198 169.586 255.194 180.944C305.913 195.343 368.716 189.184 439.177 194.623C504.703 199.662 563.421 207.501 610.566 224.46C641.882 235.738 666.391 252.216 686.134 269.974C734.81 313.89 694.303 356.925 747.915 388.441C802.038 420.038 864.841 426.597 908.071 423.237C957.598 419.398 1051.38 394.84 1037.93 350.765C1031.12 328.528 1043.89 303.651 1049.16 278.933C1055.8 247.817 1096.82 218.3 1154.52 208.541C1199.96 200.862 1253.4 203.582 1304.12 195.503C1344.29 189.104 1378.16 178.065 1402.83 164.786C1430.92 149.668 1449.47 131.35 1457.13 111.112" stroke="#D8D8D8" stroke-miterlimit="10"/>
<path d="M-177.958 82.5556C-119.581 59.6782 -31.4187 48.7194 40.745 62.5578C99.2929 73.8366 142.012 99.2737 170.946 125.271C196.475 148.148 218.942 171.346 256.896 183.744C305.061 199.502 367.183 195.823 437.305 201.502C503.682 206.782 564.272 212.941 613.799 229.259C647.158 240.298 673.538 256.936 694.303 275.094C742.128 317.089 706.897 358.685 758.977 389.481C810.888 419.958 871.648 427.477 915.219 424.597C964.576 421.398 1055.29 397.96 1044.57 356.125C1038.95 334.127 1053.76 309.73 1059.38 285.253C1066.18 255.176 1104.31 226.619 1158.6 216.221C1202.68 207.822 1254.93 209.261 1305.31 201.422C1345.82 195.103 1380.71 184.704 1406.92 171.906C1437.04 157.267 1458.15 139.029 1467.85 118.552" stroke="#D4D4D4" stroke-miterlimit="10"/>
<path d="M-177.618 84.3953C-116.517 61.5979 -26.9934 49.5992 47.3828 63.5177C106.782 74.5565 150.522 100.154 178.605 126.631C203.113 149.668 222.856 173.105 258.768 186.624C304.211 203.742 365.822 202.622 435.603 208.381C502.831 213.981 565.463 218.38 617.203 234.139C652.604 244.937 681.027 261.735 702.812 280.373C749.617 320.449 719.832 360.684 770.381 390.681C820.078 420.038 878.626 428.437 922.537 426.117C971.554 423.557 1042.36 401.24 1051.21 361.564C1056.14 339.807 1063.8 315.889 1069.42 291.652C1076.4 262.615 1111.46 235.018 1162.69 223.98C1205.23 214.781 1256.63 215.101 1306.33 207.422C1347.35 201.102 1383.09 191.423 1411 179.185C1443.34 164.946 1467 146.788 1478.74 126.071" stroke="#CFCFCF" stroke-miterlimit="10"/>
<path d="M-177.447 86.1552C-113.623 63.3578 -22.9081 50.4792 53.6806 64.3177C113.76 75.1964 158.522 100.874 185.754 127.831C209.071 151.028 226.431 174.785 260.3 189.344C303.19 207.822 364.29 209.261 433.561 215.181C501.64 221.02 566.144 223.74 620.097 238.858C657.711 249.337 687.835 266.455 710.812 285.493C756.595 323.729 732.257 362.524 781.274 391.641C828.759 419.878 885.264 429.157 929.515 427.397C978.192 425.477 1045.93 403.96 1057.67 366.844C1064.48 345.406 1073.5 321.889 1079.46 297.971C1086.44 269.975 1118.6 243.258 1166.6 231.659C1207.62 221.66 1258.17 220.86 1307.35 213.421C1348.71 207.182 1385.47 198.143 1414.92 186.464C1449.47 172.626 1475.68 154.548 1489.46 133.51" stroke="#CBCBCB" stroke-miterlimit="10"/>
<path d="M-177.277 87.9949C-110.56 65.2775 -18.6534 51.439 60.1479 65.2775C121.079 75.9163 166.862 101.753 193.072 129.19C215.368 152.548 230.005 176.545 261.832 192.223C302.168 211.981 362.588 216.061 431.518 222.14C500.448 228.219 566.825 229.259 623.16 243.737C662.816 253.976 694.814 271.254 718.811 290.772C763.573 327.168 744.681 364.444 792.166 392.841C837.439 419.958 891.732 430.197 936.323 428.917C984.659 427.557 1049.5 406.999 1063.97 372.283C1072.65 351.165 1083.03 328.048 1089.33 304.371C1096.48 277.414 1125.75 251.577 1170.51 239.418C1210.17 228.619 1259.7 226.619 1308.37 219.42C1350.07 213.181 1388.03 204.942 1418.83 193.663C1455.77 180.225 1484.36 162.147 1500.19 140.949" stroke="#C7C7C7" stroke-miterlimit="10"/>
<path d="M-177.107 89.8348C-107.667 67.1173 -14.5689 52.399 66.6152 66.1575C128.227 76.6363 175.201 102.473 200.56 130.47C221.835 153.988 233.749 178.305 263.704 195.023C301.317 216.141 361.227 222.78 429.816 229.019C499.597 235.418 567.846 234.619 626.564 248.617C668.262 258.536 702.132 276.134 727.321 295.972C770.891 330.528 757.616 366.284 803.399 393.961C846.459 419.958 898.71 431.076 943.642 430.437C991.807 429.717 1053.76 410.039 1070.61 377.802C1081.5 357.085 1092.9 334.287 1099.37 310.85C1106.52 284.933 1132.9 259.976 1174.6 247.257C1212.72 235.658 1261.4 232.539 1309.57 225.5C1351.6 219.34 1390.58 211.741 1423.09 201.022C1462.23 188.064 1493.38 169.986 1511.25 148.548" stroke="#C2C2C2" stroke-miterlimit="10"/>
<path d="M-176.936 91.6747C-104.603 69.0373 -10.3133 53.2791 73.0833 67.0375C135.546 77.3564 183.541 103.273 207.88 131.75C228.133 155.348 237.494 179.985 265.236 197.823C300.297 220.3 359.695 229.499 427.774 235.899C498.406 242.538 568.698 240.058 629.628 253.417C673.539 263.016 709.11 280.854 735.491 301.171C778.04 333.968 770.211 368.204 814.462 395.081C855.48 419.958 905.348 431.957 950.62 431.877C998.446 431.717 1057.84 412.999 1077.08 383.162C1090.18 362.764 1102.61 340.367 1109.41 317.249C1116.73 292.372 1139.88 268.215 1178.51 255.016C1214.94 242.538 1262.93 238.378 1310.59 231.499C1352.97 225.42 1393.13 218.541 1427 208.302C1468.53 195.743 1502.06 177.745 1521.97 155.988" stroke="#BEBEBE" stroke-miterlimit="10"/>
<path d="M-176.596 93.4344C-101.709 70.8769 -6.0586 54.2388 79.3804 67.9172C142.524 77.9961 191.711 104.073 215.198 133.03C234.43 156.787 241.238 181.744 266.938 200.622C299.445 224.38 358.163 236.218 426.072 242.778C497.555 249.737 569.719 245.417 632.862 258.216C678.815 267.495 716.088 285.653 743.66 306.37C784.848 337.327 782.805 370.043 825.525 396.12C864.33 419.878 912.155 432.756 957.768 433.236C1005.25 433.716 1062.44 415.958 1083.54 388.521C1099.03 368.523 1112.31 346.446 1119.29 323.569C1126.6 299.811 1146.86 276.294 1182.43 262.615C1217.32 249.257 1264.29 244.057 1311.44 237.338C1354.16 231.259 1395.35 225.18 1430.92 215.421C1474.66 203.342 1510.74 185.344 1532.69 163.347" stroke="#BABABA" stroke-miterlimit="10"/>
<path d="M-176.427 95.2743C-98.6465 72.7169 -1.80421 55.1988 85.8474 68.7973C149.842 78.7162 200.05 104.793 222.516 134.31C240.727 158.227 244.982 183.424 268.639 203.422C298.594 228.539 356.631 242.938 424.2 249.657C496.533 256.856 570.569 250.777 636.095 263.015C684.091 271.974 723.066 290.532 751.999 311.57C791.996 340.767 795.74 371.883 836.758 397.24C873.52 419.798 919.133 433.636 964.916 434.676C1012.06 435.716 1067.03 419.078 1090.18 393.881C1108.05 374.363 1122.18 352.525 1129.5 329.888C1136.82 307.171 1153.84 284.453 1186.51 270.295C1219.7 255.976 1266 249.817 1312.63 243.338C1355.69 237.338 1397.9 231.979 1435 222.62C1481.12 211.021 1519.59 192.943 1543.59 170.786" stroke="#B5B5B5" stroke-miterlimit="10"/>
<path d="M-176.256 97.1139C-95.7525 74.6365 2.28099 56.1585 92.3153 69.757C156.99 79.5159 208.39 105.673 230.005 135.75C247.195 159.827 248.727 185.344 270.342 206.382C297.743 232.859 355.27 249.817 422.328 256.696C495.513 264.215 571.421 256.296 639.329 268.055C689.367 276.694 730.044 295.572 760.339 317.009C799.144 344.446 808.505 373.963 847.991 398.6C882.541 420.038 925.941 434.756 972.235 436.356C1019.21 437.956 1071.97 422.438 1096.82 399.56C1117.41 380.522 1132.05 358.925 1139.71 336.607C1147.03 314.93 1160.98 292.932 1190.77 278.374C1222.08 263.095 1267.87 255.976 1313.99 249.657C1357.39 243.738 1400.79 239.098 1439.26 230.219C1487.59 219.1 1528.61 201.022 1554.65 178.545" stroke="#B1B1B1" stroke-miterlimit="10"/>
<path d="M-176.086 98.9538C-92.8597 76.4764 6.53553 57.1185 98.7824 70.637C164.138 80.236 216.899 106.393 237.323 137.03C253.492 161.187 252.471 187.024 272.043 209.181C296.722 236.938 353.738 256.536 420.455 263.495C494.491 271.334 572.271 261.576 642.392 272.774C694.643 281.093 736.852 300.371 768.338 322.049C805.782 347.726 820.929 375.723 858.713 399.56C891.221 419.878 932.409 435.476 978.872 437.636C1025.51 439.796 1076.4 425.557 1102.95 404.76C1126.43 386.282 1141.41 364.844 1149.24 342.766C1156.56 322.129 1167.11 300.931 1194.17 285.893C1223.45 269.655 1268.89 261.576 1314.5 255.416C1358.24 249.577 1402.66 245.657 1442.83 237.258C1493.55 226.62 1536.95 208.542 1565.03 185.824" stroke="#ADADAD" stroke-miterlimit="10"/>
<path d="M-175.916 100.714C-89.7959 78.3161 10.6204 58.1584 105.08 71.5169C171.287 80.9559 225.069 107.193 244.471 138.309C259.789 162.627 255.875 188.784 273.405 211.981C295.531 241.098 351.866 263.255 418.243 270.375C493.13 278.534 572.952 266.935 645.286 277.574C699.579 285.573 743.149 305.251 776.338 327.248C812.42 351.166 833.354 377.563 869.606 400.6C899.901 419.798 938.876 436.196 985.851 438.996C1032.31 441.715 1081.16 428.837 1109.24 410.119C1135.79 392.361 1150.77 370.923 1159.11 349.086C1166.43 329.488 1173.75 309.01 1198.09 293.572C1225.32 276.374 1270.42 267.335 1315.35 261.336C1359.43 255.576 1404.88 252.377 1446.57 244.378C1499.51 234.219 1545.29 216.141 1575.58 193.183" stroke="#A8A8A8" stroke-miterlimit="10"/>
<path d="M-175.575 102.553C-86.7324 80.1559 15.0458 59.0382 111.718 72.3967C178.605 81.5957 233.579 107.993 252.13 139.589C266.427 164.066 259.96 190.463 275.448 214.781C294.85 245.257 350.845 269.975 416.711 277.254C492.449 285.653 574.144 272.294 648.86 282.373C705.195 290.052 750.298 310.21 785.018 332.447C819.738 354.685 846.459 379.482 881.179 401.72C909.262 419.798 946.195 437.076 993.339 440.435C1039.46 443.715 1086.44 432.356 1116.22 415.478C1146.01 398.6 1160.98 377.003 1169.49 355.485C1176.81 336.927 1180.56 317.249 1202.51 301.331C1227.53 283.093 1272.46 273.094 1316.88 267.415C1361.31 261.655 1407.94 259.336 1451.17 251.737C1506.31 242.058 1554.65 223.9 1586.99 200.702" stroke="#A4A4A4" stroke-miterlimit="10"/>
</mask>
<g mask="url(#mask0_224_223)">
<rect x="1371.97" y="6.37238" width="518.258" height="1408.27" transform="rotate(90 1371.97 6.37238)" fill="#8C9FDD"/>
</g>
</g>
<rect x="0.151855" y="252" width="1368" height="127" fill="#8C9FDD"/>
<rect x="412.152" y="135" width="117" height="117" fill="#DBE0EE"/>
<rect x="344.152" y="195" width="117" height="117" fill="#E7ECFD"/>
<g clip-path="url(#clip0_224_223)">
<path d="M612.452 39.4L617.652 50C618.052 50.8 618.752 51.3 619.552 51.4L631.252 53.1C633.352 53.4 634.152 56 632.652 57.5L624.152 65.7C623.552 66.3 623.252 67.1 623.452 68L625.452 79.6C625.852 81.7 623.652 83.3 621.752 82.3L611.252 76.8C610.552 76.4 609.652 76.4 608.852 76.8L598.352 82.3C596.452 83.3 594.252 81.7 594.652 79.6L596.652 68C596.752 67.2 596.552 66.3 595.952 65.7L587.452 57.5C585.952 56 586.752 53.4 588.852 53.1L600.552 51.4C601.352 51.3 602.152 50.8 602.452 50L607.652 39.4C608.752 37.5 611.452 37.5 612.452 39.4Z" fill="#FF725E"/>
<path d="M592.452 46.4C592.352 46.5 585.752 40.3 577.652 32.6C569.552 25 563.152 18.6 563.252 18.5C563.352 18.4 569.952 24.6 578.052 32.3C586.152 40 592.552 46.3 592.452 46.4Z" fill="#FF725E"/>
<path d="M578.652 52.9C578.652 53 572.952 52.8 565.952 52.4C558.952 52 553.252 51.5 553.252 51.4C553.252 51.3 558.952 51.5 565.952 51.9C572.952 52.3 578.652 52.8 578.652 52.9Z" fill="#FF725E"/>
<path d="M600.252 34C600.152 34.1 598.452 30.6 596.552 26.4C594.652 22.1 593.252 18.6 593.352 18.6C593.452 18.5 595.152 22 597.052 26.2C598.952 30.4 600.352 33.9 600.252 34Z" fill="#FF725E"/>
<path d="M609.052 0C609.152 0 609.352 7 609.352 15.6C609.352 24.2 609.252 31.2 609.052 31.2C608.852 31.2 608.752 24.2 608.752 15.6C608.852 7 608.952 0 609.052 0Z" fill="#FF725E"/>
<path d="M626.752 18.8C626.852 18.9 625.452 22.2 623.452 26.3C621.452 30.4 619.852 33.7 619.652 33.6C619.552 33.5 620.952 30.2 622.952 26.1C624.952 22 626.652 18.7 626.752 18.8Z" fill="#FF725E"/>
<path d="M655.352 23.9C655.452 24 647.852 29.5 638.352 36.1C628.852 42.7 621.052 48 620.952 47.9C620.852 47.8 628.452 42.3 637.952 35.7C647.452 29.1 655.252 23.8 655.352 23.9Z" fill="#FF725E"/>
<path d="M656.052 46C656.152 46.1 652.352 47.7 647.652 49.6C642.952 51.4 639.052 52.8 639.052 52.7C638.952 52.6 642.752 51 647.452 49.1C652.152 47.3 656.052 45.9 656.052 46Z" fill="#FF725E"/>
<path d="M589.552 67.3C589.552 67.4 579.652 71 567.352 75.2C555.152 79.4 545.152 82.8 545.152 82.6C545.152 82.5 555.052 78.9 567.352 74.7C579.552 70.5 589.552 67.2 589.552 67.3Z" fill="#FF725E"/>
<path d="M667.752 78.2C667.752 78.3 658.952 76 648.252 73C637.552 70 628.852 67.4 628.852 67.3C628.852 67.2 637.652 69.5 648.352 72.5C659.152 75.5 667.852 78.1 667.752 78.2Z" fill="#FF725E"/>
<path d="M581.452 96.3C581.352 96.2 584.052 93.7 587.352 90.8C590.752 87.9 593.552 85.6 593.652 85.7C593.752 85.8 591.052 88.3 587.752 91.2C584.352 94.1 581.552 96.4 581.452 96.3Z" fill="#FF725E"/>
<path d="M609.952 120.8C609.852 120.8 609.752 112.3 609.752 101.7C609.852 91.2 609.952 82.6 610.152 82.6C610.252 82.6 610.352 91.1 610.352 101.7C610.252 112.2 610.052 120.8 609.952 120.8Z" fill="#FF725E"/>
<path d="M639.352 98.4C639.252 98.5 636.552 96.1 633.252 93C629.952 89.9 627.352 87.3 627.452 87.2C627.552 87.1 630.252 89.5 633.552 92.6C636.952 95.7 639.452 98.3 639.352 98.4Z" fill="#FF725E"/>
<path d="M660.852 62.4L660.952 64.1C660.952 64.2 661.052 64.3 661.152 64.4L662.652 65.3C662.952 65.5 662.852 65.9 662.552 66L660.952 66.6C660.852 66.6 660.752 66.7 660.752 66.9L660.352 68.6C660.252 68.9 659.852 69 659.652 68.7L658.552 67.4C658.452 67.3 658.352 67.3 658.252 67.3L656.552 67.4C656.252 67.4 656.052 67.1 656.252 66.8L657.152 65.4C657.252 65.3 657.252 65.2 657.152 65.1L656.452 63.5C656.352 63.2 656.552 62.9 656.852 63L658.552 63.4C658.652 63.4 658.752 63.4 658.852 63.3L660.152 62.2C660.452 61.9 660.852 62.1 660.852 62.4Z" fill="#FF725E"/>
<path d="M671.852 44.3L672.652 45.1C672.752 45.2 672.752 45.2 672.852 45.2L673.952 45C674.152 45 674.352 45.2 674.252 45.4L673.752 46.4C673.752 46.5 673.752 46.6 673.752 46.6L674.252 47.6C674.352 47.8 674.152 48 673.952 48L672.852 47.8C672.752 47.8 672.652 47.8 672.652 47.9L671.852 48.7C671.752 48.8 671.452 48.8 671.452 48.6L671.252 47.5C671.252 47.4 671.152 47.4 671.152 47.3L670.152 46.8C669.952 46.7 669.952 46.4 670.152 46.4L671.152 45.9C671.252 45.9 671.252 45.8 671.252 45.7L671.452 44.6C671.452 44.2 671.752 44.1 671.852 44.3Z" fill="#FF725E"/>
<path d="M545.052 30.7L545.852 31.5C545.952 31.6 545.952 31.6 546.052 31.6L547.152 31.4C547.352 31.4 547.552 31.6 547.452 31.8L546.952 32.8C546.952 32.9 546.952 33 546.952 33L547.452 34C547.552 34.2 547.352 34.4 547.152 34.4L546.052 34.2C545.952 34.2 545.852 34.2 545.852 34.3L544.952 35C544.852 35.1 544.552 35.1 544.552 34.9L544.352 33.8C544.352 33.7 544.252 33.7 544.252 33.6L543.252 33.1C543.052 33 543.052 32.7 543.252 32.7L544.252 32.2C544.352 32.2 544.352 32.1 544.352 32L544.552 30.9C544.652 30.6 544.952 30.5 545.052 30.7Z" fill="#FF725E"/>
<path d="M568.752 185.9C590.552 185.9 612.252 185.9 634.052 185.9C640.152 185.9 646.352 185.9 652.452 185.9C655.652 185.9 655.652 180.9 652.452 180.9C630.652 180.9 608.952 180.9 587.152 180.9C581.052 180.9 574.852 180.9 568.752 180.9C565.552 180.9 565.552 185.9 568.752 185.9Z" fill="#455A64"/>
<path d="M571.652 90.3H565.652V474.3H571.652V90.3Z" fill="#455A64"/>
<path d="M571.352 474.3C571.252 474.3 571.052 388.4 571.052 282.4C571.052 176.4 571.152 90.5 571.352 90.5C571.452 90.5 571.652 176.4 571.652 282.4C571.552 388.4 571.452 474.3 571.352 474.3Z" fill="#263238"/>
<path d="M568.752 147.1C590.552 147.1 612.252 147.1 634.052 147.1C640.152 147.1 646.352 147.1 652.452 147.1C655.652 147.1 655.652 142.1 652.452 142.1C630.652 142.1 608.952 142.1 587.152 142.1C581.052 142.1 574.852 142.1 568.752 142.1C565.552 142.1 565.552 147.1 568.752 147.1Z" fill="#455A64"/>
<path d="M655.352 91.1H649.352V474.3H655.352V91.1Z" fill="#455A64"/>
<path d="M649.552 426.1C649.452 426.1 649.252 351.3 649.252 259C649.252 166.7 649.352 91.9 649.552 91.9C649.652 91.9 649.852 166.7 649.852 259C649.752 351.2 649.652 426.1 649.552 426.1Z" fill="#263238"/>
<path d="M568.652 441.9C590.452 441.9 612.152 441.9 633.952 441.9C640.052 441.9 646.252 441.9 652.352 441.9C655.552 441.9 655.552 436.9 652.352 436.9C630.552 436.9 608.852 436.9 587.052 436.9C580.952 436.9 574.752 436.9 568.652 436.9C565.452 436.9 565.452 441.9 568.652 441.9Z" fill="#455A64"/>
<path d="M570.352 364.3C590.752 364.3 611.152 364.3 631.552 364.3C637.352 364.3 643.152 364.3 648.952 364.3C652.152 364.3 652.152 359.3 648.952 359.3C628.552 359.3 608.152 359.3 587.752 359.3C581.952 359.3 576.152 359.3 570.352 359.3C567.152 359.3 567.152 364.3 570.352 364.3Z" fill="#455A64"/>
<path d="M568.652 310.2C590.452 310.2 612.152 310.2 633.952 310.2C640.052 310.2 646.252 310.2 652.352 310.2C655.552 310.2 655.552 305.2 652.352 305.2C630.552 305.2 608.852 305.2 587.052 305.2C580.952 305.2 574.752 305.2 568.652 305.2C565.452 305.2 565.452 310.2 568.652 310.2Z" fill="#455A64"/>
<path d="M568.652 267.4C590.452 267.4 612.152 267.4 633.952 267.4C640.052 267.4 646.252 267.4 652.352 267.4C655.552 267.4 655.552 262.4 652.352 262.4C630.552 262.4 608.852 262.4 587.052 262.4C580.952 262.4 574.752 262.4 568.652 262.4C565.452 262.4 565.452 267.4 568.652 267.4Z" fill="#455A64"/>
<path d="M568.652 225.7C590.452 225.7 612.152 225.7 633.952 225.7C640.052 225.7 646.252 225.7 652.352 225.7C655.552 225.7 655.552 220.7 652.352 220.7C630.552 220.7 608.852 220.7 587.052 220.7C580.952 220.7 574.752 220.7 568.652 220.7C565.452 220.7 565.452 225.7 568.652 225.7Z" fill="#455A64"/>
<path d="M569.452 404.3C590.052 404.3 610.752 404.3 631.352 404.3C637.252 404.3 643.152 404.3 649.052 404.3C652.252 404.3 652.252 399.3 649.052 399.3C628.452 399.3 607.752 399.3 587.152 399.3C581.252 399.3 575.352 399.3 569.452 399.3C566.252 399.3 566.252 404.3 569.452 404.3Z" fill="#455A64"/>
</g>
<path d="M637.268 228.181L632.168 216.881C632.168 216.881 632.468 210.881 631.568 210.281C630.368 209.581 630.068 210.181 629.768 212.181L629.268 215.181C629.268 215.181 627.368 210.981 625.468 210.781C624.268 210.681 623.868 212.781 623.868 212.781C623.868 212.781 621.868 210.881 620.368 211.281C618.968 211.681 619.368 213.681 619.368 213.681C619.368 213.681 617.668 212.681 616.868 214.481C615.968 216.581 619.768 219.681 620.268 221.081C621.468 223.981 618.968 224.081 618.968 224.081C618.968 224.081 612.468 223.281 612.768 224.881C613.068 226.581 615.268 226.581 616.968 226.681C618.368 226.781 623.568 228.081 625.268 228.581C625.668 228.681 625.968 228.781 626.268 228.981L630.168 232.981L637.268 228.181Z" fill="#FFBE9D"/>
<path d="M634.668 487.981L634.468 516.981L618.768 517.181L618.968 488.081L634.668 487.981Z" fill="#FF725E"/>
<path d="M626.668 515.981C626.568 515.981 626.568 509.581 626.668 501.781C626.868 493.981 627.068 487.581 627.168 487.581C627.268 487.581 627.268 493.981 627.168 501.781C627.068 509.581 626.868 515.981 626.668 515.981Z" fill="#263238"/>
<path d="M618.768 507.881C618.768 507.881 618.868 507.681 619.168 507.281C619.468 506.881 619.968 506.381 620.568 505.781C621.268 505.181 622.068 504.581 623.068 504.081C624.068 503.581 625.368 503.281 626.768 503.281C629.468 503.281 631.768 504.681 632.868 505.981C633.468 506.681 633.768 507.281 633.968 507.681C634.168 508.081 634.268 508.381 634.168 508.381C634.068 508.381 633.668 507.381 632.568 506.181C631.468 504.981 629.268 503.781 626.768 503.681C624.168 503.681 622.068 504.881 620.768 505.981C619.568 507.081 618.868 507.881 618.768 507.881Z" fill="#263238"/>
<path opacity="0.3" d="M618.768 498.581V501.781H634.668V498.581H618.768Z" fill="black"/>
<path d="M618.768 517.181V514.181H634.468V516.981L618.768 517.181Z" fill="#E0E0E0"/>
<path d="M601.768 412.581L601.568 440.481L586.568 440.681L586.668 412.681L601.768 412.581Z" fill="#FF725E"/>
<path d="M594.168 439.481C594.068 439.481 594.068 433.381 594.168 425.881C594.368 418.381 594.568 412.281 594.668 412.281C594.768 412.281 594.768 418.381 594.668 425.881C594.468 433.381 594.268 439.481 594.168 439.481Z" fill="#263238"/>
<path d="M586.568 431.681C586.568 431.681 586.668 431.481 586.968 431.081C587.268 430.681 587.668 430.181 588.368 429.681C588.968 429.181 589.768 428.581 590.768 428.081C591.768 427.581 592.968 427.281 594.268 427.281C596.868 427.281 599.068 428.581 600.068 429.881C600.668 430.481 600.968 431.081 601.168 431.481C601.368 431.881 601.468 432.181 601.368 432.181C601.268 432.181 600.968 431.281 599.868 430.081C598.768 428.881 596.768 427.781 594.268 427.681C591.768 427.681 589.768 428.881 588.568 429.881C587.268 430.981 586.668 431.781 586.568 431.681Z" fill="#263238"/>
<path opacity="0.3" d="M586.568 422.781V425.881H601.768V422.781H586.568Z" fill="black"/>
<path d="M586.568 440.681V437.681H601.568V440.481L586.568 440.681Z" fill="#E0E0E0"/>
<path d="M604.668 225.781L605.068 225.681C606.268 223.481 608.668 222.181 611.168 221.981C613.668 221.881 616.068 222.881 617.968 224.481C619.268 225.581 620.268 227.081 621.568 228.181C622.868 229.281 624.568 230.181 626.268 229.781C626.468 230.381 625.268 230.781 625.368 231.481C625.368 231.781 625.768 231.981 626.068 232.081C626.568 232.181 626.968 232.081 627.468 232.081C627.968 232.081 628.468 232.281 628.568 232.781C628.668 232.981 628.568 233.281 628.468 233.481C627.968 235.481 627.168 237.381 625.768 238.881C624.368 240.381 622.268 241.281 620.268 240.881C618.668 240.581 617.368 239.581 616.068 238.481C613.668 236.581 611.268 234.681 608.868 232.681C607.768 231.781 606.668 230.881 605.768 229.781C604.968 228.681 604.468 227.181 604.668 225.781Z" fill="#263238"/>
<path d="M606.168 226.181C605.168 225.381 604.068 224.781 602.868 224.481C601.668 224.281 600.268 224.481 599.268 225.181C598.368 225.881 597.768 226.981 597.068 227.881C596.368 228.881 595.468 229.781 594.368 229.981C594.168 229.981 593.968 229.981 593.768 230.181C593.468 230.481 593.668 230.881 594.068 231.081C594.368 231.281 594.768 231.181 595.168 231.081C594.568 231.781 593.768 232.181 592.868 232.381C593.068 233.281 594.068 233.781 594.868 233.581C594.568 234.981 594.168 236.281 594.168 237.681C594.168 239.081 594.568 240.581 595.468 241.581C596.468 242.681 598.268 243.381 598.668 244.781" fill="#263238"/>
<path d="M616.268 275.581L597.568 275.381L599.668 259.381C599.668 259.381 598.368 259.081 598.268 252.181C598.168 245.281 597.868 233.481 597.868 233.481C605.868 229.981 615.168 231.181 622.068 236.481L623.068 237.281L616.268 275.581Z" fill="#FFBE9D"/>
<path d="M620.968 245.881C621.068 245.781 625.768 244.481 625.568 249.181C625.368 253.881 620.668 252.781 620.668 252.681C620.668 252.481 620.968 245.881 620.968 245.881Z" fill="#FFBE9D"/>
<path d="M598.668 244.881C598.568 244.781 594.368 243.681 594.468 248.481C594.668 253.181 599.368 252.081 599.368 251.981C599.368 251.781 598.668 244.881 598.668 244.881Z" fill="#FFBE9D"/>
<path d="M622.468 245.281C621.768 249.281 621.868 251.381 621.268 253.981C620.268 258.181 618.168 261.381 614.368 263.481C610.568 265.581 605.468 265.581 602.268 262.681C599.968 260.681 598.368 258.481 598.068 255.481C597.768 252.481 596.868 246.881 596.868 243.881C596.868 238.481 596.968 233.581 596.968 233.581L612.468 230.781L621.268 235.981L622.468 245.281Z" fill="#263238"/>
<path d="M606.468 265.981C606.468 266.081 607.668 266.381 609.168 266.181C610.668 265.981 611.768 265.481 611.768 265.381C611.768 265.281 610.568 265.581 609.168 265.781C607.768 265.981 606.568 265.881 606.468 265.981Z" fill="#263238"/>
<path d="M621.668 252.081C622.168 247.981 622.368 243.381 623.068 239.081C623.268 237.481 623.868 235.181 623.768 233.481C623.668 231.881 623.168 232.381 622.468 230.881C621.568 229.081 618.168 227.781 616.168 227.381C614.168 226.981 613.868 225.281 612.368 226.581C611.268 224.881 609.068 223.981 607.068 224.481C605.068 224.981 603.468 226.681 603.268 228.681C602.168 227.681 600.368 227.481 599.068 228.181C597.768 228.981 597.068 230.681 597.568 232.181C596.468 232.381 595.468 233.181 594.968 234.181C594.468 235.181 594.568 236.481 595.268 237.381C595.968 238.481 597.268 239.081 598.068 240.181C598.968 241.381 599.068 243.181 598.268 244.481" fill="#263238"/>
<path d="M601.768 251.181C601.668 251.181 601.468 253.081 602.268 255.381C603.068 257.581 604.568 258.981 604.668 258.881C604.768 258.781 603.468 257.381 602.668 255.281C601.868 253.081 601.968 251.181 601.768 251.181Z" fill="#455A64"/>
<path d="M599.668 247.781C599.568 247.781 598.968 249.381 599.368 251.581C599.768 253.681 600.868 255.081 600.968 254.981C601.068 254.881 600.168 253.481 599.768 251.481C599.468 249.481 599.868 247.781 599.668 247.781Z" fill="#455A64"/>
<path d="M619.168 231.381C617.968 229.481 616.368 227.881 614.368 227.081C612.368 226.281 609.868 226.481 608.168 227.881" fill="#263238"/>
<path d="M618.768 241.881C618.668 241.881 618.768 241.281 618.968 240.481C619.068 239.681 619.368 238.481 619.368 237.181C619.368 235.881 619.068 234.781 618.668 234.081C618.268 233.381 617.968 232.981 617.968 232.881C617.968 232.881 618.468 233.081 618.968 233.881C619.468 234.581 619.868 235.881 619.868 237.181C619.868 238.581 619.568 239.781 619.368 240.581C619.068 241.381 618.868 241.881 618.768 241.881Z" fill="#455A64"/>
<path d="M615.568 243.381C615.468 243.281 615.768 242.381 616.168 241.181C616.568 239.981 616.768 238.981 616.968 239.081C617.068 239.081 617.168 240.181 616.768 241.381C616.368 242.681 615.768 243.481 615.568 243.381Z" fill="#455A64"/>
<path d="M600.768 242.181C600.768 242.181 600.168 241.681 599.668 240.481C599.168 239.381 598.868 237.581 599.168 235.681C599.568 233.781 600.568 232.281 601.468 231.381C602.368 230.481 603.068 230.181 603.068 230.181C603.168 230.281 602.468 230.681 601.768 231.581C600.968 232.481 600.068 233.881 599.768 235.681C599.368 237.481 599.668 239.081 600.068 240.281C600.368 241.481 600.868 242.181 600.768 242.181Z" fill="#455A64"/>
<path d="M617.668 224.581C617.668 224.681 617.068 224.381 616.168 223.981C615.268 223.581 613.968 223.081 612.468 223.081C610.968 223.081 609.768 223.781 609.068 224.481C608.368 225.181 608.268 225.881 608.168 225.881C608.068 225.881 608.068 225.181 608.768 224.281C609.068 223.881 609.568 223.381 610.168 223.081C610.768 222.781 611.568 222.581 612.368 222.581C613.968 222.581 615.368 223.181 616.268 223.681C617.168 224.081 617.668 224.481 617.668 224.581Z" fill="#455A64"/>
<path d="M596.468 228.981C596.368 228.981 596.568 228.381 597.068 227.681C597.568 226.981 598.468 226.181 599.768 225.781C601.068 225.381 602.268 225.581 603.068 225.981C603.868 226.281 604.268 226.681 604.168 226.781C604.168 226.881 603.668 226.581 602.868 226.381C602.068 226.181 600.968 226.081 599.868 226.381C598.768 226.681 597.868 227.381 597.268 227.981C596.868 228.481 596.568 228.981 596.468 228.981Z" fill="#455A64"/>
<path d="M601.568 246.381C601.568 246.281 602.368 246.081 603.568 245.581C604.768 244.981 606.568 244.081 608.168 242.481L609.068 241.581L608.568 242.781C608.268 243.481 608.068 244.281 607.868 245.081C607.768 245.481 607.768 245.981 607.868 245.981C607.968 246.081 608.368 245.881 608.768 245.681C610.068 244.881 611.068 243.881 611.968 242.881L612.768 241.881L612.368 243.081C611.968 244.281 611.668 245.481 611.368 246.481L610.968 246.281C613.168 244.181 613.868 242.381 613.968 242.481C613.968 242.481 613.868 242.981 613.468 243.681C613.068 244.481 612.368 245.481 611.268 246.581L610.668 247.181L610.868 246.381C611.168 245.381 611.468 244.181 611.868 242.981L612.268 243.181C611.368 244.281 610.268 245.281 608.968 246.181C608.768 246.281 608.568 246.381 608.368 246.581C608.168 246.681 607.768 246.781 607.468 246.581C607.168 246.381 607.168 245.981 607.168 245.781C607.168 245.481 607.268 245.381 607.268 245.081C607.468 244.281 607.668 243.481 607.968 242.681L608.368 242.981C606.668 244.581 604.868 245.481 603.568 245.981C602.468 246.281 601.568 246.481 601.568 246.381Z" fill="#455A64"/>
<path d="M610.668 228.081C610.368 227.481 609.768 227.081 609.168 226.881C608.568 226.681 607.868 226.681 607.268 226.881C605.668 227.181 604.268 227.981 603.268 229.181C603.068 229.481 602.868 229.881 603.068 230.181C603.168 230.281 603.368 230.381 603.568 230.381C605.868 230.581 608.268 230.481 610.568 230.181" fill="#263238"/>
<path d="M580.068 367.581C580.368 368.181 584.168 380.781 592.568 382.981C600.968 385.181 626.968 383.681 627.668 382.981C628.368 382.281 636.068 378.081 639.768 369.281C643.468 360.481 616.868 345.181 616.868 345.181L580.068 367.581Z" fill="#263238"/>
<path d="M644.168 370.981L644.368 378.081C644.368 379.181 644.268 384.681 644.068 385.681L640.868 429.581C640.568 429.481 638.668 456.581 638.468 466.081C638.268 475.281 637.568 500.181 637.568 500.181H616.168L614.768 458.881L613.868 414.281L612.568 383.081L644.168 370.981Z" fill="#263238"/>
<path d="M580.068 360.581C580.068 360.581 580.568 361.281 580.468 370.981C580.368 378.381 584.868 424.181 584.868 424.181L603.168 423.581L606.768 377.681L580.068 360.581Z" fill="#263238"/>
<path d="M614.268 383.581C614.268 383.581 613.768 383.681 612.768 383.781C611.768 383.881 610.368 383.981 608.568 384.081C605.068 384.281 600.068 384.381 594.668 383.281C589.268 382.181 584.968 379.081 582.868 376.181C581.768 374.781 581.168 373.381 580.868 372.481C580.668 371.981 580.668 371.581 580.568 371.381C580.468 371.081 580.468 370.981 580.468 370.981C580.568 370.881 580.968 373.181 583.168 375.981C585.268 378.781 589.468 381.681 594.768 382.781C600.068 383.881 604.968 383.881 608.568 383.781C610.268 383.681 611.668 383.681 612.768 383.581C613.668 383.581 614.268 383.581 614.268 383.581Z" fill="#455A64"/>
<path d="M635.868 382.681C635.868 382.781 634.968 382.981 633.568 383.281C632.068 383.581 630.068 383.881 627.768 384.081C625.468 384.281 623.468 384.281 621.968 384.281C620.468 384.281 619.568 384.181 619.568 384.081C619.568 383.981 620.468 383.981 621.968 383.881C623.468 383.781 625.468 383.681 627.768 383.481C630.068 383.281 632.068 382.981 633.568 382.781C634.968 382.781 635.868 382.581 635.868 382.681Z" fill="#455A64"/>
<path d="M635.268 390.681C635.268 390.781 634.068 390.681 632.168 390.381C630.268 390.081 627.668 389.581 624.868 388.881C622.068 388.181 619.468 387.381 617.668 386.781C615.868 386.181 614.768 385.681 614.768 385.581C614.768 385.481 615.968 385.881 617.768 386.381C619.568 386.881 622.168 387.681 624.968 388.381C627.768 389.081 630.368 389.581 632.268 389.981C634.068 390.381 635.268 390.681 635.268 390.681Z" fill="#455A64"/>
<path d="M630.168 236.881C630.268 236.581 627.568 232.181 627.568 232.181C627.568 232.181 633.468 225.881 636.968 226.081L640.368 230.781L630.168 236.881Z" fill="white"/>
<path d="M658.068 256.581C656.768 252.581 640.568 229.281 640.568 229.281C634.568 229.281 628.768 236.481 628.768 236.481L640.268 260.681L628.168 271.781L641.868 287.881C641.868 287.881 650.468 277.081 653.068 273.181C658.868 264.481 659.368 260.581 658.068 256.581Z" fill="#FF725E"/>
<path opacity="0.3" d="M579.568 366.281C579.568 366.281 580.968 375.281 588.468 377.881C595.968 380.581 613.368 377.881 613.368 377.881L615.368 371.381L617.568 379.081L644.468 375.681L644.068 369.581L615.568 357.781L579.568 366.281Z" fill="black"/>
<path d="M638.168 336.281C637.568 333.081 636.868 331.481 636.768 329.581C636.368 323.881 636.368 310.081 636.768 308.381C637.268 306.081 641.868 287.881 641.868 287.881L640.268 273.781L620.468 270.481L619.068 267.281C619.068 267.281 605.868 263.881 597.468 268.381L596.068 271.781L590.868 273.081C590.068 273.381 586.068 274.481 582.968 275.381C579.568 276.281 576.668 278.681 575.168 281.881C574.668 282.881 574.268 284.081 573.768 285.381C572.368 289.481 564.568 311.881 564.168 318.681C563.768 326.681 570.868 326.981 575.168 325.981C579.368 324.981 584.268 315.281 584.268 315.281L586.968 334.181C586.968 334.181 586.368 338.181 585.068 341.781C582.468 348.981 578.668 362.881 578.668 362.881C580.168 367.481 585.568 374.881 588.368 375.881C591.168 376.881 610.068 376.081 610.068 376.081L615.668 361.281L620.768 376.781L647.568 372.581L638.168 336.281Z" fill="#FF725E"/>
<path d="M615.468 330.781C615.568 330.881 611.668 333.481 606.868 336.481C602.068 339.481 598.068 341.881 597.968 341.681C597.868 341.581 601.768 338.981 606.568 335.981C611.468 333.081 615.468 330.681 615.468 330.781Z" fill="#263238"/>
<path d="M608.468 338.581C608.568 338.681 604.468 341.381 599.368 344.681C594.268 347.881 590.068 350.481 589.968 350.281C589.868 350.181 593.968 347.481 599.068 344.181C604.168 340.981 608.368 338.481 608.468 338.581Z" fill="#263238"/>
<path d="M629.668 317.381C629.768 317.481 628.668 319.881 626.468 322.381C624.268 324.881 621.968 326.281 621.968 326.181C621.868 326.081 623.968 324.481 626.068 322.081C628.168 319.581 629.468 317.281 629.668 317.381Z" fill="#263238"/>
<path d="M630.168 319.981C630.268 319.981 629.868 320.781 629.268 321.981C628.668 323.181 627.668 324.781 626.468 326.481C625.268 328.181 623.968 329.581 623.068 330.481C622.068 331.481 621.468 331.981 621.368 331.981C621.268 331.881 623.568 329.481 626.068 326.181C628.468 322.781 630.068 319.881 630.168 319.981Z" fill="#263238"/>
<path d="M630.768 344.481C630.668 344.481 630.968 343.481 631.468 341.781C631.968 340.181 632.568 337.881 633.168 335.381C633.768 332.881 634.168 330.581 634.468 328.881C634.768 327.181 634.968 326.181 635.068 326.181C635.168 326.181 635.068 327.281 634.868 328.981C634.668 330.681 634.268 332.981 633.668 335.581C633.068 338.081 632.368 340.381 631.868 341.981C631.268 343.481 630.868 344.481 630.768 344.481Z" fill="#263238"/>
<path d="M640.668 285.681C640.568 285.781 638.768 282.681 636.068 279.281C633.368 275.881 630.868 273.381 630.968 273.281C630.968 273.281 631.668 273.781 632.768 274.781C633.768 275.781 635.168 277.281 636.568 278.981C637.968 280.681 638.968 282.381 639.768 283.681C640.368 284.781 640.668 285.581 640.668 285.681Z" fill="#263238"/>
<path d="M644.968 278.581C644.868 278.681 643.568 276.181 640.968 274.181C638.368 272.181 635.668 271.581 635.768 271.381C635.768 271.281 636.468 271.381 637.468 271.681C638.468 271.981 639.868 272.681 641.268 273.681C642.568 274.681 643.568 275.881 644.168 276.881C644.768 277.881 644.968 278.481 644.968 278.581Z" fill="#263238"/>
<path d="M586.968 334.181C586.868 334.181 585.268 323.881 583.368 311.081C581.568 298.281 580.168 287.881 580.268 287.881C580.368 287.881 581.968 298.181 583.868 310.981C585.668 323.781 587.068 334.181 586.968 334.181Z" fill="#263238"/>
<path d="M620.768 270.481C620.768 270.581 619.368 270.481 617.068 270.381C614.768 270.281 611.668 270.281 608.268 270.381C604.868 270.581 601.768 270.881 599.468 271.181C597.268 271.481 595.868 271.681 595.868 271.681C595.868 271.681 596.168 271.581 596.768 271.381C597.368 271.181 598.268 271.081 599.368 270.881C601.568 270.481 604.668 270.081 608.168 269.881C611.668 269.681 614.768 269.781 616.968 269.981C618.068 270.081 618.968 270.181 619.668 270.281C620.368 270.381 620.768 270.481 620.768 270.481Z" fill="#263238"/>
<g opacity="0.3">
<path d="M584.368 315.981C583.268 307.981 581.868 299.981 580.768 291.981C577.868 299.781 579.468 309.081 584.368 315.981Z" fill="black"/>
</g>
<g opacity="0.3">
<path d="M640.068 260.281C641.968 258.481 644.368 257.381 646.868 256.981C648.068 256.781 649.468 256.881 650.368 257.681C650.568 257.881 650.768 258.081 650.768 258.381C650.768 258.681 650.468 258.881 650.168 258.881C649.868 258.981 649.668 258.881 649.368 258.881C646.368 258.381 643.068 259.281 640.068 260.281Z" fill="black"/>
</g>
<g opacity="0.3">
<path d="M597.068 271.881C599.568 272.681 602.268 272.481 604.968 272.281C609.668 271.881 614.268 271.281 618.868 270.481C611.468 269.481 603.868 269.881 596.568 271.781" fill="black"/>
</g>
<g opacity="0.3">
<path d="M596.068 346.781C606.568 343.881 616.268 337.781 623.468 329.581C615.168 334.881 604.268 340.981 596.068 346.781Z" fill="black"/>
</g>
<path d="M646.668 259.181C646.668 259.381 644.968 258.881 643.068 259.481C641.168 259.981 639.968 261.181 639.868 261.081C639.868 261.081 640.068 260.681 640.568 260.181C641.068 259.681 641.868 259.181 642.968 258.881C643.968 258.581 644.968 258.581 645.668 258.681C646.268 258.881 646.668 259.081 646.668 259.181Z" fill="#263238"/>
<defs>
<clipPath id="clip0_224_223">
<rect width="131.1" height="474.3" fill="white" transform="translate(543.152)"/>
</clipPath>
</defs>
</svg>
