<svg width="505" height="315" viewBox="0 0 505 315" fill="none" xmlns="http://www.w3.org/2000/svg">
<g clip-path="url(#clip0_232_232)">
<path d="M465.852 307.5H29.9521C21.9521 307.5 15.3521 301 15.3521 292.9V14.6C15.3521 6.6 21.852 0 29.9521 0H465.852C473.852 0 480.452 6.5 480.452 14.6V293C480.452 301 473.952 307.5 465.852 307.5Z" fill="#455A64"/>
<path d="M486.252 314.6H17.9519C8.15185 314.6 0.151855 306.6 0.151855 296.8V287.7H504.052V296.8C504.052 306.6 496.052 314.6 486.252 314.6Z" fill="#455A64"/>
<path d="M202.052 284.8L208.352 294.7H296.252L302.052 284.8H202.052Z" fill="#263238"/>
<path d="M476.452 284.8C476.452 285 373.252 285.1 245.952 285.1C118.652 285.1 15.4517 285 15.4517 284.8C15.4517 284.6 118.652 284.5 245.952 284.5C373.252 284.5 476.452 284.6 476.452 284.8Z" fill="#263238"/>
<path d="M462.052 276.7H31.9519C30.1519 276.7 28.6519 275.2 28.6519 273.4V21C28.6519 19.2 30.1519 17.7 31.9519 17.7H462.052C463.852 17.7 465.352 19.2 465.352 21V273.4C465.252 275.2 463.852 276.7 462.052 276.7Z" fill="#EBEBEB"/>
<path d="M464.852 277H28.252L28.652 37H464.852V277Z" fill="white"/>
<path d="M64.5518 27.7C64.5518 29.6 62.9518 31.2 61.0518 31.2C59.1518 31.2 57.5518 29.6 57.5518 27.7C57.5518 25.8 59.1518 24.2 61.0518 24.2C62.9518 24.2 64.5518 25.8 64.5518 27.7Z" fill="#263238"/>
<path d="M43.3521 27.7C43.3521 29.6 41.7521 31.2 39.8521 31.2C37.9521 31.2 36.3521 29.6 36.3521 27.7C36.3521 25.8 37.9521 24.2 39.8521 24.2C41.8521 24.2 43.3521 25.8 43.3521 27.7Z" fill="#263238"/>
<path d="M53.5518 27.7C53.5518 29.6 51.9518 31.2 50.0518 31.2C48.1518 31.2 46.5518 29.6 46.5518 27.7C46.5518 25.8 48.1518 24.2 50.0518 24.2C51.9518 24.2 53.5518 25.8 53.5518 27.7Z" fill="#263238"/>
</g>
<defs>
<clipPath id="clip0_232_232">
<rect width="503.9" height="314.6" fill="white" transform="translate(0.151855)"/>
</clipPath>
</defs>
</svg>
