<svg width="93" height="38" viewBox="0 0 93 38" fill="none" xmlns="http://www.w3.org/2000/svg">
<path d="M5 37.2595C7.0944 36.7561 13.1312 35.487 17.32 34.2978C21.5088 33.1087 25.4512 32.2355 29.64 30.2645C33.8288 28.2936 37.7712 24.2 41.96 22.704C46.1488 21.2079 50.0912 23.0568 54.28 21.4642C58.4688 19.8717 62.4112 14.1478 66.6 13.3362C70.7888 12.5245 74.7312 18.787 78.92 16.6898C83.1088 14.5927 90.4056 3.66727 92.5 1L93 38H5V37.2595Z" fill="url(#paint0_linear_334_430)" fill-opacity="0.3"/>
<path d="M1 37C3.11286 36.5001 9.20286 35.2401 13.4286 34.0595C17.6543 32.8788 21.7743 32.4568 26 30.5C30.2257 28.5432 35 26.5 38.2857 22.5486C42.5114 21.0633 46.4886 22.8989 50.7143 21.3178C54.94 19.7366 54.8571 21.7521 63.5 13.5C67.3571 11.2521 71.5 17 75.5714 16.5775C81 16.5 89.8871 3.64818 92 1" stroke="#FFA730" stroke-width="2"/>
<defs>
<linearGradient id="paint0_linear_334_430" x1="49" y1="1" x2="49" y2="38" gradientUnits="userSpaceOnUse">
<stop stop-color="#FFA730"/>
<stop offset="1" stop-color="#FFA730" stop-opacity="0"/>
</linearGradient>
</defs>
</svg>
