<svg width="792" height="401" viewBox="0 0 792 401" fill="none" xmlns="http://www.w3.org/2000/svg">
<path d="M17.0813 67.0052C16.2387 67.5578 15.304 67.9744 14.2772 68.2549C13.2505 68.5353 12.1317 68.6797 10.9208 68.6879C8.44685 68.7048 6.37094 67.8922 4.69302 66.25C3.02803 64.5946 1.91157 62.2259 1.34363 59.1438C2.85196 58.834 3.97513 58.3706 4.71312 57.7535C5.46404 57.1234 5.83577 56.2614 5.8283 55.1677C5.82216 54.2693 5.52962 53.3794 4.95067 52.4979L0.126561 52.5308L0.0964151 48.1169L26.0724 47.9394L26.1025 52.3534L22.3331 52.3792L22.4729 72.8474L17.1214 72.884L17.0813 67.0052ZM7.10156 61.4287C7.53746 62.3372 8.09568 63.043 8.77621 63.5462C9.45666 64.0364 10.3177 64.2779 11.3593 64.2708C12.4921 64.263 13.5322 64.0216 14.4795 63.5463C15.4268 63.0711 16.2813 62.3556 17.043 61.3999L16.9816 52.4157L10.1459 52.4624C10.844 53.6425 11.1975 54.8771 11.2063 56.1662C11.2147 57.3901 10.8768 58.4406 10.1927 59.3177C9.50855 60.1948 8.47818 60.8985 7.10156 61.4287ZM36.5036 65.8569C35.0323 65.867 33.8819 66.1613 33.0525 66.7399C32.2361 67.3184 31.8315 68.1285 31.8386 69.1701C31.8429 69.7951 31.9706 70.3867 32.2218 70.9449C32.486 71.4899 33.0113 72.1504 33.7979 72.9263C34.5976 73.7152 35.8284 74.7224 37.4905 75.9481L34.0383 79.5264C31.1702 77.1241 29.1968 75.1128 28.118 73.4925C27.0393 71.8852 26.4944 70.2613 26.4832 68.6207C26.4768 67.6963 26.6533 66.8422 27.0125 66.0585C27.3848 65.2746 27.9464 64.5612 28.6972 63.918C27.5041 62.7282 26.9021 61.3195 26.8909 59.6919C26.8849 58.8065 27.049 58.0437 27.3831 57.4034C27.7303 56.763 28.2215 56.2257 28.8565 55.7917C29.5045 55.3446 30.2641 55.0269 31.1352 54.8386C32.0064 54.6504 33.2101 54.551 34.7466 54.5405L38.8285 54.5126L38.8132 52.2666L24.5557 52.364L24.5255 47.95L47.8844 47.7905L47.9145 52.2044L44.1451 52.2302L44.1906 58.8902L34.8353 58.9541C34.0801 58.9592 33.5336 59.0216 33.1959 59.1411C32.8581 59.2475 32.5924 59.4316 32.3989 59.6934C32.2184 59.955 32.1293 60.2617 32.1317 60.6132C32.1348 61.0559 32.3461 61.5037 32.7659 61.9566C34.0787 61.609 35.4772 61.4302 36.9616 61.4201C39.748 61.4011 41.9263 61.9656 43.4967 63.1138C45.0671 64.2619 45.8587 65.767 45.8714 67.6289C45.8829 69.3216 45.365 70.6988 44.3175 71.7607C43.283 72.8095 41.7062 73.5885 39.5873 74.0978L38.1129 69.8499C39.7769 69.4479 40.6057 68.7782 40.5993 67.8407C40.5947 67.1767 40.2463 66.6777 39.5539 66.3439C38.8745 66.01 37.8577 65.8477 36.5036 65.8569ZM75.8037 64.4752C74.0929 65.6588 72.6009 66.4502 71.3276 66.8496C70.0542 67.2489 68.6819 67.4536 67.2106 67.4636C66.0387 67.4716 64.9764 67.3031 64.0235 66.958C63.0835 66.5999 62.2789 66.0455 61.6097 65.2948C60.9405 64.5441 60.4658 63.6815 60.1857 62.7068C59.9187 61.7321 59.7796 60.4309 59.7684 58.8033L59.7228 52.1238L57.008 52.1423L56.9779 47.7284L71.3135 47.6305L71.3437 52.0444L65.0743 52.0872L65.1176 58.4347C65.1265 59.7368 65.211 60.6672 65.3711 61.2261C65.5441 61.7718 65.8466 62.2189 66.2787 62.5675C66.7237 62.903 67.3889 63.0678 68.2743 63.0617C69.0685 63.0563 69.894 62.8554 70.7507 62.4589C71.6073 62.0494 72.3718 61.4973 73.0441 60.8025L75.8037 64.4752ZM90.8262 59.724C89.746 59.7965 88.8182 60.2716 88.0429 61.1493C87.2806 62.0139 86.6772 63.2746 86.2328 64.9313L81.242 63.4419C81.4831 62.5158 81.7641 61.7066 82.0849 61.0142C81.1683 60.2783 80.2348 59.9136 79.2843 59.9201C78.5031 59.9254 77.8731 60.1445 77.3943 60.5775C76.9285 61.0104 76.698 61.5784 76.7028 62.2815C76.71 63.3362 77.1662 64.3682 78.0716 65.3777C78.9769 66.3872 80.601 67.7758 82.9439 69.5437L79.5112 73.1219C76.5919 70.8371 74.5015 68.8592 73.2401 67.1881C71.9786 65.5039 71.3416 63.7504 71.3291 61.9276C71.3152 59.8833 71.9489 58.2969 73.2303 57.1684C74.5246 56.0267 76.1678 55.4491 78.1599 55.4354C79.449 55.4266 80.6024 55.5815 81.6202 55.9001C82.651 56.2056 83.6831 56.7129 84.7166 57.422C85.5063 56.7525 86.4013 56.2451 87.4016 55.8997C88.4019 55.5543 89.501 55.3775 90.6988 55.3693L90.7965 55.3687L90.7729 51.9117L69.7968 52.055L69.7667 47.641L99.8636 47.4355L99.8938 51.8494L96.1243 51.8752L96.2641 72.3434L90.9127 72.38L90.8262 59.724ZM90.0182 47.7957C89.2321 45.1838 88.4908 43.4115 87.7943 42.4787C87.0847 41.533 86.118 41.0644 84.894 41.0727C84.0217 41.0787 83.1114 41.2607 82.1633 41.6187L80.7086 37.3903C82.0982 36.8469 83.4961 36.5704 84.9023 36.5608C86.1913 36.552 87.2601 36.7075 88.1087 37.0272C88.9571 37.3339 89.7681 37.8753 90.5417 38.6513C91.3152 39.4142 92.0587 40.568 92.7724 42.1127C93.486 43.6443 94.1564 45.5278 94.7837 47.7631L90.0182 47.7957ZM113.94 59.1365L111.577 59.1526C109.533 59.1666 108.036 59.3396 107.088 59.6716C106.14 59.9906 105.42 60.4773 104.93 61.1317C104.44 61.7861 104.197 62.5234 104.203 63.3437C104.213 64.7629 104.728 65.8337 105.748 66.5559C106.782 67.278 108.256 67.6325 110.17 67.6195C111.25 67.6121 112.291 67.4617 113.292 67.1684C114.292 66.8751 115.415 66.3792 116.66 65.6806L118.371 70.1612C116.878 70.8615 115.397 71.3859 113.928 71.7345C112.472 72.07 110.924 72.2433 109.283 72.2545C106.211 72.2755 103.705 71.4658 101.767 69.8253C99.8413 68.1848 98.8692 65.9909 98.8505 63.2435C98.8343 60.8738 99.7 58.9343 101.448 57.4249C103.208 55.9154 105.572 55.0724 108.54 54.8959L108.519 51.7905L97.3274 51.867L97.2973 47.453L119.484 47.3015L119.514 51.7154L113.89 51.7538L113.94 59.1365ZM138.586 62.1518L138.654 72.0539L133.302 72.0905L133.26 65.8406C132.598 66.2358 131.845 66.5339 131 66.735C130.155 66.9361 129.212 67.0402 128.17 67.0473C126.998 67.0553 125.936 66.8868 124.983 66.5417C124.043 66.1835 123.238 65.6291 122.569 64.8785C121.9 64.1278 121.425 63.2651 121.145 62.2905C120.878 61.3157 120.739 60.0145 120.728 58.387L120.682 51.7074L117.968 51.726L117.937 47.312L151.355 47.0838L151.385 51.4978L138.514 51.5857L138.552 57.1519C139.81 56.3881 141.259 56.0006 142.9 55.9894C144.84 55.9762 146.406 56.5644 147.599 57.7542C148.805 58.9309 149.415 60.5349 149.429 62.5661C149.438 63.8811 149.2 65.263 148.715 66.7117C148.243 68.1602 147.569 69.5581 146.693 70.9053L142.008 68.3591C143.4 66.4094 144.092 64.6403 144.081 63.0518C144.069 61.281 143.32 60.4007 141.836 60.4108C140.794 60.4179 139.711 60.9983 138.586 62.1518ZM126.034 51.6709L126.077 58.0184C126.086 59.3205 126.171 60.2509 126.331 60.8097C126.504 61.3554 126.806 61.8026 127.238 62.1512C127.683 62.4867 128.348 62.6514 129.234 62.6454C129.924 62.6407 130.6 62.4928 131.262 62.2018C131.937 61.9108 132.592 61.4766 133.226 60.8993L133.163 51.6222L126.034 51.6709ZM124.77 69.6096C125.59 69.604 126.282 69.8858 126.846 70.4549C127.422 71.0108 127.714 71.7185 127.72 72.5778C127.725 73.4372 127.444 74.1488 126.875 74.7126C126.319 75.2893 125.631 75.5805 124.81 75.5861C123.99 75.5917 123.292 75.31 122.715 74.741C122.151 74.1849 121.866 73.4772 121.86 72.6179C121.854 71.7585 122.13 71.047 122.686 70.4833C123.255 69.9065 123.949 69.6152 124.77 69.6096ZM162.162 51.4242L158.392 51.4499L158.532 71.9182L153.161 71.9549L153.021 51.4866L149.818 51.5085L149.788 47.0945L162.132 47.0102L162.162 51.4242ZM163.805 37.4868C163.173 40.2256 162.073 42.2774 160.507 43.6423C158.954 45.0071 156.875 45.6984 154.271 45.7162C151.98 45.7318 150.002 45.0617 148.339 43.7059C146.676 42.35 145.354 40.3473 144.372 37.6977L148.463 36.1267C149.18 38.062 149.997 39.4757 150.914 40.3679C151.845 41.247 152.987 41.6819 154.341 41.6726C155.669 41.6636 156.727 41.2267 157.516 40.3619C158.317 39.497 158.946 38.0604 159.401 36.052L163.805 37.4868ZM177.979 62.957L170.518 63.008L170.523 63.672C170.53 64.7397 170.314 65.542 169.875 66.0788C169.436 66.6027 168.728 66.8679 167.752 66.8746C167.01 66.8797 166.168 66.5664 165.226 65.9348C164.297 65.2901 163.517 64.5142 162.886 63.607C162.254 62.6998 161.936 61.8686 161.931 61.1135C161.925 60.2671 162.156 59.647 162.622 59.2532C163.088 58.8464 163.796 58.6397 164.746 58.6332L165.137 58.6306L165.088 51.4042L160.615 51.4347L160.585 47.0208L187.01 46.8403L187.04 51.2542L183.271 51.28L183.411 71.7483L178.04 71.7849L177.979 62.957ZM177.949 58.5431L177.9 51.3167L170.439 51.3676L170.488 58.594L177.949 58.5431ZM176.188 47.2072C174.95 45.1583 174.326 43.3201 174.314 41.6925C174.302 39.8826 174.93 38.4721 176.2 37.4608C177.469 36.4364 179.216 35.9167 181.443 35.9015C183.097 35.8902 184.654 36.0814 186.115 36.4751L185.165 40.3098C184.382 40.0417 183.528 39.9108 182.603 39.9171C181.575 39.9241 180.828 40.1831 180.362 40.6941C179.884 41.1922 179.648 41.9295 179.655 42.906C179.659 43.531 179.814 44.2331 180.118 45.0123C180.423 45.7785 180.825 46.4984 181.325 47.1721L176.188 47.2072ZM201.44 48.0308C203.646 46.8829 205.966 46.3006 208.401 46.284C210.576 46.2692 212.292 46.8304 213.55 47.9676C214.82 49.1048 215.462 50.6044 215.475 52.4663C215.489 54.5105 214.699 56.1631 213.106 57.424C213.615 57.6159 214.326 57.7087 215.237 57.7024C216.188 57.6959 217.072 57.4946 217.889 57.0984C218.72 56.7021 219.549 56.0714 220.377 55.2063L220.348 51.0268L217.809 51.0441L217.779 46.6301L241.235 46.4699L241.265 50.8839L237.496 50.9096L237.636 71.3779L232.265 71.4146L232.125 50.9463L225.719 50.9901L225.859 71.4583L220.488 71.495L220.412 60.3429C219.231 61.0411 217.704 61.4552 215.83 61.5852C215.964 62.1312 216.033 62.6255 216.036 63.0682C216.049 65.0083 215.428 66.5099 214.172 67.5732C212.929 68.6234 211.149 69.1564 208.831 69.1722C207.099 69.1841 205.528 68.8758 204.118 68.2474C202.72 67.6189 201.339 66.4825 199.973 64.8381C198.608 63.1807 197.263 60.8135 195.94 57.7366L200.537 55.9473C201.69 58.8822 202.903 61.0745 204.176 62.5242C205.462 63.9608 206.867 64.6738 208.39 64.6634C209.953 64.6528 210.729 63.8792 210.718 62.3428C210.709 61.0798 210.272 59.989 209.407 59.0704C208.509 59.2719 207.508 59.3894 206.401 59.423L206.157 55.2058C207.55 55.1182 208.571 54.8833 209.219 54.5013C209.868 54.1192 210.189 53.492 210.183 52.6197C210.174 51.3176 209.297 50.6725 207.552 50.6844C206.198 50.6937 204.665 51.1404 202.952 52.0245L201.44 48.0308ZM255.771 64.8672C254.863 65.3421 253.98 65.6867 253.122 65.9009C252.264 66.1021 251.191 66.2071 249.902 66.2159C248.73 66.2239 247.667 66.0554 246.715 65.7103C245.775 65.3521 244.97 64.7977 244.301 64.0471C243.632 63.2964 243.157 62.4337 242.877 61.4591C242.61 60.4843 242.471 59.1831 242.46 57.5556L242.414 50.876L239.699 50.8946L239.669 46.4806L264.766 46.3092L264.796 50.7232L261.027 50.7489L261.167 71.2172L255.815 71.2537L255.771 64.8672ZM247.765 50.8395L247.809 57.187C247.818 58.4891 247.902 59.4195 248.062 59.9783C248.235 60.524 248.538 60.9712 248.97 61.3198C249.415 61.6553 250.08 61.82 250.965 61.814C251.76 61.8086 252.585 61.6076 253.442 61.2111C254.298 60.8016 255.063 60.2495 255.735 59.5548L255.675 50.7855L247.765 50.8395ZM278.588 66.0004C277.577 66.5933 276.623 67.01 275.726 67.2505C274.829 67.478 273.86 67.5953 272.818 67.6024C270.448 67.6186 268.517 66.9872 267.024 65.7083C265.53 64.4294 264.776 62.6702 264.761 60.4307C264.746 58.2563 265.515 56.4997 267.069 55.1609C268.622 53.8091 270.675 53.1245 273.227 53.1071C274.984 53.0951 276.339 53.1965 277.291 53.4113L276.912 57.8672C276.181 57.6638 275.23 57.5661 274.058 57.5741C272.808 57.5827 271.84 57.8367 271.153 58.3362C270.479 58.8356 270.145 59.528 270.152 60.4134C270.158 61.3248 270.449 62.0195 271.025 62.4973C271.601 62.9621 272.371 63.1913 273.335 63.1847C275.21 63.1719 276.949 62.3201 278.552 60.6295L278.483 50.6297L263.23 50.7339L263.2 46.3199L296.695 46.0912L296.725 50.5051L283.854 50.593L283.892 56.1593C285.15 55.3955 286.599 55.008 288.24 54.9968C290.18 54.9835 291.747 55.5718 292.94 56.7616C294.146 57.9383 294.756 59.5422 294.769 61.5734C294.778 62.8885 294.54 64.2704 294.056 65.719C293.584 67.1676 292.91 68.5654 292.033 69.9126L287.348 67.3664C288.741 65.4168 289.432 63.6477 289.421 62.0592C289.409 60.2884 288.661 59.4081 287.176 59.4182C286.135 59.4253 285.051 60.0056 283.926 61.1592L283.994 71.0613L278.623 71.098L278.588 66.0004ZM307.502 50.4315L303.733 50.4573L303.873 70.9255L298.502 70.9622L298.362 50.4939L295.159 50.5158L295.129 46.1019L307.472 46.0175L307.502 50.4315ZM298.627 46.3709C297.841 43.7591 297.093 41.9868 296.383 41.0541C295.687 40.1083 294.726 39.6396 293.502 39.648C292.63 39.6539 291.72 39.8359 290.772 40.194L289.317 35.9655C290.707 35.4222 292.104 35.1457 293.511 35.1361C294.8 35.1273 295.869 35.2827 296.717 35.6025C297.566 35.9092 298.377 36.4505 299.15 37.2265C299.924 37.9895 300.667 39.1433 301.381 40.6879C302.094 42.2196 302.765 44.103 303.392 46.3384L298.627 46.3709ZM22.1997 161.535L17.4927 161.567C14.2376 161.589 11.8653 161.234 10.3759 160.502C10.0387 160.7 9.69488 160.878 9.34439 161.037C11.4439 163.392 13.973 165.738 16.9317 168.075L13.5376 171.575C11.035 169.3 8.94456 167.316 7.26628 165.621C5.60103 163.927 4.41369 162.62 3.70426 161.7C3.00777 160.768 2.56005 160.035 2.3611 159.502C2.17507 158.957 2.08033 158.43 2.07686 157.922C2.0709 157.05 2.33944 156.332 2.88248 155.768C3.43845 155.192 4.22424 154.9 5.23984 154.893C6.43773 154.885 7.48868 155.288 8.3927 156.102C8.91987 155.122 9.17888 153.961 9.16972 152.62C9.16483 151.904 9.06228 151.188 8.86208 150.473L0.795865 150.529L0.765718 146.115L31.2338 145.906L31.2639 150.32L27.4945 150.346L27.6343 170.814L22.2633 170.851L22.1997 161.535ZM14.1354 150.437C14.4019 151.334 14.539 152.336 14.5466 153.443C14.5558 154.797 14.2907 156.022 13.7513 157.12C14.1032 157.157 14.8975 157.171 16.1345 157.162L22.1695 157.121L22.1235 150.383L14.1354 150.437ZM23.727 136.934C24.5473 136.929 25.2458 137.21 25.8227 137.779C26.3864 138.335 26.6712 139.043 26.677 139.902C26.6829 140.762 26.4078 141.48 25.8519 142.056C25.2828 142.62 24.5881 142.905 23.7678 142.911C22.9475 142.916 22.2555 142.641 21.6918 142.085C21.115 141.516 20.8237 140.802 20.8178 139.942C20.8119 139.083 21.0935 138.371 21.6626 137.808C22.2186 137.231 22.9067 136.94 23.727 136.934ZM49.7303 161.347L45.414 161.376C42.1588 161.399 39.7866 161.044 38.2971 160.312C37.9599 160.509 37.6161 160.687 37.2656 160.846C39.3651 163.202 41.8942 165.548 44.8529 167.884L41.4588 171.384C38.9562 169.109 36.8658 167.125 35.1875 165.431C33.5222 163.736 32.3349 162.429 31.6255 161.51C30.929 160.577 30.4813 159.844 30.2823 159.312C30.0963 158.766 30.0016 158.239 29.9981 157.732C29.9921 156.859 30.2607 156.141 30.8037 155.578C31.3597 155.001 32.1455 154.709 33.1611 154.702C34.359 154.694 35.4099 155.097 36.3139 155.911C36.8411 154.931 37.1001 153.77 37.0909 152.429C37.0861 151.713 36.9835 150.998 36.7833 150.283L28.7171 150.338L28.6869 145.924L49.1943 145.784L49.2244 150.198L42.0566 150.247C42.3232 151.143 42.4602 152.145 42.4678 153.252C42.477 154.606 42.212 155.832 41.6726 156.929C42.0244 156.966 42.8188 156.98 44.0557 156.972L49.7001 156.933L49.7303 161.347ZM61.2783 165.487C60.2667 166.08 59.3125 166.496 58.4157 166.737C57.5188 166.964 56.5495 167.082 55.5079 167.089C53.1382 167.105 51.2067 166.474 49.7136 165.195C48.2204 163.916 47.4662 162.157 47.4509 159.917C47.4361 157.743 48.2053 155.986 49.7587 154.647C51.312 153.296 53.3647 152.611 55.9167 152.594C57.6745 152.582 59.0294 152.683 59.9814 152.898L59.6017 157.354C58.8711 157.15 57.9199 157.053 56.748 157.061C55.4981 157.069 54.5297 157.323 53.843 157.823C53.1693 158.322 52.8355 159.014 52.8416 159.9C52.8478 160.811 53.139 161.506 53.7152 161.984C54.2913 162.449 55.0611 162.678 56.0246 162.671C57.8996 162.658 59.6386 161.807 61.2417 160.116L61.1734 150.116L45.9198 150.22L45.8897 145.806L79.385 145.578L79.4151 149.992L66.5443 150.079L66.5823 155.646C67.8402 154.882 69.2894 154.494 70.93 154.483C72.87 154.47 74.4366 155.058 75.6296 156.248C76.8356 157.425 77.4456 159.029 77.4594 161.06C77.4684 162.375 77.2304 163.757 76.7455 165.205C76.2736 166.654 75.5996 168.052 74.7233 169.399L70.0379 166.853C71.4308 164.903 72.1219 163.134 72.1111 161.546C72.099 159.775 71.3507 158.895 69.8664 158.905C68.8248 158.912 67.7415 159.492 66.6165 160.646L66.6841 170.548L61.3132 170.584L61.2783 165.487ZM86.7302 160.645C89.3259 163.205 91.9587 165.479 94.6286 167.466L91.1764 171.045C88.7797 169.017 86.6573 167.13 84.8094 165.385C82.9615 163.64 81.6567 162.281 80.8948 161.31C80.1329 160.325 79.6458 159.561 79.4338 159.015C79.2347 158.457 79.1333 157.917 79.1298 157.396C79.1238 156.524 79.3923 155.806 79.9354 155.242C80.4913 154.665 81.2771 154.373 82.2927 154.367C83.5818 154.358 84.7114 154.838 85.6816 155.808C87.0945 154.874 87.7956 153.619 87.7848 152.044C87.7797 151.302 87.6903 150.599 87.5165 149.936L77.8488 150.002L77.8186 145.588L95.9237 145.465L95.9538 149.879L92.7508 149.901C93.0173 150.797 93.1544 151.799 93.1619 152.906C93.1739 154.663 92.644 156.19 91.5721 157.487C90.5001 158.77 88.8861 159.823 86.7302 160.645ZM113.293 149.76L113.347 157.631C113.36 159.597 113.084 161.11 112.519 162.168C111.966 163.227 111.099 164.059 109.918 164.666C108.738 165.273 107.216 165.583 105.354 165.596C103.44 165.609 101.889 165.294 100.699 164.651C99.523 164.008 98.6378 163.083 98.0436 161.876C97.4624 160.669 97.1638 158.881 97.1476 156.511L97.1022 149.871L94.3874 149.889L94.3573 145.475L126.837 145.254L126.867 149.667L123.098 149.693L123.237 170.162L117.867 170.198L117.727 149.73L113.293 149.76ZM107.942 149.797L102.454 149.834L102.503 157.002C102.508 157.796 102.545 158.415 102.613 158.857C102.681 159.286 102.814 159.689 103.012 160.065C103.223 160.428 103.505 160.713 103.858 160.919C104.21 161.112 104.673 161.206 105.246 161.202C105.754 161.199 106.183 161.131 106.534 160.998C106.884 160.852 107.176 160.603 107.408 160.25C107.653 159.897 107.813 159.511 107.888 159.094C107.963 158.664 107.997 157.941 107.99 156.925L107.942 149.797ZM152.277 164.944C151.33 165.471 150.356 165.855 149.355 166.096C148.367 166.337 147.163 166.463 145.744 166.473C143.309 166.489 141.326 165.858 139.794 164.58C138.261 163.288 137.487 161.529 137.472 159.302C137.457 157.128 138.24 155.371 139.819 154.032C141.398 152.68 143.471 151.996 146.036 151.978C148.236 151.963 149.884 152.056 150.979 152.257L150.598 156.537C149.724 156.334 148.63 156.238 147.315 156.247L147.061 156.248C146.97 156.249 146.879 156.256 146.788 156.27L150.55 160.893C151.055 160.551 151.618 160.072 152.239 159.455L152.171 149.495L135.941 149.606L135.911 145.192L161.282 145.018L161.312 149.432L157.542 149.458L157.682 169.926L152.311 169.963L152.277 164.944ZM147.882 162.102L143.785 157.052C143.422 157.289 143.151 157.597 142.971 157.976C142.791 158.341 142.703 158.778 142.707 159.286C142.713 160.289 143.025 161.035 143.64 161.526C144.255 162.016 145.175 162.258 146.399 162.249C146.985 162.245 147.479 162.196 147.882 162.102ZM175.984 159.215L169.637 159.258L169.644 160.294C169.651 161.322 169.435 162.085 168.995 162.583C168.569 163.068 167.913 163.313 167.028 163.319C166.233 163.325 165.352 163.012 164.385 162.38C163.417 161.749 162.617 160.98 161.986 160.072C161.368 159.152 161.056 158.308 161.051 157.54C161.044 156.615 161.274 155.943 161.74 155.523C162.206 155.103 162.908 154.89 163.845 154.884L175.954 154.801L175.917 149.332L159.745 149.443L159.715 145.029L185.008 144.856L185.038 149.27L181.268 149.296L181.408 169.764L176.057 169.801L175.984 159.215ZM199.71 159.053L193.363 159.096L193.37 160.132C193.377 161.16 193.161 161.923 192.721 162.421C192.295 162.906 191.639 163.151 190.754 163.157C189.959 163.163 189.078 162.85 188.111 162.218C187.143 161.587 186.343 160.818 185.712 159.91C185.094 158.99 184.782 158.146 184.777 157.378C184.77 156.453 185 155.781 185.466 155.361C185.932 154.941 186.634 154.728 187.571 154.722L199.68 154.639L199.643 149.17L183.471 149.281L183.441 144.867L208.734 144.694L208.764 149.108L204.994 149.134L205.134 169.602L199.783 169.639L199.71 159.053ZM198.888 145.054C198.102 142.443 197.361 140.67 196.664 139.737C195.955 138.792 194.988 138.323 193.764 138.331C192.892 138.337 191.981 138.519 191.033 138.877L189.579 134.649C190.968 134.106 192.366 133.829 193.772 133.82C195.061 133.811 196.13 133.966 196.979 134.286C197.827 134.593 198.638 135.134 199.412 135.91C200.185 136.673 200.929 137.827 201.642 139.371C202.356 140.903 203.026 142.787 203.654 145.022L198.888 145.054ZM234.202 160.575L226.741 160.626L226.746 161.29C226.753 162.358 226.537 163.16 226.098 163.697C225.659 164.221 224.951 164.486 223.975 164.493C223.232 164.498 222.39 164.185 221.449 163.553C220.52 162.908 219.74 162.132 219.108 161.225C218.477 160.318 218.159 159.487 218.154 158.732C218.148 157.885 218.378 157.265 218.844 156.872C219.31 156.465 220.018 156.258 220.969 156.252L221.36 156.249L221.31 149.022L216.838 149.053L216.808 144.639L243.233 144.459L243.263 148.873L239.493 148.898L239.633 169.367L234.262 169.403L234.202 160.575ZM234.172 156.161L234.122 148.935L226.662 148.986L226.711 156.212L234.172 156.161ZM233.387 144.819C232.601 142.207 231.86 140.435 231.163 139.502C230.454 138.556 229.487 138.087 228.263 138.096C227.391 138.102 226.481 138.284 225.532 138.642L224.078 134.413C225.467 133.87 226.865 133.594 228.271 133.584C229.56 133.575 230.629 133.731 231.478 134.05C232.326 134.357 233.137 134.898 233.911 135.674C234.684 136.437 235.428 137.591 236.142 139.136C236.855 140.667 237.526 142.551 238.153 144.786L233.387 144.819ZM239.345 133.508C240.166 133.503 240.864 133.784 241.441 134.353C242.005 134.909 242.29 135.617 242.295 136.477C242.301 137.336 242.026 138.054 241.47 138.631C240.901 139.194 240.206 139.479 239.386 139.485C238.566 139.49 237.874 139.215 237.31 138.659C236.733 138.09 236.442 137.376 236.436 136.517C236.43 135.657 236.712 134.946 237.281 134.382C237.837 133.805 238.525 133.514 239.345 133.508ZM16.489 214.794C15.4774 215.387 14.5232 215.803 13.6264 216.044C12.7295 216.271 11.7602 216.389 10.7186 216.396C8.34887 216.412 6.41743 215.781 4.92428 214.502C3.43114 213.223 2.67692 211.464 2.66162 209.224C2.64677 207.05 3.41604 205.293 4.96943 203.954C6.52274 202.603 8.5754 201.918 11.1274 201.901C12.8852 201.889 14.2401 201.99 15.1921 202.205L14.8124 206.661C14.0818 206.457 13.1306 206.36 11.9587 206.368C10.7088 206.376 9.74042 206.63 9.05372 207.13C8.38003 207.629 8.04621 208.322 8.05225 209.207C8.05848 210.118 8.34969 210.813 8.92588 211.291C9.50199 211.756 10.2718 211.985 11.2353 211.978C13.1103 211.965 14.8493 211.114 16.4524 209.423L16.3841 199.423L1.13052 199.527L1.10037 195.113L34.5957 194.885L34.6258 199.299L21.755 199.387L21.7931 204.953C23.0509 204.189 24.5001 203.801 26.1407 203.79C28.0807 203.777 29.6473 204.365 30.8403 205.555C32.0463 206.732 32.6563 208.336 32.6701 210.367C32.6791 211.682 32.4411 213.064 31.9562 214.513C31.4843 215.961 30.8103 217.359 29.934 218.706L25.2486 216.16C26.6415 214.21 27.3326 212.441 27.3218 210.853C27.3097 209.082 26.5614 208.202 25.0771 208.212C24.0355 208.219 22.9522 208.799 21.8272 209.953L21.8948 219.855L16.5239 219.891L16.489 214.794ZM15.3755 195.309C14.6672 194.559 14.0644 194.003 13.5672 193.642C13.0569 193.28 12.5799 193.03 12.1362 192.89C11.6795 192.749 11.0866 192.682 10.3575 192.687C9.36789 192.694 8.26328 193.014 7.04362 193.647L5.67225 190.18C7.15214 189.519 8.51708 189.184 9.76705 189.175C10.8478 189.168 11.7996 189.363 12.6227 189.761C13.4327 190.159 14.2444 190.805 15.0578 191.698L15.2724 191.657C14.6118 190.255 13.9211 189.225 13.2005 188.566C12.4798 187.907 11.4945 187.581 10.2445 187.59C9.33308 187.596 8.45539 187.778 7.61146 188.135L6.3772 184.726C7.74151 184.3 9.00959 184.083 10.1814 184.075C11.5616 184.065 12.6627 184.188 13.4848 184.443C14.3069 184.697 15.1045 185.18 15.8776 185.891C16.6506 186.589 17.4135 187.71 18.1662 189.255C18.919 190.799 19.6554 192.806 20.3754 195.275L15.3755 195.309ZM53.4633 210.323L48.7564 210.355C45.5012 210.377 43.129 210.022 41.6395 209.29C41.3023 209.488 40.9585 209.666 40.608 209.824C42.7075 212.18 45.2366 214.526 48.1953 216.863L44.8012 220.362C42.2986 218.088 40.2082 216.103 38.5299 214.409C36.8646 212.715 35.6773 211.408 34.9679 210.488C34.2714 209.555 33.8237 208.823 33.6247 208.29C33.4387 207.744 33.3439 207.218 33.3405 206.71C33.3345 205.838 33.6031 205.12 34.1461 204.556C34.7021 203.979 35.4879 203.687 36.5035 203.68C37.7013 203.672 38.7523 204.075 39.6563 204.889C40.1835 203.909 40.4425 202.749 40.4333 201.407C40.4284 200.691 40.3259 199.976 40.1257 199.261L32.0595 199.316L32.0293 194.902L62.4974 194.694L62.5275 199.108L58.7581 199.134L58.8979 219.602L53.5269 219.639L53.4633 210.323ZM45.399 199.225C45.6656 200.122 45.8026 201.123 45.8102 202.23C45.8194 203.584 45.5544 204.81 45.015 205.908C45.3668 205.944 46.1612 205.958 47.3981 205.95L53.4331 205.909L53.3871 199.17L45.399 199.225ZM52.6715 195.054C51.8854 192.442 51.1441 190.67 50.4476 189.737C49.738 188.792 48.7713 188.323 47.5473 188.331C46.6749 188.337 45.7647 188.519 44.8166 188.877L43.3619 184.649C44.7515 184.105 46.1494 183.829 47.5556 183.819C48.8446 183.811 49.9134 183.966 50.762 184.286C51.6104 184.592 52.4214 185.134 53.195 185.91C53.9684 186.673 54.712 187.827 55.4257 189.371C56.1393 190.903 56.8097 192.786 57.437 195.022L52.6715 195.054ZM92.0249 210.059L87.318 210.091C84.0628 210.114 81.6906 209.759 80.2011 209.027C79.8639 209.224 79.5201 209.402 79.1696 209.561C81.2691 211.917 83.7982 214.263 86.7569 216.599L83.3628 220.099C80.8602 217.824 78.7698 215.84 77.0915 214.146C75.4262 212.451 74.2389 211.144 73.5295 210.225C72.833 209.292 72.3853 208.559 72.1863 208.027C72.0003 207.481 71.9055 206.954 71.9021 206.447C71.8961 205.574 72.1647 204.856 72.7077 204.293C73.2637 203.716 74.0495 203.424 75.0651 203.417C76.2629 203.409 77.3139 203.812 78.2179 204.626C78.7451 203.646 79.0041 202.485 78.9949 201.144C78.99 200.428 78.8875 199.712 78.6873 198.998L70.6211 199.053L70.5909 194.639L101.059 194.431L101.089 198.845L97.3197 198.87L97.4595 219.339L92.0885 219.375L92.0249 210.059ZM83.9606 198.962C84.2272 199.858 84.3642 200.86 84.3718 201.967C84.381 203.321 84.116 204.547 83.5766 205.644C83.9284 205.681 84.7228 205.695 85.9597 205.686L91.9947 205.645L91.9487 198.907L83.9606 198.962ZM122.743 206.998C120.953 207.948 118.599 208.432 115.682 208.452C114.667 208.459 113.651 208.375 112.634 208.2C111.63 208.011 110.625 207.725 109.62 207.341C108.583 207.986 107.806 208.604 107.289 209.193C106.772 209.77 106.516 210.357 106.52 210.956C106.525 211.764 106.848 212.38 107.489 212.805C108.143 213.23 109.102 213.439 110.365 213.43L110.833 213.427C110.793 213.206 110.772 212.972 110.77 212.724C110.765 211.93 111.034 211.297 111.577 210.824C112.134 210.339 112.92 210.092 113.936 210.085C115.199 210.077 116.223 210.415 117.009 211.1C117.808 211.771 118.211 212.576 118.217 213.513C118.223 214.32 118.071 214.979 117.762 215.489C117.453 215.986 117 216.393 116.403 216.709C117.4 217.874 118.364 218.877 119.295 219.717L115.58 221.988C114.215 220.539 113.073 219.108 112.152 217.695C111.436 217.752 110.844 217.782 110.375 217.786C107.445 217.806 105.169 217.216 103.546 216.016C101.923 214.816 101.105 213.194 101.091 211.15C101.083 209.913 101.394 208.836 102.026 207.921C102.658 206.992 103.752 206.034 105.307 205.047C104.313 204.298 103.565 203.47 103.064 202.562C102.563 201.654 102.309 200.666 102.301 199.598C102.29 197.958 102.939 196.612 104.246 195.561C105.554 194.511 107.367 193.977 109.685 193.962C111.99 193.946 113.809 194.415 115.144 195.37C116.491 196.311 117.171 197.602 117.182 199.243C117.189 200.193 116.967 201.074 116.516 201.884C116.079 202.694 115.44 203.46 114.599 204.182C114.989 204.206 115.374 204.216 115.751 204.213C117.053 204.205 118.257 204.04 119.361 203.72C120.479 203.387 121.595 202.852 122.71 202.115L122.686 198.697L119.718 198.717L119.687 194.304L131.797 194.221L131.827 198.635L128.057 198.661L128.197 219.129L122.826 219.165L122.743 206.998ZM109.648 202.888C110.452 202.427 111.055 201.954 111.455 201.469C111.868 200.972 112.073 200.456 112.069 199.922C112.065 199.31 111.86 198.83 111.454 198.481C111.061 198.132 110.5 197.96 109.771 197.965C109.055 197.97 108.483 198.163 108.056 198.543C107.629 198.924 107.418 199.433 107.422 200.071C107.425 200.592 107.611 201.085 107.979 201.552C108.347 202.018 108.903 202.463 109.648 202.888ZM147.625 210.168L140.164 210.219L140.168 210.883C140.176 211.95 139.96 212.753 139.521 213.29C139.082 213.813 138.374 214.079 137.397 214.085C136.655 214.09 135.813 213.777 134.871 213.146C133.942 212.501 133.162 211.725 132.531 210.818C131.9 209.911 131.582 209.079 131.576 208.324C131.571 207.478 131.801 206.858 132.267 206.464C132.733 206.057 133.441 205.85 134.392 205.844L134.782 205.841L134.733 198.615L130.26 198.645L130.23 194.232L156.655 194.051L156.685 198.465L152.916 198.491L153.056 218.959L147.685 218.996L147.625 210.168ZM147.594 205.754L147.545 198.527L140.084 198.578L140.134 205.805L147.594 205.754Z" fill="#264092"/>
<path d="M21.4744 112.539L17.1581 112.568C13.903 112.59 11.5307 112.236 10.0413 111.504C9.70407 111.701 9.36023 111.879 9.00974 112.038C11.1092 114.393 13.6383 116.74 16.5971 119.076L13.2029 122.576C10.7003 120.301 8.60991 118.317 6.93163 116.623C5.26637 114.928 4.07903 113.621 3.36961 112.701C2.67312 111.769 2.2254 111.036 2.02644 110.504C1.84042 109.958 1.74568 109.431 1.74221 108.923C1.73625 108.051 2.00479 107.333 2.54783 106.769C3.1038 106.193 3.88958 105.901 4.90519 105.894C6.10307 105.886 7.15403 106.289 8.05805 107.103C8.58522 106.123 8.84423 104.962 8.83507 103.621C8.83018 102.905 8.72763 102.189 8.52743 101.475L0.461213 101.53L0.431067 97.1157L20.9384 96.9757L20.9685 101.39L13.8007 101.439C14.0673 102.335 14.2043 103.337 14.2119 104.444C14.2212 105.798 13.9561 107.024 13.4167 108.121C13.7685 108.158 14.5629 108.172 15.7998 108.163L21.4442 108.125L21.4744 112.539ZM33.4136 116.754C32.5187 117.268 31.6098 117.652 30.687 117.906C29.7642 118.146 28.6908 118.271 27.4669 118.279C24.9799 118.296 22.9834 117.672 21.4774 116.406C19.9713 115.14 19.2105 113.375 19.195 111.109C19.1799 108.895 19.9491 107.126 21.5026 105.8C23.0561 104.474 25.1414 103.803 27.7585 103.785C29.6725 103.772 31.1251 103.872 32.1161 104.087L31.7364 108.543C30.9407 108.34 29.9309 108.243 28.707 108.251C27.3008 108.261 26.2608 108.515 25.5871 109.015C24.9134 109.514 24.5796 110.206 24.5857 111.092C24.592 112.016 24.8767 112.711 25.4398 113.176C26.0159 113.641 26.8378 113.869 27.9055 113.862C30.0018 113.848 31.8255 113.008 33.3767 111.344L33.3081 101.305L17.6639 101.412L17.6338 96.9982L42.4184 96.829L42.4485 101.243L38.6791 101.269L38.8189 121.737L33.4479 121.774L33.4136 116.754ZM57.8369 115.728C56.9943 116.281 56.0596 116.697 55.0328 116.978C54.0061 117.258 52.8872 117.402 51.6763 117.411C49.2024 117.428 47.1265 116.615 45.4486 114.973C43.7836 113.317 42.6672 110.949 42.0992 107.867C43.6075 107.557 44.7307 107.093 45.4687 106.476C46.2196 105.846 46.5914 104.984 46.5839 103.891C46.5777 102.992 46.2852 102.102 45.7063 101.221L40.8821 101.254L40.852 96.8397L66.828 96.6622L66.8581 101.076L63.0887 101.102L63.2285 121.57L57.877 121.607L57.8369 115.728ZM47.8571 110.151C48.293 111.06 48.8513 111.766 49.5318 112.269C50.2122 112.759 51.0733 113.001 52.1149 112.994C53.2477 112.986 54.2878 112.744 55.2351 112.269C56.1824 111.794 57.0369 111.078 57.7986 110.123L57.7372 101.138L50.9014 101.185C51.5996 102.365 51.9531 103.6 51.9619 104.889C51.9703 106.113 51.6324 107.163 50.9483 108.04C50.2641 108.918 49.2338 109.621 47.8571 110.151ZM59.3212 87.6899C60.1415 87.6843 60.84 87.966 61.4169 88.5349C61.9806 89.091 62.2653 89.7987 62.2712 90.6581C62.2771 91.5174 62.002 92.2355 61.4461 92.8122C60.877 93.376 60.1823 93.6607 59.362 93.6663C58.5417 93.6719 57.8497 93.3967 57.286 92.8406C56.7092 92.2716 56.4178 91.5574 56.412 90.6981C56.4061 89.8387 56.6877 89.1272 57.2568 88.5634C57.8128 87.9866 58.5009 87.6955 59.3212 87.6899ZM90.3102 116.287C89.2986 116.88 88.3444 117.297 87.4476 117.538C86.5507 117.765 85.5814 117.882 84.5398 117.889C82.17 117.906 80.2386 117.274 78.7454 115.995C77.2523 114.716 76.4981 112.957 76.4828 110.718C76.4679 108.543 77.2372 106.787 78.7906 105.448C80.3439 104.096 82.3966 103.412 84.9486 103.394C86.7063 103.382 88.0612 103.484 89.0132 103.698L88.6335 108.154C87.9029 107.951 86.9517 107.853 85.7799 107.861C84.5299 107.87 83.5616 108.124 82.8749 108.623C82.2012 109.123 81.8674 109.815 81.8734 110.7C81.8796 111.612 82.1708 112.307 82.747 112.784C83.3231 113.249 84.0929 113.478 85.0565 113.472C86.9314 113.459 88.6704 112.607 90.2735 110.917L90.2052 100.917L74.9517 101.021L74.9215 96.607L108.417 96.3782L108.447 100.792L95.5762 100.88L95.6142 106.446C96.872 105.683 98.3212 105.295 99.9618 105.284C101.902 105.271 103.468 105.859 104.661 107.049C105.867 108.225 106.477 109.829 106.491 111.86C106.5 113.176 106.262 114.557 105.777 116.006C105.305 117.455 104.631 118.852 103.755 120.2L99.0697 117.653C100.463 115.704 101.154 113.935 101.143 112.346C101.131 110.575 100.383 109.695 98.8983 109.705C97.8566 109.712 96.7733 110.293 95.6483 111.446L95.716 121.348L90.345 121.385L90.3102 116.287ZM119.224 100.719L115.455 100.744L115.594 121.213L110.223 121.249L110.084 100.781L106.881 100.803L106.85 96.3889L119.194 96.3046L119.224 100.719ZM149.721 111.663L145.014 111.695C141.759 111.717 139.387 111.362 137.898 110.63C137.56 110.828 137.217 111.006 136.866 111.165C138.966 113.52 141.495 115.866 144.453 118.203L141.059 121.703C138.557 119.428 136.466 117.444 134.788 115.749C133.123 114.055 131.935 112.748 131.226 111.828C130.53 110.895 130.082 110.163 129.883 109.63C129.697 109.085 129.602 108.558 129.599 108.05C129.593 107.178 129.861 106.46 130.404 105.896C130.96 105.319 131.746 105.028 132.762 105.021C133.959 105.013 135.01 105.416 135.914 106.23C136.442 105.25 136.701 104.089 136.691 102.748C136.687 102.032 136.584 101.316 136.384 100.601L128.318 100.656L128.287 96.2425L158.756 96.0344L158.786 100.448L155.016 100.474L155.156 120.942L149.785 120.979L149.721 111.663ZM141.657 100.565C141.924 101.462 142.061 102.464 142.068 103.57C142.078 104.925 141.812 106.15 141.273 107.248C141.625 107.284 142.419 107.299 143.656 107.29L149.691 107.249L149.645 100.511L141.657 100.565ZM172.988 115.801C172.094 116.315 171.185 116.699 170.262 116.952C169.339 117.193 168.266 117.318 167.042 117.326C164.555 117.343 162.558 116.719 161.052 115.453C159.546 114.187 158.785 112.421 158.77 110.156C158.755 107.942 159.524 106.173 161.077 104.847C162.631 103.521 164.716 102.849 167.333 102.831C169.247 102.818 170.7 102.919 171.691 103.134L171.311 107.59C170.516 107.387 169.506 107.289 168.282 107.298C166.876 107.307 165.836 107.562 165.162 108.061C164.488 108.561 164.154 109.253 164.161 110.138C164.167 111.063 164.452 111.758 165.015 112.222C165.591 112.687 166.413 112.916 167.48 112.909C169.577 112.894 171.4 112.055 172.952 110.391L172.883 100.352L157.239 100.459L157.209 96.045L181.993 95.8757L182.023 100.29L178.254 100.315L178.394 120.784L173.023 120.82L172.988 115.801ZM171.171 96.2426C169.933 94.1937 169.309 92.3555 169.298 90.7279C169.285 88.918 169.914 87.5075 171.183 86.4962C172.452 85.4719 174.2 84.9521 176.426 84.9369C178.08 84.9256 179.637 85.1168 181.098 85.5105L180.148 89.3452C179.365 89.0771 178.511 88.9462 177.586 88.9525C176.558 88.9595 175.811 89.2185 175.346 89.7295C174.867 90.2276 174.631 90.9649 174.638 91.9415C174.642 92.5664 174.797 93.2685 175.102 94.0477C175.406 94.8139 175.808 95.5338 176.308 96.2075L171.171 96.2426ZM201.726 112.206L189.61 119.828L186.85 116.116L195.996 111.034C194.848 110.73 193.778 110.411 192.786 110.08C191.794 109.748 190.88 109.403 190.044 109.044C188.877 109.768 186.452 111.145 182.768 113.175L180.008 109.464C182.448 108.353 184.421 107.422 185.926 106.669C184.788 105.844 183.929 104.964 183.35 104.031C182.783 103.084 182.497 102.09 182.49 101.048C182.478 99.4076 183.133 98.062 184.454 97.0112C185.775 95.9605 187.562 95.4275 189.814 95.4121C192.145 95.3962 193.984 95.8654 195.332 96.8198C196.68 97.7611 197.359 99.0521 197.37 100.693C197.378 101.838 197.111 102.843 196.57 103.706C196.043 104.569 195.215 105.434 194.088 106.301C195.302 106.683 196.541 106.994 197.806 107.233C199.07 107.459 200.367 107.612 201.696 107.695L201.644 100.156L199.535 100.17L199.505 95.7561L210.754 95.6793L210.784 100.093L207.015 100.119L207.155 120.587L201.784 120.624L201.726 112.206ZM189.896 104.494C190.687 103.968 191.276 103.469 191.663 102.997C192.064 102.513 192.262 101.971 192.258 101.372C192.253 100.747 192.048 100.267 191.642 99.931C191.249 99.5821 190.688 99.4101 189.959 99.4151C189.23 99.4201 188.652 99.6129 188.225 99.9934C187.811 100.374 187.606 100.883 187.61 101.521C187.614 102.042 187.806 102.548 188.187 103.041C188.568 103.533 189.138 104.017 189.896 104.494ZM200.928 96.0393C200.142 93.4275 199.401 91.6551 198.705 90.7224C197.995 89.7767 197.028 89.308 195.804 89.3164C194.932 89.3223 194.022 89.5043 193.074 89.8624L191.619 85.6339C193.008 85.0906 194.406 84.8141 195.812 84.8045C197.102 84.7957 198.17 84.9511 199.019 85.2709C199.867 85.5776 200.678 86.1189 201.452 86.8949C202.225 87.6579 202.969 88.8117 203.683 90.3563C204.396 91.888 205.067 93.7714 205.694 96.0068L200.928 96.0393ZM230.099 106.68L228.45 108.332C229.601 109.053 230.467 109.907 231.046 110.893C231.639 111.878 231.939 112.957 231.947 114.129C231.961 116.186 231.067 117.755 229.264 118.835C227.475 119.902 224.861 120.447 221.424 120.47C218.078 120.493 215.443 119.88 213.52 118.63C211.611 117.367 210.648 115.628 210.633 113.415C210.622 111.761 211.264 110.377 212.558 109.261C212.007 108.627 211.604 107.868 211.351 106.984C211.111 106.087 210.985 104.91 210.975 103.451L210.952 100.092L208.238 100.111L208.207 95.6966L234.086 95.5199L234.116 99.9339L230.054 99.9616L230.099 106.68ZM224.897 105.641L224.858 99.9971L218.862 100.038L224.897 105.641ZM216.17 103.396C216.179 104.646 216.263 105.525 216.423 106.031C216.595 106.525 216.839 106.914 217.153 107.198C218.259 106.969 219.436 106.851 220.686 106.842L222.112 106.832L216.156 101.346L216.17 103.396ZM223.115 110.732L222.353 110.737C220.7 110.748 219.444 110.861 218.586 111.075C217.741 111.276 217.092 111.587 216.639 112.007C216.199 112.413 215.981 112.897 215.985 113.456C215.998 115.331 217.775 116.257 221.317 116.233C223.035 116.221 224.343 116.004 225.238 115.581C226.147 115.145 226.598 114.504 226.592 113.657C226.587 112.954 226.277 112.351 225.662 111.847C225.059 111.331 224.211 110.959 223.115 110.732Z" fill="#F1A23A"/>
<path d="M17.8008 263.864C16.8538 264.392 15.8799 264.776 14.8789 265.017C13.8909 265.258 12.6873 265.384 11.2681 265.393C8.83325 265.41 6.84973 264.779 5.31753 263.5C3.78523 262.209 3.01148 260.45 2.99627 258.223C2.98142 256.049 3.76371 254.292 5.34315 252.953C6.92249 251.601 8.99469 250.916 11.5597 250.899C13.7602 250.884 15.408 250.977 16.5032 251.178L16.1222 255.458C15.2484 255.255 14.154 255.158 12.8389 255.167L12.585 255.169C12.4939 255.17 12.4028 255.177 12.3117 255.191L16.0738 259.813C16.5793 259.471 17.1425 258.992 17.7633 258.376L17.6953 248.415L1.46517 248.526L1.43502 244.112L26.8055 243.939L26.8357 248.353L23.0662 248.379L23.206 268.847L17.8351 268.884L17.8008 263.864ZM13.4063 261.023L9.30918 255.973C8.9462 256.21 8.67486 256.518 8.49515 256.896C8.31536 257.262 8.22719 257.699 8.23066 258.207C8.23751 259.209 8.5486 259.956 9.16395 260.447C9.77929 260.937 10.6989 261.178 11.9229 261.17C12.5088 261.166 13.0033 261.117 13.4063 261.023ZM41.5083 258.136L35.1608 258.179L35.1679 259.214C35.1749 260.243 34.9587 261.006 34.5194 261.504C34.093 261.989 33.4371 262.234 32.5517 262.24C31.7575 262.245 30.8764 261.932 29.9085 261.301C28.9407 260.67 28.1411 259.9 27.5099 258.993C26.8916 258.073 26.5799 257.229 26.5746 256.46C26.5683 255.536 26.7981 254.864 27.264 254.444C27.7299 254.024 28.4316 253.811 29.3691 253.805L41.4781 253.722L41.4408 248.253L25.2693 248.364L25.2392 243.95L50.5315 243.777L50.5617 248.191L46.7922 248.217L46.932 268.685L41.5806 268.721L41.5083 258.136ZM61.3388 248.117L57.5693 248.143L57.7091 268.611L52.3382 268.648L52.1984 248.18L48.9953 248.202L48.9652 243.788L61.3086 243.703L61.3388 248.117ZM76.2364 256.531L72.6232 256.556C71.0217 256.567 69.8504 256.66 69.1094 256.834C68.3684 257.008 67.7846 257.325 67.3581 257.783C66.9444 258.229 66.7402 258.836 66.7455 259.604C66.7513 260.463 67.1547 261.379 67.9557 262.35C68.7565 263.308 69.9944 264.4 71.6695 265.625L68.2173 269.204C65.8342 267.267 64.0966 265.462 63.0044 263.79C61.9252 262.105 61.3798 260.422 61.3684 258.742C61.3584 257.284 61.7536 256.044 62.5539 255.023C63.3673 254.002 64.404 253.272 65.6641 252.834C66.9371 252.396 68.7195 252.169 71.0111 252.153L76.2063 252.117L76.1783 248.016L59.7919 248.128L59.7618 243.714L85.2885 243.54L85.3187 247.954L81.5492 247.979L81.689 268.448L76.3181 268.484L76.2364 256.531ZM96.0958 247.88L92.3263 247.906L92.4661 268.374L87.0952 268.411L86.9554 247.942L83.7523 247.964L83.7222 243.55L96.0656 243.466L96.0958 247.88ZM117.137 261.311C115.666 261.321 114.516 261.615 113.686 262.194C112.87 262.772 112.465 263.582 112.472 264.624C112.476 265.249 112.604 265.841 112.855 266.399C113.12 266.944 113.645 267.604 114.432 268.38C115.231 269.169 116.462 270.176 118.124 271.402L114.672 274.98C111.804 272.578 109.83 270.567 108.752 268.946C107.673 267.339 107.128 265.715 107.117 264.075C107.11 263.15 107.287 262.296 107.646 261.512C108.018 260.729 108.58 260.015 109.331 259.372C108.138 258.182 107.536 256.773 107.525 255.146C107.519 254.26 107.683 253.498 108.017 252.857C108.364 252.217 108.855 251.68 109.49 251.246C110.138 250.798 110.898 250.481 111.769 250.292C112.64 250.104 113.844 250.005 115.38 249.994L119.462 249.967L119.447 247.72L105.189 247.818L105.159 243.404L128.518 243.244L128.548 247.658L124.779 247.684L124.824 254.344L115.469 254.408C114.714 254.413 114.167 254.475 113.83 254.595C113.492 254.701 113.226 254.886 113.033 255.147C112.852 255.409 112.763 255.716 112.765 256.067C112.768 256.51 112.98 256.958 113.4 257.41C114.712 257.063 116.111 256.884 117.595 256.874C120.382 256.855 122.56 257.419 124.13 258.568C125.701 259.716 126.492 261.221 126.505 263.083C126.517 264.775 125.999 266.153 124.951 267.215C123.917 268.263 122.34 269.042 120.221 269.552L118.747 265.304C120.411 264.902 121.239 264.232 121.233 263.295C121.228 262.631 120.88 262.132 120.187 261.798C119.508 261.464 118.491 261.302 117.137 261.311ZM118.419 243.606C117.71 242.856 117.108 242.3 116.61 241.939C116.1 241.578 115.623 241.327 115.179 241.187C114.723 241.047 114.13 240.979 113.401 240.984C112.411 240.991 111.306 241.311 110.087 241.944L108.715 238.477C110.195 237.816 111.56 237.481 112.81 237.473C113.891 237.465 114.843 237.661 115.666 238.059C116.476 238.457 117.288 239.102 118.101 239.995L118.316 239.955C117.655 238.553 116.964 237.522 116.244 236.863C115.523 236.204 114.538 235.879 113.288 235.887C112.376 235.893 111.499 236.075 110.655 236.433L109.42 233.023C110.785 232.597 112.053 232.38 113.225 232.372C114.605 232.363 115.706 232.485 116.528 232.74C117.35 232.995 118.148 233.478 118.921 234.189C119.694 234.886 120.457 236.008 121.209 237.552C121.962 239.096 122.699 241.103 123.419 243.572L118.419 243.606ZM134.551 257.886C134.545 257.006 134.673 256.232 134.935 255.564C135.224 254.868 135.58 254.253 136.003 253.716C136.426 253.18 136.876 252.697 137.353 252.267C137.857 251.81 138.32 251.38 138.744 250.977C139.168 250.548 139.512 250.119 139.775 249.69C140.066 249.262 140.209 248.794 140.206 248.287C140.2 247.487 139.863 246.863 139.193 246.414C138.55 245.965 137.708 245.744 136.668 245.752C135.602 245.759 134.63 246.019 133.754 246.531C132.904 247.044 132.215 247.755 131.688 248.666L125.707 245.506C126.734 243.713 128.231 242.276 130.197 241.196C132.163 240.089 134.613 239.525 137.546 239.505C139.599 239.491 141.414 239.772 142.992 240.348C144.595 240.897 145.855 241.729 146.769 242.842C147.683 243.956 148.146 245.326 148.157 246.953C148.164 247.993 148.01 248.901 147.696 249.676C147.381 250.452 146.972 251.135 146.469 251.725C145.993 252.315 145.477 252.865 144.921 253.375C144.364 253.859 143.834 254.329 143.33 254.786C142.853 255.243 142.457 255.712 142.14 256.194C141.823 256.677 141.667 257.224 141.671 257.838L134.551 257.886ZM138.183 268.422C136.877 268.431 135.794 268.025 134.935 267.204C134.076 266.383 133.643 265.399 133.635 264.253C133.627 263.079 134.047 262.103 134.895 261.324C135.743 260.518 136.82 260.111 138.126 260.102C139.486 260.093 140.582 260.485 141.415 261.279C142.273 262.047 142.706 263.017 142.715 264.191C142.722 265.337 142.302 266.327 141.455 267.159C140.634 267.992 139.543 268.412 138.183 268.422Z" fill="#EF951E"/>
<g clip-path="url(#clip0_413_110)">
<path d="M463.57 322.241C463.183 322.355 462.822 321.704 462.091 320.658C461.614 319.62 461.032 317.94 460.212 315.741C458.818 311.606 456.85 305.536 454.159 298.164C453.806 297.258 453.454 296.352 453.101 295.446C452.748 294.54 452.272 293.502 451.919 292.596C451.681 292.077 451.566 291.69 451.328 291.171C451.09 290.652 450.852 290.133 450.737 289.746C450.261 288.708 449.785 287.67 449.564 286.641C447.791 282.366 445.764 278.083 443.489 273.535C442.89 272.365 442.29 271.196 441.691 270.026C441.091 268.856 440.492 267.686 439.892 266.516C439.531 265.865 439.293 265.347 438.932 264.696C438.57 264.045 438.332 263.526 437.971 262.875C437.371 261.705 436.517 260.527 435.917 259.357C433.009 254.661 429.978 249.832 426.559 245.119C424.85 242.762 422.771 240.01 420.436 237.249C417.978 234.356 415.274 231.199 412.051 228.281C408.836 225.107 405.234 222.048 400.981 219.35C396.861 216.53 392.344 214.079 387.3 212.121C386.041 211.568 384.774 211.27 383.515 210.716C382.881 210.567 382.124 210.286 381.491 210.137C381.112 209.997 380.857 209.988 380.478 209.848C380.1 209.707 379.845 209.699 379.466 209.558C379.088 209.418 378.832 209.409 378.454 209.269L377.944 209.252L377.433 209.235C376.799 209.086 376.166 208.937 375.4 208.911C374.766 208.762 374.001 208.736 373.367 208.587C372.989 208.447 372.733 208.438 372.223 208.421L371.202 208.387L370.181 208.353C369.803 208.212 369.416 208.327 369.161 208.318C368.395 208.293 367.761 208.144 367.119 208.25C366.353 208.224 365.711 208.33 364.946 208.305C364.69 208.296 364.18 208.279 363.925 208.27L362.772 208.359L361.619 208.448C361.364 208.44 361.232 208.563 361.109 208.431L360.599 208.414C359.956 208.52 359.191 208.495 358.417 208.724C356.877 208.928 355.592 209.14 354.176 209.476C348.51 210.819 343.057 213.446 338.343 216.864C333.63 220.283 329.524 224.616 326.669 229.758C325.861 231.008 325.307 232.267 324.877 233.658C324.737 234.036 324.597 234.415 324.588 234.67C324.448 235.048 324.307 235.427 324.299 235.682C324.15 236.316 323.869 237.073 323.72 237.707C322.63 239.714 322.149 242.636 321.8 245.434C321.45 248.233 321.224 251.163 321.13 253.971C321.035 256.778 320.809 259.708 320.592 262.384C320.242 265.182 320.025 267.858 319.42 270.648C319.271 271.281 319.122 271.915 318.973 272.549C318.965 272.804 318.824 273.182 318.684 273.561C318.543 273.939 318.535 274.195 318.394 274.573C318.096 275.841 317.543 277.099 317.122 278.235C316.568 279.494 316.024 280.497 315.347 281.624C314.671 282.751 313.747 283.615 312.824 284.478C310.855 286.072 308.655 286.893 306.465 287.458C306.078 287.573 305.823 287.564 305.435 287.679C305.18 287.67 304.793 287.785 304.538 287.776C304.283 287.768 304.028 287.759 303.764 288.006C303.509 287.997 303.253 287.989 302.998 287.98C302.488 287.963 301.846 288.069 301.335 288.052C301.08 288.044 300.825 288.035 300.57 288.026C300.314 288.018 300.059 288.009 299.804 288.001C299.294 287.984 298.783 287.966 298.405 287.826C297.894 287.809 297.516 287.668 297.005 287.651C296.882 287.519 296.75 287.643 296.627 287.511L296.248 287.37C295.993 287.362 295.87 287.23 295.615 287.221C295.615 287.221 295.359 287.213 295.104 287.204C294.849 287.196 294.726 287.064 294.471 287.055C291.055 286.046 288.555 284.43 286.565 282.83C286.318 282.566 286.195 282.434 285.816 282.294C285.57 282.03 285.446 281.898 285.2 281.634C285.076 281.502 284.83 281.239 284.706 281.107C284.583 280.975 284.336 280.711 284.213 280.579C283.596 279.92 283.112 279.137 282.742 278.741C282.495 278.478 282.504 278.222 282.257 277.959C282.134 277.827 282.011 277.695 282.019 277.44C281.772 277.176 281.781 276.921 281.781 276.921C281.781 276.921 281.904 277.053 282.151 277.316C282.274 277.448 282.398 277.58 282.521 277.712C282.644 277.844 282.891 278.108 283.137 278.372C284.001 279.295 285.225 280.869 287.224 282.213C289.223 283.558 291.855 285.051 295.024 285.796C295.279 285.805 295.402 285.937 295.657 285.945C295.913 285.954 296.036 286.086 296.291 286.094C296.546 286.103 296.67 286.235 296.925 286.243L297.18 286.252L297.435 286.261C297.946 286.278 298.324 286.418 298.835 286.435C299.345 286.452 299.855 286.47 300.111 286.478C300.366 286.487 300.621 286.495 300.876 286.504C301.131 286.512 301.387 286.521 301.642 286.53C302.152 286.547 302.539 286.432 303.05 286.449C303.305 286.458 303.56 286.466 303.692 286.343C303.947 286.351 304.079 286.228 304.466 286.113C304.589 286.245 304.853 285.999 305.108 286.007C305.364 286.016 305.495 285.892 305.883 285.778C307.818 285.204 309.762 284.375 311.344 282.895C312.927 281.415 314.14 279.54 314.851 277.392C315.272 276.257 315.561 275.244 315.859 273.977C315.868 273.722 316.008 273.343 316.017 273.088C316.026 272.833 316.166 272.454 316.175 272.199C316.324 271.566 316.473 270.932 316.49 270.421C316.831 267.878 317.048 265.203 317.134 262.651C317.228 259.844 317.19 257.16 317.161 254.221C317.132 251.282 317.226 248.474 317.329 245.412C317.432 242.35 317.79 239.296 318.535 236.127C318.816 235.37 318.842 234.605 319.123 233.848C319.263 233.469 319.404 233.091 319.544 232.712C319.684 232.334 319.825 231.955 319.965 231.577C320.527 230.063 321.089 228.549 321.906 227.043C324.787 221.136 329.182 215.79 334.431 211.623C339.681 207.456 345.794 204.213 352.119 202.253C353.667 201.794 355.471 201.344 357.011 201.14C357.908 201.042 358.682 200.813 359.58 200.715L359.984 200.09C360.239 200.099 360.371 199.975 360.626 199.984L361.911 199.772L363.195 199.559C363.582 199.445 364.093 199.462 364.348 199.47C365.114 199.496 366.011 199.398 366.777 199.424C367.542 199.45 368.44 199.352 369.205 199.378C369.716 199.395 369.971 199.404 370.481 199.421L371.757 199.463L373.033 199.506C373.544 199.523 373.799 199.532 374.177 199.672C374.943 199.698 375.832 199.856 376.597 199.881C377.363 199.907 378.12 200.188 378.886 200.214L379.519 200.363L380.153 200.512C380.532 200.652 381.042 200.669 381.297 200.678C381.676 200.818 382.186 200.836 382.441 200.844C382.82 200.985 383.198 201.125 383.585 201.01C384.342 201.291 385.108 201.317 385.865 201.598C387.256 202.028 388.902 202.466 390.292 202.896C396.102 204.879 401.375 207.611 406.13 210.581C410.885 213.551 414.988 216.883 418.713 220.073C422.307 223.388 425.521 226.561 428.226 229.718C430.93 232.875 433.133 235.759 434.965 238.248C438.63 243.225 441.9 248.572 444.8 253.524C445.522 254.825 446.245 256.127 446.845 257.297C447.206 257.948 447.567 258.598 447.805 259.117C448.167 259.768 448.528 260.419 448.766 260.938C449.366 262.108 449.957 263.533 450.556 264.703C451.155 265.872 451.623 267.166 452.222 268.335C454.356 273.261 456.112 278.047 457.621 282.568C457.965 283.73 458.309 284.891 458.785 285.929C459.023 286.448 459.13 287.09 459.368 287.609C459.606 288.128 459.589 288.638 459.827 289.157C460.048 290.187 460.392 291.348 460.745 292.254C460.966 293.283 461.187 294.313 461.539 295.219C463.447 303.075 464.122 309.613 464.355 314.091C464.533 316.397 464.473 318.183 464.307 319.327C464.106 321.492 463.826 322.249 463.57 322.241Z" fill="#454444" fill-opacity="0.2"/>
<path d="M464.877 336.592L475.183 318.798L485.357 301.128L463.248 316.609L438.722 305.183L451.866 320.826L464.877 336.592Z" fill="#454444" fill-opacity="0.2"/>
</g>
<g clip-path="url(#clip1_413_110)">
<path d="M695.332 110.822C695.332 110.822 664.621 190.84 661.865 210.613C659.11 230.386 666.195 241.619 672.099 245.213C678.003 248.807 686.674 244.762 692.971 242.069C699.268 239.377 706.758 237.123 710.694 239.827C714.63 242.52 735.896 251.511 742.981 246.114C750.065 240.717 755.981 237.574 760.704 239.827C765.427 242.069 771.724 243.422 772.118 247.917C772.118 247.917 769.339 255.793 771.331 254.654C777.628 251.06 784.725 245.663 790.235 246.114C790.235 246.114 798.5 245.213 779.215 214.657C759.929 184.102 755.981 161.625 754.407 152.646C752.832 143.655 743.112 116.788 724.482 109.031L695.332 110.822Z" fill="#C0272D"/>
<path opacity="0.39" d="M687.985 243.35C686.745 243.196 685.373 243.054 684.133 242.662C682.988 242.306 681.867 241.69 680.805 241.144C679.35 240.397 678.026 239.163 676.857 237.965C676.547 237.645 676.261 237.289 675.987 236.91C675.247 235.878 674.472 234.822 673.864 233.671C671.133 228.547 670.596 222.403 670.632 216.555C670.667 209.699 671.085 202.926 671.896 196.13C672.623 190.092 673.864 184.15 675.689 178.421C677.692 172.11 680.054 165.966 682.356 159.786C683.405 156.927 684.407 154.033 685.29 151.104C687.031 145.303 688.283 139.337 689.715 133.43C690.192 131.437 690.705 129.456 691.253 127.499C692.088 123.395 692.947 119.303 693.818 115.211C694.175 113.514 694.974 112.02 696.024 110.786L695.344 110.834C695.344 110.834 664.632 190.851 661.877 210.624C659.122 230.398 666.207 241.63 672.111 245.224C677.072 248.249 683.978 245.877 689.786 243.445C689.19 243.445 688.594 243.433 687.985 243.35Z" fill="#9A1C21"/>
<path opacity="0.39" d="M732.604 236.198C728.024 230.089 723.898 223.494 720.355 216.555C716.718 209.426 713.855 201.906 711.148 194.267C708.321 186.261 705.709 178.148 703.574 169.868C703.443 169.358 703.312 168.848 703.181 168.338C702.966 169.928 702.763 171.517 702.572 173.118C702.155 176.784 701.809 180.461 701.511 184.15C700.402 197.826 700.437 211.633 701.773 225.285C702.775 225.582 703.801 225.819 704.803 226.104C707.188 226.756 709.096 228.713 710.384 231.003C711.756 233.422 711.875 236.494 711.327 239.223C711.267 239.519 711.184 239.804 711.1 240.088C715.644 242.9 734.214 250.574 741.919 246.79C738.544 243.552 735.431 239.994 732.604 236.198Z" fill="#9A1C21"/>
<path opacity="0.39" d="M773.454 209.035C769.065 205.299 764.365 202.084 759.69 198.87C755.027 195.655 750.47 192.322 746.022 188.728C740.917 184.612 735.86 180.425 730.91 176.06C728.203 173.676 725.519 171.28 722.872 168.813C723.563 171.339 724.291 173.842 725.066 176.345C726.784 181.86 728.668 187.305 730.636 192.702C731.364 194.623 732.151 196.521 732.974 198.395C736.003 205.299 739.557 211.917 743.624 218.097C747.203 223.233 751.174 228.037 755.659 232.165C756.828 233.149 758.02 234.087 759.249 234.964C761.288 236.423 762.66 238.475 763.447 241.014C767.562 242.686 771.796 244.264 772.118 247.917C772.118 247.917 769.339 255.793 771.331 254.654C777.628 251.06 784.725 245.663 790.235 246.114C790.235 246.114 798.119 245.26 780.526 216.769C778.403 213.922 776.006 211.372 773.454 209.035Z" fill="#9A1C21"/>
<path opacity="0.56" d="M710.885 112.66C712.149 115.116 712.412 118.14 711.827 120.88C711.004 124.759 710.193 128.638 709.394 132.517C709.37 132.635 709.346 132.742 709.323 132.861C710.265 132.101 711.326 131.532 712.4 131.129C713.64 130.69 714.881 130.619 716.121 130.939C717.361 130.998 718.518 131.425 719.592 132.208C720.677 132.884 721.56 133.798 722.216 134.96C723.039 135.992 723.599 137.202 723.885 138.59C723.969 139.313 724.112 140.013 724.303 140.701C724.613 141.365 724.959 142.006 725.34 142.634C727.332 145.291 729.682 147.557 731.984 149.846C734.93 152.752 737.959 155.552 741.024 158.28C745.091 161.838 749.23 165.29 753.393 168.682C755.408 170.319 757.412 171.944 759.451 173.534C756.362 164.009 755.11 156.868 754.371 152.669C752.796 143.678 743.076 116.812 724.446 109.055L708.857 110.015C709.716 110.691 710.384 111.581 710.885 112.66Z" fill="#5B151E"/>
<path d="M779.215 214.657C759.917 184.102 755.981 161.625 754.407 152.646C752.832 143.655 743.112 116.788 724.482 109.031L711.243 109.849C711.684 110.122 712.114 110.419 712.543 110.727C713.593 111.427 714.63 112.127 715.632 112.886C716.086 113.23 716.527 113.586 716.956 113.965C719.151 115.863 721.381 117.749 723.504 119.754C723.695 119.932 723.874 120.121 724.065 120.299C724.399 120.655 724.721 121.023 725.031 121.402C725.174 121.58 725.305 121.77 725.448 121.96C727.142 124.332 728.883 126.87 730.446 129.35C730.72 129.777 730.97 130.227 731.185 130.702C731.292 130.927 731.4 131.164 731.495 131.39C732.664 134.201 733.69 137.166 734.715 140.049C735.145 141.247 735.419 142.468 735.658 143.726C735.813 144.532 735.956 145.351 736.063 146.169C736.576 149.811 736.97 153.476 737.363 157.141C737.697 160.308 737.733 163.487 737.971 166.654C738.067 167.959 738.174 169.263 738.282 170.568C738.747 173.462 739.343 176.321 740.13 179.12C740.798 180.532 741.538 181.896 742.325 183.236C743.207 184.387 744.126 185.502 745.092 186.569C746.177 187.317 747.298 188.016 748.407 188.728C750.316 189.938 752.224 191.172 753.965 192.678C756.47 194.849 759.845 197.411 762.219 200.258C764.7 203.247 766.99 206.556 768.85 210.091C769.363 211.051 769.781 212.072 770.186 213.104C771.438 216.33 772.691 219.556 773.776 222.854C773.967 223.423 774.134 224.004 774.277 224.597C774.766 226.626 774.897 228.832 775.136 230.86C775.303 232.319 775.827 234.941 775.732 236.826C775.732 236.945 775.72 237.052 775.708 237.17C775.35 240.183 775.005 243.196 774.647 246.209C774.623 246.339 774.611 246.482 774.587 246.612C774.539 246.849 774.48 247.063 774.408 247.288C773.538 249.661 772.655 252.021 771.784 254.393C777.974 250.799 784.868 245.663 790.259 246.102C790.235 246.114 798.513 245.213 779.215 214.657Z" fill="#9A1C21"/>
<path d="M715.131 100.455L701.248 102.448C701.248 102.448 699.638 104.251 699.757 105.982C699.865 107.702 701.928 109.588 701.928 109.588L710.742 107.94L715.131 100.455Z" fill="#BABABE"/>
<path d="M715.346 87.5853C715.346 87.5853 713.199 100.147 713.927 102.922C714.654 105.698 720.2 108.023 720.2 108.023C720.2 108.023 708.225 116.456 703.693 113.894C699.161 111.332 697.658 110.063 697.658 110.063C697.658 110.063 700.771 107.987 701.308 105.971C701.833 103.966 701.928 88.2021 701.928 88.2021L715.346 87.5853Z" fill="#DF8867"/>
<path d="M696.584 75.4984C696.584 75.4984 694.032 83.1846 693.615 86.0195C693.197 88.8544 697.038 95.2003 698.123 96.4932C699.208 97.7861 701.498 98.2368 701.498 98.2368C701.498 98.2368 710.014 96.4458 711.755 95.0105C713.497 93.5753 718.339 86.3398 718.339 86.3398C718.339 86.3398 724.422 76.898 723.694 73.5531C722.955 70.2082 719.961 62.5812 712.984 61.4781C706.019 60.3631 703.693 60.3157 701.152 65.1196C700.031 67.2309 696.584 75.4984 696.584 75.4984Z" fill="#EE9E78"/>
<path d="M699.244 71.9637L703.204 75.5933C703.204 75.5933 703.753 75.6763 703.943 75.0239C704.134 74.3715 701.725 71.5485 700.854 71.3587C699.972 71.1808 699.22 71.5366 699.244 71.9637Z" fill="#31141E"/>
<path d="M661.567 105.401L659.575 100.289L657.834 93.1246C657.512 91.7961 657.858 90.3846 658.752 89.3526C660.625 87.2057 663.917 83.8015 666.04 83.8015C669.129 83.8015 671.097 83.5168 671.932 86.0314C672.778 88.546 672.778 92.4603 672.218 93.8481C671.657 95.2478 669.976 97.2049 669.976 97.2049L669.773 101.333C669.725 102.258 669.284 103.136 668.556 103.717L665.288 106.362C664.024 107.382 662.152 106.884 661.567 105.401Z" fill="#EE9E78"/>
<path d="M671.168 89.9457L667.853 94.6191C667.459 95.1766 667.59 95.9476 668.151 96.339L668.914 96.8728C669.475 97.2642 670.25 97.1338 670.644 96.5763L673.959 91.9028C674.353 91.3454 674.222 90.5744 673.661 90.1829L672.898 89.6492C672.337 89.2577 671.562 89.3882 671.168 89.9457Z" fill="#DF8867"/>
<path d="M658.812 92.745C659.122 92.5908 659.456 92.4722 659.79 92.3773C660.124 92.2706 660.47 92.2112 660.84 92.1757C661.018 92.1519 661.197 92.1519 661.388 92.1638C661.579 92.1757 661.77 92.1994 661.949 92.2587C662.14 92.318 662.33 92.3892 662.509 92.5078C662.688 92.6264 662.843 92.7925 662.951 92.9704C663.01 93.0653 663.058 93.1483 663.094 93.2432C663.13 93.3381 663.165 93.4211 663.201 93.516C663.261 93.7058 663.308 93.8956 663.332 94.0854C663.38 94.4649 663.356 94.8445 663.308 95.2122C663.249 95.5799 663.165 95.9358 663.058 96.2797C662.998 96.4577 662.939 96.6237 662.867 96.7898C662.831 96.8728 662.796 96.9558 662.76 97.0389C662.724 97.1219 662.688 97.2049 662.641 97.2998L662.617 97.3354L662.581 97.3829C662.569 97.4066 662.533 97.4422 662.509 97.4659C662.486 97.5015 662.462 97.537 662.438 97.5726C662.39 97.6438 662.354 97.715 662.33 97.7743C662.307 97.8336 662.295 97.8929 662.295 97.9166C662.295 97.9522 662.295 97.9403 662.283 97.9285C662.271 97.9166 662.283 97.9285 662.319 97.9522C662.354 97.9759 662.426 97.9878 662.497 97.9997L662.557 98.0115C662.581 98.0115 662.593 98.0234 662.617 98.0234L662.76 98.0352C662.855 98.0471 662.951 98.059 663.046 98.059C663.428 98.0945 663.821 98.0945 664.203 98.0827C664.585 98.059 664.966 97.9996 665.348 97.9285C666.099 97.7624 666.839 97.4777 667.531 97.0982C668.234 96.7305 668.89 96.256 669.546 95.7578C669.057 96.4102 668.461 97.0033 667.793 97.5133C667.125 98.0115 666.362 98.4267 665.539 98.6758C665.336 98.7351 665.121 98.7944 664.907 98.83C664.799 98.8537 664.692 98.8774 664.585 98.8893L664.263 98.9367C663.833 98.9842 663.404 98.996 662.975 98.9723C662.867 98.9604 662.76 98.9604 662.652 98.9486L662.497 98.9367C662.474 98.9367 662.438 98.9367 662.414 98.9248L662.319 98.913C662.187 98.8893 662.056 98.8537 661.913 98.7944C661.77 98.7232 661.603 98.6165 661.484 98.4385C661.364 98.2606 661.329 98.0352 661.341 97.8692C661.352 97.6912 661.4 97.5608 661.448 97.4303C661.496 97.3117 661.567 97.1931 661.627 97.0982C661.663 97.0507 661.698 96.9914 661.734 96.944C661.77 96.8965 661.806 96.8491 661.853 96.7898L661.794 96.8728C661.83 96.8135 661.865 96.7423 661.901 96.6712C661.937 96.6 661.973 96.5288 661.996 96.4577C662.056 96.3153 662.116 96.1611 662.175 96.0069C662.283 95.6985 662.378 95.402 662.438 95.0817C662.497 94.7733 662.533 94.4649 662.521 94.1684C662.521 94.0142 662.497 93.8719 662.462 93.7295C662.45 93.6583 662.426 93.5872 662.402 93.516C662.378 93.4448 662.354 93.3737 662.319 93.3262C662.211 93.1009 661.996 92.9229 661.722 92.8043C661.448 92.6857 661.126 92.6383 660.804 92.6027C660.172 92.5434 659.492 92.6264 658.812 92.745Z" fill="#DF8867"/>
<path d="M713.783 76.7913L707.712 77.2776C707.712 77.2776 707.164 76.9692 707.45 76.2575C707.736 75.534 711.863 74.6799 712.769 75.1307C713.688 75.5814 714.105 76.4117 713.783 76.7913Z" fill="#31141E"/>
<path d="M700.465 76.9042C700.858 76.01 700.659 75.0594 700.019 74.781C699.379 74.5025 698.542 75.0017 698.148 75.8959C697.755 76.7901 697.954 77.7407 698.594 78.0191C699.233 78.2976 700.071 77.7984 700.465 76.9042Z" fill="#2B203D"/>
<path d="M709.931 80.3735C709.537 81.2631 708.702 81.7613 708.058 81.4884C707.414 81.2156 707.211 80.2667 707.605 79.3652C707.999 78.4756 708.834 77.9774 709.478 78.2503C710.122 78.5349 710.324 79.4838 709.931 80.3735Z" fill="#2B203D"/>
<path d="M695.368 107.916L673.458 123.371L671.001 101.783C670.918 101.024 670.13 100.028 669.498 100.455C667.578 101.772 664.775 102.543 660.613 103.527L664.441 131.2C664.441 131.2 665.431 134.616 667.185 135.778C668.938 136.941 672.79 137.131 672.79 137.131L689.524 128.626L695.368 107.916Z" fill="#282247"/>
<path d="M701.439 86.577C700.866 86.2093 700.21 85.7111 700.199 85.1299C700.187 84.6673 700.556 84.264 701.355 83.8844C702.727 83.2202 704.278 77.5504 704.755 75.4153L705.244 75.5577C705.244 75.5814 704.79 77.5267 704.146 79.555C703.264 82.3187 702.417 83.9082 701.642 84.2759C701.01 84.5843 700.699 84.8808 700.711 85.1773C700.723 85.462 701.033 85.806 701.713 86.2449L701.439 86.577Z" fill="#EF7A6D"/>
<path d="M685.743 258.924C685.743 258.924 678.301 270.205 674.019 271.213C674.019 271.213 670.238 274.475 672.254 276.729C674.269 278.982 677.8 278.982 680.066 278.484C682.332 277.986 689.894 270.466 689.894 270.466L690.395 269.208L691.146 270.466L693.925 268.461L692.41 258.177L685.743 258.924Z" fill="#4C2421"/>
<path d="M732.246 274.676L732.497 282.956L735.276 287.214L735.776 287.463C735.776 287.463 736.79 297.237 737.041 297.747C737.291 298.245 737.291 299.503 738.806 300.76C740.321 302.017 744.101 303.773 746.618 301.258C749.135 298.755 749.397 296.241 749.397 296.241C749.397 296.241 742.336 279.943 742.086 278.437C741.835 276.93 740.822 273.419 740.822 273.419L732.246 274.676Z" fill="#4C2421"/>
<path d="M689.918 162.716C689.918 162.716 687.711 171.173 687.508 180.449C687.329 188.847 682.928 246.114 684.729 258.047C684.896 259.174 685.827 260.039 686.972 260.134L689.906 260.383C691.79 260.538 693.388 259.031 693.329 257.157L705.399 190.46L731.745 275.187C731.745 275.187 739.45 278.496 741.573 274.178C742.551 272.197 728.716 180.318 727.01 172.502C725.305 164.685 719.103 159.288 719.103 159.288L689.918 162.716Z" fill="#282247"/>
<path d="M738.281 246.292C740.428 261.664 741.919 273.478 741.573 274.178C739.45 278.484 731.745 275.187 731.745 275.187L721.882 243.469C727.094 245.331 732.568 246.268 738.281 246.292Z" fill="#161330"/>
<path d="M694.903 227.468C695.941 228.583 697.026 229.638 698.135 230.635L693.341 257.145C693.4 259.019 691.79 260.526 689.918 260.372L686.984 260.122C685.839 260.028 684.908 259.162 684.741 258.035C683.799 251.808 684.55 233.232 685.505 215.701C687.95 220.019 691.086 223.945 694.903 227.468Z" fill="#161330"/>
<path d="M691.289 163.036C691.289 163.036 691.289 166.879 695.571 169.133C699.853 171.387 706.162 172.644 709.442 171.897C712.722 171.149 722.299 166.381 722.8 163.617L722.717 163.7L691.289 163.036Z" fill="#262727"/>
<path d="M712.162 167.018L710.686 167.355L711.757 172.002L713.233 171.666L712.162 167.018Z" fill="#212A4E"/>
<path d="M699.266 166.378L697.884 165.762L695.922 170.112L697.304 170.729L699.266 166.378Z" fill="#212A4E"/>
<path d="M716.414 165.288L715.047 165.938L717.116 170.24L718.482 169.59L716.414 165.288Z" fill="#212A4E"/>
<path d="M694.988 164.766L693.877 163.741L690.616 167.236L691.726 168.261L694.988 164.766Z" fill="#212A4E"/>
<path d="M698.851 106.196L704.289 112.755L716.348 105.105L731.9 112.66C731.9 112.66 725.352 137.166 725.054 142.184C724.863 145.268 725.018 152.61 725.162 157.817C725.257 161.328 723.062 164.495 719.723 165.634C715.525 167.069 709.847 168.635 705.876 168.315C702.608 168.054 699.077 167.247 696.227 166.452C692.804 165.503 690.335 162.538 690.049 159.003C689.285 149.49 687.997 130.631 689.178 124.012C690.776 114.997 694.82 108.45 694.82 108.45L698.851 106.196Z" fill="#D9DDE9"/>
<path d="M704.147 112.72L699.865 110.964L696.585 112.72L699.865 107.702L704.147 112.72Z" fill="#BABABE"/>
<path d="M705.172 113.396L705.971 109.138L715.131 100.455L719.103 106.516L710.694 115.46L705.172 113.396Z" fill="#D9DDE9"/>
<path d="M701.248 102.448L698.863 104.44C697.837 106.682 696.597 112.72 696.597 112.72L699.626 108.96L704.17 112.72C704.146 112.72 699.686 107.572 701.248 102.448Z" fill="#D9DDE9"/>
<path d="M711.207 113.218L705.912 109.209L704.397 112.72L707.176 111.712L711.207 113.218Z" fill="#BABABE"/>
<path d="M705.685 172.917L700.52 172.359C700.043 172.312 699.697 171.873 699.745 171.399L700.019 168.884C700.067 168.409 700.508 168.065 700.986 168.113L706.15 168.67C706.627 168.718 706.973 169.157 706.925 169.631L706.651 172.146C706.591 172.62 706.162 172.964 705.685 172.917Z" fill="#CDD0D7"/>
<path d="M705.446 172.478L700.843 171.98C700.437 171.932 700.139 171.565 700.187 171.161L700.401 169.145C700.449 168.742 700.819 168.445 701.224 168.492L705.828 168.991C706.234 169.038 706.532 169.406 706.484 169.809L706.269 171.826C706.222 172.229 705.852 172.525 705.446 172.478Z" fill="#262727"/>
<path d="M685.23 260.324C683.966 261.285 682.38 261.712 681.068 262.601C680.472 263.005 678.48 264.476 679.16 265.401C679.434 265.78 680.042 265.425 680.376 265.306C681.032 265.069 681.664 264.784 682.237 264.393C682.738 264.049 683.191 263.633 683.537 263.135C684.002 262.471 684.264 261.688 684.897 261.143C684.801 261.083 684.694 261.024 684.598 260.965C684.348 261.973 684.312 263.005 684.551 264.013C684.658 264.452 685.04 266.148 685.731 266.006C686.423 265.863 686.292 264.238 686.292 263.776C686.292 262.59 686.089 261.415 685.719 260.277C685.648 260.063 685.302 260.158 685.374 260.372C685.636 261.166 685.815 261.985 685.886 262.815C685.922 263.242 685.934 263.669 685.922 264.084C685.91 264.381 685.97 265.223 685.779 265.425C685.779 265.579 685.696 265.602 685.541 265.519C685.505 265.46 685.481 265.401 685.445 265.342C685.314 265.175 685.195 264.831 685.135 264.665C685.004 264.321 684.908 263.966 684.849 263.61C684.694 262.756 684.741 261.89 684.956 261.048C685.004 260.87 684.789 260.763 684.658 260.87C683.811 261.605 683.549 262.744 682.738 263.527C682.308 263.942 681.807 264.274 681.271 264.535C680.984 264.677 680.674 264.808 680.376 264.914C680.257 264.962 679.673 265.235 679.589 265.175C679.446 265.092 679.613 264.511 679.696 264.369C679.78 264.227 679.911 264.084 680.018 263.966C680.209 263.752 680.412 263.562 680.627 263.372C681.104 262.969 681.629 262.637 682.165 262.341C683.251 261.747 684.443 261.356 685.421 260.597C685.588 260.49 685.421 260.182 685.23 260.324Z" fill="#3F1D1B"/>
<path d="M738.496 276.634C738.222 278.709 737.113 280.595 736.695 282.647C736.504 283.584 736.433 284.545 736.564 285.506C736.635 286.016 736.779 286.763 737.327 286.989C737.971 287.25 738.21 286.419 738.424 285.969C738.842 285.126 739.188 284.237 739.367 283.324C739.546 282.469 739.569 281.592 739.414 280.726C739.212 279.694 738.747 278.733 738.83 277.654C738.723 277.689 738.603 277.713 738.496 277.749C739.152 278.887 740.07 279.848 741.168 280.572C741.704 280.927 742.277 281.212 742.885 281.438C743.231 281.568 743.947 281.912 744.245 281.497C744.507 281.117 744.149 280.619 743.923 280.334C743.493 279.777 743.028 279.255 742.527 278.757C741.442 277.689 740.19 276.812 738.83 276.124C738.627 276.017 738.448 276.325 738.651 276.432C739.689 276.966 740.667 277.594 741.549 278.354C741.967 278.709 742.372 279.101 742.754 279.504C742.957 279.718 743.148 279.943 743.338 280.168C743.505 280.37 743.875 280.714 743.911 280.987C743.994 281.639 742.611 280.963 742.36 280.833C741.907 280.619 741.466 280.358 741.06 280.062C740.142 279.397 739.379 278.543 738.818 277.559C738.723 277.393 738.496 277.476 738.484 277.654C738.365 279.219 739.259 280.643 739.164 282.232C739.116 283.063 738.902 283.869 738.615 284.652C738.448 285.103 738.246 285.553 738.031 285.98C737.959 286.123 737.9 286.348 737.78 286.455C737.482 286.751 737.184 286.419 737.077 286.135C736.492 284.605 737.005 282.636 737.47 281.153C737.947 279.646 738.651 278.211 738.866 276.645C738.89 276.408 738.532 276.408 738.496 276.634Z" fill="#3F1D1B"/>
<path d="M719.711 106.647C719.711 106.647 702.798 129.527 702.25 133.667C702.25 133.667 697.694 116.065 697.503 108.545C697.479 107.821 697.944 107.038 697.574 106.67C697.539 106.635 694.497 108.568 694.497 108.568C694.497 108.568 688.116 114.914 688.403 135.862C688.617 151.708 690.454 164.092 688.677 167.84C684.24 177.211 688.403 183.829 688.403 183.829C688.403 183.829 700.043 184.932 702.262 169.216C704.981 177.804 711.422 181.86 715.572 182.453C727.213 184.102 728.883 181.623 728.883 181.623L725.006 160.949C725.006 160.949 725.901 138.946 727.535 133.964C729.169 128.982 734.464 115.353 730.827 111.332L719.711 106.647Z" fill="#362D55"/>
<path d="M701.976 169.275C698.97 153.215 699.745 144.271 700.878 141.733C703.955 134.853 718.017 126.716 720.093 125.542L712.698 122.624L721.393 119.077L722.216 107.857L722.49 107.88L721.655 119.267L713.437 122.612L720.737 125.483L720.474 125.625C720.319 125.708 704.397 134.509 701.129 141.828C700.008 144.342 699.244 153.191 702.25 169.204L701.976 169.275Z" fill="#4E4575"/>
<path d="M700.866 141.828C699.435 134.877 697.264 130.168 695.69 127.44C693.985 124.486 692.601 123.158 692.589 123.146L692.41 122.98L698.409 121.355L692.828 118.342L695.905 107.631L696.167 107.702L693.162 118.2L699.149 121.438L692.947 123.122C693.364 123.561 694.533 124.878 695.917 127.286C697.503 130.026 699.698 134.77 701.129 141.769L700.866 141.828Z" fill="#4E4575"/>
<path d="M718.948 82.8762C718.948 82.8762 721.095 77.1116 719.806 75.6051L721.727 69.6151C721.727 69.6151 712.972 70.4691 708.655 69.6032C704.337 68.7373 700.008 67.1598 700.008 67.1598L697.217 73.6836L698.779 65.9024C698.779 65.9024 698.672 60.885 699.638 59.3668C700.604 57.8485 703.526 52.1787 714.296 56.4251C725.066 60.6715 732.151 63.3522 732.759 68.7373C733.355 74.1225 732.222 79.4245 730.529 81.1207C728.835 82.8169 718.077 89.5305 714.225 95.5799L714.749 91.4402L718.948 82.8762Z" fill="#4C2B2C"/>
<path d="M718.948 82.8762C718.948 82.8762 721.095 77.1115 719.806 75.6051L720.522 73.3515C720.665 73.3159 720.796 73.2921 720.939 73.2566C724.005 73.1498 726.879 72.3314 729.563 70.7894C730.612 69.9828 731.662 69.1762 732.711 68.3696C732.735 68.4882 732.747 68.6069 732.759 68.7255C733.355 74.1106 732.222 79.4127 730.529 81.1089C728.835 82.8051 718.077 89.5187 714.225 95.568L714.749 91.4284L718.948 82.8762Z" fill="#3A1D1E"/>
<path d="M697.765 72.4262L697.229 73.6717L697.503 72.3076C697.586 72.3432 697.67 72.3906 697.765 72.4262Z" fill="#3A1D1E"/>
<path d="M718.924 83.5405C718.924 83.5405 720.796 81.4766 722.382 83.5286C723.957 85.5925 721.977 88.8426 720.307 89.495C718.637 90.1474 715.536 91.5351 715.179 91.1081C714.821 90.6811 714.654 89.7796 714.654 89.7796L718.924 83.5405Z" fill="#EE9E78"/>
<path d="M762.051 106.326L764.747 101.736L766.679 93.8125C767.037 92.3417 766.655 90.7878 765.665 89.6491C763.59 87.2768 759.94 83.5049 757.591 83.5049C754.168 83.5049 751.997 83.1965 751.067 85.9839C750.136 88.7714 750.136 93.1008 750.756 94.6428C751.377 96.1848 753.249 98.3555 753.249 98.3555L753.428 101.866C753.512 103.551 754.382 105.105 755.79 106.054L757.686 107.335C759.141 108.307 761.157 107.857 762.051 106.326Z" fill="#EE9E78"/>
<path d="M748.86 93.255L753.655 96.4221C754.227 96.8016 755.003 96.6474 755.384 96.0781L755.897 95.3071C756.279 94.7377 756.124 93.9667 755.551 93.5872L750.757 90.4201C750.184 90.0406 749.409 90.1948 749.027 90.7641L748.514 91.5351C748.133 92.1045 748.288 92.8755 748.86 93.255Z" fill="#DF8867"/>
<path d="M764.401 93.4211C764.091 93.2669 763.757 93.1483 763.423 93.0534C763.089 92.9466 762.743 92.8873 762.374 92.8517C762.195 92.828 762.016 92.828 761.825 92.8399C761.634 92.8517 761.443 92.8755 761.264 92.9348C761.074 92.9941 760.883 93.0652 760.704 93.1839C760.525 93.3025 760.37 93.4685 760.263 93.6465C760.203 93.7414 760.155 93.8244 760.119 93.9193C760.084 94.0142 760.048 94.0972 760.012 94.1921C759.952 94.3819 759.905 94.5717 759.881 94.7614C759.833 95.141 759.857 95.5206 759.905 95.8883C759.964 96.256 760.048 96.6118 760.155 96.9558C760.215 97.1337 760.275 97.2998 760.346 97.4659C760.382 97.5489 760.418 97.6319 760.453 97.715C760.489 97.798 760.525 97.881 760.573 97.9759L760.597 98.0115L760.632 98.0589C760.644 98.0827 760.68 98.1182 760.704 98.142C760.728 98.1776 760.752 98.2131 760.775 98.2487C760.823 98.3199 760.859 98.3911 760.883 98.4504C760.907 98.5097 760.919 98.569 760.919 98.5927C760.919 98.6283 760.919 98.6164 760.93 98.6046C760.942 98.5927 760.931 98.6046 760.895 98.6283C760.859 98.652 760.787 98.6639 760.716 98.6757L760.656 98.6876C760.632 98.6876 760.62 98.6995 760.597 98.6995L760.453 98.7113C760.358 98.7232 760.263 98.735 760.167 98.735C759.786 98.7706 759.392 98.7706 759.01 98.7588C758.629 98.735 758.247 98.6757 757.865 98.6046C757.114 98.4385 756.374 98.1538 755.683 97.7743C754.979 97.4066 754.323 96.9321 753.667 96.4339C754.156 97.0863 754.752 97.6794 755.42 98.1894C756.088 98.6876 756.851 99.1027 757.674 99.3518C757.877 99.4111 758.092 99.4705 758.307 99.506C758.414 99.5298 758.521 99.5535 758.629 99.5654L758.951 99.6128C759.38 99.6602 759.809 99.6721 760.239 99.6484C760.346 99.6365 760.453 99.6365 760.561 99.6247L760.716 99.6128C760.74 99.6128 760.775 99.6128 760.799 99.6009L760.895 99.5891C761.026 99.5653 761.157 99.5298 761.3 99.4705C761.443 99.3993 761.61 99.2925 761.73 99.1146C761.849 98.9367 761.885 98.7113 761.873 98.5453C761.861 98.3673 761.813 98.2369 761.765 98.1064C761.718 97.9878 761.646 97.8692 761.586 97.7743C761.551 97.7268 761.515 97.6675 761.479 97.6201C761.443 97.5726 761.408 97.5252 761.36 97.4659L761.419 97.5489C761.384 97.4896 761.348 97.4184 761.312 97.3473C761.276 97.2761 761.241 97.2049 761.217 97.1337C761.157 96.9914 761.097 96.8372 761.038 96.683C760.93 96.3746 760.835 96.0781 760.775 95.7578C760.716 95.4494 760.68 95.141 760.692 94.8445C760.692 94.6903 760.716 94.5479 760.752 94.4056C760.764 94.3344 760.787 94.2633 760.811 94.1921C760.835 94.1209 760.859 94.0498 760.895 94.0023C761.002 93.7769 761.217 93.599 761.491 93.4804C761.765 93.3618 762.087 93.3143 762.409 93.2788C763.03 93.2195 763.721 93.3025 764.401 93.4211Z" fill="#DF8867"/>
<path d="M728.322 113.265C726.998 117.31 727.093 121.675 728.489 125.684L729.3 128.009C729.3 128.009 751.591 139.503 752.736 139.61C753.881 139.728 756.756 140.013 758.175 138.827C759.594 137.641 762.874 106.67 762.874 106.67C762.874 106.67 760.048 102.993 752.617 102.033L749.337 124.403L730.791 111.332" fill="#362D55"/>
<path d="M706.281 110.715C706.281 110.715 703.419 111.652 701.51 109.885L699.864 110.122L701.2 113.586C701.2 113.586 698.6 119.255 695.499 120.702C692.41 122.15 682.654 120.394 678.921 122.553C675.188 124.712 670.107 130.595 670.524 134.403L672.075 138.625L677.156 135.529C677.156 135.529 678.086 128.009 684.622 126.254C691.146 124.498 695.094 125.53 697.372 123.573C699.65 121.616 703.49 113.574 703.49 113.574L707.533 111.617L706.281 110.715Z" fill="#BE1E2D"/>
<path d="M697.372 123.609C696.573 124.297 695.559 124.617 694.307 124.818C693.376 124.249 692.386 123.787 691.325 123.443C689.154 122.304 686.817 121.794 684.312 121.877C682.296 121.889 680.376 122.197 678.527 122.814C678.659 122.731 678.79 122.648 678.921 122.577C682.654 120.418 692.41 122.161 695.499 120.726C698.588 119.279 701.2 113.609 701.2 113.609L699.865 110.146L701.511 109.909C703.407 111.676 706.281 110.739 706.281 110.739L707.522 111.664L703.478 113.621C703.478 113.609 699.65 121.64 697.372 123.609Z" fill="#9A1420"/>
<path d="M700.222 88.1783L709.728 88.0123C709.728 88.0123 710.754 88.2732 709.191 90.0524C707.629 91.8198 702.25 91.2623 702.25 91.2623C702.25 91.2623 699.948 90.2185 700.222 88.1783Z" fill="#C0272D"/>
<path d="M700.223 88.0241L709.728 88.0123C709.728 88.0123 710.754 88.1309 709.203 88.8663C707.653 89.6017 702.262 89.3408 702.262 89.3408C702.262 89.3408 699.96 88.8782 700.223 88.0241Z" fill="white"/>
<path d="M762.719 291.982L761.3 295.054L743.731 219.224L750.709 217.623L764.27 277.108C765.403 282.114 764.866 287.333 762.719 291.982Z" fill="white"/>
<path d="M761.3 295.066H741.955L743.601 289.563H754.573L746.057 254.109L748.025 238.096L761.3 295.066Z" fill="#7E8081"/>
<path opacity="0.28" d="M735.383 303.595L644.571 290.322L666.922 28.847L758.652 31.4684L735.383 303.595Z" fill="#F1F1F2"/>
<path d="M742.718 306.121L739.223 310L643.462 288.875L665.92 26.2138L763.506 25.9529L766.333 29.9028L742.718 306.121ZM648.304 283.525L738.853 299.894L761.479 35.276L669.773 32.4648L648.304 283.525Z" fill="#929497"/>
<path d="M739.223 310L639.991 292.552L663.094 22.4419L763.518 25.9529L739.223 310ZM644.845 287.024L735.383 303.595L758.652 31.4685L666.922 28.8352L644.845 287.024Z" fill="white"/>
<path opacity="0.5" d="M662.557 75.1425L687.436 29.3927L707.438 30.1993L659.11 120.631L662.557 75.1425Z" fill="#F1F1F2"/>
<path opacity="0.65" d="M739.343 255.295L715.047 299.633L694.092 296.086L743.41 207.979L739.343 255.295Z" fill="#F1F1F2"/>
<path opacity="0.5" d="M712.233 30.0095L658.502 129.693L657.393 142.717L718.685 30.2586L712.233 30.0095Z" fill="#F1F1F2"/>
<path d="M589.624 21.9438H586.797V19.1326C586.797 18.7767 586.511 18.4921 586.153 18.4921C585.796 18.4921 585.509 18.7767 585.509 19.1326V21.9438H582.683C582.325 21.9438 582.039 22.2284 582.039 22.5843C582.039 22.9401 582.325 23.2248 582.683 23.2248H585.509V26.036C585.509 26.3918 585.796 26.6765 586.153 26.6765C586.511 26.6765 586.797 26.3918 586.797 26.036V23.2248H589.624C589.982 23.2248 590.268 22.9401 590.268 22.5843C590.268 22.2284 589.982 21.9438 589.624 21.9438Z" fill="white"/>
<path d="M564.005 58.7974H561.178V55.9862C561.178 55.6304 560.892 55.3457 560.534 55.3457C560.176 55.3457 559.89 55.6304 559.89 55.9862V58.7974H557.063C556.706 58.7974 556.419 59.0821 556.419 59.4379C556.419 59.7938 556.706 60.0784 557.063 60.0784H559.89V62.8896C559.89 63.2455 560.176 63.5301 560.534 63.5301C560.892 63.5301 561.178 63.2455 561.178 62.8896V60.0784H564.005C564.363 60.0784 564.649 59.7938 564.649 59.4379C564.649 59.0939 564.363 58.7974 564.005 58.7974Z" fill="white"/>
<path d="M676.595 2.5858H674.472V0.47446C674.472 0.213507 674.258 0 673.995 0C673.733 0 673.518 0.213507 673.518 0.47446V2.5858H671.395C671.133 2.5858 670.918 2.79931 670.918 3.06026C670.918 3.32122 671.133 3.53472 671.395 3.53472H673.518V5.64607C673.518 5.90702 673.733 6.12053 673.995 6.12053C674.258 6.12053 674.472 5.90702 674.472 5.64607V3.54658H676.595C676.858 3.54658 677.072 3.33308 677.072 3.07213C677.084 2.81117 676.858 2.5858 676.595 2.5858Z" fill="white"/>
<path d="M643.688 158.422H641.565V156.311C641.565 156.05 641.351 155.836 641.088 155.836C640.826 155.836 640.611 156.05 640.611 156.311V158.422H638.488C638.226 158.422 638.011 158.636 638.011 158.896C638.011 159.157 638.226 159.371 638.488 159.371H640.611V161.482C640.611 161.743 640.826 161.957 641.088 161.957C641.351 161.957 641.565 161.743 641.565 161.482V159.371H643.688C643.951 159.371 644.166 159.157 644.166 158.896C644.166 158.636 643.951 158.422 643.688 158.422Z" fill="white"/>
<path d="M635.28 104.274H633.157V102.163C633.157 101.902 632.943 101.689 632.68 101.689C632.418 101.689 632.203 101.902 632.203 102.163V104.274H630.08C629.818 104.274 629.603 104.488 629.603 104.749C629.603 105.01 629.818 105.223 630.08 105.223H632.203V107.346C632.203 107.607 632.418 107.821 632.68 107.821C632.943 107.821 633.157 107.607 633.157 107.346V105.235H635.28C635.543 105.235 635.757 105.022 635.757 104.761C635.757 104.5 635.543 104.274 635.28 104.274Z" fill="white"/>
<path d="M766.75 165.539H764.627V163.428C764.627 163.167 764.413 162.953 764.15 162.953C763.888 162.953 763.673 163.167 763.673 163.428V165.539H761.55C761.288 165.539 761.073 165.752 761.073 166.013C761.073 166.274 761.288 166.488 761.55 166.488H763.673V168.599C763.673 168.86 763.888 169.074 764.15 169.074C764.413 169.074 764.627 168.86 764.627 168.599V166.488H766.75C767.013 166.488 767.228 166.274 767.228 166.013C767.228 165.752 767.013 165.539 766.75 165.539Z" fill="white"/>
<path d="M636.533 40.7679H634.41V38.6566C634.41 38.3956 634.195 38.1821 633.933 38.1821C633.67 38.1821 633.456 38.3956 633.456 38.6566V40.7679H631.333C631.07 40.7679 630.855 40.9814 630.855 41.2424C630.855 41.5033 631.07 41.7169 631.333 41.7169H633.456V43.8282C633.456 44.0892 633.67 44.3027 633.933 44.3027C634.195 44.3027 634.41 44.0892 634.41 43.8282V41.7169H636.533C636.795 41.7169 637.01 41.5033 637.01 41.2424C637.01 40.9814 636.795 40.7679 636.533 40.7679Z" fill="white"/>
<path d="M743.827 10.4144H741.704V8.30307C741.704 8.04212 741.489 7.82861 741.227 7.82861C740.965 7.82861 740.75 8.04212 740.75 8.30307V10.4144H738.627C738.365 10.4144 738.15 10.6279 738.15 10.8889C738.15 11.1498 738.365 11.3633 738.627 11.3633H740.75V13.4747C740.75 13.7356 740.965 13.9491 741.227 13.9491C741.489 13.9491 741.704 13.7356 741.704 13.4747V11.3752H743.827C744.09 11.3752 744.304 11.1617 744.304 10.9007C744.304 10.6398 744.09 10.4144 743.827 10.4144Z" fill="white"/>
<path d="M770.794 85.1062H768.671V82.9948C768.671 82.7339 768.456 82.5204 768.194 82.5204C767.931 82.5204 767.717 82.7339 767.717 82.9948V85.1062H765.594C765.331 85.1062 765.117 85.3197 765.117 85.5806C765.117 85.8416 765.331 86.0551 765.594 86.0551H767.717V88.1665C767.717 88.4274 767.931 88.6409 768.194 88.6409C768.456 88.6409 768.671 88.4274 768.671 88.1665V86.0551H770.794C771.056 86.0551 771.271 85.8416 771.271 85.5806C771.271 85.3197 771.056 85.1062 770.794 85.1062Z" fill="white"/>
<path d="M560.689 149.17H558.566V147.059C558.566 146.798 558.351 146.584 558.089 146.584C557.827 146.584 557.612 146.798 557.612 147.059V149.17H555.477C555.215 149.17 555 149.384 555 149.645C555 149.905 555.215 150.119 555.477 150.119H557.6V152.23C557.6 152.491 557.815 152.705 558.077 152.705C558.34 152.705 558.554 152.491 558.554 152.23V150.119H560.677C560.94 150.119 561.154 149.905 561.154 149.645C561.154 149.384 560.952 149.17 560.689 149.17Z" fill="white"/>
<path d="M595.48 85.118C595.48 85.118 597.663 97.8691 596.923 100.68C596.184 103.491 590.554 105.852 590.554 105.852C590.554 105.852 602.708 114.416 607.3 111.818C611.891 109.221 613.418 107.928 613.418 107.928C613.418 107.928 609.816 107.453 609.279 105.413C608.743 103.373 609.077 85.7467 609.077 85.7467L595.48 85.118Z" fill="#DF8867"/>
<path d="M619.703 80.919C619.703 80.919 619.012 89.0916 618.272 91.9146C617.533 94.7258 611.414 99.1383 609.876 99.9093C608.337 100.692 606.023 100.206 606.023 100.206C606.023 100.206 598.784 95.1647 597.734 93.1364C596.684 91.108 595.062 82.4373 595.062 82.4373C595.062 82.4373 593.154 71.2163 595.182 68.3933C597.209 65.5584 603.053 59.6277 610.007 61.3476C616.96 63.0675 619.143 63.9334 619.584 69.4252C619.787 71.845 619.703 80.919 619.703 80.919Z" fill="#EE9E78"/>
<path d="M618.189 75.6051L612.965 77.1946C612.965 77.1946 612.428 77.0285 612.548 76.3524C612.667 75.6644 616.114 74.1343 616.996 74.3478C617.879 74.5732 618.404 75.2256 618.189 75.6051Z" fill="#31141E"/>
<path d="M600.334 75.2493L606.035 77.6216C606.035 77.6216 606.656 77.5029 606.608 76.7201C606.56 75.9372 602.851 73.8259 601.825 73.9682C600.811 74.1106 600.143 74.7867 600.334 75.2493Z" fill="#31141E"/>
<path d="M616.516 82.1448C617.228 82.1378 617.796 81.3302 617.787 80.341C617.777 79.3518 617.192 78.5556 616.48 78.5627C615.769 78.5697 615.2 79.3773 615.21 80.3665C615.22 81.3557 615.805 82.1519 616.516 82.1448Z" fill="#2B203D"/>
<path d="M603.662 80.4802C603.674 81.4647 604.258 82.2594 604.962 82.2594C605.666 82.2476 606.238 81.441 606.226 80.4565C606.214 79.472 605.63 78.6772 604.926 78.6772C604.222 78.6891 603.65 79.4957 603.662 80.4802Z" fill="#2B203D"/>
<path d="M610.448 87.5259C611.128 87.4073 611.939 87.1938 612.189 86.66C612.38 86.233 612.201 85.7111 611.617 85.0469C610.603 83.8844 611.426 77.9774 611.82 75.7949L611.307 75.7356C611.307 75.7593 610.937 77.752 610.734 79.899C610.46 82.8288 610.615 84.6436 611.188 85.296C611.653 85.8297 611.832 86.233 611.7 86.5058C611.581 86.7668 611.14 86.9566 610.341 87.0989L610.448 87.5259Z" fill="#EF7A6D"/>
<path d="M613.251 90.3133L603.745 90.1473C603.745 90.1473 602.719 90.4082 604.282 92.1875C605.844 93.9667 611.223 93.3973 611.223 93.3973C611.223 93.3973 613.525 92.3535 613.251 90.3133Z" fill="#C0272D"/>
<path d="M613.251 90.1591L603.745 90.1473C603.745 90.1473 602.72 90.2659 604.27 91.0013C605.821 91.7367 611.212 91.4758 611.212 91.4758C611.212 91.4758 613.513 91.0132 613.251 90.1591Z" fill="white"/>
<path d="M611.319 265.531C611.319 265.531 618.869 276.978 623.21 277.998C623.21 277.998 627.051 281.307 624.999 283.596C622.948 285.886 619.37 285.886 617.068 285.376C614.766 284.866 607.097 277.239 607.097 277.239L606.584 275.969L605.821 277.239L603.006 275.198L604.544 264.772L611.319 265.531Z" fill="#4C2421"/>
<path d="M589.457 270.11L589.206 278.508L586.392 282.837L585.879 283.086C585.879 283.086 584.853 293.003 584.603 293.513C584.352 294.023 584.352 295.292 582.814 296.561C581.275 297.83 577.446 299.609 574.882 297.071C572.318 294.533 572.067 291.982 572.067 291.982C572.067 291.982 579.224 275.448 579.486 273.917C579.736 272.387 580.762 268.829 580.762 268.829L589.457 270.11Z" fill="#4C2421"/>
<path d="M621.29 161.34C621.29 161.34 623.532 169.916 623.735 179.334C623.914 187.862 614.193 252.543 612.357 264.642C612.178 265.792 611.247 266.658 610.079 266.765L607.097 267.014C605.188 267.18 603.566 265.65 603.614 263.74L605.57 189.487L589.958 270.62C589.958 270.62 582.134 273.977 579.987 269.6C578.997 267.583 581.919 179.192 583.648 171.268C585.378 163.345 591.675 157.865 591.675 157.865L621.29 161.34Z" fill="#282247"/>
<path d="M612.81 228.108C614.492 228.108 616.15 228.002 617.784 227.8C615.458 244.062 613.156 259.363 612.357 264.642C612.178 265.792 611.248 266.658 610.079 266.765L607.097 267.014C605.189 267.18 603.567 265.65 603.614 263.74L604.676 227.385C607.3 227.966 610.007 228.215 612.81 228.108Z" fill="#181633"/>
<path d="M584.089 216.271C587.763 220.209 592.128 222.996 597.161 224.621C597.913 225.012 597.555 225.368 598.33 225.7L589.958 270.62C589.958 270.62 582.133 273.977 579.987 269.6C579.426 268.461 580.118 239.472 581.144 213.175C582.05 214.254 583.028 215.286 584.089 216.271Z" fill="#181633"/>
<path d="M619.894 161.66C619.894 161.66 619.894 165.563 615.541 167.852C611.188 170.141 604.795 171.41 601.467 170.651C598.14 169.892 588.419 165.053 587.906 162.253L587.99 162.336L619.894 161.66Z" fill="#262727"/>
<path d="M597.618 170.425L599.117 170.767L600.202 166.061L598.702 165.719L597.618 170.425Z" fill="#212A4E"/>
<path d="M613.795 169.484L615.199 168.858L613.213 164.453L611.809 165.079L613.795 169.484Z" fill="#212A4E"/>
<path d="M592.311 168.299L593.699 168.959L595.793 164.603L594.405 163.943L592.311 168.299Z" fill="#212A4E"/>
<path d="M619.442 166.974L620.569 165.933L617.267 162.395L616.14 163.436L619.442 166.974Z" fill="#212A4E"/>
<path d="M612.214 104.002L606.691 110.656L594.466 102.887L578.687 110.549C578.687 110.549 585.33 135.411 585.64 140.499C585.831 143.631 589.552 151.471 587.68 156.667C586.475 160.011 587.668 163.131 591.043 164.293C595.301 165.752 601.062 167.342 605.093 167.022C608.409 166.749 611.987 165.942 614.885 165.136C618.368 164.175 621.564 161.15 621.159 157.58C620.097 148.209 623.246 128.804 622.041 122.078C620.419 112.933 616.316 106.291 616.316 106.291L612.214 104.002Z" fill="#D9DDE9"/>
<path d="M606.846 110.62L611.188 108.841L614.515 110.62L611.188 105.532L606.846 110.62Z" fill="#BABABE"/>
<path d="M605.809 111.308L604.998 106.991L595.707 98.1776L591.675 104.322L600.203 113.396L605.809 111.308Z" fill="#D9DDE9"/>
<path d="M609.792 100.194L612.214 102.222C613.263 104.5 614.515 110.62 614.515 110.62L611.45 106.801L607.335 110.395C607.335 110.395 611.379 105.401 609.792 100.194Z" fill="#D9DDE9"/>
<path d="M599.678 111.13L605.057 107.05L606.584 110.62L603.781 109.6L599.678 111.13Z" fill="#BABABE"/>
<path d="M605.296 171.683L610.532 171.114C611.021 171.066 611.367 170.628 611.319 170.141L611.045 167.591C610.997 167.105 610.556 166.761 610.067 166.808L604.831 167.377C604.342 167.425 603.996 167.864 604.043 168.35L604.318 170.9C604.365 171.387 604.807 171.731 605.296 171.683Z" fill="#CDD0D7"/>
<path d="M605.523 171.244L610.198 170.734C610.615 170.687 610.914 170.319 610.866 169.904L610.639 167.864C610.592 167.449 610.222 167.152 609.804 167.2L605.129 167.71C604.712 167.757 604.413 168.125 604.461 168.54L604.688 170.58C604.735 170.983 605.117 171.292 605.523 171.244Z" fill="#262727"/>
<path d="M611.665 267.251C612.643 268.01 613.847 268.402 614.921 268.983C615.481 269.28 616.018 269.623 616.507 270.027C616.722 270.205 616.913 270.395 617.103 270.596C617.235 270.738 618.141 271.865 617.497 271.853C616.996 271.853 616.28 271.426 615.851 271.213C615.302 270.94 614.79 270.608 614.36 270.169C613.561 269.386 613.287 268.236 612.44 267.5C612.309 267.382 612.094 267.488 612.142 267.678C612.345 268.473 612.404 269.291 612.285 270.11C612.237 270.394 611.748 272.506 611.331 272.257C611.104 272.114 611.164 271.154 611.152 270.881C611.14 270.489 611.14 270.086 611.164 269.695C611.223 268.769 611.414 267.88 611.7 267.002C611.772 266.789 611.426 266.694 611.355 266.907C610.973 268.058 610.77 269.244 610.77 270.454C610.77 270.916 610.639 272.613 611.355 272.719C612.023 272.814 612.392 271.213 612.512 270.774C612.774 269.73 612.75 268.651 612.476 267.607C612.38 267.666 612.273 267.726 612.178 267.785C612.774 268.295 613.036 269.019 613.454 269.659C613.812 270.205 614.277 270.667 614.813 271.035C615.362 271.426 615.982 271.711 616.614 271.948C616.948 272.079 617.676 272.482 617.974 272.114C618.702 271.213 616.71 269.718 616.125 269.315C614.778 268.378 613.132 267.951 611.832 266.955C611.653 266.812 611.474 267.121 611.665 267.251Z" fill="#3F1D1B"/>
<path d="M582.754 272.091C582.969 273.728 583.72 275.21 584.197 276.776C584.46 277.606 584.662 278.46 584.746 279.338C584.782 279.777 584.794 280.216 584.758 280.655C584.734 281.011 584.71 281.639 584.472 281.948C583.935 282.612 583.696 281.793 583.506 281.414C583.315 281.022 583.136 280.619 582.981 280.204C582.683 279.409 582.48 278.579 582.432 277.737C582.349 276.147 583.255 274.712 583.124 273.146C583.112 272.98 582.885 272.897 582.79 273.052C582.205 274.048 581.442 274.902 580.512 275.59C580.094 275.886 579.653 276.159 579.188 276.373C578.902 276.503 578.604 276.622 578.305 276.729C578.019 276.823 577.375 276.918 577.661 276.408C578.162 275.471 579.14 274.605 579.939 273.917C580.858 273.123 581.872 272.458 582.957 271.913C583.16 271.806 582.981 271.498 582.778 271.604C581.442 272.281 580.202 273.146 579.116 274.19C578.604 274.688 578.115 275.222 577.685 275.792C577.447 276.1 577.041 276.586 577.268 277.001C577.518 277.452 578.15 277.167 578.496 277.049C579.14 276.823 579.76 276.527 580.333 276.159C581.478 275.424 582.432 274.416 583.112 273.241C583.005 273.206 582.885 273.182 582.778 273.146C582.861 274.166 582.444 275.08 582.229 276.064C582.039 276.906 582.038 277.761 582.182 278.603C582.337 279.516 582.647 280.382 583.028 281.224C583.231 281.663 583.541 282.825 584.221 282.636C584.841 282.458 585.008 281.651 585.08 281.117C585.211 280.18 585.14 279.231 584.961 278.306C584.555 276.183 583.398 274.238 583.124 272.103C583.088 271.865 582.73 271.865 582.754 272.091Z" fill="#3F1D1B"/>
<path d="M610.842 107.536C610.842 107.536 607.657 108.936 605.129 106.979L602.791 108.841L605.415 113.408L604.294 127.108L609.625 135.221C609.625 135.221 612.154 129.622 612.154 129.065C612.154 128.507 609.339 113.123 609.339 113.123L611.307 108.924L610.842 107.536Z" fill="#C62026"/>
<path d="M591.067 104.464C591.067 104.464 608.218 127.677 608.779 131.876C608.779 131.876 613.394 114.013 613.597 106.398C613.621 105.662 613.156 104.867 613.526 104.5C613.561 104.464 616.65 106.433 616.65 106.433C616.65 106.433 622.84 118.817 622.84 134.118C622.84 152.017 619.573 142.041 622.554 166.559C623.83 176.997 623.89 182.738 623.89 182.738C623.89 182.738 611.021 183.901 608.779 167.959C606.024 176.665 599.488 180.781 595.277 181.386C583.47 183.058 581.776 180.544 581.776 180.544L585.784 159.905C585.784 159.905 584.806 137.249 583.16 132.184C581.502 127.12 576.135 113.313 579.82 109.221L591.067 104.464Z" fill="#362D55"/>
<path d="M609.053 167.994C612.106 151.708 611.319 142.634 610.174 140.06C607.049 133.074 592.785 124.83 590.686 123.644L598.188 120.691L589.374 117.097L588.539 105.721L588.252 105.745L589.099 117.298L597.436 120.691L590.03 123.609L590.292 123.751C590.459 123.846 606.596 132.766 609.912 140.191C611.057 142.741 611.82 151.72 608.779 167.959L609.053 167.994Z" fill="#4E4575"/>
<path d="M610.186 140.144C611.629 133.086 613.836 128.318 615.434 125.554C617.163 122.565 618.571 121.213 618.582 121.201L618.761 121.035L612.667 119.386L618.32 116.326L615.207 105.461L614.933 105.532L617.986 116.183L611.915 119.469L618.213 121.177C617.783 121.628 616.615 122.956 615.195 125.4C613.585 128.187 611.367 132.991 609.912 140.084L610.186 140.144Z" fill="#4E4575"/>
<path d="M595.874 78.9619C595.874 78.9619 596.172 72.7346 597.985 71.8332L598.593 65.4754C598.593 65.4754 606.429 69.7337 610.794 70.6352C615.16 71.5366 619.835 71.7739 619.835 71.7739V78.9619L621.493 71.0859C621.493 71.0859 623.604 66.4362 623.306 64.6451C623.007 62.8422 622.554 56.4014 610.794 56.1048C599.046 55.8083 591.353 55.4999 588.646 60.3038C585.939 65.0958 584.877 70.4928 585.783 72.7465C586.69 74.9883 592.558 84.2877 594.824 89.3763C597.078 94.4767 596.565 92.2349 596.565 92.2349L595.874 78.9619Z" fill="#31141E"/>
<path d="M595.635 79.6024C595.635 79.6024 594.705 76.9336 592.415 78.2265C590.113 79.5313 590.674 83.3507 591.962 84.6198C593.262 85.889 595.599 88.4155 596.1 88.1546C596.613 87.8936 597.114 87.1226 597.114 87.1226L595.635 79.6024Z" fill="#EE9E78"/>
<path d="M616.567 106.445C616.567 106.445 631.034 135.695 631.845 138.447C632.656 141.199 631.523 145.552 629.221 147.415C626.919 149.277 604.401 145.196 604.401 145.196L621.039 138.435L624.355 136.431L616.567 106.445Z" fill="#362D55"/>
<path d="M619.453 131.01C619.453 131.01 622.769 129.966 625.381 132.777C627.993 135.589 626.383 136.692 626.383 136.692L621.063 137.593L619.453 131.01Z" fill="#EE9E78"/>
<path opacity="0.45" d="M619 144.271C619.238 142.634 619.859 141.175 620.861 139.906C621.433 138.851 622.184 137.949 623.115 137.19L621.039 138.447L604.401 145.208C604.401 145.208 612.047 146.596 618.893 147.379C618.809 146.347 618.857 145.291 619 144.271Z" fill="#0F131F"/>
<path d="M578.544 112.067C578.556 112.02 578.568 111.972 578.591 111.925C580.118 107.026 586.845 106.433 589.218 110.976L598.808 134.58L619.226 130.571C619.226 130.571 623.103 133.442 622.292 137.866C622.292 137.866 599.821 146.988 598.748 147.45C597.686 147.913 593.584 148.791 590.125 146.217L578.663 115.792C578.21 114.582 578.174 113.289 578.544 112.067Z" fill="#2D2749"/>
<path d="M603.757 133.062C603.757 133.062 597.925 127.345 595.838 126.811C593.751 126.277 589.552 127.843 588.455 128.733C587.358 129.622 586.881 130.465 587.405 131.034C587.405 131.034 586.797 132.635 588.193 132.73C588.193 132.73 588.217 134.284 588.825 134.403C588.825 134.403 588.789 135.482 589.97 135.85C589.97 135.85 596.458 134.225 598.032 134.509C598.784 134.64 603.757 133.062 603.757 133.062Z" fill="#EE9E78"/>
</g>
<defs>
<clipPath id="clip0_413_110">
<rect width="180.915" height="139.568" fill="white" transform="translate(396.562 400.469) rotate(-133.077)"/>
</clipPath>
<clipPath id="clip1_413_110">
<rect width="237" height="310" fill="white" transform="translate(555)"/>
</clipPath>
</defs>
</svg>
