<svg width="24" height="24" viewBox="0 0 24 24" fill="none" xmlns="http://www.w3.org/2000/svg">
<path fill-rule="evenodd" clip-rule="evenodd" d="M19.7381 11.0479H18.381V7.42882C18.381 6.43358 17.5667 5.61929 16.5714 5.61929H12.9524V4.26215C12.9524 3.01358 11.939 2.00024 10.6905 2.00024C9.44191 2.00024 8.42857 3.01358 8.42857 4.26215V5.61929H4.80952C3.81429 5.61929 3.00905 6.43358 3.00905 7.42882V10.8669H4.35714C5.70524 10.8669 6.8 11.9617 6.8 13.3098C6.8 14.6579 5.70524 15.7526 4.35714 15.7526H3V19.1907C3 20.186 3.81429 21.0002 4.80952 21.0002H8.24762V19.6431C8.24762 18.295 9.34238 17.2002 10.6905 17.2002C12.0386 17.2002 13.1333 18.295 13.1333 19.6431V21.0002H16.5714C17.5667 21.0002 18.381 20.186 18.381 19.1907V15.5717H19.7381C20.9867 15.5717 22 14.5583 22 13.3098C22 12.0612 20.9867 11.0479 19.7381 11.0479Z" fill="#1B4CA1"/>
</svg>
