<svg width="70" height="63" viewBox="0 0 70 63" fill="none" xmlns="http://www.w3.org/2000/svg">
<path fill-rule="evenodd" clip-rule="evenodd" d="M58.0644 23.4277C56.4051 23.1658 54.5349 22.999 52.4506 22.999C52.2132 23.0106 51.9794 23.0244 51.7481 23.0398C52.4471 21.8086 53.0816 20.7047 53.6748 19.4828C59.5353 18.5686 63.0002 19.2327 63.0002 19.2327C63.0002 19.2327 61.5406 20.2943 58.0644 23.4277ZM50.4289 23.1503C49.0394 23.2913 47.7732 23.5003 46.6208 23.76C47.0165 22.8616 47.3405 21.9128 47.6107 20.9371C48.166 20.7158 47.8964 19.7499 48.5098 19.5408C49.5466 19.2392 53.3365 18.2693 54.2721 18.0826C53.6945 19.2592 52.7048 23.7901 50.4289 23.1503ZM48.8946 13.6409C53.9091 10.8727 57.2525 10.4022 57.2525 10.4022C57.2525 10.4022 55.7376 12.2134 52.7807 18.2974C51.8383 18.4661 51.0109 18.679 49.9809 18.9506C49.2623 19.1781 48.5814 19.4163 47.9323 19.6625C48.4011 17.6073 48.6709 15.6386 48.8946 13.6409ZM59.3901 23.665C63.7401 19.6548 65.5496 18.76 65.5496 18.76C65.5496 18.76 61.354 17.0933 54.2724 18.0826C54.3051 18.0145 54.3379 17.946 54.3704 17.8782C57.769 10.7883 59.5252 8.91785 59.5252 8.91785C59.5252 8.91785 55.1708 8.8467 49.0468 12.1035C49.8989 4.39406 50.9208 2.06458 50.9208 2.06458C50.9208 2.06458 45.5223 3.95969 39.7524 12.1913C39.4517 12.6673 39.1712 13.134 38.9067 13.5929L39.0926 15.457C39.4059 14.8629 39.1205 15.0479 39.4998 14.4175C44.3998 7.04146 48.9998 4.49011 48.9998 4.49011C48.9998 4.49011 48.4669 6.32531 47.7055 12.762C46.7838 13.299 45.9864 13.9092 45.0047 14.6066C42.3001 16.7324 40.9894 18.6365 39.5995 20.5381L39.7561 20.6744C40.9875 18.8087 42.184 17.1871 44.8869 14.9657C45.8587 14.2377 48.1456 12.6523 49.0468 12.1035C48.823 14.0267 48.4245 17.6793 47.9324 19.6625C44.5853 21.0787 41.6488 23.0457 40.005 24.6043C41.4223 23.1213 44.6639 21.8139 47.9324 20.3488C47.6489 21.2608 47.0392 22.9337 46.6211 23.7599C44.164 24.4456 41.6041 25.5352 40.191 26.4697L40.3068 27.3105C41.4563 26.4781 43.5273 25.1919 45.6595 24.5049C45.435 25.9863 44.2912 28.3146 40.4398 28.9636L40.54 29.968C43.4359 29.054 44.7199 27.0177 46.0158 24.6663C47.12 24.3877 50.3797 23.205 51.7482 23.0397C49.645 27.0877 42.7325 33.1443 40.5914 30.4825L40.69 31.4705C45.8135 31.5855 48.5504 28.2815 51.0797 24.1717C51.2247 24.1597 51.37 24.1479 51.5178 24.1374C52.4507 22.9989 57.8014 23.4461 59.3901 23.665C59.1084 23.9281 57.1946 26.2347 56.891 26.5251C52.6996 30.5338 44.2912 36.5886 40.761 32.5023L40.8695 33.2709C47.694 35.4409 53.0109 29.7885 57.6262 25.3306C57.8709 25.0943 58.107 25.0282 58.3391 24.808C62.6627 25.6124 64.9003 26.7428 64.9003 26.7428C64.9003 26.7428 62.7108 27.3755 56.7979 30.663C51.9538 33.3563 46.3293 36.72 40.9136 33.7133L41.0336 34.917C46.8806 37.77 52.9839 34.0917 58.2609 31.1236C65.0656 27.2965 67.5643 26.787 67.5643 26.787C67.5643 26.787 64.7954 24.7517 59.3901 23.665Z" fill="#264092"/>
<path fill-rule="evenodd" clip-rule="evenodd" d="M6.96656 19.2327C6.96656 19.2327 10.4315 18.5686 16.292 19.4828C16.8852 20.7045 17.5197 21.8084 18.2187 23.0398C17.9874 23.0244 17.7537 23.0104 17.516 22.9988C15.4319 22.9988 13.5618 23.1658 11.9024 23.4277C8.42617 20.2943 6.96656 19.2327 6.96656 19.2327ZM15.6947 18.0828C16.6302 18.2694 20.4201 19.2391 21.457 19.5409C22.0704 19.75 21.8007 20.7158 22.3561 20.9372C22.6262 21.9129 22.9502 22.8616 23.346 23.7599C22.1935 23.5004 20.9273 23.2914 19.5378 23.1505C17.2619 23.7902 16.2722 19.2593 15.6947 18.0828ZM22.0347 19.6626C21.3856 19.4164 20.7047 19.178 19.9861 18.9506C18.9561 18.6791 18.1287 18.4662 17.1863 18.2973C14.2294 12.2136 12.7144 10.4023 12.7144 10.4023C12.7144 10.4023 16.0579 10.8726 21.0723 13.641C21.2961 15.6385 21.5659 17.6072 22.0347 19.6626ZM2.40283 26.7869C2.40283 26.7869 4.90155 27.2964 11.7061 31.1237C16.9833 34.0918 23.0866 37.7699 28.9334 34.9171L29.0536 33.7132C23.6379 36.7201 18.0134 33.3562 13.1692 30.6629C7.2564 27.3756 5.06687 26.7429 5.06687 26.7429C5.06687 26.7429 7.30448 25.6122 11.628 24.8079C11.8601 25.0283 12.0963 25.0942 12.3409 25.3307C16.9563 29.7884 22.2731 35.4409 29.0976 33.271L29.3635 32.3431C25.8333 36.4293 17.2675 30.5339 13.0762 26.5252C12.7726 26.2346 10.8588 23.9281 10.5771 23.6651C12.1658 23.446 17.5163 22.9987 18.4494 24.1373C18.5972 24.1478 18.7423 24.1597 18.8875 24.1717C21.4167 28.2815 24.1536 31.5856 29.2772 31.4706L29.3758 30.4824C27.2347 33.1444 20.5923 27.1853 18.219 23.0397C19.5874 23.2049 22.8162 24.5192 23.9204 24.798C25.2164 27.1492 26.5312 29.0541 29.4272 29.9681L29.5274 28.9636C25.6759 28.3145 24.5322 25.9863 24.3077 24.505C26.4399 25.1917 28.5109 26.4782 29.6604 27.3106L29.7761 26.4697C28.3631 25.5351 25.8032 24.4454 23.3461 23.7598C22.9279 22.9338 22.3182 21.2607 22.0347 20.3489C25.3033 21.814 28.5449 23.1212 29.9622 24.6042C28.3183 23.0457 25.3819 21.0787 22.0347 19.6625C21.5427 17.6794 21.1441 14.0268 20.9204 12.1036C21.8215 12.6524 24.1085 14.2378 25.0803 14.9656C27.7832 17.1872 28.9796 18.8086 30.2111 20.6745L30.3677 20.538C28.9778 18.6365 27.667 16.7322 24.9625 14.6066C23.9807 13.909 23.1833 13.299 22.2617 12.7621C21.5001 6.32538 20.9674 4.49017 20.9674 4.49017C20.9674 4.49017 25.5674 7.04134 30.4674 14.4175C30.8467 15.0477 30.5613 14.863 30.8746 15.457L31.0604 13.593C30.796 13.1339 30.5155 12.6671 30.2148 12.1912C24.4449 3.95976 19.0463 2.06445 19.0463 2.06445C19.0463 2.06445 20.0682 4.39394 20.9204 12.1036C14.7964 8.84658 10.4419 8.91792 10.4419 8.91792C10.4419 8.91792 12.1982 10.7881 15.5967 17.8783C15.6293 17.946 15.662 18.0144 15.6948 18.0827C8.6132 17.0934 4.4176 18.7601 4.4176 18.7601C4.4176 18.7601 6.2271 19.6547 10.5771 23.6651C5.17173 24.7517 2.40283 26.7869 2.40283 26.7869Z" fill="#264092"/>
<path fill-rule="evenodd" clip-rule="evenodd" d="M30.6396 26.8929C30.6396 29.3939 32.642 31.4214 35.1123 31.4214C37.5823 31.4214 39.5849 29.3939 39.5849 26.8929C39.5849 24.3921 37.5823 22.3646 35.1123 22.3646C32.642 22.3646 30.6396 24.3921 30.6396 26.8929Z" fill="url(#paint0_radial_1928_535)"/>
<path fill-rule="evenodd" clip-rule="evenodd" d="M40.5026 41.5257L35.0506 27.0876L29.5986 41.5257L33.4878 45.0222L33.5564 38.8491L34.8265 37.7718L36.5084 38.4919L36.5428 40.9342L36.3024 45.452L38.3325 43.3195L40.5026 41.5257Z" fill="#264092"/>
<path fill-rule="evenodd" clip-rule="evenodd" d="M35.0766 47.3336C35.0766 47.3336 34.4933 49.8771 36.9447 49.7683C38.8522 49.6837 44.1194 48.7444 46.2204 48.3733C48.3211 48.0024 52.5227 49.5377 49.9465 54.5039C48.559 56.8317 43.6438 57.1125 38.5304 53.5005C33.4169 49.8887 30.6938 47.9316 28.7395 47.0393C26.1439 45.8544 19.7863 44.6823 18.5126 51.1729C17.8568 55.7647 22.754 56.671 22.754 56.671C22.754 56.671 19.3582 55.5754 19.3054 52.1763C19.2691 49.8419 21.545 46.1266 26.1439 47.7216C30.7796 49.3293 30.7611 49.9288 37.3808 54.9053C41.5033 57.7145 48.2022 60.002 51.3734 55.3065C53.2761 52.096 52.1661 47.6815 47.9249 47.1597C44.6744 46.7583 44.9122 48.0827 37.6583 49.1664C35.2007 49.5191 35.0903 48.5869 35.0766 47.3336Z" fill="#1B2133"/>
<mask id="mask0_1928_535" style="mask-type:luminance" maskUnits="userSpaceOnUse" x="22" y="54" width="11" height="10">
<path fill-rule="evenodd" clip-rule="evenodd" d="M22.6519 54.9634H32.6859V63.0003H22.6519V54.9634Z" fill="white"/>
</mask>
<g mask="url(#mask0_1928_535)">
<path fill-rule="evenodd" clip-rule="evenodd" d="M31.0666 57.2346L26.7926 55.227C25.3923 54.5691 23.7304 55.1851 23.0808 56.6027L23.0197 56.7362L24.7573 57.5215C24.7573 57.5215 26.0814 57.0199 26.6524 58.3567C27.7633 58.8502 28.2922 59.1275 28.2922 59.1275L28.2121 59.3031L26.5772 58.551C26.5772 58.551 25.2794 59.0197 24.6776 57.7437C23.4499 57.165 23.0673 56.963 22.9476 56.8937L22.9121 56.9712C22.2625 58.3889 22.8709 60.0713 24.2711 60.7291L28.5451 62.7369C29.9452 63.3946 31.6072 62.7786 32.2568 61.3609L32.4256 60.9925C33.0753 59.5748 32.4669 57.8924 31.0666 57.2346Z" fill="#1B2133"/>
</g>
<path fill-rule="evenodd" clip-rule="evenodd" d="M35.0964 37.5055L35.0774 37.5059C33.1634 37.5059 33.337 39.7719 33.337 39.7719V43.5063C32.631 42.1059 29.037 39.9052 29.037 39.9052L31.7323 12.887L30.4234 12.9207L27.6816 41.075C27.6816 41.075 33.5636 44.2742 34.6748 48.4696V40.29V40.2901C34.3571 40.1415 34.1481 39.8168 34.1481 39.4392C34.1481 38.9213 34.5629 38.5014 35.0744 38.5014C35.5859 38.5014 36.0007 38.9213 36.0007 39.4392C36.0007 39.8189 35.7801 40.145 35.4596 40.2926V48.4696C36.861 43.8023 42.3191 41.0767 42.3191 41.0767C42.3191 41.0767 40.3868 20.3985 39.5983 12.887H38.4632L38.7785 16.0474L41.1587 39.9052C41.1587 39.9052 37.5644 42.1059 36.8586 43.5063V39.7719C36.8586 39.7719 37.0171 37.5059 35.1182 37.5059L35.0964 37.5055Z" fill="#EF951E"/>
<mask id="mask1_1928_535" style="mask-type:luminance" maskUnits="userSpaceOnUse" x="0" y="0" width="32" height="37">
<path fill-rule="evenodd" clip-rule="evenodd" d="M0 0.000244141H31.7306V36.6622H0V0.000244141Z" fill="white"/>
</mask>
<g mask="url(#mask1_1928_535)">
<path fill-rule="evenodd" clip-rule="evenodd" d="M4.91915 18.8475C4.91915 18.8475 8.65354 17.6163 14.9701 18.6017C15.6093 19.9186 16.2932 21.2801 17.0466 22.6072C16.7973 22.5905 16.5454 22.5756 16.2893 22.563C14.043 22.563 12.0275 22.7429 10.2389 23.0253C6.49231 19.6481 4.91915 18.8475 4.91915 18.8475ZM10.9441 9.15823C10.9441 9.15823 14.7171 9.32187 20.1216 12.3053C20.3627 14.4585 20.6538 16.752 21.159 18.9673C20.4595 18.7018 19.7255 18.4451 18.951 18.1998C17.8407 17.9072 16.7794 17.6778 15.7636 17.4958C12.5768 10.9386 10.9441 9.15823 10.9441 9.15823ZM21.5052 20.341C21.7966 21.3924 22.1456 22.4151 22.5722 23.3834C21.3301 23.1035 19.9655 22.8783 18.468 22.7264C17.7212 21.4479 17.0512 20.129 16.4286 18.8609C17.4368 19.0622 18.5011 19.3187 19.6186 19.6439C20.2797 19.8693 20.9068 20.1024 21.5052 20.341ZM11.6039 30.8235C5.23118 27.2802 2.87134 26.7702 2.87134 26.7702C2.87134 26.7702 5.28296 25.2082 9.94273 24.3411C10.1931 24.5787 10.4476 24.8216 10.7113 25.0762C15.7311 29.9246 22.2118 36.2587 29.6516 33.7396L29.769 32.5612C22.8698 35.1166 16.9226 29.3613 12.3608 24.9983C12.0335 24.6851 11.7182 24.3874 11.4145 24.1039C13.1268 23.8678 15.0866 23.7341 17.2948 23.7901C17.4542 23.8015 17.6107 23.8143 17.7669 23.8272C20.5253 28.309 24.2057 32.0807 29.8387 31.8628L29.945 30.796C24.9894 30.9677 21.7016 27.8067 19.2336 23.9759C20.7086 24.1539 22.0347 24.4035 23.2248 24.704C24.6501 27.2898 26.7649 29.3463 29.9937 30.3083L30.1015 29.227C27.7324 28.4306 26.0437 26.9807 24.8224 25.161C27.2348 25.9382 28.9851 26.9209 30.238 27.8591L30.3637 26.5982C28.8207 25.5491 26.7484 24.5087 23.9928 23.7399C23.5424 22.8495 23.1745 21.8997 22.8692 20.9167C26.5298 22.5576 28.8947 24.4087 30.4179 26.0548L30.5594 24.6349C28.7806 22.9049 26.2023 21.071 22.4733 19.4932C21.9429 17.3559 21.6509 15.1262 21.4098 13.0534C22.3812 13.645 23.3942 14.3228 24.4415 15.1074C27.4813 17.6058 29.4914 19.9608 30.8186 22.0358L30.9897 20.3212C29.4809 18.2061 27.3431 15.8985 24.3146 13.5181C23.2565 12.7664 22.2274 12.1088 21.2341 11.5301C20.4134 4.59256 19.4999 2.44281 19.4999 2.44281C19.4999 2.44281 24.9667 4.67719 30.2478 12.6271C30.7236 13.4179 31.1482 14.1818 31.5282 14.9197L31.7307 12.8882C31.3984 12.3003 31.042 11.7007 30.6541 11.0865C24.4354 2.21477 17.9382 0.000244141 17.9382 0.000244141C17.9382 0.000244141 19.0398 2.51097 19.9579 10.8203C13.3576 7.30998 8.66452 7.38693 8.66452 7.38693C8.66452 7.38693 10.5574 9.40262 14.2202 17.0441C14.2554 17.1171 14.2907 17.1909 14.3258 17.2645C6.69339 16.1982 2.1714 17.9947 2.1714 17.9947C2.1714 17.9947 4.12181 18.9589 8.81005 23.2812C2.98433 24.4523 0 26.6459 0 26.6459C0 26.6459 2.69326 27.195 10.0271 31.32C15.7766 34.5536 23.1292 38.7457 29.4781 35.4782L29.609 34.1655C23.7251 37.6139 16.8865 33.7605 11.6039 30.8235Z" fill="#EF951E"/>
</g>
<mask id="mask2_1928_535" style="mask-type:luminance" maskUnits="userSpaceOnUse" x="38" y="0" width="32" height="37">
<path fill-rule="evenodd" clip-rule="evenodd" d="M38.4346 0.000244141H70.0001V36.6616H38.4346V0.000244141Z" fill="white"/>
</mask>
<g mask="url(#mask2_1928_535)">
<path fill-rule="evenodd" clip-rule="evenodd" d="M59.7612 23.0253C57.9726 22.7431 55.9571 22.563 53.7108 22.563C53.4547 22.5755 53.2028 22.5907 52.9535 22.6072C53.7069 21.2801 54.3908 19.9186 55.0301 18.6018C61.3466 17.6164 65.081 18.8475 65.081 18.8475C65.081 18.8475 63.5078 19.648 59.7612 23.0253ZM51.5319 22.7264C50.0344 22.8785 48.6696 23.1035 47.4275 23.3834C47.8541 22.4151 48.2033 21.3926 48.4945 20.341C49.0929 20.1024 49.72 19.8693 50.3811 19.6441C51.4986 19.3189 52.5629 19.0622 53.5711 18.8609C52.9486 20.1292 52.2785 21.4479 51.5319 22.7264ZM49.8781 12.3054C55.2825 9.32193 59.0558 9.15848 59.0558 9.15848C59.0558 9.15848 57.4231 10.9388 54.236 17.4959C53.2202 17.6779 52.159 17.9072 51.0488 18.1999C50.2742 18.4451 49.5404 18.7018 48.8406 18.9673C49.3461 16.7521 49.6369 14.4585 49.8781 12.3054ZM61.1901 23.2812C65.8783 18.9589 67.8287 17.9947 67.8287 17.9947C67.8287 17.9947 63.3067 16.1982 55.6743 17.2645C55.7094 17.1909 55.7449 17.1173 55.7799 17.0443C59.4427 9.40262 61.3358 7.38693 61.3358 7.38693C61.3358 7.38693 56.6426 7.30998 50.0422 10.8203C50.9605 2.51097 52.0619 0.000244141 52.0619 0.000244141C52.0619 0.000244141 45.5648 2.21477 39.3461 11.0865C39.0221 11.5996 38.7197 12.1026 38.4346 12.5973L38.635 14.6064C38.9725 13.9661 39.3437 13.3065 39.7524 12.6272C45.0336 4.67738 50.5004 2.44281 50.5004 2.44281C50.5004 2.44281 49.5867 4.59256 48.7662 11.5301C47.7728 12.1088 46.7437 12.7664 45.6857 13.5181C42.7707 15.8092 40.6792 18.0333 39.1813 20.0826L39.3501 21.7757C40.6772 19.7647 42.6453 17.5017 45.5587 15.1074C46.6059 14.323 47.6191 13.645 48.5903 13.0534C48.3492 15.1264 48.0574 17.356 47.5268 19.4934C43.9195 21.0197 41.3901 22.7855 39.6183 24.4653L39.7583 25.868C41.2858 24.2694 43.6082 22.4958 47.1309 20.9169C46.8256 21.8997 46.4578 22.8495 46.0073 23.7399C43.3591 24.4789 41.3418 25.4686 39.8189 26.4759L39.9436 27.7256C41.1824 26.8284 42.8796 25.9015 45.1777 25.1612C43.9888 26.9325 42.3581 28.3545 40.0871 29.1637L40.1949 30.2463C43.3162 29.2611 45.3785 27.2383 46.7755 24.704C47.9655 24.4035 49.2918 24.1539 50.7667 23.9759C48.3311 27.7562 45.0971 30.8838 40.2504 30.8007L40.3565 31.8656C45.8788 31.9896 49.5072 28.2568 52.2332 23.8272C52.3894 23.8143 52.5459 23.8015 52.7053 23.7903C54.9135 23.7341 56.8733 23.868 58.5856 24.1039C58.2819 24.3874 57.9668 24.6851 57.6395 24.9983C53.1221 29.3188 47.2465 35.0049 40.4331 32.6344L40.5501 33.8062C47.9055 36.1449 54.3145 29.881 59.2888 25.0764C59.5527 24.8216 59.8072 24.5787 60.0574 24.3413C64.7172 25.2082 67.129 26.7702 67.129 26.7702C67.129 26.7702 64.7689 27.2802 58.3962 30.8235C53.1754 33.7263 46.4346 37.5236 40.5976 34.2829L40.7269 35.5802C47.0288 38.655 54.2853 34.519 59.9731 31.32C67.307 27.195 70.0001 26.6461 70.0001 26.6461C70.0001 26.6461 67.0158 24.4523 61.1901 23.2812Z" fill="#EF951E"/>
</g>
<defs>
<radialGradient id="paint0_radial_1928_535" cx="0" cy="0" r="1" gradientUnits="userSpaceOnUse" gradientTransform="translate(35.1123 26.893) rotate(90) scale(4.52838 4.47262)">
<stop stop-color="#E94D13"/>
<stop offset="0.219622" stop-color="#EB6E07"/>
<stop offset="0.407645" stop-color="#F4970B"/>
<stop offset="0.591614" stop-color="#FCBF06"/>
<stop offset="0.804311" stop-color="#F7F19D"/>
<stop offset="1" stop-color="white"/>
</radialGradient>
</defs>
</svg>
