<svg width="24" height="24" viewBox="0 0 40 40" fill="none" xmlns="http://www.w3.org/2000/svg">
<g clip-path="url(#clip0_1928_616)">
<path opacity="0.5" fill-rule="evenodd" clip-rule="evenodd" d="M6.6665 21.9669V26.6503C6.6665 27.8669 7.33317 29.0003 8.39984 29.5836L16.7332 34.1336C17.7332 34.6836 18.9332 34.6836 19.9332 34.1336L28.2665 29.5836C29.3332 29.0003 29.9998 27.8669 29.9998 26.6503V21.9669L19.9332 27.4669C18.9332 28.0169 17.7332 28.0169 16.7332 27.4669L6.6665 21.9669Z" fill="#1B4CA1"/>
<path fill-rule="evenodd" clip-rule="evenodd" d="M16.7333 5.86692L2.6833 13.5336C1.5333 14.1669 1.5333 15.8336 2.6833 16.4669L16.7333 24.1336C17.7333 24.6836 18.9333 24.6836 19.9333 24.1336L33.3333 16.8169V26.6669C33.3333 27.5836 34.0833 28.3336 35 28.3336C35.9166 28.3336 36.6666 27.5836 36.6666 26.6669V15.9836C36.6666 15.3669 36.3333 14.8169 35.8 14.5169L19.9333 5.86692C18.9333 5.33359 17.7333 5.33359 16.7333 5.86692Z" fill="#1B4CA1"/>
</g>
<defs>
<clipPath id="clip0_1928_616">
<rect width="40" height="40" fill="white" transform="translate(0 0.000244141)"/>
</clipPath>
</defs>
</svg>
