<svg width="24" height="24" viewBox="0 0 24 24" fill="none" xmlns="http://www.w3.org/2000/svg">
<path opacity="0.5" fill-rule="evenodd" clip-rule="evenodd" d="M4 13.1803V15.9903C4 16.7203 4.4 17.4003 5.04 17.7503L10.04 20.4803C10.64 20.8103 11.36 20.8103 11.96 20.4803L16.96 17.7503C17.6 17.4003 18 16.7203 18 15.9903V13.1803L11.96 16.4803C11.36 16.8103 10.64 16.8103 10.04 16.4803L4 13.1803Z" fill="white"/>
<path fill-rule="evenodd" clip-rule="evenodd" d="M10.0398 3.52027L1.60979 8.12027C0.919785 8.50027 0.919785 9.50027 1.60979 9.88027L10.0398 14.4803C10.6398 14.8103 11.3598 14.8103 11.9598 14.4803L19.9998 10.0903V16.0003C19.9998 16.5503 20.4498 17.0003 20.9998 17.0003C21.5498 17.0003 21.9998 16.5503 21.9998 16.0003V9.59027C21.9998 9.22027 21.7998 8.89027 21.4798 8.71027L11.9598 3.52027C11.3598 3.20027 10.6398 3.20027 10.0398 3.52027Z" fill="white"/>
</svg>
