<svg width="24" height="24" viewBox="0 0 24 24" fill="none" xmlns="http://www.w3.org/2000/svg">
<g clip-path="url(#clip0_1928_593)">
<path opacity="0.5" fill-rule="evenodd" clip-rule="evenodd" d="M16 11.0002C17.66 11.0002 18.99 9.66024 18.99 8.00024C18.99 6.34024 17.66 5.00024 16 5.00024C14.34 5.00024 13 6.34024 13 8.00024C13 9.66024 14.34 11.0002 16 11.0002ZM16 13.0002C15.71 13.0002 15.38 13.0202 15.03 13.0502C15.05 13.0602 15.06 13.0802 15.07 13.0902C16.21 13.9202 17 15.0302 17 16.5002V18.0002C17 18.3502 16.93 18.6902 16.82 19.0002H22C22.55 19.0002 23 18.5502 23 18.0002V16.5002C23 14.1702 18.33 13.0002 16 13.0002Z" fill="#1B4CA1"/>
<path fill-rule="evenodd" clip-rule="evenodd" d="M8 11.0002C9.66 11.0002 10.99 9.66024 10.99 8.00024C10.99 6.34024 9.66 5.00024 8 5.00024C6.34 5.00024 5 6.34024 5 8.00024C5 9.66024 6.34 11.0002 8 11.0002ZM8 13.0002C5.67 13.0002 1 14.1702 1 16.5002V18.0002C1 18.5502 1.45 19.0002 2 19.0002H14C14.55 19.0002 15 18.5502 15 18.0002V16.5002C15 14.1702 10.33 13.0002 8 13.0002Z" fill="#1B4CA1"/>
</g>
<defs>
<clipPath id="clip0_1928_593">
<rect width="24" height="24" fill="white" transform="translate(0 0.000244141)"/>
</clipPath>
</defs>
</svg>
