
<svg width="56" height="56" viewBox="0 0 56 56" fill="none" xmlns="http://www.w3.org/2000/svg">
<path d="M25.42 49.84V46.27H45.65V28.182C45.65 23.2758 43.9181 19.1139 40.4544 15.6963C36.9906 12.2788 32.7725 10.57 27.8 10.57C22.8275 10.57 18.6094 12.2788 15.1456 15.6963C11.6819 19.1139 9.95 23.2758 9.95 28.182V42.7H8.76C7.451 42.7 6.33042 42.2339 5.39825 41.3018C4.46608 40.3696 4 39.249 4 37.94V33.18C4 32.347 4.20825 31.5636 4.62475 30.8298C5.04125 30.0959 5.62633 29.5108 6.38 29.0745L6.5585 25.921C6.87583 23.2237 7.65925 20.7247 8.90875 18.424C10.1582 16.1233 11.7251 14.1202 13.6093 12.4145C15.4934 10.7088 17.6552 9.38 20.0947 8.428C22.5342 7.476 25.1027 7 27.8 7C30.4973 7 33.0558 7.476 35.4755 8.428C37.8952 9.38 40.057 10.6989 41.961 12.3847C43.865 14.0706 45.4318 16.0638 46.6615 18.3645C47.8912 20.6652 48.6845 23.1642 49.0415 25.8615L49.22 28.9555C49.9737 29.3125 50.5587 29.848 50.9752 30.562C51.3917 31.276 51.6 32.0297 51.6 32.823V38.297C51.6 39.0903 51.3917 39.844 50.9752 40.558C50.5587 41.272 49.9737 41.8075 49.22 42.1645V46.27C49.22 47.2518 48.8704 48.0922 48.1713 48.7913C47.4722 49.4904 46.6317 49.84 45.65 49.84H25.42ZM20.6496 32.585C20.1409 32.585 19.7179 32.4129 19.3807 32.0688C19.0436 31.7247 18.875 31.2983 18.875 30.7896C18.875 30.2809 19.0471 29.8579 19.3912 29.5208C19.7353 29.1836 20.1617 29.015 20.6704 29.015C21.1791 29.015 21.6021 29.1871 21.9392 29.5312C22.2764 29.8753 22.445 30.3017 22.445 30.8104C22.445 31.3191 22.2729 31.7421 21.9288 32.0793C21.5847 32.4164 21.1583 32.585 20.6496 32.585ZM34.9296 32.585C34.4209 32.585 33.9979 32.4129 33.6607 32.0688C33.3236 31.7247 33.155 31.2983 33.155 30.7896C33.155 30.2809 33.3271 29.8579 33.6712 29.5208C34.0153 29.1836 34.4417 29.015 34.9504 29.015C35.4591 29.015 35.8821 29.1871 36.2192 29.5312C36.5564 29.8753 36.725 30.3017 36.725 30.8104C36.725 31.3191 36.5529 31.7421 36.2088 32.0793C35.8647 32.4164 35.4383 32.585 34.9296 32.585ZM13.5795 29.491C13.3018 25.2863 14.5712 21.6767 17.3875 18.662C20.2038 15.6473 23.7143 14.14 27.919 14.14C31.37 14.14 34.3648 15.2804 36.9035 17.5613C39.4422 19.8421 40.9892 22.6882 41.5445 26.0995C38.0142 26.0598 34.7913 25.0682 31.8757 23.1245C28.9602 21.1808 26.7036 18.6223 25.1058 15.449C24.4823 18.6223 23.1491 21.4486 21.1062 23.9277C19.0634 26.4069 16.5545 28.2613 13.5795 29.491Z" fill="white"/>
<circle cx="27" cy="48" r="3" fill="white"/>
</svg>
