<?xml version="1.0" encoding="UTF-8"?>
<svg width="40px" height="40px" viewBox="0 0 40 40" version="1.1" xmlns="http://www.w3.org/2000/svg" xmlns:xlink="http://www.w3.org/1999/xlink">
    <title>User</title>
    <g id="Mobile" stroke="none" stroke-width="1" fill="none" fill-rule="evenodd">
        <g id="Bot-3" transform="translate(-356, -548)">
            <g id="User" transform="translate(356, 548)">
                <circle id="Oval-Copy" fill-opacity="0.4" fill="#000000" cx="20" cy="20" r="20"></circle>
                <g id="Icons/action/close-Copy" transform="translate(10, 10)">
                    <rect id="Size" fill="#D8D8D8" opacity="0" x="0" y="0" width="20" height="20"></rect>
                    <path d="M14.1666667,6.25 C14.1666667,8.325 12.4916667,10 10.4166667,10 C8.34166667,10 6.66666667,8.325 6.66666667,6.25 C6.66666667,4.175 8.34166667,2.5 10.4166667,2.5 C12.4916667,2.5 14.1666667,4.175 14.1666667,6.25 Z M2.5,16.2804878 C2.5,13.8414634 7.5,12.5 10,12.5 C12.5,12.5 17.5,13.8414634 17.5,16.2804878 L17.5,17.5 L2.5,17.5 L2.5,16.2804878 Z" id="Combined-Shape" fill="#FFFFFF"></path>
                </g>
            </g>
        </g>
    </g>
</svg>