<svg width="16" height="16" viewBox="0 0 16 16" fill="none" xmlns="http://www.w3.org/2000/svg">
<path fill-rule="evenodd" clip-rule="evenodd" d="M2.10914 4.07277C1.74914 4.07277 1.45459 4.36732 1.45459 4.72732V13.2364C1.45459 13.9564 2.04368 14.5455 2.76368 14.5455H11.2728C11.6328 14.5455 11.9273 14.251 11.9273 13.891C11.9273 13.531 11.6328 13.2364 11.2728 13.2364H3.41823C3.05823 13.2364 2.76368 12.9419 2.76368 12.5819V4.72732C2.76368 4.36732 2.46914 4.07277 2.10914 4.07277ZM13.2364 1.45459H5.38186C4.66186 1.45459 4.07277 2.04368 4.07277 2.76368V10.6182C4.07277 11.3382 4.66186 11.9273 5.38186 11.9273H13.2364C13.9564 11.9273 14.5455 11.3382 14.5455 10.6182V2.76368C14.5455 2.04368 13.9564 1.45459 13.2364 1.45459ZM8.00004 9.63641V3.7455L11.5804 6.42914C11.7571 6.56004 11.7571 6.82186 11.5804 6.95277L8.00004 9.63641Z" fill="#F3962F"/>
</svg>
