<?xml version="1.0" encoding="UTF-8"?>
<svg width="24px" height="24px" viewBox="0 0 24 24" version="1.1" xmlns="http://www.w3.org/2000/svg" xmlns:xlink="http://www.w3.org/1999/xlink">
    <title>Icons/content/edit-24px Copy@2x</title>
    <g id="07-KP---Scenarios-V2" stroke="none" stroke-width="1" fill="none" fill-rule="evenodd">
        <g id="09-Karmapoints-history" transform="translate(-1272, -208)">
            <g id="Group" transform="translate(120, 184)">
                <g id="Icons/content/edit-24px-Copy" transform="translate(1152, 24)">
                    <rect id="Size" fill="#D8D8D8" opacity="0" x="0" y="0" width="24" height="24"></rect>
                    <path d="M11,7 L13,7 L13,9 L11,9 L11,7 Z M11,11 L13,11 L13,17 L11,17 L11,11 Z M12,2 C6.48,2 2,6.48 2,12 C2,17.52 6.48,22 12,22 C17.52,22 22,17.52 22,12 C22,6.48 17.52,2 12,2 Z M12,20 C7.59,20 4,16.41 4,12 C4,7.59 7.59,4 12,4 C16.41,4 20,7.59 20,12 C20,16.41 16.41,20 12,20 Z" id="Shape" fill-opacity="0.6" fill="#000000"></path>
                </g>
            </g>
        </g>
    </g>
</svg>