 <svg width="24" height="24" viewBox="0 0 24 24" fill="none" xmlns="http://www.w3.org/2000/svg">
<g id="Icons/action/translate-3">
<path id="Combined-Shape" fill-rule="evenodd" clip-rule="evenodd" d="M16.2959 11.6348L19.8994 21.0017H18.2979L17.393 18.66H13.5893L12.6924 21.0017H11.0909L14.6944 11.6348H16.2959ZM4.45352 10.9905L6.41225 13.6943L5.20404 13.7988C5.48081 15.2981 6.20657 16.6904 7.30998 17.7863C8.12478 18.5957 9.10279 19.2018 10.1747 19.5714L9.84033 20.5576C8.61731 20.1359 7.50096 19.4441 6.57165 18.521C5.2923 17.2503 4.45838 15.6304 4.1554 13.8898L3 13.9892L4.45352 10.9905ZM15.4952 13.7189L14.1979 17.0988H16.7924L15.4952 13.7189ZM8.2676 3.19456C8.46298 3.32741 8.8079 3.60158 9.01239 3.68206C9.27343 3.78497 9.55833 3.36057 9.79257 3.52553C10.2233 3.82885 9.58674 4.14087 9.61005 4.4346C9.61863 4.54344 9.78319 4.78932 9.74111 4.88066C9.66714 5.04204 9.43076 5.07632 9.36912 5.25337C9.27772 5.51737 10.0005 5.74566 10.1252 5.88439C10.2814 6.0588 9.96142 6.28856 9.92792 6.46137C9.9239 6.48299 10.2219 6.62272 10.2479 6.64256C10.3991 6.75795 10.5411 6.96455 10.7212 7.03602C10.9737 7.13613 11.2395 7.02977 11.4974 7.06376C11.8688 7.11268 12.311 7.59547 12.697 7.34634C12.921 7.20174 12.5986 6.74751 12.8125 6.67532C13.3201 6.50393 13.2188 7.03746 13.3984 7.13286C13.4182 7.14343 14.1697 7.05387 14.2458 7.02867C14.3233 7.00294 14.264 6.81883 14.3144 6.74495C14.4471 6.54952 14.699 6.23575 14.9161 6.11965C15.2299 5.95203 16.1345 6.21625 16.1881 6.61835C16.2044 6.73947 15.9852 6.75944 15.9034 6.80574C15.6885 6.92755 15.3693 7.21897 15.2779 7.44331C15.2353 7.54828 15.3621 7.69461 15.3808 7.80202C15.399 7.90885 15.2921 8.12401 15.2423 8.22008C15.156 8.38578 14.8459 8.23429 14.7743 8.49282C14.7498 8.58121 14.7785 8.66845 14.8205 8.75482L14.9104 8.92648C14.9662 9.04026 14.9981 9.15283 14.911 9.26486C14.8368 9.36017 14.6143 8.9615 14.584 8.886L14.5728 8.85592C14.5716 8.85261 14.5701 8.84846 14.5671 8.84096C14.5631 8.83064 14.5591 8.82041 14.5548 8.81023C14.5511 8.80115 14.546 8.78788 14.5393 8.7806C14.4578 8.69287 14.0968 8.90861 14.0234 8.71622C13.8939 8.37699 14.0172 8.27096 14.1405 7.98198C14.1641 7.92649 14.0191 7.96125 13.958 7.95387C13.8376 7.93931 13.7151 7.93973 13.5991 7.90288C13.3456 7.82238 13.2362 7.37325 12.9904 7.65161C12.6932 7.98826 13.4313 8.86964 13.2008 9.23748C13.1316 9.3482 13.0259 9.40634 12.9116 9.4517L12.6794 9.5372C12.6036 9.56789 12.5322 9.6047 12.4732 9.65942C12.3633 9.7612 12.44 9.89766 12.333 10.0103C12.2298 10.1189 12.083 10.169 11.9782 10.2784C11.5534 10.7223 11.1645 11.1951 10.7343 11.629C10.4875 11.8779 10.1002 11.862 9.89226 12.1775C9.81159 12.3 10.0295 12.7075 10.0193 12.8947C10.0088 13.0902 9.86572 13.289 9.84053 13.4908C9.82472 13.6177 9.92576 13.8259 9.87484 13.9348C9.7687 14.1613 9.40314 14.323 9.2233 14.4886C9.07348 14.6264 8.97593 14.9461 8.70819 14.9018C8.21693 14.8204 8.27348 14.0015 8.12527 13.6555C8.04782 13.4751 7.88112 13.3337 7.79107 13.1534C7.65277 12.8759 7.68145 12.5556 7.56058 12.2756C7.41397 11.9361 7.17732 11.6614 7.0996 11.2942C6.97337 10.6962 7.15991 10.2317 7.07173 9.68337C7.06771 9.65809 7.01947 9.4926 6.97873 9.48763C6.83293 9.46986 6.65712 9.73624 6.53276 9.79065C6.33953 9.87513 5.90455 9.58342 5.76626 9.48452C5.52103 9.30899 5.51218 9.24798 5.69068 9.0078C5.74348 8.9369 5.42294 8.72627 5.38676 8.68733C5.38274 8.68296 5.39882 8.65116 5.39882 8.65116C5.45376 8.54202 5.74374 8.39361 5.85819 8.33006C5.99675 8.25312 6.25109 8.40153 6.41699 8.35471C6.52634 8.21187 6.22108 7.67169 6.07019 7.46446C6.00158 7.37001 5.83086 7.28505 5.85685 7.14446C5.92635 6.76797 6.14332 6.76452 6.37576 6.79959L6.53157 6.825C6.66091 6.84482 6.78598 6.85359 6.88413 6.79394C7.27409 6.55685 7.30652 6.06912 7.53406 5.74202C7.63322 5.59944 7.94465 5.39881 7.99128 5.23563C8.04515 5.04696 7.69486 4.87535 7.63563 4.71115C7.51476 4.37456 7.63001 3.94992 7.5823 3.80331C7.52146 3.61529 7.29392 3.55246 7.31348 3.32709C7.34565 2.95849 8.05158 3.04768 8.2676 3.19456ZM14.3899 3C15.5975 3.46418 16.689 4.19454 17.5855 5.14949C18.912 6.56231 19.7102 8.36037 19.884 10.2563L21.0007 10.219L19.3916 13.1377L17.5776 10.3356L18.8337 10.2917C18.6723 8.6443 17.9743 7.08525 16.822 5.85791C16.0359 5.02062 15.0797 4.38078 14.0213 3.97393L14.3899 3Z" fill="#1B4CA1"/>
</g>
</svg>