<svg width="49" height="48" viewBox="0 0 49 48" fill="none" xmlns="http://www.w3.org/2000/svg">
<g clip-path="url(#clip0_7_2941)">
<path fill-rule="evenodd" clip-rule="evenodd" d="M24.5 44C13.4727 44 4.5 35.0273 4.5 24C4.5 12.9727 13.4727 4 24.5 4C27.1982 4 29.8182 4.52909 32.2855 5.57273C33.2109 5.96364 33.6436 7.03091 33.2509 7.95455C32.8618 8.88 31.7982 9.31273 30.8691 8.92182C28.8527 8.06909 26.7091 7.63636 24.5 7.63636C15.4782 7.63636 8.13636 14.9782 8.13636 24C8.13636 33.0218 15.4782 40.3636 24.5 40.3636C33.5218 40.3636 40.8636 33.0218 40.8636 24C40.8636 22.3382 40.6164 20.7018 40.1291 19.1345C39.8291 18.1745 40.3655 17.1564 41.3236 16.8582C42.2818 16.5564 43.3018 17.0945 43.6 18.0527C44.1964 19.9709 44.5 21.9709 44.5 24C44.5 35.0273 35.5273 44 24.5 44Z" fill="#1B4CA1"/>
<path fill-rule="evenodd" clip-rule="evenodd" d="M19.8286 35.0554C18.956 34.6869 18.548 33.6806 18.9183 32.8097C19.2851 31.9371 20.2949 31.5309 21.164 31.8977C22.22 32.3451 23.3429 32.5714 24.5 32.5714C29.2263 32.5714 33.0714 28.7263 33.0714 24C33.0714 19.2737 29.2263 15.4286 24.5 15.4286C19.7737 15.4286 15.9286 19.2737 15.9286 24C15.9286 24.8691 16.0589 25.7263 16.3143 26.5491C16.5954 27.4543 16.0897 28.4143 15.1863 28.6954C14.2846 28.9749 13.3211 28.4726 13.04 27.5674C12.6817 26.4154 12.5 25.2154 12.5 24C12.5 17.3829 17.8829 12 24.5 12C31.1171 12 36.5 17.3829 36.5 24C36.5 30.6171 31.1171 36 24.5 36C22.88 36 21.3097 35.6829 19.8286 35.0554Z" fill="#F3962F"/>
</g>
<defs>
<clipPath id="clip0_7_2941">
<rect width="48" height="48" fill="white" transform="translate(0.5)"/>
</clipPath>
</defs>
</svg>
