<svg width="585" height="700" viewBox="0 0 585 700" fill="none" xmlns="http://www.w3.org/2000/svg">
<path opacity="0.4" d="M144 54.7029L525.917 538.418H-237.917L144 54.7029Z" fill="url(#paint0_linear_145_1961)"/>
<path d="M144 54.7029L190.789 113.964H97.2107L144 54.7029Z" fill="#8A8686"/>
<rect x="141.299" width="5.40276" height="58.755" fill="#8A8686"/>
<path d="M150 0C150 0.525288 149.832 1.04543 149.505 1.53073C149.179 2.01604 148.7 2.45699 148.096 2.82843C147.493 3.19986 146.776 3.4945 145.987 3.69552C145.199 3.89654 144.354 4 143.5 4C142.646 4 141.801 3.89654 141.013 3.69552C140.224 3.4945 139.507 3.19986 138.904 2.82843C138.3 2.45699 137.821 2.01604 137.495 1.53073C137.168 1.04543 137 0.525287 137 -2.38419e-07L143.5 0H150Z" fill="#8A8686"/>
<path d="M144 54.7029L144 113.964H97.2108L144 54.7029Z" fill="#B4B4B4"/>
<defs>
<linearGradient id="paint0_linear_145_1961" x1="144" y1="104.341" x2="144" y2="538.587" gradientUnits="userSpaceOnUse">
<stop offset="0.42" stop-color="white" stop-opacity="0.44"/>
<stop offset="0.8" stop-color="white" stop-opacity="0"/>
</linearGradient>
</defs>
</svg>
