<?xml version="1.0" encoding="UTF-8" standalone="no"?>
<svg
   width="761.96802pt"
   height="479.54993pt"
   viewBox="0 0 761.96802 479.54993"
   version="1.1"
   id="svg42"
   sodipodi:docname="54tre.svg"
   inkscape:version="1.1.1 (3bf5ae0d25, 2021-09-20)"
   xmlns:inkscape="http://www.inkscape.org/namespaces/inkscape"
   xmlns:sodipodi="http://sodipodi.sourceforge.net/DTD/sodipodi-0.dtd"
   xmlns="http://www.w3.org/2000/svg"
   xmlns:svg="http://www.w3.org/2000/svg">
  <defs
     id="defs46" />
  <sodipodi:namedview
     id="namedview44"
     pagecolor="#ffffff"
     bordercolor="#666666"
     borderopacity="1.0"
     inkscape:pageshadow="2"
     inkscape:pageopacity="0.0"
     inkscape:pagecheckerboard="0"
     inkscape:document-units="pt"
     showgrid="false"
     inkscape:zoom="0.38686392"
     inkscape:cx="261.07371"
     inkscape:cy="-214.54572"
     inkscape:window-width="1920"
     inkscape:window-height="986"
     inkscape:window-x="-11"
     inkscape:window-y="-11"
     inkscape:window-maximized="1"
     inkscape:current-layer="svg42" />
  <g
     id="#fffffdff"
     transform="translate(-74.851961,-40.314277)" />
  <g
     id="#704d93ff"
     transform="translate(-74.851961,-40.314277)">
    <path
       fill="#704d93"
       opacity="1"
       d="m 159.56,42.35 c 5.41,-3.19 11.98,-2.1 17.66,-0.33 3.61,3.66 8.64,5.88 11.32,10.42 3.42,5.27 3.81,11.89 2.79,17.93 -1.46,8.06 -9.17,13.2 -16.49,15.47 -12.69,2.87 -26.11,-7.25 -28.14,-19.85 -0.4,-3.04 -0.14,-6.11 0.14,-9.15 2.53,-5.96 7.11,-11.22 12.72,-14.49 z"
       id="path3" />
    <path
       fill="#704d93"
       opacity="1"
       d="m 740.09,112.87 c 12.45,-0.45 25.22,0.12 37.09,4.22 4.11,3.43 9.46,4.79 13.72,7.98 8.84,6.22 16.62,15.33 17.99,26.4 0.86,6.52 2.7,12.92 2.72,19.54 0.02,20 -0.27,40 -0.05,60 0,3.47 0.53,6.9 1.21,10.29 0.11,0.59 0.34,1.78 0.45,2.37 7.58,-0.27 15.16,-0.92 22.76,-0.68 0.8,11.65 0.92,23.34 0.55,35.01 -19.17,0.35 -38.34,0.61 -57.49,1.39 -5.28,0.52 -3.62,-8.76 -9,-8.13 -5.24,0.55 -10.88,2.03 -14.04,6.58 -5.17,1.56 -10.65,1.69 -16,2.09 -7.7,0.11 -15.49,0.48 -23.09,-1.05 -8.18,-1.41 -15.68,-5.54 -21.89,-10.95 -4.99,-4.32 -10.39,-8.5 -13.55,-14.43 -3.15,-5.8 -5.39,-12.19 -6.32,-18.73 l -0.0838,-0.97456 c -0.065,-1.26068 -0.18037,-2.09892 -0.19014,-3.27573 -0.009,-1.06177 0,0 -0.0773,-2.41581 C 674.57,225.44554 675.67,222.37 675.91,220.02 c 3.11,-17.87 15.93,-33.61 32.69,-40.49 8.32,-3.52 17.41,-4.47 26.31,-5.42 13.06,-1.09 25.92,2.52 38.96,2.11 0.41,-6.76 -0.39,-13.51 -1.4,-20.19 -0.39,-1.82 -0.53,-4.05 -2.45,-4.95 -7.47,-4.39 -16.33,-6.24 -24.95,-5.44 -13.69,0.51 -25.98621,6.82437 -39.33621,9.08437 -1.17,-3.49 -2.857,-7.3732 -3.637,-10.9732 -1.29525,-3.91884 -2.47367,-7.32554 -3.78192,-11.09613 -0.84766,-2.41175 -2.19312,-4.23504 -2.48487,-6.63504 5.57,-3.08 11.89,-4.27 17.83,-6.4 8.59,-2.98 17.2,-6.57 26.43,-6.75 m -6.89,95.42 c -6.61,1.63 -11.97,6.39 -16.03,11.67 -2.97,3.87 -4.7,9.42 -2.31,14 2.84,5.4 7.91,9.68 13.68,11.66 12.23,2.36 24.35,-2.4 34.97,-8.08 5.74,-3.51 11.52,-9.29 10.66,-16.61 0.33,-4.28 -4.18,-6.14 -7.18,-8.04 -10.04,-6.22 -22.49,-6.03 -33.79,-4.6 z"
       id="path5"
       sodipodi:nodetypes="cccccccccccccccccccscccccccccccccccccccccc" />
  </g>
  <g
     id="#2d2f37ff"
     transform="translate(-74.851961,-40.314277)">
    <path
       fill="#2d2f37"
       opacity="1"
       d="m 177.22,42.02 c 6.57,2.34 12.46,7.2 14.99,13.82 3,6.95 2.01,15.26 -1.93,21.63 -6.1,8.02 -17.25,12.61 -27.08,9.41 -11.81,-3.83 -21.35,-17.72 -16.36,-30.04 -0.28,3.04 -0.54,6.11 -0.14,9.15 2.03,12.6 15.45,22.72 28.14,19.85 7.32,-2.27 15.03,-7.41 16.49,-15.47 1.02,-6.04 0.63,-12.66 -2.79,-17.93 -2.68,-4.54 -7.71,-6.76 -11.32,-10.42 z"
       id="path8"
       style="fill:#704d93;fill-opacity:1" />
    <path
       fill="#2d2f37"
       opacity="1"
       d="m 777.18,117.09 c 11.91,3.42 22.37,11.32 29,21.76 5.5,9 5.83,19.85 6.24,30.07 0.36,24.13 -0.74,48.26 0.35,72.38 -0.68,-3.39 -1.21,-6.82 -1.21,-10.29 -0.22,-20 0.07,-40 0.05,-60 -0.02,-6.62 -1.86,-13.02 -2.72,-19.54 -1.37,-11.07 -9.15,-20.18 -17.99,-26.4 -4.26,-3.19 -9.61,-4.55 -13.72,-7.98 z"
       id="path10"
       style="fill:#704d93;fill-opacity:1" />
    <path
       fill="#2d2f37"
       opacity="1"
       d="m 195.99,296.05 c 12.57,-0.53 25.5,-0.76 37.59,3.22 6.01,1.86 10.8,7.07 17.41,7.03 6.04,0.96 6.01,-8.67 11.84,-8.51 15.54,-1.42 31.18,-0.82 46.75,-1.84 -2.58,5.28 -8.63,7.05 -12.67,10.93 -7.23,5.93 -12.23,14.16 -15.12,22.98 -0.57,1.95 -0.79,3.99 -0.69,6.02 1.16,19.36 0.94,38.76 0.93,58.15 -0.2,17.64 0.28,35.35 -1.77,52.92 -1.14,13.59 -2.82,27.4 -8.11,40.09 -4.22,10.11 -13.12,17.3 -22.32,22.75 -17.03,9.76 -37.8,12.29 -56.9,8.19 -14.67,-2.86 -28.85,-10.04 -38.63,-21.53 -4.36,-5.51 -8.41,-11.44 -10.74,-18.12 12.2,5.16 25.19,8.44 38.39,9.55 11.29,0.8 22.53,-1.38 33.26,-4.69 7.87,-2.66 15.77,-6.41 21.01,-13.09 8.9,-10.45 11.48,-24.44 12.45,-37.73 -5.96,2.43 -11.46,5.88 -17.57,7.95 -6.78,2.53 -13.87,4.29 -21.11,4.75 -9.45,0.66 -18.89,-1.38 -27.81,-4.36 -8.55,-3.02 -16.89,-7.16 -23.57,-13.39 -12.04,-11.35 -20.69,-26.68 -22.5,-43.26 -0.46,-8.39 -0.59,-16.8 -0.04,-25.19 2.1,-19.03 11.99,-36.96 26.68,-49.17 9.61,-7.35 20.98,-13.01 33.24,-13.65 m 3.44,30.5 c -5.33,1.28 -10.42,3.65 -14.55,7.3 -9.38,7.64 -14.29,19.41 -16.47,31.05 -1.32,6.6 0.4,13.26 2.25,19.57 2.45,8.1 6.9,15.88 13.88,20.89 5.32,3.69 11.2,6.73 17.54,8.17 5.28,1.11 10.78,0.32 15.75,-1.68 14.19,-4.75 25.68,-16.98 29.59,-31.41 1.89,-10.32 -0.23,-21.02 -4.31,-30.57 -4.57,-9.22 -11.93,-17.51 -21.7,-21.3 -6.85,-3.05 -14.7,-3.95 -21.98,-2.02 z"
       id="path14" />
    <path
       fill="#2d2f37"
       opacity="1"
       d="m 741.18,298.04 c 4,-1.82 8.44,-2.1 12.73,-2.75 6.61,-1 13.33,-1.29 19.99,-0.59 7.11,0.67 14.62,1.48 20.61,5.76 9.32,6.47 17.04,16.12 19.26,27.44 0.97,10.69 0.44,21.45 0.3,32.17 -0.1,14.64 -0.45,29.29 -0.22,43.94 0.16,4.34 -0.33,8.88 1.58,12.94 4.72,11.32 14.53,19.27 21.39,29.17 -12.29,-0.2 -24.58,-0.08 -36.87,-0.13 -2.35,-0.13 -5.13,-0.25 -6.73,-2.22 -2.9,-3.11 -5.08,-6.81 -7.97,-9.92 -1.92,-2.18 -4.24,-4.16 -5.24,-6.96 -1.39,-3.8 -0.97,-7.91 -1.04,-11.87 0.02,-19.35 0.04,-38.69 0.03,-58.03 -0.01,-8.05 0.14,-16.15 -1.14,-24.12 -0.37,-1.78 -0.95,-4.1 -2.9,-4.7 -9.6,-1.81 -19.46,0.46 -28.18,4.56 -6.03,2.63 -12.17,5.52 -16.94,10.14 -2.18,2.11 -1.86,5.36 -2.08,8.13 -0.39,12.67 -0.19,25.35 -0.17,38.02 0.22,8.37 -0.33,16.8 0.85,25.11 1.7,10.46 8.12,19.52 16.11,26.2 2.61,2.1 5.17,4.27 7.45,6.72 -7.98,0.13 -15.92,-0.88 -23.89,-0.96 -7.72,-0.2 -15.88,0.55 -23.07,-2.83 -6.82,-3.74 -10.41,-11.62 -10.96,-19.13 -0.73,-25.06 0.14,-50.13 -0.08,-75.2 -0.14,-8.78 0.83,-17.93 -2.58,-26.27 -3.06,-6.76 -8.18,-12.53 -14.37,-16.61 -3.18,-2.37 -7.34,-4.25 -8.31,-8.5 16.09,-0.94 32.3,0.55 48.38,-1.14 3.23,-0.21 6.54,-0.1 9.69,0.72 1.79,1.77 0.98,4.58 1.4,6.84 1.82,0.02 3.85,0.71 5.56,-0.22 2.49,-1.87 4.53,-4.38 7.41,-5.71 z"
       id="path16" />
    <path
       fill="#2d2f37"
       opacity="1"
       d="m 352.53,296.67 c 11.1,-1.47 22.37,-0.98 33.53,-0.54 10.91,0.63 20.68,6.2 29.23,12.61 15.94,12.79 25.62,32.2 28.62,52.2 1.13,15.98 -1.69,32.5 -9.3,46.69 -7.59,13.92 -19.56,25.29 -33.74,32.35 -12.12,6.52 -26.43,7.73 -39.91,6.05 -20.14,-2.47 -38.81,-14.36 -49.7,-31.47 -8.7,-13.25 -13.25,-28.89 -14.52,-44.6 0.05,-9.87 3.01,-19.49 6.49,-28.65 5.55,-14.62 14.93,-28.27 28.4,-36.61 6.35,-4.02 13.43,-6.94 20.9,-8.03 m 10.64,29.61 c -12.51,3.28 -23.27,12.92 -27.83,25.05 -5.23,13.97 -4.01,29.86 1.87,43.43 4.58,9.3 13.9,15.53 23.61,18.5 10.46,2.63 21.72,-0.2 30.73,-5.83 8.81,-6.06 15.74,-15.59 17,-26.39 2.15,-12.3 0.57,-25.34 -5.28,-36.42 -4.42,-6.78 -10.72,-12.54 -18.23,-15.68 -6.96,-2.49 -14.5,-3.92 -21.87,-2.66 z"
       id="path18" />
    <path
       fill="#2d2f37"
       opacity="1"
       d="m 438.08,296.95 c 21.24,0.48 42.49,-1.2 63.72,-0.62 -0.82,2.2 -1.89,4.59 -4.34,5.37 -5.89,2.18 -11.36,5.48 -15.74,10.02 -0.99,1.18 -1.98,2.65 -1.68,4.28 0.74,5.63 2.97,10.9 4.82,16.22 6.88,18.02 12.84,36.45 21.58,53.7 3.4,-4.69 4.66,-10.43 6.62,-15.78 3.76,-10.69 7.74,-21.29 11.3,-32.05 3.98,-11.24 7.26,-22.91 13.62,-33.1 2.12,-3.48 5.23,-6.86 9.5,-7.34 10.1,-1.23 20.3,-0.28 30.44,-0.6 4.36,0.18 9.02,-0.72 13.14,1.11 3.31,-0.17 6.57,-0.98 9.9,-1.02 17.86,0 35.73,-0.2 53.59,0.18 0.78,21.21 0.22,42.44 0.29,63.67 -0.05,14.69 -0.04,29.39 -0.1,44.08 -0.02,7.95 0.09,15.93 1.34,23.8 4.15,3.1 9.11,4.85 13.38,7.78 3.68,2.54 8.12,4.73 9.58,9.33 -15.35,0.05 -30.7,0.07 -46.05,-0.14 -3.28,-0.26 -7.07,0.19 -9.78,-2.04 -3.43,-3.41 -3.62,-8.58 -4.16,-13.09 -0.63,-30.57 -0.26,-61.15 -0.1,-91.73 0.01,-8.5 -0.33,-17.66 -5.17,-24.98 -5.5,-7.9 -14.16,-13.63 -23.7,-15.2 -3.56,0.45 -6.37,2.93 -9.06,5.1 -3.53,3.15 -6.89,6.51 -10.04,10.05 -9.9,12.79 -13.86,28.75 -19.57,43.59 -7.25,20.54 -15.05,40.87 -22.33,61.39 -2.8,8.54 -6.59,16.7 -9.32,25.26 -5.41,1.88 -11.22,0.53 -16.73,-0.12 -3.49,-0.13 -7.27,-0.73 -9.73,-3.46 -3.23,-3.74 -4.8,-8.54 -6.92,-12.93 -6.77,-15.82 -12.8,-31.94 -19.27,-47.87 -8.61,-21.17 -16.25,-42.78 -26.94,-63.03 -2.73,-6.04 -6.71,-11.5 -8.84,-17.8 0.68,-2.97 4.54,-1.74 6.75,-2.03 z"
       id="path20" />
    <path
       fill="#2d2f37"
       opacity="1"
       d="m 93.06,398.13 c 7.45,-0.61 16.23,-1.61 22.52,3.28 4.53,5.16 6.30767,11.53533 7.613,18.53 -0.31117,6.2535 -3.143,11.01 -6.583,15.56 -1.84,2.64 -4.51,4.55 -7.48,5.72 -4.11,1.59 -8.42,3.72 -12.93,2.61 -9.08,-2.62 -17.72,-9 -20.72,-18.26 -2.19,-7.49 1.74,-15.03 5.74,-21.16 2.71,-3.84 7.38,-5.55 11.84,-6.28 z"
       id="path22"
       sodipodi:nodetypes="ccccccccc" />
    <path
       fill="#2d2f37"
       opacity="1"
       d="m 569.35,401.46 c 6.59,-1.55 13.91,0.68 18.55,5.61 5.2,5.32 9.24,12.28 9.52,19.87 -0.49,6.41 -4.16,12.23 -8.84,16.48 -5.62,4.9 -13.63,4.76 -20.64,4.54 -7.1,-0.12 -11.95,-6.22 -15.11,-11.9 -3.29,-5.4 -3.56,-12.13 -1.74,-18.08 1.75,-8.73 10.04,-14.54 18.26,-16.52 z"
       id="path24" />
  </g>
  <g
     id="#2b5b9fff"
     transform="translate(-74.851961,-40.314277)">
    <path
       fill="#2b5b9f"
       opacity="1"
       d="m 545.25,62.22 c 7.11,-7.81 17.47,-12.04 27.69,-13.89 11.44,-0.79 22.86,1.73 34.33,0.77 -0.65,1.89 -1.64,3.72 -3.58,4.53 -9.98,5.24 -19.34,11.81 -26.99,20.14 -4.12,4.29 -6.9,9.73 -8.36,15.47 -4.42,14.49 -3.96,29.79 -4.24,44.77 -0.18,26 0.58,51.99 0.45,77.99 0.13,10.67 -0.21,21.37 0.52,32.03 9.02,-0.19 17.92,-2.03 26.94,-2.11 -0.25,12.29 0.77,24.67 -1.05,36.87 -6.27,1.09 -12.65,0.72 -18.97,0.83 -12.67,0.12 -25.34,-0.46 -38,-0.04 -1.89,-0.06 -3.93,0.22 -5.61,-0.82 -1.31,-4.2 -1.14,-8.71 -2.34,-12.94 -6,1.73 -10.71,5.95 -15.33,9.94 -4.87583,3.163 -9.62458,4.82542 -14.99458,5.98542 -5.99,1.03 -12.74542,1.89458 -18.85542,1.03458 -6.16,-0.84 -12.31,-1.83 -18.35,-3.32 -10.71,-2.55 -20.01,-8.76 -29,-14.85 -10.98,-8.57 -19.93,-19.82 -25.61,-32.56 -4.47,-10.76 -6.23,-22.5 -5.9,-34.11 -0.28,-11.49 0.54,-23.27 4.92,-34.02 6.84,-15.6 18.38,-29.23 33.17,-37.84 11.48,-6.74 24.63,-10.47 37.83,-11.75 11.98,-0.35 23.82,2.43 35.13,6.15 6.5,2.14 12.26,6.05 18.84,7.97 0.13,-6.15 0.11,-12.29 0.09,-18.44 -0.57,-17.37 6.22,-34.53 17.27,-47.79 m -72.05,88.02 c -7.42,1.21 -14.75,3.76 -20.76,8.36 -6.43,4.71 -9.9,12.19 -12.78,19.38 -5.21,13.5 -4.11,28.76 1.12,42.08 4.08,9 11.42,16.26 19.89,21.2 6.18,3.8 13.42,6.88 20.81,6.06 9.25,-1.93 18.65,-4.88 26.04,-11 8.19,-6.68 14.46,-15.73 17.94,-25.7 2.9,-8.22 1.89,-17.1 0.2,-25.45 -1.73,-10.26 -8.96,-18.6 -16.81,-24.96 -9.84,-8.08 -23.05,-11.78 -35.65,-9.97 z"
       id="path27"
       sodipodi:nodetypes="cccccccccccccccccccccccccccccccccccccccc" />
  </g>
  <g
     id="#24a039ff"
     transform="translate(-74.851961,-40.314277)">
    <path
       fill="#24a039"
       opacity="1"
       d="m 310.14,113.37 c 11.54,-1.92 23.58,-1.32 34.73,2.3 12.8,4.21 22.46,15.12 27.32,27.43 2.85,7.62 2.87,15.89 2.98,23.91 0.2,25.83 -0.54,51.68 0.52,77.49 4.41,-0.35 8.88,-0.45 13.14,-1.77 2.91,-0.91 5.98,-0.87 9,-0.86 1.85,11.97 0.03,24.09 0.83,36.12 -20.89,0 -41.79,-0.06 -62.65,1.14 -1.52,-39.07 0.65,-78.2 -1.26,-117.25 -0.67,-4.21 0.05,-8.85 -2,-12.71 -3.43,-1.25 -7.17,-0.79 -10.73,-0.53 -8.81,0.95 -17.71,2.78 -25.59,6.99 -4.91,2.95 -11,4.91 -14.52,9.56 -2.6,12.05 -1.72,24.52 -1.89,36.77 0.27,14.25 -0.68,28.56 0.8,42.77 7.75,-0.74 15.13,-3.73 22.96,-3.79 0.73,12.4 -0.33,24.83 0.12,37.25 -4.58,0.78 -9.26,0.5 -13.89,0.65 -16.55,-0.01 -33.12,0.29 -49.66,-0.31 -0.2,-25.85 0.13,-51.71 0.41,-77.57 0.18,-16.61 -0.49,-33.23 -0.01,-49.83 -8.22,0.18 -16.42,0.74 -24.64,0.91 -0.76,-11.35 -1.22,-22.71 -1.67,-34.07 20.19,-0.18 40.4,0.42 60.58,-0.34 4.26,-0.94 5.31,4.3 7.72,6.72 8.82,-4.33 17.33,-10.22 27.4,-10.98 z"
       id="path30" />
  </g>
  <g
     id="#cd328aff"
     transform="translate(-74.851961,-40.314277)">
    <path
       fill="#cd328a"
       opacity="1"
       d="m 132.7,117.98 c 21.72,0.1 43.87408,-0.44175 65.58408,0.11825 0.46771,4.05806 0.10745,8.11047 0.2269,12.27242 0.0545,1.89935 -0.15706,3.78366 0.009,5.62933 0.91,27.98 0.02,55.98 0.95,83.95 0.23,8.12 0.09,16.24 0.45,24.36 7.33,-0.89 14.54,-3 22,-2.51 2.19,12.09 0.87,24.43 0.02,36.58 -20.63,-0.07 -41.28,0.82 -61.91,0.32 -0.3,-42.33 -0.25,-84.67 -0.86,-126.99 -8.38,-0.06 -17.56758,0.12 -25.99875,-0.45475 C 132.403,145.85642 133.5,139.58 133.12,134.02 c -0.17,-5.35 -0.67,-10.69 -0.42,-16.04 z"
       id="path33"
       sodipodi:nodetypes="ccscccccccccc" />
  </g>
  <g
     id="#0a957aff"
     transform="translate(-74.851961,-40.314277)">
    <path
       fill="#0a957a"
       opacity="1"
       d="m 588.85,117.45 c 21.14,0.1 42.27,0.74 63.41,0.51 0.52,23.02 0.14,46.05 0.42,69.07 -0.02,19.12 0.34,38.25 0,57.38 5.44,-0.94 10.77,-3.05 16.39,-2.54 1.5,-0.25 1.92,1.53 2.31,2.59 2.81,10.8 3.12,22.09 2.23,33.16 -19.29,0.93 -38.64,0.22 -57.95,0.41 -0.83,-42.3 0.38,-84.63 -0.35,-126.93 -8.63,0.43 -17.25,1.08 -25.85,1.88 0.26,-11.84 0.21,-23.71 -0.61,-35.53 z"
       id="path36" />
  </g>
  <g
     id="#fcb408ff"
     transform="translate(-74.851961,-40.314277)">
    <path
       fill="#fcb408"
       opacity="1"
       d="m 474.52,175.67 c 7.71,-1.97 15.66,1.28 21.56,6.17 3.54,3.01 5.82,7.42 6.14,12.07 1.59,10.05 -4.74,20.26 -13.56,24.79 -12.61,5.31 -29.17,-4.9 -29.73,-18.73 -0.02,-5.93 2.64,-11.4 5.62,-16.37 2.24,-3.69 5.72,-6.82 9.97,-7.93 z"
       id="path39" />
  </g>
</svg>
