<svg width="16" height="16" viewBox="0 0 16 16" fill="none" xmlns="http://www.w3.org/2000/svg">
<g clip-path="url(#clip0_4603_20151)">
<rect width="16" height="16" transform="translate(0 0.000732422)" fill="white" fill-opacity="0.01"/>
<path fill-rule="evenodd" clip-rule="evenodd" d="M12.6667 2.66741H12V2.00074C12 1.63408 11.7 1.33408 11.3333 1.33408C10.9667 1.33408 10.6667 1.63408 10.6667 2.00074V2.66741H5.33333V2.00074C5.33333 1.63408 5.03333 1.33408 4.66667 1.33408C4.3 1.33408 4 1.63408 4 2.00074V2.66741H3.33333C2.59333 2.66741 2.00667 3.26741 2.00667 4.00074L2 13.3341C2 14.0674 2.59333 14.6674 3.33333 14.6674H12.6667C13.4 14.6674 14 14.0674 14 13.3341V4.00074C14 3.26741 13.4 2.66741 12.6667 2.66741ZM12.6667 12.6674C12.6667 13.0341 12.3667 13.3341 12 13.3341H4C3.63333 13.3341 3.33333 13.0341 3.33333 12.6674V6.00074H12.6667V12.6674ZM4.66667 7.33408H6V8.66741H4.66667V7.33408ZM7.33333 7.33408H8.66667V8.66741H7.33333V7.33408ZM10 7.33408H11.3333V8.66741H10V7.33408Z" fill="black" fill-opacity="0.6"/>
</g>
<defs>
<clipPath id="clip0_4603_20151">
<rect width="16" height="16" fill="white" transform="translate(0 0.000732422)"/>
</clipPath>
</defs>
</svg>
