
<svg width="32" height="32" viewBox="0 0 32 32" fill="none" xmlns="http://www.w3.org/2000/svg">
<path fill-rule="evenodd" clip-rule="evenodd" d="M2 0C0.895431 0 0 0.895431 0 2V30C0 31.1046 0.895431 32 2 32H30C31.1046 32 32 31.1046 32 30V2C32 0.895431 31.1046 0 30 0H2ZM6.64161 25.6H10.7575V12.6452H6.64161V25.6ZM8.67285 10.8762H8.69967C10.135 10.8762 11.0282 9.88153 11.0282 8.63836C11.0014 7.36714 10.135 6.39996 8.72701 6.39996C7.31903 6.39996 6.39844 7.36714 6.39844 8.63836C6.39844 9.88153 7.2917 10.8762 8.67285 10.8762ZM21.4831 25.6H25.5984V18.1717C25.5984 14.1927 23.568 12.3412 20.8601 12.3412C18.6764 12.3412 17.6978 13.5967 17.1509 14.4795V12.6452H13.0352C13.0891 13.8606 13.0352 25.6 13.0352 25.6H17.1509V18.3654C17.1509 17.9783 17.1774 17.5914 17.2862 17.3146C17.5838 16.5411 18.261 15.7399 19.3979 15.7399C20.8871 15.7399 21.4831 16.9277 21.4831 18.6695V25.6Z" fill="white"/>
</svg>
