<?xml version="1.0" encoding="UTF-8"?>
<svg width="16px" height="16px" viewBox="0 0 16 16" version="1.1" xmlns="http://www.w3.org/2000/svg" xmlns:xlink="http://www.w3.org/1999/xlink">
    <title>clock_icon</title>
    <g id="MDO-Hall-of-fame-design" stroke="none" stroke-width="1" fill="none" fill-rule="evenodd">
        <g id="MDO-Hall-of-fame-Design" transform="translate(-662, -1366)">
            <g id="Background" transform="translate(0, 967)">
                <g id="Group-19-Copy-4" transform="translate(207.0026, 136)">
                    <g id="clock_icon" transform="translate(455, 263)">
                        <rect id="Size" fill="#D8D8D8" opacity="0" x="0" y="0" width="16" height="16"></rect>
                        <path d="M7.99333333,1.33333333 C4.31333333,1.33333333 1.33333333,4.32 1.33333333,8 C1.33333333,11.68 4.31333333,14.6666667 7.99333333,14.6666667 C11.68,14.6666667 14.6666667,11.68 14.6666667,8 C14.6666667,4.32 11.68,1.33333333 7.99333333,1.33333333 Z M8,13.3333333 C5.05333333,13.3333333 2.66666667,10.9466667 2.66666667,8 C2.66666667,5.05333333 5.05333333,2.66666667 8,2.66666667 C10.9466667,2.66666667 13.3333333,5.05333333 13.3333333,8 C13.3333333,10.9466667 10.9466667,13.3333333 8,13.3333333 Z M8.33333333,4.66666667 L7.33333333,4.66666667 L7.33333333,8.66666667 L10.8333333,10.7666667 L11.3333333,9.94666667 L8.33333333,8.16666667 L8.33333333,4.66666667 Z" id="Shape" fill="#FFFFFF"></path>
                    </g>
                </g>
            </g>
        </g>
    </g>
</svg>