<?xml version="1.0" encoding="UTF-8"?>
<svg width="378px" height="270px" viewBox="0 0 378 270" version="1.1" xmlns="http://www.w3.org/2000/svg" xmlns:xlink="http://www.w3.org/1999/xlink">
    <title>Dotted_Pattern_TopRight</title>
    <g id="MDO-Hall-of-fame-design" stroke="none" stroke-width="1" fill="none" fill-rule="evenodd" opacity="0.239999995">
        <g id="MDO-Hall-of-fame-Design" transform="translate(-1070, -981)" fill="#FFFAEB">
            <g id="Background" transform="translate(0, 967)">
                <g id="Dotted_Pattern_TopRight" transform="translate(1069.999, 14)">
                    <path d="M5.00097803,2.5 C5.00097803,3.87874837 3.88276716,5 2.50048901,5 C1.12147095,5 2.04636308e-12,3.87874837 2.04636308e-12,2.5 C2.04636308e-12,1.11799218 1.12147095,0 2.50048901,0 C3.88276716,0 5.00097803,1.11799218 5.00097803,2.5" id="Fill-40"></path>
                    <path d="M38.000978,2.5 C38.000978,3.87874837 36.8829858,5 35.500978,5 C34.1222297,5 33.000978,3.87874837 33.000978,2.5 C33.000978,1.11799218 34.1222297,0 35.500978,0 C36.8829858,0 38.000978,1.11799218 38.000978,2.5" id="Fill-43"></path>
                    <path d="M72.000978,2.5 C72.000978,3.87874837 70.8829858,5 69.500978,5 C68.1222297,5 67.000978,3.87874837 67.000978,2.5 C67.000978,1.11799218 68.1222297,0 69.500978,0 C70.8829858,0 72.000978,1.11799218 72.000978,2.5" id="Fill-45"></path>
                    <path d="M105.000978,2.5 C105.000978,3.87874837 103.882986,5 102.500978,5 C101.12223,5 100.000978,3.87874837 100.000978,2.5 C100.000978,1.11799218 101.12223,0 102.500978,0 C103.882986,0 105.000978,1.11799218 105.000978,2.5" id="Fill-47"></path>
                    <path d="M5.00097803,35.5 C5.00097803,36.8787484 3.88276716,38 2.50048901,38 C1.12147095,38 2.04636308e-12,36.8787484 2.04636308e-12,35.5 C2.04636308e-12,34.1179922 1.12147095,33 2.50048901,33 C3.88276716,33 5.00097803,34.1179922 5.00097803,35.5" id="Fill-49"></path>
                    <path d="M38.000978,35.5 C38.000978,36.8787484 36.8829858,38 35.500978,38 C34.1222297,38 33.000978,36.8787484 33.000978,35.5 C33.000978,34.1179922 34.1222297,33 35.500978,33 C36.8829858,33 38.000978,34.1179922 38.000978,35.5" id="Fill-52"></path>
                    <path d="M72.000978,35.5 C72.000978,36.8787484 70.8829858,38 69.500978,38 C68.1222297,38 67.000978,36.8787484 67.000978,35.5 C67.000978,34.1179922 68.1222297,33 69.500978,33 C70.8829858,33 72.000978,34.1179922 72.000978,35.5" id="Fill-54"></path>
                    <path d="M105.000978,35.5 C105.000978,36.8787484 103.882986,38 102.500978,38 C101.12223,38 100.000978,36.8787484 100.000978,35.5 C100.000978,34.1179922 101.12223,33 102.500978,33 C103.882986,33 105.000978,34.1179922 105.000978,35.5" id="Fill-56"></path>
                    <path d="M5.00097803,68.5 C5.00097803,69.8820078 3.88276716,71 2.50048901,71 C1.12147095,71 2.04636308e-12,69.8820078 2.04636308e-12,68.5 C2.04636308e-12,67.1212516 1.12147095,66 2.50048901,66 C3.88276716,66 5.00097803,67.1212516 5.00097803,68.5" id="Fill-58"></path>
                    <path d="M38.000978,68.5 C38.000978,69.8820078 36.8829858,71 35.500978,71 C34.1222297,71 33.000978,69.8820078 33.000978,68.5 C33.000978,67.1212516 34.1222297,66 35.500978,66 C36.8829858,66 38.000978,67.1212516 38.000978,68.5" id="Fill-61"></path>
                    <path d="M72.000978,68.5 C72.000978,69.8820078 70.8829858,71 69.500978,71 C68.1222297,71 67.000978,69.8820078 67.000978,68.5 C67.000978,67.1212516 68.1222297,66 69.500978,66 C70.8829858,66 72.000978,67.1212516 72.000978,68.5" id="Fill-63"></path>
                    <path d="M105.000978,68.5 C105.000978,69.8820078 103.882986,71 102.500978,71 C101.12223,71 100.000978,69.8820078 100.000978,68.5 C100.000978,67.1212516 101.12223,66 102.500978,66 C103.882986,66 105.000978,67.1212516 105.000978,68.5" id="Fill-65"></path>
                    <path d="M5.00097803,102.5 C5.00097803,103.882008 3.88276716,105 2.50048901,105 C1.12147095,105 0,103.882008 0,102.5 C0,101.121252 1.12147095,100 2.50048901,100 C3.88276716,100 5.00097803,101.121252 5.00097803,102.5" id="Fill-67"></path>
                    <path d="M38.000978,102.5 C38.000978,103.882008 36.8829858,105 35.500978,105 C34.1222297,105 33.000978,103.882008 33.000978,102.5 C33.000978,101.121252 34.1222297,100 35.500978,100 C36.8829858,100 38.000978,101.121252 38.000978,102.5" id="Fill-70"></path>
                    <path d="M72.000978,102.5 C72.000978,103.882008 70.8829858,105 69.500978,105 C68.1222297,105 67.000978,103.882008 67.000978,102.5 C67.000978,101.121252 68.1222297,100 69.500978,100 C70.8829858,100 72.000978,101.121252 72.000978,102.5" id="Fill-72"></path>
                    <path d="M105.000978,102.5 C105.000978,103.882008 103.882986,105 102.500978,105 C101.12223,105 100.000978,103.882008 100.000978,102.5 C100.000978,101.121252 101.12223,100 102.500978,100 C103.882986,100 105.000978,101.121252 105.000978,102.5" id="Fill-74"></path>
                    <path d="M5.00097803,135.5 C5.00097803,136.882008 3.88276716,138 2.50048901,138 C1.12147095,138 2.04636308e-12,136.882008 2.04636308e-12,135.5 C2.04636308e-12,134.121252 1.12147095,133 2.50048901,133 C3.88276716,133 5.00097803,134.121252 5.00097803,135.5" id="Fill-76"></path>
                    <path d="M38.000978,135.5 C38.000978,136.882008 36.8829858,138 35.500978,138 C34.1222297,138 33.000978,136.882008 33.000978,135.5 C33.000978,134.121252 34.1222297,133 35.500978,133 C36.8829858,133 38.000978,134.121252 38.000978,135.5" id="Fill-79"></path>
                    <path d="M72.000978,135.5 C72.000978,136.882008 70.8829858,138 69.500978,138 C68.1222297,138 67.000978,136.882008 67.000978,135.5 C67.000978,134.121252 68.1222297,133 69.500978,133 C70.8829858,133 72.000978,134.121252 72.000978,135.5" id="Fill-81"></path>
                    <path d="M105.000978,135.5 C105.000978,136.882008 103.882986,138 102.500978,138 C101.12223,138 100.000978,136.882008 100.000978,135.5 C100.000978,134.121252 101.12223,133 102.500978,133 C103.882986,133 105.000978,134.121252 105.000978,135.5" id="Fill-83"></path>
                    <path d="M5.00097803,168.5 C5.00097803,169.878748 3.88276716,171 2.50048901,171 C1.12147095,171 2.04636308e-12,169.878748 2.04636308e-12,168.5 C2.04636308e-12,167.117992 1.12147095,166 2.50048901,166 C3.88276716,166 5.00097803,167.117992 5.00097803,168.5" id="Fill-85"></path>
                    <path d="M38.000978,168.5 C38.000978,169.878748 36.8829858,171 35.500978,171 C34.1222297,171 33.000978,169.878748 33.000978,168.5 C33.000978,167.117992 34.1222297,166 35.500978,166 C36.8829858,166 38.000978,167.117992 38.000978,168.5" id="Fill-88"></path>
                    <path d="M72.000978,168.5 C72.000978,169.878748 70.8829858,171 69.500978,171 C68.1222297,171 67.000978,169.878748 67.000978,168.5 C67.000978,167.117992 68.1222297,166 69.500978,166 C70.8829858,166 72.000978,167.117992 72.000978,168.5" id="Fill-90"></path>
                    <path d="M105.000978,168.5 C105.000978,169.878748 103.882986,171 102.500978,171 C101.12223,171 100.000978,169.878748 100.000978,168.5 C100.000978,167.117992 101.12223,166 102.500978,166 C103.882986,166 105.000978,167.117992 105.000978,168.5" id="Fill-92"></path>
                    <path d="M5.00097803,201.5 C5.00097803,202.882008 3.88276716,204 2.50048901,204 C1.12147095,204 2.04636308e-12,202.882008 2.04636308e-12,201.5 C2.04636308e-12,200.121252 1.12147095,199 2.50048901,199 C3.88276716,199 5.00097803,200.121252 5.00097803,201.5" id="Fill-94"></path>
                    <path d="M38.000978,201.5 C38.000978,202.882008 36.8829858,204 35.500978,204 C34.1222297,204 33.000978,202.882008 33.000978,201.5 C33.000978,200.121252 34.1222297,199 35.500978,199 C36.8829858,199 38.000978,200.121252 38.000978,201.5" id="Fill-97"></path>
                    <path d="M72.000978,201.5 C72.000978,202.882008 70.8829858,204 69.500978,204 C68.1222297,204 67.000978,202.882008 67.000978,201.5 C67.000978,200.121252 68.1222297,199 69.500978,199 C70.8829858,199 72.000978,200.121252 72.000978,201.5" id="Fill-99"></path>
                    <path d="M105.000978,201.5 C105.000978,202.882008 103.882986,204 102.500978,204 C101.12223,204 100.000978,202.882008 100.000978,201.5 C100.000978,200.121252 101.12223,199 102.500978,199 C103.882986,199 105.000978,200.121252 105.000978,201.5" id="Fill-101"></path>
                    <path d="M5.00097803,234.5 C5.00097803,235.878748 3.88276716,237 2.50048901,237 C1.12147095,237 2.04636308e-12,235.878748 2.04636308e-12,234.5 C2.04636308e-12,233.117992 1.12147095,232 2.50048901,232 C3.88276716,232 5.00097803,233.117992 5.00097803,234.5" id="Fill-103"></path>
                    <path d="M38.000978,234.5 C38.000978,235.878748 36.8829858,237 35.500978,237 C34.1222297,237 33.000978,235.878748 33.000978,234.5 C33.000978,233.117992 34.1222297,232 35.500978,232 C36.8829858,232 38.000978,233.117992 38.000978,234.5" id="Fill-106"></path>
                    <path d="M72.000978,234.5 C72.000978,235.878748 70.8829858,237 69.500978,237 C68.1222297,237 67.000978,235.878748 67.000978,234.5 C67.000978,233.117992 68.1222297,232 69.500978,232 C70.8829858,232 72.000978,233.117992 72.000978,234.5" id="Fill-108"></path>
                    <path d="M105.000978,234.5 C105.000978,235.878748 103.882986,237 102.500978,237 C101.12223,237 100.000978,235.878748 100.000978,234.5 C100.000978,233.117992 101.12223,232 102.500978,232 C103.882986,232 105.000978,233.117992 105.000978,234.5" id="Fill-110"></path>
                    <path d="M5.00097803,267.500326 C5.00097803,268.879254 3.88276716,270.000652 2.50048901,270.000652 C1.12147095,270.000652 2.04636308e-12,268.879254 2.04636308e-12,267.500326 C2.04636308e-12,266.118138 1.12147095,265 2.50048901,265 C3.88276716,265 5.00097803,266.118138 5.00097803,267.500326" id="Fill-112"></path>
                    <path d="M38.000978,267.500326 C38.000978,268.879254 36.8829858,270.000652 35.500978,270.000652 C34.1222297,270.000652 33.000978,268.879254 33.000978,267.500326 C33.000978,266.118138 34.1222297,265 35.500978,265 C36.8829858,265 38.000978,266.118138 38.000978,267.500326" id="Fill-115"></path>
                    <path d="M72.000978,267.500326 C72.000978,268.879254 70.8829858,270.000652 69.500978,270.000652 C68.1222297,270.000652 67.000978,268.879254 67.000978,267.500326 C67.000978,266.118138 68.1222297,265 69.500978,265 C70.8829858,265 72.000978,266.118138 72.000978,267.500326" id="Fill-118"></path>
                    <path d="M105.000978,267.500326 C105.000978,268.879254 103.882986,270.000652 102.500978,270.000652 C101.12223,270.000652 100.000978,268.879254 100.000978,267.500326 C100.000978,266.118138 101.12223,265 102.500978,265 C103.882986,265 105.000978,266.118138 105.000978,267.500326" id="Fill-121"></path>
                    <path d="M141.000978,2.5 C141.000978,3.87874837 139.882986,5 138.500978,5 C137.12223,5 136.000978,3.87874837 136.000978,2.5 C136.000978,1.11799218 137.12223,0 138.500978,0 C139.882986,0 141.000978,1.11799218 141.000978,2.5" id="Fill-160"></path>
                    <path d="M174.000978,2.5 C174.000978,3.87874837 172.882986,5 171.500978,5 C170.12223,5 169.000978,3.87874837 169.000978,2.5 C169.000978,1.11799218 170.12223,0 171.500978,0 C172.882986,0 174.000978,1.11799218 174.000978,2.5" id="Fill-162"></path>
                    <path d="M208.000978,2.5 C208.000978,3.87874837 206.882986,5 205.500978,5 C204.12223,5 203.000978,3.87874837 203.000978,2.5 C203.000978,1.11799218 204.12223,0 205.500978,0 C206.882986,0 208.000978,1.11799218 208.000978,2.5" id="Fill-164"></path>
                    <path d="M242.000978,2.5 C242.000978,3.87874837 240.882986,5 239.500978,5 C238.12223,5 237.000978,3.87874837 237.000978,2.5 C237.000978,1.11799218 238.12223,0 239.500978,0 C240.882986,0 242.000978,1.11799218 242.000978,2.5" id="Fill-166"></path>
                    <path d="M141.000978,35.5 C141.000978,36.8787484 139.882986,38 138.500978,38 C137.12223,38 136.000978,36.8787484 136.000978,35.5 C136.000978,34.1179922 137.12223,33 138.500978,33 C139.882986,33 141.000978,34.1179922 141.000978,35.5" id="Fill-168"></path>
                    <path d="M174.000978,35.5 C174.000978,36.8787484 172.882986,38 171.500978,38 C170.12223,38 169.000978,36.8787484 169.000978,35.5 C169.000978,34.1179922 170.12223,33 171.500978,33 C172.882986,33 174.000978,34.1179922 174.000978,35.5" id="Fill-170"></path>
                    <path d="M208.000978,35.5 C208.000978,36.8787484 206.882986,38 205.500978,38 C204.12223,38 203.000978,36.8787484 203.000978,35.5 C203.000978,34.1179922 204.12223,33 205.500978,33 C206.882986,33 208.000978,34.1179922 208.000978,35.5" id="Fill-172"></path>
                    <path d="M242.000978,35.5 C242.000978,36.8787484 240.882986,38 239.500978,38 C238.12223,38 237.000978,36.8787484 237.000978,35.5 C237.000978,34.1179922 238.12223,33 239.500978,33 C240.882986,33 242.000978,34.1179922 242.000978,35.5" id="Fill-174"></path>
                    <path d="M141.000978,68.5 C141.000978,69.8820078 139.882986,71 138.500978,71 C137.12223,71 136.000978,69.8820078 136.000978,68.5 C136.000978,67.1212516 137.12223,66 138.500978,66 C139.882986,66 141.000978,67.1212516 141.000978,68.5" id="Fill-176"></path>
                    <path d="M174.000978,68.5 C174.000978,69.8820078 172.882986,71 171.500978,71 C170.12223,71 169.000978,69.8820078 169.000978,68.5 C169.000978,67.1212516 170.12223,66 171.500978,66 C172.882986,66 174.000978,67.1212516 174.000978,68.5" id="Fill-178"></path>
                    <path d="M208.000978,68.5 C208.000978,69.8820078 206.882986,71 205.500978,71 C204.12223,71 203.000978,69.8820078 203.000978,68.5 C203.000978,67.1212516 204.12223,66 205.500978,66 C206.882986,66 208.000978,67.1212516 208.000978,68.5" id="Fill-180"></path>
                    <path d="M242.000978,68.5 C242.000978,69.8820078 240.882986,71 239.500978,71 C238.12223,71 237.000978,69.8820078 237.000978,68.5 C237.000978,67.1212516 238.12223,66 239.500978,66 C240.882986,66 242.000978,67.1212516 242.000978,68.5" id="Fill-182"></path>
                    <path d="M141.000978,102.5 C141.000978,103.882008 139.882986,105 138.500978,105 C137.12223,105 136.000978,103.882008 136.000978,102.5 C136.000978,101.121252 137.12223,100 138.500978,100 C139.882986,100 141.000978,101.121252 141.000978,102.5" id="Fill-184"></path>
                    <path d="M174.000978,102.5 C174.000978,103.882008 172.882986,105 171.500978,105 C170.12223,105 169.000978,103.882008 169.000978,102.5 C169.000978,101.121252 170.12223,100 171.500978,100 C172.882986,100 174.000978,101.121252 174.000978,102.5" id="Fill-186"></path>
                    <path d="M208.000978,102.5 C208.000978,103.882008 206.882986,105 205.500978,105 C204.12223,105 203.000978,103.882008 203.000978,102.5 C203.000978,101.121252 204.12223,100 205.500978,100 C206.882986,100 208.000978,101.121252 208.000978,102.5" id="Fill-188"></path>
                    <path d="M242.000978,102.5 C242.000978,103.882008 240.882986,105 239.500978,105 C238.12223,105 237.000978,103.882008 237.000978,102.5 C237.000978,101.121252 238.12223,100 239.500978,100 C240.882986,100 242.000978,101.121252 242.000978,102.5" id="Fill-190"></path>
                    <path d="M141.000978,135.5 C141.000978,136.882008 139.882986,138 138.500978,138 C137.12223,138 136.000978,136.882008 136.000978,135.5 C136.000978,134.121252 137.12223,133 138.500978,133 C139.882986,133 141.000978,134.121252 141.000978,135.5" id="Fill-192"></path>
                    <path d="M174.000978,135.5 C174.000978,136.882008 172.882986,138 171.500978,138 C170.12223,138 169.000978,136.882008 169.000978,135.5 C169.000978,134.121252 170.12223,133 171.500978,133 C172.882986,133 174.000978,134.121252 174.000978,135.5" id="Fill-194"></path>
                    <path d="M208.000978,135.5 C208.000978,136.882008 206.882986,138 205.500978,138 C204.12223,138 203.000978,136.882008 203.000978,135.5 C203.000978,134.121252 204.12223,133 205.500978,133 C206.882986,133 208.000978,134.121252 208.000978,135.5" id="Fill-196"></path>
                    <path d="M242.000978,135.5 C242.000978,136.882008 240.882986,138 239.500978,138 C238.12223,138 237.000978,136.882008 237.000978,135.5 C237.000978,134.121252 238.12223,133 239.500978,133 C240.882986,133 242.000978,134.121252 242.000978,135.5" id="Fill-198"></path>
                    <path d="M141.000978,168.5 C141.000978,169.878748 139.882986,171 138.500978,171 C137.12223,171 136.000978,169.878748 136.000978,168.5 C136.000978,167.117992 137.12223,166 138.500978,166 C139.882986,166 141.000978,167.117992 141.000978,168.5" id="Fill-200"></path>
                    <path d="M174.000978,168.5 C174.000978,169.878748 172.882986,171 171.500978,171 C170.12223,171 169.000978,169.878748 169.000978,168.5 C169.000978,167.117992 170.12223,166 171.500978,166 C172.882986,166 174.000978,167.117992 174.000978,168.5" id="Fill-202"></path>
                    <path d="M208.000978,168.5 C208.000978,169.878748 206.882986,171 205.500978,171 C204.12223,171 203.000978,169.878748 203.000978,168.5 C203.000978,167.117992 204.12223,166 205.500978,166 C206.882986,166 208.000978,167.117992 208.000978,168.5" id="Fill-204"></path>
                    <path d="M242.000978,168.5 C242.000978,169.878748 240.882986,171 239.500978,171 C238.12223,171 237.000978,169.878748 237.000978,168.5 C237.000978,167.117992 238.12223,166 239.500978,166 C240.882986,166 242.000978,167.117992 242.000978,168.5" id="Fill-206"></path>
                    <path d="M141.000978,201.5 C141.000978,202.882008 139.882986,204 138.500978,204 C137.12223,204 136.000978,202.882008 136.000978,201.5 C136.000978,200.121252 137.12223,199 138.500978,199 C139.882986,199 141.000978,200.121252 141.000978,201.5" id="Fill-208"></path>
                    <path d="M174.000978,201.5 C174.000978,202.882008 172.882986,204 171.500978,204 C170.12223,204 169.000978,202.882008 169.000978,201.5 C169.000978,200.121252 170.12223,199 171.500978,199 C172.882986,199 174.000978,200.121252 174.000978,201.5" id="Fill-210"></path>
                    <path d="M208.000978,201.5 C208.000978,202.882008 206.882986,204 205.500978,204 C204.12223,204 203.000978,202.882008 203.000978,201.5 C203.000978,200.121252 204.12223,199 205.500978,199 C206.882986,199 208.000978,200.121252 208.000978,201.5" id="Fill-212"></path>
                    <path d="M242.000978,201.5 C242.000978,202.882008 240.882986,204 239.500978,204 C238.12223,204 237.000978,202.882008 237.000978,201.5 C237.000978,200.121252 238.12223,199 239.500978,199 C240.882986,199 242.000978,200.121252 242.000978,201.5" id="Fill-214"></path>
                    <path d="M141.000978,234.5 C141.000978,235.878748 139.882986,237 138.500978,237 C137.12223,237 136.000978,235.878748 136.000978,234.5 C136.000978,233.117992 137.12223,232 138.500978,232 C139.882986,232 141.000978,233.117992 141.000978,234.5" id="Fill-216"></path>
                    <path d="M174.000978,234.5 C174.000978,235.878748 172.882986,237 171.500978,237 C170.12223,237 169.000978,235.878748 169.000978,234.5 C169.000978,233.117992 170.12223,232 171.500978,232 C172.882986,232 174.000978,233.117992 174.000978,234.5" id="Fill-218"></path>
                    <path d="M208.000978,234.5 C208.000978,235.878748 206.882986,237 205.500978,237 C204.12223,237 203.000978,235.878748 203.000978,234.5 C203.000978,233.117992 204.12223,232 205.500978,232 C206.882986,232 208.000978,233.117992 208.000978,234.5" id="Fill-220"></path>
                    <path d="M242.000978,234.5 C242.000978,235.878748 240.882986,237 239.500978,237 C238.12223,237 237.000978,235.878748 237.000978,234.5 C237.000978,233.117992 238.12223,232 239.500978,232 C240.882986,232 242.000978,233.117992 242.000978,234.5" id="Fill-222"></path>
                    <path d="M141.000978,267.500326 C141.000978,268.879254 139.882986,270.000652 138.500978,270.000652 C137.12223,270.000652 136.000978,268.879254 136.000978,267.500326 C136.000978,266.118138 137.12223,265 138.500978,265 C139.882986,265 141.000978,266.118138 141.000978,267.500326" id="Fill-224"></path>
                    <path d="M174.000978,267.500326 C174.000978,268.879254 172.882986,270.000652 171.500978,270.000652 C170.12223,270.000652 169.000978,268.879254 169.000978,267.500326 C169.000978,266.118138 170.12223,265 171.500978,265 C172.882986,265 174.000978,266.118138 174.000978,267.500326" id="Fill-227"></path>
                    <path d="M208.000978,267.500326 C208.000978,268.879254 206.882986,270.000652 205.500978,270.000652 C204.12223,270.000652 203.000978,268.879254 203.000978,267.500326 C203.000978,266.118138 204.12223,265 205.500978,265 C206.882986,265 208.000978,266.118138 208.000978,267.500326" id="Fill-230"></path>
                    <path d="M242.000978,267.500326 C242.000978,268.879254 240.882986,270.000652 239.500978,270.000652 C238.12223,270.000652 237.000978,268.879254 237.000978,267.500326 C237.000978,266.118138 238.12223,265 239.500978,265 C240.882986,265 242.000978,266.118138 242.000978,267.500326" id="Fill-233"></path>
                    <path d="M277.000978,2.5 C277.000978,3.87874837 275.882986,5 274.500978,5 C273.12223,5 272.000978,3.87874837 272.000978,2.5 C272.000978,1.11799218 273.12223,0 274.500978,0 C275.882986,0 277.000978,1.11799218 277.000978,2.5" id="Fill-272"></path>
                    <path d="M311.000978,2.5 C311.000978,3.87874837 309.882986,5 308.500978,5 C307.12223,5 306.000978,3.87874837 306.000978,2.5 C306.000978,1.11799218 307.12223,0 308.500978,0 C309.882986,0 311.000978,1.11799218 311.000978,2.5" id="Fill-274"></path>
                    <path d="M344.000978,2.5 C344.000978,3.87874837 342.882986,5 341.500978,5 C340.12223,5 339.000978,3.87874837 339.000978,2.5 C339.000978,1.11799218 340.12223,0 341.500978,0 C342.882986,0 344.000978,1.11799218 344.000978,2.5" id="Fill-276"></path>
                    <path d="M378.000978,2.5 C378.000978,3.87874837 376.882986,5 375.500978,5 C374.12223,5 373.000978,3.87874837 373.000978,2.5 C373.000978,1.11799218 374.12223,0 375.500978,0 C376.882986,0 378.000978,1.11799218 378.000978,2.5" id="Fill-278"></path>
                    <path d="M277.000978,35.5 C277.000978,36.8787484 275.882986,38 274.500978,38 C273.12223,38 272.000978,36.8787484 272.000978,35.5 C272.000978,34.1179922 273.12223,33 274.500978,33 C275.882986,33 277.000978,34.1179922 277.000978,35.5" id="Fill-280"></path>
                    <path d="M311.000978,35.5 C311.000978,36.8787484 309.882986,38 308.500978,38 C307.12223,38 306.000978,36.8787484 306.000978,35.5 C306.000978,34.1179922 307.12223,33 308.500978,33 C309.882986,33 311.000978,34.1179922 311.000978,35.5" id="Fill-282"></path>
                    <path d="M344.000978,35.5 C344.000978,36.8787484 342.882986,38 341.500978,38 C340.12223,38 339.000978,36.8787484 339.000978,35.5 C339.000978,34.1179922 340.12223,33 341.500978,33 C342.882986,33 344.000978,34.1179922 344.000978,35.5" id="Fill-284"></path>
                    <path d="M378.000978,35.5 C378.000978,36.8787484 376.882986,38 375.500978,38 C374.12223,38 373.000978,36.8787484 373.000978,35.5 C373.000978,34.1179922 374.12223,33 375.500978,33 C376.882986,33 378.000978,34.1179922 378.000978,35.5" id="Fill-286"></path>
                    <path d="M277.000978,68.5 C277.000978,69.8820078 275.882986,71 274.500978,71 C273.12223,71 272.000978,69.8820078 272.000978,68.5 C272.000978,67.1212516 273.12223,66 274.500978,66 C275.882986,66 277.000978,67.1212516 277.000978,68.5" id="Fill-288"></path>
                    <path d="M311.000978,68.5 C311.000978,69.8820078 309.882986,71 308.500978,71 C307.12223,71 306.000978,69.8820078 306.000978,68.5 C306.000978,67.1212516 307.12223,66 308.500978,66 C309.882986,66 311.000978,67.1212516 311.000978,68.5" id="Fill-290"></path>
                    <path d="M344.000978,68.5 C344.000978,69.8820078 342.882986,71 341.500978,71 C340.12223,71 339.000978,69.8820078 339.000978,68.5 C339.000978,67.1212516 340.12223,66 341.500978,66 C342.882986,66 344.000978,67.1212516 344.000978,68.5" id="Fill-292"></path>
                    <path d="M378.000978,68.5 C378.000978,69.8820078 376.882986,71 375.500978,71 C374.12223,71 373.000978,69.8820078 373.000978,68.5 C373.000978,67.1212516 374.12223,66 375.500978,66 C376.882986,66 378.000978,67.1212516 378.000978,68.5" id="Fill-294"></path>
                    <path d="M277.000978,102.5 C277.000978,103.882008 275.882986,105 274.500978,105 C273.12223,105 272.000978,103.882008 272.000978,102.5 C272.000978,101.121252 273.12223,100 274.500978,100 C275.882986,100 277.000978,101.121252 277.000978,102.5" id="Fill-296"></path>
                    <path d="M311.000978,102.5 C311.000978,103.882008 309.882986,105 308.500978,105 C307.12223,105 306.000978,103.882008 306.000978,102.5 C306.000978,101.121252 307.12223,100 308.500978,100 C309.882986,100 311.000978,101.121252 311.000978,102.5" id="Fill-298"></path>
                    <path d="M344.000978,102.5 C344.000978,103.882008 342.882986,105 341.500978,105 C340.12223,105 339.000978,103.882008 339.000978,102.5 C339.000978,101.121252 340.12223,100 341.500978,100 C342.882986,100 344.000978,101.121252 344.000978,102.5" id="Fill-300"></path>
                    <path d="M378.000978,102.5 C378.000978,103.882008 376.882986,105 375.500978,105 C374.12223,105 373.000978,103.882008 373.000978,102.5 C373.000978,101.121252 374.12223,100 375.500978,100 C376.882986,100 378.000978,101.121252 378.000978,102.5" id="Fill-302"></path>
                    <path d="M277.000978,135.5 C277.000978,136.882008 275.882986,138 274.500978,138 C273.12223,138 272.000978,136.882008 272.000978,135.5 C272.000978,134.121252 273.12223,133 274.500978,133 C275.882986,133 277.000978,134.121252 277.000978,135.5" id="Fill-304"></path>
                    <path d="M311.000978,135.5 C311.000978,136.882008 309.882986,138 308.500978,138 C307.12223,138 306.000978,136.882008 306.000978,135.5 C306.000978,134.121252 307.12223,133 308.500978,133 C309.882986,133 311.000978,134.121252 311.000978,135.5" id="Fill-306"></path>
                    <path d="M344.000978,135.5 C344.000978,136.882008 342.882986,138 341.500978,138 C340.12223,138 339.000978,136.882008 339.000978,135.5 C339.000978,134.121252 340.12223,133 341.500978,133 C342.882986,133 344.000978,134.121252 344.000978,135.5" id="Fill-308"></path>
                    <path d="M378.000978,135.5 C378.000978,136.882008 376.882986,138 375.500978,138 C374.12223,138 373.000978,136.882008 373.000978,135.5 C373.000978,134.121252 374.12223,133 375.500978,133 C376.882986,133 378.000978,134.121252 378.000978,135.5" id="Fill-310"></path>
                    <path d="M277.000978,168.5 C277.000978,169.878748 275.882986,171 274.500978,171 C273.12223,171 272.000978,169.878748 272.000978,168.5 C272.000978,167.117992 273.12223,166 274.500978,166 C275.882986,166 277.000978,167.117992 277.000978,168.5" id="Fill-312"></path>
                    <path d="M311.000978,168.5 C311.000978,169.878748 309.882986,171 308.500978,171 C307.12223,171 306.000978,169.878748 306.000978,168.5 C306.000978,167.117992 307.12223,166 308.500978,166 C309.882986,166 311.000978,167.117992 311.000978,168.5" id="Fill-314"></path>
                    <path d="M344.000978,168.5 C344.000978,169.878748 342.882986,171 341.500978,171 C340.12223,171 339.000978,169.878748 339.000978,168.5 C339.000978,167.117992 340.12223,166 341.500978,166 C342.882986,166 344.000978,167.117992 344.000978,168.5" id="Fill-316"></path>
                    <path d="M378.000978,168.5 C378.000978,169.878748 376.882986,171 375.500978,171 C374.12223,171 373.000978,169.878748 373.000978,168.5 C373.000978,167.117992 374.12223,166 375.500978,166 C376.882986,166 378.000978,167.117992 378.000978,168.5" id="Fill-318"></path>
                    <path d="M277.000978,201.5 C277.000978,202.882008 275.882986,204 274.500978,204 C273.12223,204 272.000978,202.882008 272.000978,201.5 C272.000978,200.121252 273.12223,199 274.500978,199 C275.882986,199 277.000978,200.121252 277.000978,201.5" id="Fill-320"></path>
                    <path d="M311.000978,201.5 C311.000978,202.882008 309.882986,204 308.500978,204 C307.12223,204 306.000978,202.882008 306.000978,201.5 C306.000978,200.121252 307.12223,199 308.500978,199 C309.882986,199 311.000978,200.121252 311.000978,201.5" id="Fill-322"></path>
                    <path d="M344.000978,201.5 C344.000978,202.882008 342.882986,204 341.500978,204 C340.12223,204 339.000978,202.882008 339.000978,201.5 C339.000978,200.121252 340.12223,199 341.500978,199 C342.882986,199 344.000978,200.121252 344.000978,201.5" id="Fill-324"></path>
                    <path d="M378.000978,201.5 C378.000978,202.882008 376.882986,204 375.500978,204 C374.12223,204 373.000978,202.882008 373.000978,201.5 C373.000978,200.121252 374.12223,199 375.500978,199 C376.882986,199 378.000978,200.121252 378.000978,201.5" id="Fill-326"></path>
                    <path d="M277.000978,234.5 C277.000978,235.878748 275.882986,237 274.500978,237 C273.12223,237 272.000978,235.878748 272.000978,234.5 C272.000978,233.117992 273.12223,232 274.500978,232 C275.882986,232 277.000978,233.117992 277.000978,234.5" id="Fill-328"></path>
                    <path d="M311.000978,234.5 C311.000978,235.878748 309.882986,237 308.500978,237 C307.12223,237 306.000978,235.878748 306.000978,234.5 C306.000978,233.117992 307.12223,232 308.500978,232 C309.882986,232 311.000978,233.117992 311.000978,234.5" id="Fill-330"></path>
                    <path d="M344.000978,234.5 C344.000978,235.878748 342.882986,237 341.500978,237 C340.12223,237 339.000978,235.878748 339.000978,234.5 C339.000978,233.117992 340.12223,232 341.500978,232 C342.882986,232 344.000978,233.117992 344.000978,234.5" id="Fill-332"></path>
                    <path d="M378.000978,234.5 C378.000978,235.878748 376.882986,237 375.500978,237 C374.12223,237 373.000978,235.878748 373.000978,234.5 C373.000978,233.117992 374.12223,232 375.500978,232 C376.882986,232 378.000978,233.117992 378.000978,234.5" id="Fill-334"></path>
                    <path d="M277.000978,267.500326 C277.000978,268.879254 275.882986,270.000652 274.500978,270.000652 C273.12223,270.000652 272.000978,268.879254 272.000978,267.500326 C272.000978,266.118138 273.12223,265 274.500978,265 C275.882986,265 277.000978,266.118138 277.000978,267.500326" id="Fill-336"></path>
                    <path d="M311.000978,267.500326 C311.000978,268.879254 309.882986,270.000652 308.500978,270.000652 C307.12223,270.000652 306.000978,268.879254 306.000978,267.500326 C306.000978,266.118138 307.12223,265 308.500978,265 C309.882986,265 311.000978,266.118138 311.000978,267.500326" id="Fill-339"></path>
                    <path d="M344.000978,267.500326 C344.000978,268.879254 342.882986,270.000652 341.500978,270.000652 C340.12223,270.000652 339.000978,268.879254 339.000978,267.500326 C339.000978,266.118138 340.12223,265 341.500978,265 C342.882986,265 344.000978,266.118138 344.000978,267.500326" id="Fill-342"></path>
                    <path d="M378.000978,267.500326 C378.000978,268.879254 376.882986,270.000652 375.500978,270.000652 C374.12223,270.000652 373.000978,268.879254 373.000978,267.500326 C373.000978,266.118138 374.12223,265 375.500978,265 C376.882986,265 378.000978,266.118138 378.000978,267.500326" id="Fill-345"></path>
                </g>
            </g>
        </g>
    </g>
</svg>