<?xml version="1.0" encoding="UTF-8"?>
<svg width="465px" height="154px" viewBox="0 0 465 154" version="1.1" xmlns="http://www.w3.org/2000/svg" xmlns:xlink="http://www.w3.org/1999/xlink">
    <title>Dotted_Pattern_BottomLeft</title>
    <defs>
        <polygon id="path-1" points="0 0 5 0 5 5 0 5"></polygon>
        <polygon id="path-3" points="0 0 5 0 5 5 0 5"></polygon>
        <polygon id="path-5" points="0 0 5 0 5 5 0 5"></polygon>
        <polygon id="path-7" points="0 0 5 0 5 5 0 5"></polygon>
        <polygon id="path-9" points="0 0 5 0 5 5 0 5"></polygon>
        <polygon id="path-11" points="0 0 5 0 5 5 0 5"></polygon>
        <polygon id="path-13" points="0 0 5 0 5 5 0 5"></polygon>
        <polygon id="path-15" points="0 0 5 0 5 5 0 5"></polygon>
        <polygon id="path-17" points="0 0 5 0 5 5 0 5"></polygon>
        <polygon id="path-19" points="0 0 5 0 5 5 0 5"></polygon>
        <polygon id="path-21" points="0 0 5 0 5 5 0 5"></polygon>
        <polygon id="path-23" points="0 0 5 0 5 5 0 5"></polygon>
        <polygon id="path-25" points="0 0 5 0 5 5 0 5"></polygon>
        <polygon id="path-27" points="0 0 5 0 5 5 0 5"></polygon>
        <polygon id="path-29" points="0 0 5 0 5 5 0 5"></polygon>
        <polygon id="path-31" points="0 0 5 0 5 5 0 5"></polygon>
        <polygon id="path-33" points="0 0 5 0 5 5 0 5"></polygon>
        <polygon id="path-35" points="0 0 5 0 5 5 0 5"></polygon>
        <polygon id="path-37" points="0 0 5 0 5 5 0 5"></polygon>
        <polygon id="path-39" points="0 0 5 0 5 5 0 5"></polygon>
        <polygon id="path-41" points="0 0 5 0 5 5 0 5"></polygon>
    </defs>
    <g id="MDO-Hall-of-fame-design" stroke="none" stroke-width="1" fill="none" fill-rule="evenodd" opacity="0.239999995">
        <g id="MDO-Hall-of-fame-Design" transform="translate(-3, -1556)">
            <g id="Background" transform="translate(0, 967)">
                <g id="Dotted_Pattern_BottomLeft" transform="translate(3, 589)">
                    <g id="Group-3">
                        <mask id="mask-2" fill="white">
                            <use xlink:href="#path-1"></use>
                        </mask>
                        <g id="Clip-2"></g>
                        <path d="M5,2.49934794 C5,3.88171622 3.88178914,5 2.49951099,5 C1.12049293,5 -0.000978026994,3.88171622 -0.000978026994,2.49934794 C-0.000978026994,1.12023996 1.12049293,-0.00130412102 2.49951099,-0.00130412102 C3.88178914,-0.00130412102 5,1.12023996 5,2.49934794" id="Fill-1" fill="#FFFAEB" mask="url(#mask-2)"></path>
                    </g>
                    <g id="Group-6" transform="translate(30, 0)">
                        <mask id="mask-4" fill="white">
                            <use xlink:href="#path-3"></use>
                        </mask>
                        <g id="Clip-5"></g>
                        <path d="M5,2.49934794 C5,3.88171622 3.88200782,5 2.5,5 C1.12125163,5 0,3.88171622 0,2.49934794 C0,1.12023996 1.12125163,-0.00130412102 2.5,-0.00130412102 C3.88200782,-0.00130412102 5,1.12023996 5,2.49934794" id="Fill-4" fill="#FFFAEB" mask="url(#mask-4)"></path>
                    </g>
                    <g id="Group-9" transform="translate(60, 0)">
                        <mask id="mask-6" fill="white">
                            <use xlink:href="#path-5"></use>
                        </mask>
                        <g id="Clip-8"></g>
                        <path d="M5,2.49934794 C5,3.88171622 3.88200782,5 2.5,5 C1.12125163,5 0,3.88171622 0,2.49934794 C0,1.12023996 1.12125163,-0.00130412102 2.5,-0.00130412102 C3.88200782,-0.00130412102 5,1.12023996 5,2.49934794" id="Fill-7" fill="#FFFAEB" mask="url(#mask-6)"></path>
                    </g>
                    <g id="Group-12" transform="translate(91, 0)">
                        <mask id="mask-8" fill="white">
                            <use xlink:href="#path-7"></use>
                        </mask>
                        <g id="Clip-11"></g>
                        <path d="M5,2.49934794 C5,3.88171622 3.88200782,5 2.5,5 C1.12125163,5 0,3.88171622 0,2.49934794 C0,1.12023996 1.12125163,-0.00130412102 2.5,-0.00130412102 C3.88200782,-0.00130412102 5,1.12023996 5,2.49934794" id="Fill-10" fill="#FFFAEB" mask="url(#mask-8)"></path>
                    </g>
                    <g id="Group-15" transform="translate(0, 29)">
                        <mask id="mask-10" fill="white">
                            <use xlink:href="#path-9"></use>
                        </mask>
                        <g id="Clip-14"></g>
                        <path d="M5,2.5 C5,3.88200782 3.88178914,5 2.49951099,5 C1.12049293,5 -0.000978026994,3.88200782 -0.000978026994,2.5 C-0.000978026994,1.12125163 1.12049293,0 2.49951099,0 C3.88178914,0 5,1.12125163 5,2.5" id="Fill-13" fill="#FFFAEB" mask="url(#mask-10)"></path>
                    </g>
                    <path d="M35,31.5 C35,32.8820078 33.8820078,34 32.5,34 C31.1212516,34 30,32.8820078 30,31.5 C30,30.1212516 31.1212516,29 32.5,29 C33.8820078,29 35,30.1212516 35,31.5" id="Fill-16" fill="#FFFAEB"></path>
                    <path d="M65,31.5 C65,32.8820078 63.8820078,34 62.5,34 C61.1212516,34 60,32.8820078 60,31.5 C60,30.1212516 61.1212516,29 62.5,29 C63.8820078,29 65,30.1212516 65,31.5" id="Fill-18" fill="#FFFAEB"></path>
                    <path d="M96,31.5 C96,32.8820078 94.8820078,34 93.5,34 C92.1212516,34 91,32.8820078 91,31.5 C91,30.1212516 92.1212516,29 93.5,29 C94.8820078,29 96,30.1212516 96,31.5" id="Fill-20" fill="#FFFAEB"></path>
                    <g id="Group-24" transform="translate(0, 59)">
                        <mask id="mask-12" fill="white">
                            <use xlink:href="#path-11"></use>
                        </mask>
                        <g id="Clip-23"></g>
                        <path d="M5,2.5 C5,3.88200782 3.88178914,5 2.49951099,5 C1.12049293,5 -0.000978026994,3.88200782 -0.000978026994,2.5 C-0.000978026994,1.11799218 1.12049293,0 2.49951099,0 C3.88178914,0 5,1.11799218 5,2.5" id="Fill-22" fill="#FFFAEB" mask="url(#mask-12)"></path>
                    </g>
                    <path d="M35,61.5 C35,62.8820078 33.8820078,64 32.5,64 C31.1212516,64 30,62.8820078 30,61.5 C30,60.1179922 31.1212516,59 32.5,59 C33.8820078,59 35,60.1179922 35,61.5" id="Fill-25" fill="#FFFAEB"></path>
                    <path d="M65,61.5 C65,62.8820078 63.8820078,64 62.5,64 C61.1212516,64 60,62.8820078 60,61.5 C60,60.1179922 61.1212516,59 62.5,59 C63.8820078,59 65,60.1179922 65,61.5" id="Fill-27" fill="#FFFAEB"></path>
                    <path d="M96,61.5 C96,62.8820078 94.8820078,64 93.5,64 C92.1212516,64 91,62.8820078 91,61.5 C91,60.1179922 92.1212516,59 93.5,59 C94.8820078,59 96,60.1179922 96,61.5" id="Fill-29" fill="#FFFAEB"></path>
                    <g id="Group-33" transform="translate(0, 89)">
                        <mask id="mask-14" fill="white">
                            <use xlink:href="#path-13"></use>
                        </mask>
                        <g id="Clip-32"></g>
                        <path d="M5,2.5 C5,3.88200782 3.88178914,5 2.49951099,5 C1.12049293,5 -0.000978026994,3.88200782 -0.000978026994,2.5 C-0.000978026994,1.12125163 1.12049293,0 2.49951099,0 C3.88178914,0 5,1.12125163 5,2.5" id="Fill-31" fill="#FFFAEB" mask="url(#mask-14)"></path>
                    </g>
                    <path d="M35,91.5 C35,92.8820078 33.8820078,94 32.5,94 C31.1212516,94 30,92.8820078 30,91.5 C30,90.1212516 31.1212516,89 32.5,89 C33.8820078,89 35,90.1212516 35,91.5" id="Fill-34" fill="#FFFAEB"></path>
                    <path d="M65,91.5 C65,92.8820078 63.8820078,94 62.5,94 C61.1212516,94 60,92.8820078 60,91.5 C60,90.1212516 61.1212516,89 62.5,89 C63.8820078,89 65,90.1212516 65,91.5" id="Fill-36" fill="#FFFAEB"></path>
                    <path d="M96,91.5 C96,92.8820078 94.8820078,94 93.5,94 C92.1212516,94 91,92.8820078 91,91.5 C91,90.1212516 92.1212516,89 93.5,89 C94.8820078,89 96,90.1212516 96,91.5" id="Fill-38" fill="#FFFAEB"></path>
                    <g id="Group-42" transform="translate(0, 119)">
                        <mask id="mask-16" fill="white">
                            <use xlink:href="#path-15"></use>
                        </mask>
                        <g id="Clip-41"></g>
                        <path d="M5,2.5 C5,3.87874837 3.88178914,5 2.49951099,5 C1.12049293,5 -0.000978026994,3.87874837 -0.000978026994,2.5 C-0.000978026994,1.11799218 1.12049293,0 2.49951099,0 C3.88178914,0 5,1.11799218 5,2.5" id="Fill-40" fill="#FFFAEB" mask="url(#mask-16)"></path>
                    </g>
                    <path d="M35,121.5 C35,122.878748 33.8820078,124 32.5,124 C31.1212516,124 30,122.878748 30,121.5 C30,120.117992 31.1212516,119 32.5,119 C33.8820078,119 35,120.117992 35,121.5" id="Fill-43" fill="#FFFAEB"></path>
                    <path d="M65,121.5 C65,122.878748 63.8820078,124 62.5,124 C61.1212516,124 60,122.878748 60,121.5 C60,120.117992 61.1212516,119 62.5,119 C63.8820078,119 65,120.117992 65,121.5" id="Fill-45" fill="#FFFAEB"></path>
                    <path d="M96,121.5 C96,122.878748 94.8820078,124 93.5,124 C92.1212516,124 91,122.878748 91,121.5 C91,120.117992 92.1212516,119 93.5,119 C94.8820078,119 96,120.117992 96,121.5" id="Fill-47" fill="#FFFAEB"></path>
                    <g id="Group-51" transform="translate(0, 149)">
                        <mask id="mask-18" fill="white">
                            <use xlink:href="#path-17"></use>
                        </mask>
                        <g id="Clip-50"></g>
                        <path d="M5,2.5 C5,3.87874837 3.88178914,5 2.49951099,5 C1.12049293,5 -0.000978026994,3.87874837 -0.000978026994,2.5 C-0.000978026994,1.11799218 1.12049293,0 2.49951099,0 C3.88178914,0 5,1.11799218 5,2.5" id="Fill-49" fill="#FFFAEB" mask="url(#mask-18)"></path>
                    </g>
                    <path d="M35,151.5 C35,152.878748 33.8820078,154 32.5,154 C31.1212516,154 30,152.878748 30,151.5 C30,150.117992 31.1212516,149 32.5,149 C33.8820078,149 35,150.117992 35,151.5" id="Fill-52" fill="#FFFAEB"></path>
                    <path d="M65,151.5 C65,152.878748 63.8820078,154 62.5,154 C61.1212516,154 60,152.878748 60,151.5 C60,150.117992 61.1212516,149 62.5,149 C63.8820078,149 65,150.117992 65,151.5" id="Fill-54" fill="#FFFAEB"></path>
                    <path d="M96,151.5 C96,152.878748 94.8820078,154 93.5,154 C92.1212516,154 91,152.878748 91,151.5 C91,150.117992 92.1212516,149 93.5,149 C94.8820078,149 96,150.117992 96,151.5" id="Fill-56" fill="#FFFAEB"></path>
                    <g id="Group-126" transform="translate(123, 0)">
                        <mask id="mask-20" fill="white">
                            <use xlink:href="#path-19"></use>
                        </mask>
                        <g id="Clip-125"></g>
                        <path d="M5,2.49934794 C5,3.88171622 3.88200782,5 2.5,5 C1.12125163,5 0,3.88171622 0,2.49934794 C0,1.12023996 1.12125163,-0.00130412102 2.5,-0.00130412102 C3.88200782,-0.00130412102 5,1.12023996 5,2.49934794" id="Fill-124" fill="#FFFAEB" mask="url(#mask-20)"></path>
                    </g>
                    <g id="Group-129" transform="translate(153, 0)">
                        <mask id="mask-22" fill="white">
                            <use xlink:href="#path-21"></use>
                        </mask>
                        <g id="Clip-128"></g>
                        <path d="M5,2.49934794 C5,3.88171622 3.88200782,5 2.5,5 C1.12125163,5 0,3.88171622 0,2.49934794 C0,1.12023996 1.12125163,-0.00130412102 2.5,-0.00130412102 C3.88200782,-0.00130412102 5,1.12023996 5,2.49934794" id="Fill-127" fill="#FFFAEB" mask="url(#mask-22)"></path>
                    </g>
                    <g id="Group-132" transform="translate(183, 0)">
                        <mask id="mask-24" fill="white">
                            <use xlink:href="#path-23"></use>
                        </mask>
                        <g id="Clip-131"></g>
                        <path d="M5,2.49934794 C5,3.88171622 3.88200782,5 2.5,5 C1.12125163,5 0,3.88171622 0,2.49934794 C0,1.12023996 1.12125163,-0.00130412102 2.5,-0.00130412102 C3.88200782,-0.00130412102 5,1.12023996 5,2.49934794" id="Fill-130" fill="#FFFAEB" mask="url(#mask-24)"></path>
                    </g>
                    <g id="Group-135" transform="translate(214, 0)">
                        <mask id="mask-26" fill="white">
                            <use xlink:href="#path-25"></use>
                        </mask>
                        <g id="Clip-134"></g>
                        <path d="M5,2.49934794 C5,3.88171622 3.88200782,5 2.5,5 C1.12125163,5 0,3.88171622 0,2.49934794 C0,1.12023996 1.12125163,-0.00130412102 2.5,-0.00130412102 C3.88200782,-0.00130412102 5,1.12023996 5,2.49934794" id="Fill-133" fill="#FFFAEB" mask="url(#mask-26)"></path>
                    </g>
                    <path d="M128,31.5 C128,32.8820078 126.882008,34 125.5,34 C124.121252,34 123,32.8820078 123,31.5 C123,30.1212516 124.121252,29 125.5,29 C126.882008,29 128,30.1212516 128,31.5" id="Fill-136" fill="#FFFAEB"></path>
                    <path d="M158,31.5 C158,32.8820078 156.882008,34 155.5,34 C154.121252,34 153,32.8820078 153,31.5 C153,30.1212516 154.121252,29 155.5,29 C156.882008,29 158,30.1212516 158,31.5" id="Fill-138" fill="#FFFAEB"></path>
                    <path d="M188,31.5 C188,32.8820078 186.882008,34 185.5,34 C184.121252,34 183,32.8820078 183,31.5 C183,30.1212516 184.121252,29 185.5,29 C186.882008,29 188,30.1212516 188,31.5" id="Fill-140" fill="#FFFAEB"></path>
                    <path d="M219,31.5 C219,32.8820078 217.882008,34 216.5,34 C215.121252,34 214,32.8820078 214,31.5 C214,30.1212516 215.121252,29 216.5,29 C217.882008,29 219,30.1212516 219,31.5" id="Fill-142" fill="#FFFAEB"></path>
                    <path d="M128,61.5 C128,62.8820078 126.882008,64 125.5,64 C124.121252,64 123,62.8820078 123,61.5 C123,60.1179922 124.121252,59 125.5,59 C126.882008,59 128,60.1179922 128,61.5" id="Fill-144" fill="#FFFAEB"></path>
                    <path d="M158,61.5 C158,62.8820078 156.882008,64 155.5,64 C154.121252,64 153,62.8820078 153,61.5 C153,60.1179922 154.121252,59 155.5,59 C156.882008,59 158,60.1179922 158,61.5" id="Fill-146" fill="#FFFAEB"></path>
                    <path d="M188,61.5 C188,62.8820078 186.882008,64 185.5,64 C184.121252,64 183,62.8820078 183,61.5 C183,60.1179922 184.121252,59 185.5,59 C186.882008,59 188,60.1179922 188,61.5" id="Fill-148" fill="#FFFAEB"></path>
                    <path d="M219,61.5 C219,62.8820078 217.882008,64 216.5,64 C215.121252,64 214,62.8820078 214,61.5 C214,60.1179922 215.121252,59 216.5,59 C217.882008,59 219,60.1179922 219,61.5" id="Fill-150" fill="#FFFAEB"></path>
                    <path d="M128,91.5 C128,92.8820078 126.882008,94 125.5,94 C124.121252,94 123,92.8820078 123,91.5 C123,90.1212516 124.121252,89 125.5,89 C126.882008,89 128,90.1212516 128,91.5" id="Fill-152" fill="#FFFAEB"></path>
                    <path d="M158,91.5 C158,92.8820078 156.882008,94 155.5,94 C154.121252,94 153,92.8820078 153,91.5 C153,90.1212516 154.121252,89 155.5,89 C156.882008,89 158,90.1212516 158,91.5" id="Fill-154" fill="#FFFAEB"></path>
                    <path d="M188,91.5 C188,92.8820078 186.882008,94 185.5,94 C184.121252,94 183,92.8820078 183,91.5 C183,90.1212516 184.121252,89 185.5,89 C186.882008,89 188,90.1212516 188,91.5" id="Fill-156" fill="#FFFAEB"></path>
                    <path d="M219,91.5 C219,92.8820078 217.882008,94 216.5,94 C215.121252,94 214,92.8820078 214,91.5 C214,90.1212516 215.121252,89 216.5,89 C217.882008,89 219,90.1212516 219,91.5" id="Fill-158" fill="#FFFAEB"></path>
                    <path d="M128,121.5 C128,122.878748 126.882008,124 125.5,124 C124.121252,124 123,122.878748 123,121.5 C123,120.117992 124.121252,119 125.5,119 C126.882008,119 128,120.117992 128,121.5" id="Fill-160" fill="#FFFAEB"></path>
                    <path d="M158,121.5 C158,122.878748 156.882008,124 155.5,124 C154.121252,124 153,122.878748 153,121.5 C153,120.117992 154.121252,119 155.5,119 C156.882008,119 158,120.117992 158,121.5" id="Fill-162" fill="#FFFAEB"></path>
                    <path d="M188,121.5 C188,122.878748 186.882008,124 185.5,124 C184.121252,124 183,122.878748 183,121.5 C183,120.117992 184.121252,119 185.5,119 C186.882008,119 188,120.117992 188,121.5" id="Fill-164" fill="#FFFAEB"></path>
                    <path d="M219,121.5 C219,122.878748 217.882008,124 216.5,124 C215.121252,124 214,122.878748 214,121.5 C214,120.117992 215.121252,119 216.5,119 C217.882008,119 219,120.117992 219,121.5" id="Fill-166" fill="#FFFAEB"></path>
                    <path d="M128,151.5 C128,152.878748 126.882008,154 125.5,154 C124.121252,154 123,152.878748 123,151.5 C123,150.117992 124.121252,149 125.5,149 C126.882008,149 128,150.117992 128,151.5" id="Fill-168" fill="#FFFAEB"></path>
                    <path d="M158,151.5 C158,152.878748 156.882008,154 155.5,154 C154.121252,154 153,152.878748 153,151.5 C153,150.117992 154.121252,149 155.5,149 C156.882008,149 158,150.117992 158,151.5" id="Fill-170" fill="#FFFAEB"></path>
                    <path d="M188,151.5 C188,152.878748 186.882008,154 185.5,154 C184.121252,154 183,152.878748 183,151.5 C183,150.117992 184.121252,149 185.5,149 C186.882008,149 188,150.117992 188,151.5" id="Fill-172" fill="#FFFAEB"></path>
                    <path d="M219,151.5 C219,152.878748 217.882008,154 216.5,154 C215.121252,154 214,152.878748 214,151.5 C214,150.117992 215.121252,149 216.5,149 C217.882008,149 219,150.117992 219,151.5" id="Fill-174" fill="#FFFAEB"></path>
                    <g id="Group-238" transform="translate(246, 0)">
                        <mask id="mask-28" fill="white">
                            <use xlink:href="#path-27"></use>
                        </mask>
                        <g id="Clip-237"></g>
                        <path d="M5,2.49934794 C5,3.88171622 3.88200782,5 2.5,5 C1.12125163,5 0,3.88171622 0,2.49934794 C0,1.12023996 1.12125163,-0.00130412102 2.5,-0.00130412102 C3.88200782,-0.00130412102 5,1.12023996 5,2.49934794" id="Fill-236" fill="#FFFAEB" mask="url(#mask-28)"></path>
                    </g>
                    <g id="Group-241" transform="translate(276, 0)">
                        <mask id="mask-30" fill="white">
                            <use xlink:href="#path-29"></use>
                        </mask>
                        <g id="Clip-240"></g>
                        <path d="M5,2.49934794 C5,3.88171622 3.88200782,5 2.5,5 C1.12125163,5 0,3.88171622 0,2.49934794 C0,1.12023996 1.12125163,-0.00130412102 2.5,-0.00130412102 C3.88200782,-0.00130412102 5,1.12023996 5,2.49934794" id="Fill-239" fill="#FFFAEB" mask="url(#mask-30)"></path>
                    </g>
                    <g id="Group-244" transform="translate(306, 0)">
                        <mask id="mask-32" fill="white">
                            <use xlink:href="#path-31"></use>
                        </mask>
                        <g id="Clip-243"></g>
                        <path d="M5,2.49934794 C5,3.88171622 3.88200782,5 2.5,5 C1.12125163,5 0,3.88171622 0,2.49934794 C0,1.12023996 1.12125163,-0.00130412102 2.5,-0.00130412102 C3.88200782,-0.00130412102 5,1.12023996 5,2.49934794" id="Fill-242" fill="#FFFAEB" mask="url(#mask-32)"></path>
                    </g>
                    <g id="Group-247" transform="translate(337, 0)">
                        <mask id="mask-34" fill="white">
                            <use xlink:href="#path-33"></use>
                        </mask>
                        <g id="Clip-246"></g>
                        <path d="M5,2.49934794 C5,3.88171622 3.88200782,5 2.5,5 C1.12125163,5 0,3.88171622 0,2.49934794 C0,1.12023996 1.12125163,-0.00130412102 2.5,-0.00130412102 C3.88200782,-0.00130412102 5,1.12023996 5,2.49934794" id="Fill-245" fill="#FFFAEB" mask="url(#mask-34)"></path>
                    </g>
                    <path d="M251,31.5 C251,32.8820078 249.882008,34 248.5,34 C247.121252,34 246,32.8820078 246,31.5 C246,30.1212516 247.121252,29 248.5,29 C249.882008,29 251,30.1212516 251,31.5" id="Fill-248" fill="#FFFAEB"></path>
                    <path d="M281,31.5 C281,32.8820078 279.882008,34 278.5,34 C277.121252,34 276,32.8820078 276,31.5 C276,30.1212516 277.121252,29 278.5,29 C279.882008,29 281,30.1212516 281,31.5" id="Fill-250" fill="#FFFAEB"></path>
                    <path d="M311,31.5 C311,32.8820078 309.882008,34 308.5,34 C307.121252,34 306,32.8820078 306,31.5 C306,30.1212516 307.121252,29 308.5,29 C309.882008,29 311,30.1212516 311,31.5" id="Fill-252" fill="#FFFAEB"></path>
                    <path d="M342,31.5 C342,32.8820078 340.882008,34 339.5,34 C338.121252,34 337,32.8820078 337,31.5 C337,30.1212516 338.121252,29 339.5,29 C340.882008,29 342,30.1212516 342,31.5" id="Fill-254" fill="#FFFAEB"></path>
                    <path d="M251,61.5 C251,62.8820078 249.882008,64 248.5,64 C247.121252,64 246,62.8820078 246,61.5 C246,60.1179922 247.121252,59 248.5,59 C249.882008,59 251,60.1179922 251,61.5" id="Fill-256" fill="#FFFAEB"></path>
                    <path d="M281,61.5 C281,62.8820078 279.882008,64 278.5,64 C277.121252,64 276,62.8820078 276,61.5 C276,60.1179922 277.121252,59 278.5,59 C279.882008,59 281,60.1179922 281,61.5" id="Fill-258" fill="#FFFAEB"></path>
                    <path d="M311,61.5 C311,62.8820078 309.882008,64 308.5,64 C307.121252,64 306,62.8820078 306,61.5 C306,60.1179922 307.121252,59 308.5,59 C309.882008,59 311,60.1179922 311,61.5" id="Fill-260" fill="#FFFAEB"></path>
                    <path d="M342,61.5 C342,62.8820078 340.882008,64 339.5,64 C338.121252,64 337,62.8820078 337,61.5 C337,60.1179922 338.121252,59 339.5,59 C340.882008,59 342,60.1179922 342,61.5" id="Fill-262" fill="#FFFAEB"></path>
                    <path d="M251,91.5 C251,92.8820078 249.882008,94 248.5,94 C247.121252,94 246,92.8820078 246,91.5 C246,90.1212516 247.121252,89 248.5,89 C249.882008,89 251,90.1212516 251,91.5" id="Fill-264" fill="#FFFAEB"></path>
                    <path d="M281,91.5 C281,92.8820078 279.882008,94 278.5,94 C277.121252,94 276,92.8820078 276,91.5 C276,90.1212516 277.121252,89 278.5,89 C279.882008,89 281,90.1212516 281,91.5" id="Fill-266" fill="#FFFAEB"></path>
                    <path d="M311,91.5 C311,92.8820078 309.882008,94 308.5,94 C307.121252,94 306,92.8820078 306,91.5 C306,90.1212516 307.121252,89 308.5,89 C309.882008,89 311,90.1212516 311,91.5" id="Fill-268" fill="#FFFAEB"></path>
                    <path d="M342,91.5 C342,92.8820078 340.882008,94 339.5,94 C338.121252,94 337,92.8820078 337,91.5 C337,90.1212516 338.121252,89 339.5,89 C340.882008,89 342,90.1212516 342,91.5" id="Fill-270" fill="#FFFAEB"></path>
                    <path d="M251,121.5 C251,122.878748 249.882008,124 248.5,124 C247.121252,124 246,122.878748 246,121.5 C246,120.117992 247.121252,119 248.5,119 C249.882008,119 251,120.117992 251,121.5" id="Fill-272" fill="#FFFAEB"></path>
                    <path d="M281,121.5 C281,122.878748 279.882008,124 278.5,124 C277.121252,124 276,122.878748 276,121.5 C276,120.117992 277.121252,119 278.5,119 C279.882008,119 281,120.117992 281,121.5" id="Fill-274" fill="#FFFAEB"></path>
                    <path d="M311,121.5 C311,122.878748 309.882008,124 308.5,124 C307.121252,124 306,122.878748 306,121.5 C306,120.117992 307.121252,119 308.5,119 C309.882008,119 311,120.117992 311,121.5" id="Fill-276" fill="#FFFAEB"></path>
                    <path d="M342,121.5 C342,122.878748 340.882008,124 339.5,124 C338.121252,124 337,122.878748 337,121.5 C337,120.117992 338.121252,119 339.5,119 C340.882008,119 342,120.117992 342,121.5" id="Fill-278" fill="#FFFAEB"></path>
                    <path d="M251,151.5 C251,152.878748 249.882008,154 248.5,154 C247.121252,154 246,152.878748 246,151.5 C246,150.117992 247.121252,149 248.5,149 C249.882008,149 251,150.117992 251,151.5" id="Fill-280" fill="#FFFAEB"></path>
                    <path d="M281,151.5 C281,152.878748 279.882008,154 278.5,154 C277.121252,154 276,152.878748 276,151.5 C276,150.117992 277.121252,149 278.5,149 C279.882008,149 281,150.117992 281,151.5" id="Fill-282" fill="#FFFAEB"></path>
                    <path d="M311,151.5 C311,152.878748 309.882008,154 308.5,154 C307.121252,154 306,152.878748 306,151.5 C306,150.117992 307.121252,149 308.5,149 C309.882008,149 311,150.117992 311,151.5" id="Fill-284" fill="#FFFAEB"></path>
                    <path d="M342,151.5 C342,152.878748 340.882008,154 339.5,154 C338.121252,154 337,152.878748 337,151.5 C337,150.117992 338.121252,149 339.5,149 C340.882008,149 342,150.117992 342,151.5" id="Fill-286" fill="#FFFAEB"></path>
                    <g id="Group-350" transform="translate(369, 0)">
                        <mask id="mask-36" fill="white">
                            <use xlink:href="#path-35"></use>
                        </mask>
                        <g id="Clip-349"></g>
                        <path d="M5,2.49934794 C5,3.88171622 3.88200782,5 2.5,5 C1.12125163,5 0,3.88171622 0,2.49934794 C0,1.12023996 1.12125163,-0.00130412102 2.5,-0.00130412102 C3.88200782,-0.00130412102 5,1.12023996 5,2.49934794" id="Fill-348" fill="#FFFAEB" mask="url(#mask-36)"></path>
                    </g>
                    <g id="Group-353" transform="translate(399, 0)">
                        <mask id="mask-38" fill="white">
                            <use xlink:href="#path-37"></use>
                        </mask>
                        <g id="Clip-352"></g>
                        <path d="M5,2.49934794 C5,3.88171622 3.88200782,5 2.5,5 C1.12125163,5 0,3.88171622 0,2.49934794 C0,1.12023996 1.12125163,-0.00130412102 2.5,-0.00130412102 C3.88200782,-0.00130412102 5,1.12023996 5,2.49934794" id="Fill-351" fill="#FFFAEB" mask="url(#mask-38)"></path>
                    </g>
                    <g id="Group-356" transform="translate(429, 0)">
                        <mask id="mask-40" fill="white">
                            <use xlink:href="#path-39"></use>
                        </mask>
                        <g id="Clip-355"></g>
                        <path d="M5,2.49934794 C5,3.88171622 3.88200782,5 2.5,5 C1.12125163,5 0,3.88171622 0,2.49934794 C0,1.12023996 1.12125163,-0.00130412102 2.5,-0.00130412102 C3.88200782,-0.00130412102 5,1.12023996 5,2.49934794" id="Fill-354" fill="#FFFAEB" mask="url(#mask-40)"></path>
                    </g>
                    <g id="Group-359" transform="translate(460, 0)">
                        <mask id="mask-42" fill="white">
                            <use xlink:href="#path-41"></use>
                        </mask>
                        <g id="Clip-358"></g>
                        <path d="M5,2.49934794 C5,3.88171622 3.88200782,5 2.5,5 C1.12125163,5 0,3.88171622 0,2.49934794 C0,1.12023996 1.12125163,-0.00130412102 2.5,-0.00130412102 C3.88200782,-0.00130412102 5,1.12023996 5,2.49934794" id="Fill-357" fill="#FFFAEB" mask="url(#mask-42)"></path>
                    </g>
                    <path d="M374,31.5 C374,32.8820078 372.882008,34 371.5,34 C370.121252,34 369,32.8820078 369,31.5 C369,30.1212516 370.121252,29 371.5,29 C372.882008,29 374,30.1212516 374,31.5" id="Fill-360" fill="#FFFAEB"></path>
                    <path d="M404,31.5 C404,32.8820078 402.882008,34 401.5,34 C400.121252,34 399,32.8820078 399,31.5 C399,30.1212516 400.121252,29 401.5,29 C402.882008,29 404,30.1212516 404,31.5" id="Fill-362" fill="#FFFAEB"></path>
                    <path d="M434,31.5 C434,32.8820078 432.882008,34 431.5,34 C430.121252,34 429,32.8820078 429,31.5 C429,30.1212516 430.121252,29 431.5,29 C432.882008,29 434,30.1212516 434,31.5" id="Fill-364" fill="#FFFAEB"></path>
                    <path d="M465,31.5 C465,32.8820078 463.882008,34 462.5,34 C461.121252,34 460,32.8820078 460,31.5 C460,30.1212516 461.121252,29 462.5,29 C463.882008,29 465,30.1212516 465,31.5" id="Fill-366" fill="#FFFAEB"></path>
                    <path d="M374,61.5 C374,62.8820078 372.882008,64 371.5,64 C370.121252,64 369,62.8820078 369,61.5 C369,60.1179922 370.121252,59 371.5,59 C372.882008,59 374,60.1179922 374,61.5" id="Fill-368" fill="#FFFAEB"></path>
                    <path d="M404,61.5 C404,62.8820078 402.882008,64 401.5,64 C400.121252,64 399,62.8820078 399,61.5 C399,60.1179922 400.121252,59 401.5,59 C402.882008,59 404,60.1179922 404,61.5" id="Fill-370" fill="#FFFAEB"></path>
                    <path d="M434,61.5 C434,62.8820078 432.882008,64 431.5,64 C430.121252,64 429,62.8820078 429,61.5 C429,60.1179922 430.121252,59 431.5,59 C432.882008,59 434,60.1179922 434,61.5" id="Fill-372" fill="#FFFAEB"></path>
                    <path d="M465,61.5 C465,62.8820078 463.882008,64 462.5,64 C461.121252,64 460,62.8820078 460,61.5 C460,60.1179922 461.121252,59 462.5,59 C463.882008,59 465,60.1179922 465,61.5" id="Fill-374" fill="#FFFAEB"></path>
                    <path d="M374,91.5 C374,92.8820078 372.882008,94 371.5,94 C370.121252,94 369,92.8820078 369,91.5 C369,90.1212516 370.121252,89 371.5,89 C372.882008,89 374,90.1212516 374,91.5" id="Fill-376" fill="#FFFAEB"></path>
                    <path d="M404,91.5 C404,92.8820078 402.882008,94 401.5,94 C400.121252,94 399,92.8820078 399,91.5 C399,90.1212516 400.121252,89 401.5,89 C402.882008,89 404,90.1212516 404,91.5" id="Fill-378" fill="#FFFAEB"></path>
                    <path d="M434,91.5 C434,92.8820078 432.882008,94 431.5,94 C430.121252,94 429,92.8820078 429,91.5 C429,90.1212516 430.121252,89 431.5,89 C432.882008,89 434,90.1212516 434,91.5" id="Fill-380" fill="#FFFAEB"></path>
                    <path d="M465,91.5 C465,92.8820078 463.882008,94 462.5,94 C461.121252,94 460,92.8820078 460,91.5 C460,90.1212516 461.121252,89 462.5,89 C463.882008,89 465,90.1212516 465,91.5" id="Fill-382" fill="#FFFAEB"></path>
                    <path d="M374,121.5 C374,122.878748 372.882008,124 371.5,124 C370.121252,124 369,122.878748 369,121.5 C369,120.117992 370.121252,119 371.5,119 C372.882008,119 374,120.117992 374,121.5" id="Fill-384" fill="#FFFAEB"></path>
                    <path d="M404,121.5 C404,122.878748 402.882008,124 401.5,124 C400.121252,124 399,122.878748 399,121.5 C399,120.117992 400.121252,119 401.5,119 C402.882008,119 404,120.117992 404,121.5" id="Fill-386" fill="#FFFAEB"></path>
                    <path d="M434,121.5 C434,122.878748 432.882008,124 431.5,124 C430.121252,124 429,122.878748 429,121.5 C429,120.117992 430.121252,119 431.5,119 C432.882008,119 434,120.117992 434,121.5" id="Fill-388" fill="#FFFAEB"></path>
                    <path d="M465,121.5 C465,122.878748 463.882008,124 462.5,124 C461.121252,124 460,122.878748 460,121.5 C460,120.117992 461.121252,119 462.5,119 C463.882008,119 465,120.117992 465,121.5" id="Fill-390" fill="#FFFAEB"></path>
                    <path d="M374,151.5 C374,152.878748 372.882008,154 371.5,154 C370.121252,154 369,152.878748 369,151.5 C369,150.117992 370.121252,149 371.5,149 C372.882008,149 374,150.117992 374,151.5" id="Fill-392" fill="#FFFAEB"></path>
                    <path d="M404,151.5 C404,152.878748 402.882008,154 401.5,154 C400.121252,154 399,152.878748 399,151.5 C399,150.117992 400.121252,149 401.5,149 C402.882008,149 404,150.117992 404,151.5" id="Fill-394" fill="#FFFAEB"></path>
                    <path d="M434,151.5 C434,152.878748 432.882008,154 431.5,154 C430.121252,154 429,152.878748 429,151.5 C429,150.117992 430.121252,149 431.5,149 C432.882008,149 434,150.117992 434,151.5" id="Fill-396" fill="#FFFAEB"></path>
                    <path d="M465,151.5 C465,152.878748 463.882008,154 462.5,154 C461.121252,154 460,152.878748 460,151.5 C460,150.117992 461.121252,149 462.5,149 C463.882008,149 465,150.117992 465,151.5" id="Fill-398" fill="#FFFAEB"></path>
                </g>
            </g>
        </g>
    </g>
</svg>