<?xml version="1.0" encoding="UTF-8"?>
<svg width="16px" height="16px" viewBox="0 0 16 16" version="1.1" xmlns="http://www.w3.org/2000/svg" xmlns:xlink="http://www.w3.org/1999/xlink">
    <title>info_icon</title>
    <g id="MDO-Hall-of-fame-design" stroke="none" stroke-width="1" fill="none" fill-rule="evenodd">
        <g id="MDO-Hall-of-fame-Design" transform="translate(-823, -1021)">
            <g id="Group-5" transform="translate(611, 1007)">
                <g id="Group-21" transform="translate(208, 10)">
                    <g id="info_icon" transform="translate(4, 4)">
                        <rect id="Size" fill="#D8D8D8" opacity="0" x="0" y="0" width="16" height="16"></rect>
                        <path d="M7.33333333,4.66666667 L8.66666667,4.66666667 L8.66666667,6 L7.33333333,6 L7.33333333,4.66666667 Z M7.33333333,7.33333333 L8.66666667,7.33333333 L8.66666667,11.3333333 L7.33333333,11.3333333 L7.33333333,7.33333333 Z M8,1.33333333 C4.32,1.33333333 1.33333333,4.32 1.33333333,8 C1.33333333,11.68 4.32,14.6666667 8,14.6666667 C11.68,14.6666667 14.6666667,11.68 14.6666667,8 C14.6666667,4.32 11.68,1.33333333 8,1.33333333 Z M8,13.3333333 C5.06,13.3333333 2.66666667,10.94 2.66666667,8 C2.66666667,5.06 5.06,2.66666667 8,2.66666667 C10.94,2.66666667 13.3333333,5.06 13.3333333,8 C13.3333333,10.94 10.94,13.3333333 8,13.3333333 Z" id="Shape" fill="#000000"></path>
                    </g>
                </g>
            </g>
        </g>
    </g>
</svg>