<svg width="20" height="20" viewBox="0 0 20 20" fill="none" xmlns="http://www.w3.org/2000/svg">
<g clip-path="url(#clip0_4389_63605)">
<path fill-rule="evenodd" clip-rule="evenodd" d="M2.35635 0.63875C2.57507 0.420361 2.8377 0.250948 3.12685 0.141738C3.41599 0.0325276 3.72504 -0.0139861 4.03352 0.00527912C4.342 0.0245444 4.64287 0.109149 4.91618 0.253486C5.18949 0.397822 5.429 0.598596 5.61885 0.842501L7.8626 3.725C8.27385 4.25375 8.41885 4.9425 8.25635 5.5925L7.5726 8.33C7.53725 8.47179 7.53916 8.62031 7.57814 8.76114C7.61713 8.90197 7.69187 9.03033 7.7951 9.13375L10.8663 12.205C10.9699 12.3084 11.0985 12.3833 11.2395 12.4223C11.3806 12.4613 11.5294 12.4631 11.6713 12.4275L14.4076 11.7438C14.7284 11.6636 15.0632 11.6573 15.3867 11.7255C15.7102 11.7937 16.014 11.9346 16.2751 12.1375L19.1576 14.38C20.1938 15.1863 20.2888 16.7175 19.3613 17.6438L18.0688 18.9363C17.1438 19.8613 15.7613 20.2675 14.4726 19.8138C11.1741 18.6532 8.17919 16.7648 5.7101 14.2888C3.23421 11.82 1.34586 8.82557 0.1851 5.5275C-0.2674 4.24 0.13885 2.85625 1.06385 1.93125L2.35635 0.63875Z" fill="black" fill-opacity="0.6"/>
</g>
<defs>
<clipPath id="clip0_4389_63605">
<rect width="20" height="20" fill="white"/>
</clipPath>
</defs>
</svg>
