<svg width="53" height="52" viewBox="0 0 53 52" fill="none" xmlns="http://www.w3.org/2000/svg">
<path d="M38.007 18.7881C40.0937 21.7032 41.3274 25.2711 41.3274 29.1198C41.3274 38.9429 33.3081 46.9365 23.4534 46.9365C13.5987 46.9365 5.57942 38.9429 5.57942 29.1198C5.57942 19.2967 13.5987 11.2955 23.4534 11.2955C27.3146 11.2955 30.8863 12.5253 33.8184 14.6053L37.4434 10.9919C33.5671 8.00853 28.7159 6.23218 23.4534 6.23218C10.7962 6.23218 0.499756 16.5031 0.499756 29.1198C0.499756 41.7365 10.7962 51.9999 23.4534 51.9999C36.1107 51.9999 46.4071 41.7365 46.4071 29.1198C46.4071 23.8743 44.625 19.0386 41.6321 15.1747L38.007 18.7881Z" fill="#1B4CA1"/>
<path d="M35.3341 21.4605L32.6534 24.1326C33.4682 25.6129 33.9252 27.3133 33.9252 29.12C33.9252 34.8742 29.2263 39.5504 23.4612 39.5504C17.6961 39.5504 12.9973 34.8666 12.9973 29.12C12.9973 23.3735 17.6961 18.6897 23.4612 18.6897C25.2738 18.6897 26.9721 19.1527 28.4647 19.9574L31.1454 17.2853C28.9293 15.8581 26.2943 15.0231 23.4612 15.0231C15.6475 15.0231 9.31128 21.339 9.31128 29.1276C9.31128 36.9163 15.6475 43.2322 23.4612 43.2322C31.2749 43.2322 37.6112 36.9163 37.6112 29.1276C37.6112 26.3037 36.7734 23.6771 35.3417 21.4681L35.3341 21.4605Z" fill="#1B4CA1"/>
<path d="M23.4534 35.1552C26.7972 35.1552 29.5079 32.4532 29.5079 29.1201C29.5079 25.7871 26.7972 23.0851 23.4534 23.0851C20.1096 23.0851 17.3989 25.7871 17.3989 29.1201C17.3989 32.4532 20.1096 35.1552 23.4534 35.1552Z" fill="#1B4CA1"/>
<path d="M52.5002 5.30629L48.4563 4.09169L47.4586 0L40.0409 6.99914L40.8482 10.2862L22.7076 28.3685L24.2079 29.864L42.577 11.5463L45.0825 12.3054L52.5002 5.30629Z" fill="#1B4CA1"/>
</svg>
