<svg width="68" height="40" viewBox="0 0 68 40" fill="none" xmlns="http://www.w3.org/2000/svg">
<path d="M39.3059 10.9622C44.8339 13.3929 48.7073 18.9772 48.7073 25.4812C48.7073 31.9851 44.8339 37.5694 39.3059 40.0002C58.8389 37.7759 67.9999 25.4812 67.9999 25.4812C67.9999 25.4812 58.8389 13.1865 39.3059 10.9622Z" fill="#1B4CA1"/>
<path d="M17.5547 25.4813C17.5547 18.9867 21.4095 13.4119 26.9191 10.9811C7.75587 13.2617 0 25.4813 0 25.4813C0 25.4813 7.76512 37.7103 26.9191 39.9815C21.4095 37.5414 17.5547 31.9665 17.5547 25.4813Z" fill="#1B4CA1"/>
<path d="M33.1318 15.0256C27.4466 15.0256 22.8337 19.7089 22.8337 25.4808C22.8337 31.2528 27.4466 35.936 33.1318 35.936C38.817 35.936 43.4298 31.2528 43.4298 25.4808C43.4298 19.7089 38.817 15.0256 33.1318 15.0256ZM33.1318 29.5634C30.9132 29.5634 29.1106 27.7333 29.1106 25.4808C29.1106 23.2284 30.9132 21.3982 33.1318 21.3982C35.3504 21.3982 37.153 23.2284 37.153 25.4808C37.153 27.7333 35.3504 29.5634 33.1318 29.5634ZM38.6321 20.7225C37.8186 20.7225 37.1622 20.0561 37.1622 19.2302C37.1622 18.4043 37.8186 17.738 38.6321 17.738C39.4456 17.738 40.1019 18.4043 40.1019 19.2302C40.1019 20.0561 39.4456 20.7225 38.6321 20.7225Z" fill="#1B4CA1"/>
<path d="M14.3928 9.86398C15.65 9.46041 16.9627 9.085 18.34 8.74713L12.0817 2.39331C10.7136 2.73118 9.39167 3.09721 8.11597 3.482L14.402 9.86398H14.3928Z" fill="#1B4CA1"/>
<path d="M32.6046 0C32.1794 0 31.7634 -2.32503e-07 31.3474 0.00938503V7.10464C31.8743 7.09526 32.4013 7.07649 32.9374 7.07649C33.603 7.07649 34.2593 7.09526 34.9157 7.11403V0.037541C34.1484 0.0187705 33.3811 0.00938503 32.6046 0.00938503V0Z" fill="#1B4CA1"/>
<path d="M54.0417 2.55298L47.9036 8.78479C49.2809 9.11328 50.5936 9.4793 51.8693 9.88287L58.0167 3.64167C56.7318 3.25687 55.4099 2.89085 54.051 2.55298H54.0417Z" fill="#1B4CA1"/>
</svg>
