<svg width="55" height="56" viewBox="0 0 55 56" fill="none" xmlns="http://www.w3.org/2000/svg">
<path d="M35.0267 27.4929L16.0954 46.6659H12.388V42.906L31.293 23.733L35.0267 27.4929ZM31.293 16.1598L7.12934 40.6927V51.9992H18.2778L42.4414 27.4929L31.293 16.1598ZM8.65436 31.5995C6.1039 30.1062 4.5 28.1596 4.5 25.333C4.5 20.533 9.46946 18.3197 13.8605 16.3731C16.5687 15.1465 20.2761 13.4932 20.2761 11.9999C20.2761 10.9065 18.2252 9.33324 15.0174 9.33324C11.7044 9.33324 10.2846 10.9599 10.2057 11.0399C9.2854 12.1332 7.62892 12.2665 6.52459 11.3599C5.44656 10.4532 5.23622 8.82658 6.13019 7.67994C6.41942 7.30661 9.12764 4 15.0174 4C20.9071 4 25.5347 7.51994 25.5347 11.9999C25.5347 16.9864 20.4601 19.2531 15.9639 21.253C13.4924 22.3463 9.75869 23.9997 9.75869 25.333C9.75869 26.1596 10.8893 26.9329 12.5721 27.6263L8.65436 31.5995Z" fill="#1B4CA1"/>
<path d="M33.424 51.9992C39.8922 51.9992 46.5707 48.506 46.5707 42.6661C46.5707 39.4395 44.7828 37.1995 41.9694 35.5195L38.078 39.4661C40.05 40.3461 41.312 41.4128 41.312 42.6661C41.312 44.7194 37.4732 46.666 33.424 46.666C31.9779 46.666 30.7947 47.866 30.7947 49.3326C30.7947 50.7993 31.9779 51.9992 33.424 51.9992Z" fill="#F3962F"/>
<path d="M48.9614 20.8801L46.1743 23.7067L35.0259 12.4003L37.813 9.57364C39.8639 7.49368 43.2031 7.49368 45.254 9.57364L48.9614 13.3336C51.0123 15.4135 51.0123 18.8001 48.9614 20.8801Z" fill="#F3962F"/>
</svg>
