<svg width="53" height="56" viewBox="0 0 53 56" fill="none" xmlns="http://www.w3.org/2000/svg">
<path d="M43.6111 8.8H33.3933C32.3667 6.016 29.6778 4 26.5 4C23.3222 4 20.6333 6.016 19.6067 8.8H9.38889C9.04667 8.8 8.72889 8.824 8.41111 8.896C7.45778 9.088 6.60222 9.568 5.94222 10.216C5.50222 10.648 5.13556 11.176 4.89111 11.752C4.64667 12.304 4.5 12.928 4.5 13.6V47.2C4.5 47.848 4.64667 48.496 4.89111 49.072C5.13556 49.648 5.50222 50.152 5.94222 50.608C6.60222 51.256 7.45778 51.736 8.41111 51.928C8.72889 51.976 9.04667 52 9.38889 52H43.6111C46.3 52 48.5 49.84 48.5 47.2V13.6C48.5 10.96 46.3 8.8 43.6111 8.8ZM26.5 8.2C27.5022 8.2 28.3333 9.016 28.3333 10C28.3333 10.984 27.5022 11.8 26.5 11.8C25.4978 11.8 24.6667 10.984 24.6667 10C24.6667 9.016 25.4978 8.2 26.5 8.2ZM43.6111 47.2H9.38889V13.6H43.6111V47.2Z" fill="#1B4CA1"/>
<path d="M31.3889 37.5984H14.2778V42.3984H31.3889V37.5984Z" fill="#F3962F"/>
<path d="M38.7223 27.9984H14.2778V32.7984H38.7223V27.9984Z" fill="#F3962F"/>
<path d="M38.7223 18.3984H14.2778V23.1984H38.7223V18.3984Z" fill="#F3962F"/>
</svg>
