<svg width="59" height="56" viewBox="0 0 59 56" fill="none" xmlns="http://www.w3.org/2000/svg">
<path d="M48.9444 4H10.0556C6.97222 4 4.5 6.7 4.5 10V46C4.5 49.3 6.97222 52 10.0556 52H48.9444C52 52 54.5 49.3 54.5 46V10C54.5 6.7 52 4 48.9444 4ZM48.9444 46H10.0556V10H48.9444V46Z" fill="#1B4CA1"/>
<path d="M22.5569 31H17.0014V37H12.8347V19H17.0014V26.5H22.5569V19H26.7236V37H22.5569V31Z" fill="#F3962F"/>
<path d="M37.1403 37H35.0569C33.5292 37 32.2792 35.65 32.2792 34V22C32.2792 20.35 33.5292 19 35.0569 19H43.3903C44.918 19 46.168 20.35 46.168 22V34C46.168 35.65 44.918 37 43.3903 37H41.3069V41.5H37.1403V37Z" fill="#F3962F"/>
<rect x="36.4436" y="23.5" width="5.55556" height="9" fill="#EDF1F7"/>
</svg>
