<svg width="45" height="56" viewBox="0 0 45 56" fill="none" xmlns="http://www.w3.org/2000/svg">
<path d="M22.5 4C12.5743 4 4.5 11.536 4.5 20.8C4.5 26.512 7.56 31.528 12.2143 34.576V40C12.2143 41.32 13.3714 42.4 14.7857 42.4H30.2143C31.6286 42.4 32.7857 41.32 32.7857 40V34.576C37.44 31.528 40.5 26.512 40.5 20.8C40.5 11.536 32.4257 4 22.5 4ZM29.8286 30.64L27.6429 32.08V37.6H17.3571V32.08L15.1714 30.64C11.7 28.384 9.64286 24.712 9.64286 20.8C9.64286 14.176 15.4029 8.8 22.5 8.8C29.5971 8.8 35.3571 14.176 35.3571 20.8C35.3571 24.712 33.3 28.384 29.8286 30.64Z" fill="#1B4CA1"/>
<path d="M17.357 51.9992C15.9427 51.9992 14.7855 50.9192 14.7855 49.5992V47.1992H30.2141V49.5992C30.2141 50.9192 29.0569 51.9992 27.6427 51.9992H17.357Z" fill="#F3962F"/>
</svg>
