<svg width="45" height="48" viewBox="0 0 45 48" fill="none" xmlns="http://www.w3.org/2000/svg">
<path fill-rule="evenodd" clip-rule="evenodd" d="M17 42.6667C18.5125 42.6667 19.75 43.8667 19.75 45.3333L19.7314 45.6432C19.5718 46.9653 18.4045 48 17 48H3.25C1.7375 48 0.5 46.8 0.5 45.3333L0.51859 45.0235C0.678189 43.7014 1.84554 42.6667 3.25 42.6667H17ZM17 32C18.5125 32 19.75 33.2 19.75 34.6667L19.7314 34.9765C19.5718 36.2986 18.4045 37.3333 17 37.3333H3.25C1.7375 37.3333 0.5 36.1333 0.5 34.6667L0.51859 34.3568C0.678189 33.0347 1.84554 32 3.25 32H17ZM41.75 21.3333C43.2625 21.3333 44.5 22.5333 44.5 24L44.4814 24.3099C44.3218 25.632 43.1545 26.6667 41.75 26.6667H3.25C1.7375 26.6667 0.5 25.4667 0.5 24L0.51859 23.6901C0.678189 22.368 1.84554 21.3333 3.25 21.3333H41.75ZM41.75 10.6667C43.1545 10.6667 44.3218 11.7014 44.4814 13.0235L44.5 13.3333C44.5 14.8 43.2625 16 41.75 16H3.25C1.84554 16 0.678189 14.9653 0.51859 13.6432L0.5 13.3333C0.5 11.8667 1.7375 10.6667 3.25 10.6667H41.75ZM41.75 0C43.2625 0 44.5 1.2 44.5 2.66667L44.4814 2.97653C44.3218 4.29864 43.1545 5.33333 41.75 5.33333H3.25C1.7375 5.33333 0.5 4.13333 0.5 2.66667L0.51859 2.3568C0.678189 1.03469 1.84554 0 3.25 0H41.75Z" fill="#1B4CA1"/>
<path d="M42.5473 33.8933C41.4748 32.8533 39.7423 32.8533 38.6698 33.8933L31.8773 40.4533L29.9248 38.5599C28.9348 37.5999 27.3824 37.5261 26.3059 38.3384L26.0473 38.5599C24.9748 39.5999 24.9748 41.2799 26.0473 42.3199L29.9523 46.1066C31.0248 47.1466 32.7573 47.1466 33.8298 46.1066L42.5473 37.6533C43.5373 36.6933 43.6134 35.188 42.7758 34.1441L42.5473 33.8933Z" fill="#F3962F"/>
</svg>
