<svg width="49" height="48" viewBox="0 0 49 48" fill="none" xmlns="http://www.w3.org/2000/svg">
<path d="M45.637 15.4165L36.039 19.7438L29.827 13.7422V10.1362L36.039 4.1346L45.637 8.4619C46.6501 8.92554 47.8232 8.48766 48.3031 7.53462C48.783 6.55583 48.3297 5.42249 47.3433 4.95885L36.8922 0.245189C35.8791 -0.21845 34.6793 -0.0123877 33.8795 0.760344L29.2405 5.24219C28.7606 4.624 28.0141 4.21188 27.1609 4.21188C25.6946 4.21188 24.4948 5.37098 24.4948 6.78765V9.36342H16.0167C14.8969 6.37553 11.9642 4.21188 8.49828 4.21188C4.07257 4.21188 0.5 7.66341 0.5 11.9392C0.5 14.7725 2.09966 17.2195 4.44582 18.5847L11.3777 40.2727H8.49828C5.56558 40.2727 3.16609 42.5909 3.16609 45.4242V48H37.8253V45.4242C37.8253 42.5909 35.4258 40.2727 32.4931 40.2727H28.1741L14.9236 16.4983C15.3768 15.8801 15.7501 15.2362 16.0167 14.515H24.4948V17.0907C24.4948 18.5074 25.6946 19.6665 27.1609 19.6665C28.0141 19.6665 28.7606 19.2544 29.2405 18.6362L33.8795 23.118C34.6793 23.8908 35.8791 24.0968 36.8922 23.6332L47.3433 18.9195C48.3564 18.4559 48.783 17.3226 48.3031 16.3438C47.8232 15.3907 46.6501 14.9528 45.637 15.4165ZM8.49828 14.515C7.03193 14.515 5.83219 13.3559 5.83219 11.9392C5.83219 10.5225 7.03193 9.36342 8.49828 9.36342C9.96463 9.36342 11.1644 10.5225 11.1644 11.9392C11.1644 13.3559 9.96463 14.515 8.49828 14.515ZM22.122 40.2727H16.9498L10.3912 19.6665H10.6578L22.122 40.2727Z" fill="#1B4CA1"/>
<path d="M16.4966 11.9381C16.4966 16.2058 12.9156 19.6654 8.49828 19.6654C4.08095 19.6654 0.5 16.2058 0.5 11.9381C0.5 7.67041 4.08095 4.21077 8.49828 4.21077C12.9156 4.21077 16.4966 7.67041 16.4966 11.9381ZM5.88605 11.9381C5.88605 13.3319 7.05559 14.4618 8.49828 14.4618C9.94098 14.4618 11.1105 13.3319 11.1105 11.9381C11.1105 10.5443 9.94098 9.41435 8.49828 9.41435C7.05559 9.41435 5.88605 10.5443 5.88605 11.9381Z" fill="#F3962F"/>
</svg>
