<svg width="57" height="56" viewBox="0 0 57 56" fill="none" xmlns="http://www.w3.org/2000/svg">
<path d="M15.4101 22.7812H11.0465V37.39H15.4101V22.7812Z" fill="#F3962F"/>
<path d="M28.5 22.7812H24.1365V37.39H28.5V22.7812Z" fill="#F3962F"/>
<path d="M48.1357 14.4348L26.3178 4L4.5 14.4348V18.6087H48.1357V14.4348ZM14.2526 14.4348L26.3178 8.67478L38.3831 14.4348H14.2526Z" fill="#1B4CA1"/>
<path d="M4.5 41.5664V45.7403H31.5541C31.096 44.4047 30.856 43.0064 30.7687 41.5664H4.5Z" fill="#1B4CA1"/>
<path d="M41.59 27.4978V22.7812H37.2264V29.5847L41.59 27.4978Z" fill="#F3962F"/>
<path d="M43.7724 31.1289L35.0453 35.3028V40.6246C35.0453 45.8837 38.7761 50.8089 43.7724 51.9985C48.7687 50.8089 52.4996 45.8837 52.4996 40.6246V35.3028L43.7724 31.1289ZM42.2015 45.7376L37.7725 41.5011L40.0852 39.2889L42.2015 41.3133L47.4596 36.3463L49.7723 38.5585L42.2015 45.7376Z" fill="#F3962F"/>
</svg>
