<svg width="57" height="56" viewBox="0 0 57 56" fill="none" xmlns="http://www.w3.org/2000/svg">
<path d="M47.1667 4H9.83333C6.9 4 4.5 6.4 4.5 9.33333V46.6667C4.5 49.6 6.9 52 9.83333 52H47.1667C50.1 52 52.5 49.6 52.5 46.6667V9.33333C52.5 6.4 50.1 4 47.1667 4ZM47.1667 46.6667H9.83333V9.33333H47.1667V46.6667Z" fill="#1B4CA1"/>
<path d="M20.5009 28H15.1676V41.3333H20.5009V28Z" fill="#F3962F"/>
<path d="M41.8339 14.6675H36.5006V41.3342H41.8339V14.6675Z" fill="#F3962F"/>
<path d="M31.1665 33.3338H25.8331V41.3338H31.1665V33.3338Z" fill="#F3962F"/>
<path d="M31.1665 22.6662H25.8331V27.9996H31.1665V22.6662Z" fill="#F3962F"/>
</svg>
