
<svg width="40" height="40" viewBox="0 0 40 40" fill="none" xmlns="http://www.w3.org/2000/svg">
<g clip-path="url(#clip0_2417_28333)">
<path fill-rule="evenodd" clip-rule="evenodd" d="M26.6665 18.3333C29.4332 18.3333 31.6498 16.0999 31.6498 13.3333C31.6498 10.5666 29.4332 8.33325 26.6665 8.33325C23.8998 8.33325 21.6665 10.5666 21.6665 13.3333C21.6665 16.0999 23.8998 18.3333 26.6665 18.3333ZM26.6665 21.6666C26.1832 21.6666 25.6332 21.6999 25.0498 21.7499C25.0832 21.7666 25.0998 21.7999 25.1165 21.8166C27.0165 23.1999 28.3332 25.0499 28.3332 27.4999V29.9999C28.3332 30.5833 28.2165 31.1499 28.0332 31.6666H36.6665C37.5832 31.6666 38.3332 30.9166 38.3332 29.9999V27.4999C38.3332 23.6166 30.5498 21.6666 26.6665 21.6666Z" fill="white"/>
<path fill-rule="evenodd" clip-rule="evenodd" d="M13.3332 18.3333C16.0998 18.3333 18.3165 16.0999 18.3165 13.3333C18.3165 10.5666 16.0998 8.33325 13.3332 8.33325C10.5665 8.33325 8.33317 10.5666 8.33317 13.3333C8.33317 16.0999 10.5665 18.3333 13.3332 18.3333ZM13.3332 21.6666C9.44984 21.6666 1.6665 23.6166 1.6665 27.4999V29.9999C1.6665 30.9166 2.4165 31.6666 3.33317 31.6666H23.3332C24.2498 31.6666 24.9998 30.9166 24.9998 29.9999V27.4999C24.9998 23.6166 17.2165 21.6666 13.3332 21.6666Z" fill="white"/>
</g>
<defs>
<clipPath id="clip0_2417_28333">
<rect width="40" height="40" fill="white"/>
</clipPath>
</defs>
</svg>
