
<svg width="40" height="40" viewBox="0 0 40 40" fill="none" xmlns="http://www.w3.org/2000/svg">
<g clip-path="url(#clip0_2417_28347)">
<path fill-rule="evenodd" clip-rule="evenodd" d="M26.25 15C27.0086 15 27.4789 16.4077 28.1388 16.6797C28.3667 16.7736 28.6666 16.7636 28.9843 16.7274L29.4674 16.6633C29.9503 16.5991 30.4122 16.5636 30.6697 16.8196C31.1849 17.3315 30.527 18.6555 30.8099 19.3342C31.0836 19.99 32.5 20.4575 32.5 21.2114C32.5 21.9652 31.0836 22.4327 30.8099 23.0885C30.5263 23.7678 31.1842 25.0918 30.6691 25.6038C30.2879 25.9826 29.4593 25.7231 28.7775 25.6764L28.7775 34.4335C28.7789 34.6295 28.6783 34.8121 28.512 34.9154C28.3458 35.0188 28.1378 35.028 27.9631 34.9398L26.5027 34.2029C26.3434 34.1241 26.1566 34.1241 25.9973 34.2029L24.5369 34.9398C24.3622 35.028 24.1542 35.0188 23.988 34.9154C23.8217 34.8121 23.7211 34.6295 23.7225 34.4335L23.7235 25.676C23.0412 25.7221 22.2117 25.9822 21.8303 25.6031C21.3151 25.0912 21.973 23.7672 21.6901 23.0885C21.4164 22.4327 20 21.9652 20 21.2114C20 20.4575 21.4164 19.99 21.6901 19.3342C21.9737 18.6549 21.3158 17.3309 21.8309 16.8189C22.3461 16.307 23.6783 16.9608 24.3612 16.6797C25.0191 16.4077 25.4914 15 26.25 15ZM34.5833 5C35.5038 5 36.25 5.74619 36.25 6.66667V24.5833C36.25 25.5038 35.5038 26.25 34.5833 26.25H32.1867V23.5933L33.5417 23.5938V7.65625H6.45833V23.5938L20 23.5933V26.25H5.41667C4.49619 26.25 3.75 25.5038 3.75 24.5833V6.66667C3.75 5.74619 4.49619 5 5.41667 5H34.5833ZM26.25 18.75C24.8693 18.75 23.75 19.8693 23.75 21.25C23.75 22.6307 24.8693 23.75 26.25 23.75C27.6307 23.75 28.75 22.6307 28.75 21.25C28.75 19.8693 27.6307 18.75 26.25 18.75ZM12.125 19C12.6773 19 13.125 19.4477 13.125 20C13.125 20.5523 12.6773 21 12.125 21H9.75C9.19771 21 8.75 20.5523 8.75 20C8.75 19.4477 9.19771 19 9.75 19H12.125ZM16.5 14.5C17.0523 14.5 17.5 14.9477 17.5 15.5C17.5 16.0523 17.0523 16.5 16.5 16.5H9.75C9.19771 16.5 8.75 16.0523 8.75 15.5C8.75 14.9477 9.19771 14.5 9.75 14.5H16.5ZM21.5 10C22.0523 10 22.5 10.4477 22.5 11C22.5 11.5523 22.0523 12 21.5 12H9.75C9.19771 12 8.75 11.5523 8.75 11C8.75 10.4477 9.19771 10 9.75 10H21.5Z" fill="white"/>
</g>
<defs>
<clipPath id="clip0_2417_28347">
<rect width="40" height="40" fill="white"/>
</clipPath>
</defs>
</svg>
