
<svg width="40" height="40" viewBox="0 0 40 40" fill="none" xmlns="http://www.w3.org/2000/svg">
<path d="M26.4583 32.8333L20.5833 26.9583L22.3333 25.2083L26.4583 29.3333L35.3333 20.4583L37.0833 22.2083L26.4583 32.8333ZM17.0833 18.75C15.25 18.75 13.75 18.1667 12.5833 17C11.4167 15.8333 10.8333 14.3333 10.8333 12.5C10.8333 10.6667 11.4167 9.16667 12.5833 8C13.75 6.83333 15.25 6.25 17.0833 6.25C18.9167 6.25 20.4167 6.83333 21.5833 8C22.75 9.16667 23.3333 10.6667 23.3333 12.5C23.3333 14.3333 22.75 15.8333 21.5833 17C20.4167 18.1667 18.9167 18.75 17.0833 18.75ZM22.4167 22L17.25 27.375L22.0417 32.1667H3.75V28.25C3.75 27.3056 3.98611 26.4375 4.45833 25.6458C4.93056 24.8542 5.63889 24.25 6.58333 23.8333C8.58333 22.9444 10.4167 22.3056 12.0833 21.9167C13.75 21.5278 15.4167 21.3333 17.0833 21.3333C17.8889 21.3333 18.7431 21.3819 19.6458 21.4792C20.5486 21.5764 21.4722 21.75 22.4167 22Z" fill="white"/>
</svg>
