
<svg width="40" height="40" viewBox="0 0 40 40" fill="none" xmlns="http://www.w3.org/2000/svg">
<g clip-path="url(#clip0_2417_28355)">
<path d="M6.5 11C5.675 11 5 11.675 5 12.5V32C5 33.65 6.35 35 8 35H27.5C28.325 35 29 34.325 29 33.5C29 32.675 28.325 32 27.5 32H9.5C8.675 32 8 31.325 8 30.5V12.5C8 11.675 7.325 11 6.5 11ZM32 5H14C12.35 5 11 6.35 11 8V26C11 27.65 12.35 29 14 29H32C33.65 29 35 27.65 35 26V8C35 6.35 33.65 5 32 5ZM29 18.5H17C16.175 18.5 15.5 17.825 15.5 17C15.5 16.175 16.175 15.5 17 15.5H29C29.825 15.5 30.5 16.175 30.5 17C30.5 17.825 29.825 18.5 29 18.5ZM23 24.5H17C16.175 24.5 15.5 23.825 15.5 23C15.5 22.175 16.175 21.5 17 21.5H23C23.825 21.5 24.5 22.175 24.5 23C24.5 23.825 23.825 24.5 23 24.5ZM29 12.5H17C16.175 12.5 15.5 11.825 15.5 11C15.5 10.175 16.175 9.5 17 9.5H29C29.825 9.5 30.5 10.175 30.5 11C30.5 11.825 29.825 12.5 29 12.5Z" fill="white"/>
</g>
<defs>
<clipPath id="clip0_2417_28355">
<rect width="30" height="30" fill="white" transform="translate(5 5)"/>
</clipPath>
</defs>
</svg>
